<?xml version="1.0" encoding="utf-8"?>
<!-- Generator: Adobe Illustrator 25.3.1, SVG Export Plug-In . SVG Version: 6.00 Build 0)  -->
<svg version="1.1" id="svg1" xmlns="http://www.w3.org/2000/svg" xmlns:xlink="http://www.w3.org/1999/xlink" x="0px" y="0px"
	 viewBox="0 0 260.2 158.1" style="enable-background:new 0 0 260.2 158.1;" xml:space="preserve">
<style type="text/css">
	.st0{fill:none;}
	.st1{fill:none;stroke:#000000;stroke-width:0.25;stroke-miterlimit:10;}
	.st2{font-family:'Cambria';}
	.st3{font-size:6px;}
</style>
<path id="path48" d="M91.3,65.8c0,0.4-0.3,0.8-0.7,0.9c-0.4,0-0.8-0.3-0.9-0.7c0-0.1,0-0.1,0-0.2c0-0.4,0.3-0.8,0.7-0.9
	c0.4,0,0.8,0.3,0.9,0.7C91.3,65.7,91.3,65.7,91.3,65.8z"/>
<path id="path49" d="M91.3,69.9c0,0.4-0.4,0.7-0.9,0.7c-0.4,0-0.7-0.3-0.7-0.7c0-0.4,0.3-0.8,0.7-0.9c0.4,0,0.8,0.3,0.9,0.7
	C91.3,69.8,91.3,69.9,91.3,69.9z"/>
<path id="path50" d="M91.3,74.1c0,0.4-0.4,0.8-0.8,0.8s-0.8-0.4-0.8-0.8s0.4-0.8,0.8-0.8S91.3,73.7,91.3,74.1L91.3,74.1z"/>
<image style="overflow:visible;enable-background:new    ;" width="419" height="420" xlink:href="5E4120B8.png"  transform="matrix(0.12 0 0 0.12 65.99 0.61)">
</image>
<image style="overflow:visible;enable-background:new    ;" width="420" height="435" xlink:href="5E4120B9.png"  transform="matrix(0.12 0 0 0.12 66.7 90.8)">
</image>
<image style="overflow:visible;enable-background:new    ;" width="433" height="432" id="image141" xlink:href="5E4120BF.png"  transform="matrix(0.1192 0 0 0.1192 135.5204 45.3)">
</image>
<image style="overflow:visible;enable-background:new    ;" width="419" height="422" xlink:href="5E4120BA.png"  transform="matrix(0.12 0 0 0.12 0 0)">
</image>
<image style="overflow:visible;enable-background:new    ;" width="420" height="423" xlink:href="5E4120BB.png"  transform="matrix(0.12 0 0 0.12 0.45 90.84)">
</image>
<path id="path48-2" d="M25.1,65.8c0,0.4-0.4,0.8-0.8,0.8s-0.8-0.4-0.8-0.8s0.4-0.8,0.8-0.8S25.1,65.3,25.1,65.8L25.1,65.8z"/>
<path id="path49-2" d="M25.1,69.9c0,0.4-0.4,0.8-0.8,0.8s-0.8-0.4-0.8-0.8s0.4-0.8,0.8-0.8S25.1,69.5,25.1,69.9L25.1,69.9z"/>
<path id="path50-2" d="M25.1,74.1c0,0.4-0.4,0.8-0.8,0.8s-0.8-0.4-0.8-0.8l0,0c0-0.4,0.4-0.8,0.8-0.8C24.7,73.3,25.1,73.7,25.1,74.1
	L25.1,74.1z"/>
<line class="st0" x1="52.1" y1="25.3" x2="61.7" y2="25.3"/>
<line class="st1" x1="52.1" y1="25.3" x2="60.4" y2="25.3"/>
<polygon points="61.7,25.3 59.9,26 60.3,25.3 59.9,24.6 "/>
<line class="st0" x1="52.1" y1="115.4" x2="61.7" y2="115.4"/>
<line class="st1" x1="52.1" y1="115.4" x2="60.4" y2="115.4"/>
<polygon points="61.7,115.4 59.9,116.1 60.3,115.4 59.9,114.7 "/>
<line class="st0" x1="122.1" y1="44.8" x2="128.9" y2="51.5"/>
<line class="st1" x1="122.1" y1="44.8" x2="128" y2="50.7"/>
<polygon points="128.9,51.5 127.2,50.8 128,50.6 128.2,49.8 "/>
<line class="st0" x1="122.1" y1="99.9" x2="128.9" y2="93.1"/>
<line class="st1" x1="122.1" y1="99.9" x2="128" y2="94"/>
<polygon points="128.9,93.1 128.2,94.8 128,94.1 127.2,93.8 "/>
<line class="st1" x1="195.1" y1="70.6" x2="219.3" y2="70.6"/>
<polygon points="220.5,70.6 218.8,71.3 219.2,70.6 218.8,69.8 "/>
<rect x="45.3" y="143.5" class="st0" width="51.7" height="14.4"/>
<text transform="matrix(1 0 0 1 45.261 148.5414)"><tspan x="0" y="0" class="st2 st3">Morphing to</tspan><tspan x="0" y="7.2" class="st2 st3">common shape</tspan></text>
<rect x="122.4" y="103.8" class="st0" width="52.9" height="14.3"/>
<text transform="matrix(1 0 0 1 122.4455 108.8478)"><tspan x="0" y="0" class="st2 st3">FE interpolation</tspan><tspan x="0" y="7.2" class="st2 st3">on common mesh</tspan></text>
<rect x="194.1" y="71.5" class="st0" width="26.1" height="5.9"/>
<text transform="matrix(1 0 0 1 194.1418 76.5149)" class="st2 st3">Flattening</text>
<rect x="227.9" y="63.4" class="st0" width="29.4" height="15.3"/>
<text transform="matrix(1 0 0 1 227.8638 68.4148)"><tspan x="0" y="0" class="st2 st3">shape</tspan><tspan x="0" y="7.2" class="st2 st3">embedding</tspan></text>
</svg>
