<?xml version="1.0" encoding="utf-8"?>
<!-- Generator: Adobe Illustrator 25.3.1, SVG Export Plug-In . SVG Version: 6.00 Build 0)  -->
<svg version="1.1" id="svg1" xmlns="http://www.w3.org/2000/svg" xmlns:xlink="http://www.w3.org/1999/xlink" x="0px" y="0px"
	 viewBox="0 0 85.5 83.9" style="enable-background:new 0 0 85.5 83.9;" xml:space="preserve">
<style type="text/css">
	.st0{fill:#AA0000;}
	.st1{fill:none;stroke:#000000;stroke-width:0.5;stroke-miterlimit:10;}
	.st2{fill:none;stroke:#FF4848;stroke-width:0.5;stroke-miterlimit:10;}
	.st3{fill:#FF4848;}
</style>
<circle cx="3.3" cy="18.7" r="3.3"/>
<circle cx="66.2" cy="15.4" r="3.3"/>
<circle cx="48.1" cy="51.4" r="3.3"/>
<circle cx="77.3" cy="43.1" r="3.3"/>
<circle cx="17.6" cy="48" r="3.3"/>
<circle cx="46.8" cy="80.6" r="3.3"/>
<circle cx="82.2" cy="80.6" r="3.3"/>
<circle cx="23.1" cy="74" r="3.3"/>
<circle cx="25.2" cy="3.3" r="3.3"/>
<circle class="st0" cx="44.8" cy="25.3" r="3.3"/>
<line class="st1" x1="25.2" y1="3.3" x2="3.3" y2="18.7"/>
<polyline class="st1" points="46.8,80.6 82.2,80.6 48.1,51.4 17.6,48 23.1,74 48.1,51.4 46.8,80.6 23.1,74 17.6,48 3.3,18.7 "/>
<path class="st1" d="M17.6,48"/>
<polyline class="st1" points="82.2,80.6 77.3,43.1 48.1,51.4 "/>
<line class="st1" x1="66.2" y1="15.4" x2="77.3" y2="43.1"/>
<line class="st1" x1="25.2" y1="3.3" x2="66.2" y2="15.4"/>
<g>
	<g>
		<line class="st2" x1="20.2" y1="45.9" x2="40.9" y2="28.6"/>
		<g>
			<polygon class="st3" points="42.3,27.5 41,29.8 40.8,28.7 39.7,28.3 			"/>
		</g>
	</g>
</g>
<g>
	<g>
		<line class="st2" x1="47.7" y1="48.1" x2="45.4" y2="30.4"/>
		<g>
			<polygon class="st3" points="45.2,28.6 46.5,31 45.5,30.5 44.5,31.2 			"/>
		</g>
	</g>
</g>
<g>
	<g>
		<line class="st2" x1="74.3" y1="41.5" x2="49.3" y2="27.8"/>
		<g>
			<polygon class="st3" points="47.7,26.9 50.4,27.2 49.4,27.8 49.4,29 			"/>
		</g>
	</g>
</g>
<g>
	<g>
		<line class="st2" x1="63.2" y1="16.8" x2="49.4" y2="23.2"/>
		<g>
			<polygon class="st3" points="47.8,23.9 49.6,22 49.5,23.1 50.5,23.8 			"/>
		</g>
	</g>
</g>
<g>
	<g>
		<line class="st2" x1="27.4" y1="5.8" x2="41.4" y2="21.5"/>
		<g>
			<polygon class="st3" points="42.6,22.9 40.2,21.7 41.3,21.4 41.7,20.3 			"/>
		</g>
	</g>
</g>
<g>
	<g>
		<line class="st2" x1="6.7" y1="19.2" x2="39.7" y2="24.5"/>
		<g>
			<polygon class="st3" points="41.5,24.8 38.9,25.4 39.6,24.5 39.2,23.4 			"/>
		</g>
	</g>
</g>
</svg>
