<svg id="Calque_1" data-name="Calque 1" xmlns="http://www.w3.org/2000/svg" xmlns:xlink="http://www.w3.org/1999/xlink" viewBox="0 0 564.97 420.04"><defs><clipPath id="clip-path"><rect x="66.12" y="8.66" width="491.65" height="368" style="fill:none"/></clipPath><clipPath id="clip-path-19"><rect x="79.47" y="350.94" width="18" height="18" style="fill:none"/></clipPath><clipPath id="clip-path-20"><rect x="109.27" y="334.07" width="18" height="18" style="fill:none"/></clipPath><clipPath id="clip-path-21"><rect x="168.86" y="321.75" width="18" height="18" style="fill:none"/></clipPath><clipPath id="clip-path-22"><rect x="288.05" y="277.14" width="18" height="18" style="fill:none"/></clipPath><clipPath id="clip-path-23"><rect x="526.42" y="218.37" width="18" height="18" style="fill:none"/></clipPath><clipPath id="clip-path-25"><rect x="79.47" y="332.08" width="18" height="18" style="fill:none"/></clipPath><clipPath id="clip-path-26"><rect x="109.27" y="299.1" width="18" height="18" style="fill:none"/></clipPath><clipPath id="clip-path-27"><rect x="168.86" y="261.93" width="18" height="18" style="fill:none"/></clipPath><clipPath id="clip-path-28"><rect x="288.05" y="159.61" width="18" height="18" style="fill:none"/></clipPath><clipPath id="clip-path-29"><rect x="526.42" y="16.39" width="18" height="18" style="fill:none"/></clipPath></defs><rect width="564.97" height="420.04" style="fill:#fff"/><rect x="66.12" y="8.66" width="491.65" height="368" style="fill:#fff"/><g style="clip-path:url(#clip-path)"><line x1="118.27" y1="376.66" x2="118.27" y2="8.66" style="fill:none;stroke:#b0b0b0;stroke-linecap:square;stroke-linejoin:round;stroke-width:0.800000011920929px;opacity:0.30000001192092896"/></g><line x1="118.27" y1="376.66" x2="118.27" y2="380.16"/><line x1="118.27" y1="376.66" x2="118.27" y2="380.16" style="fill:none;stroke:#000;stroke-linejoin:round;stroke-width:0.800000011920929px"/><path d="M112.16,386.13h-.66v-1.56a6.12,6.12,0,0,1,1.26-.5,4.55,4.55,0,0,1,1.25-.18,3.28,3.28,0,0,1,2.16.66,2.21,2.21,0,0,1,.79,1.8c0,.86-.6,1.88-1.8,3.07l-.2.2-2.21,2.21h3.65v-1.08h.68v2h-5.64v-.64l2.65-2.65a6.34,6.34,0,0,0,1.25-1.61,3.35,3.35,0,0,0,.39-1.54,1.94,1.94,0,0,0-.47-1.38,1.62,1.62,0,0,0-1.26-.51,1.88,1.88,0,0,0-1.3.42A1.84,1.84,0,0,0,112.16,386.13Z"/><path d="M122.07,393a2.54,2.54,0,0,1-2.23-1.19,7.43,7.43,0,0,1,0-6.67,2.66,2.66,0,0,1,4.45,0,7.27,7.27,0,0,1,0,6.67A2.52,2.52,0,0,1,122.07,393Zm0-.57a1.43,1.43,0,0,0,1.35-1,10.28,10.28,0,0,0,0-5.95,1.46,1.46,0,0,0-1.35-1,1.44,1.44,0,0,0-1.34,1,10.28,10.28,0,0,0,0,5.95A1.41,1.41,0,0,0,122.07,392.38Z"/><g style="clip-path:url(#clip-path)"><line x1="177.86" y1="376.66" x2="177.86" y2="8.66" style="fill:none;stroke:#b0b0b0;stroke-linecap:square;stroke-linejoin:round;stroke-width:0.800000011920929px;opacity:0.30000001192092896"/></g><line x1="177.86" y1="376.66" x2="177.86" y2="380.16"/><line x1="177.86" y1="376.66" x2="177.86" y2="380.16" style="fill:none;stroke:#000;stroke-linejoin:round;stroke-width:0.800000011920929px"/><path d="M177,392.79h-4v-.62h1.41v-1.72h-3.82v-.64l3.83-5.92h1.16v5.94h1.67v.62h-1.67v1.72H177Zm-2.58-3v-4.66l-3,4.66Z"/><path d="M181.67,393a2.52,2.52,0,0,1-2.23-1.19,7.35,7.35,0,0,1,0-6.67,2.66,2.66,0,0,1,4.45,0,7.35,7.35,0,0,1,0,6.67A2.53,2.53,0,0,1,181.67,393Zm0-.57a1.42,1.42,0,0,0,1.34-1,10.06,10.06,0,0,0,0-5.95,1.41,1.41,0,0,0-2.69,0,10.28,10.28,0,0,0,0,5.95A1.43,1.43,0,0,0,181.67,392.38Z"/><g style="clip-path:url(#clip-path)"><line x1="237.45" y1="376.66" x2="237.45" y2="8.66" style="fill:none;stroke:#b0b0b0;stroke-linecap:square;stroke-linejoin:round;stroke-width:0.800000011920929px;opacity:0.30000001192092896"/></g><line x1="237.45" y1="376.66" x2="237.45" y2="380.16"/><line x1="237.45" y1="376.66" x2="237.45" y2="380.16" style="fill:none;stroke:#000;stroke-linejoin:round;stroke-width:0.800000011920929px"/><path d="M231.83,388a2.5,2.5,0,0,1,.9-.66,3.08,3.08,0,0,1,3.2.57,3,3,0,0,1,.76,2.14,2.82,2.82,0,0,1-.82,2.12,3,3,0,0,1-2.18.8,2.64,2.64,0,0,1-2.28-1.1,5.31,5.31,0,0,1-.79-3.15,5.88,5.88,0,0,1,.93-3.55,3.14,3.14,0,0,1,2.67-1.26,6.67,6.67,0,0,1,1,.08,7.19,7.19,0,0,1,1,.26v1.44h-.66a1.35,1.35,0,0,0-.45-.9,1.59,1.59,0,0,0-1-.31,1.9,1.9,0,0,0-1.71.87A5,5,0,0,0,231.83,388Zm1.91,4.4a1.47,1.47,0,0,0,1.27-.6,3.68,3.68,0,0,0,0-3.49,1.47,1.47,0,0,0-1.27-.61,1.51,1.51,0,0,0-1.29.59A2.89,2.89,0,0,0,232,390a3.07,3.07,0,0,0,.45,1.8A1.43,1.43,0,0,0,233.74,392.38Z"/><path d="M241.26,393a2.54,2.54,0,0,1-2.23-1.19,7.43,7.43,0,0,1,0-6.67,2.66,2.66,0,0,1,4.45,0,7.27,7.27,0,0,1,0,6.67A2.53,2.53,0,0,1,241.26,393Zm0-.57a1.43,1.43,0,0,0,1.35-1,10.28,10.28,0,0,0,0-5.95,1.46,1.46,0,0,0-1.35-1,1.44,1.44,0,0,0-1.34,1,10.06,10.06,0,0,0,0,5.95A1.41,1.41,0,0,0,241.26,392.38Z"/><g style="clip-path:url(#clip-path)"><line x1="297.05" y1="376.66" x2="297.05" y2="8.66" style="fill:none;stroke:#b0b0b0;stroke-linecap:square;stroke-linejoin:round;stroke-width:0.800000011920929px;opacity:0.30000001192092896"/></g><line x1="297.05" y1="376.66" x2="297.05" y2="380.16"/><line x1="297.05" y1="376.66" x2="297.05" y2="380.16" style="fill:none;stroke:#000;stroke-linejoin:round;stroke-width:0.800000011920929px"/><path d="M294.12,388.13a2.55,2.55,0,0,1,1.55.74,2.18,2.18,0,0,1,.57,1.53,2.37,2.37,0,0,1-.78,1.89,3.42,3.42,0,0,1-2.24.66,3.35,3.35,0,0,1-2.23-.66,2.31,2.31,0,0,1-.78-1.89,2.16,2.16,0,0,1,.55-1.53,2.58,2.58,0,0,1,1.56-.74,2.15,2.15,0,0,1-1.35-.67,1.86,1.86,0,0,1-.47-1.31,2.06,2.06,0,0,1,.72-1.65,3.58,3.58,0,0,1,4,0,2.07,2.07,0,0,1,.73,1.65,1.87,1.87,0,0,1-.48,1.31A2.2,2.2,0,0,1,294.12,388.13Zm.64-2a1.8,1.8,0,0,0-.41-1.24,1.48,1.48,0,0,0-1.13-.45,1.44,1.44,0,0,0-1.12.45,1.75,1.75,0,0,0-.41,1.24,1.73,1.73,0,0,0,.41,1.25,1.41,1.41,0,0,0,1.12.45,1.45,1.45,0,0,0,1.13-.45A1.78,1.78,0,0,0,294.76,386.15Zm.24,4.25a2.11,2.11,0,0,0-.47-1.45,1.67,1.67,0,0,0-1.31-.53,1.64,1.64,0,0,0-1.3.53,2.06,2.06,0,0,0-.47,1.45,2.1,2.1,0,0,0,.47,1.47,1.67,1.67,0,0,0,1.3.51,1.69,1.69,0,0,0,1.31-.51A2.14,2.14,0,0,0,295,390.4Z"/><path d="M300.86,393a2.55,2.55,0,0,1-2.24-1.19,7.43,7.43,0,0,1,0-6.67,2.67,2.67,0,0,1,4.46,0,7.35,7.35,0,0,1,0,6.67A2.54,2.54,0,0,1,300.86,393Zm0-.57a1.42,1.42,0,0,0,1.34-1,10.28,10.28,0,0,0,0-5.95,1.41,1.41,0,0,0-2.69,0,10.28,10.28,0,0,0,0,5.95A1.43,1.43,0,0,0,300.86,392.38Z"/><g style="clip-path:url(#clip-path)"><line x1="356.64" y1="376.66" x2="356.64" y2="8.66" style="fill:none;stroke:#b0b0b0;stroke-linecap:square;stroke-linejoin:round;stroke-width:0.800000011920929px;opacity:0.30000001192092896"/></g><line x1="356.64" y1="376.66" x2="356.64" y2="380.16"/><line x1="356.64" y1="376.66" x2="356.64" y2="380.16" style="fill:none;stroke:#000;stroke-linejoin:round;stroke-width:0.800000011920929px"/><polygon points="346.88 392.79 346.88 392.17 348.41 392.17 348.41 384.89 346.64 386.03 346.64 385.26 348.78 383.88 349.58 383.88 349.58 392.17 351.11 392.17 351.11 392.79 346.88 392.79"/><path d="M356.63,393a2.54,2.54,0,0,1-2.23-1.19,7.43,7.43,0,0,1,0-6.67,2.66,2.66,0,0,1,4.45,0,7.35,7.35,0,0,1,0,6.67A2.53,2.53,0,0,1,356.63,393Zm0-.57a1.42,1.42,0,0,0,1.34-1,10.06,10.06,0,0,0,0-5.95,1.45,1.45,0,0,0-1.34-1,1.43,1.43,0,0,0-1.34,1,10.06,10.06,0,0,0,0,5.95A1.4,1.4,0,0,0,356.63,392.38Z"/><path d="M364.26,393a2.54,2.54,0,0,1-2.23-1.19,7.43,7.43,0,0,1,0-6.67,2.66,2.66,0,0,1,4.45,0,7.27,7.27,0,0,1,0,6.67A2.53,2.53,0,0,1,364.26,393Zm0-.57a1.43,1.43,0,0,0,1.35-1,10.28,10.28,0,0,0,0-5.95,1.46,1.46,0,0,0-1.35-1,1.44,1.44,0,0,0-1.34,1,10.06,10.06,0,0,0,0,5.95A1.41,1.41,0,0,0,364.26,392.38Z"/><g style="clip-path:url(#clip-path)"><line x1="416.24" y1="376.66" x2="416.24" y2="8.66" style="fill:none;stroke:#b0b0b0;stroke-linecap:square;stroke-linejoin:round;stroke-width:0.800000011920929px;opacity:0.30000001192092896"/></g><line x1="416.24" y1="376.66" x2="416.24" y2="380.16"/><line x1="416.24" y1="376.66" x2="416.24" y2="380.16" style="fill:none;stroke:#000;stroke-linejoin:round;stroke-width:0.800000011920929px"/><polygon points="406.48 392.79 406.48 392.17 408 392.17 408 384.89 406.24 386.03 406.24 385.26 408.38 383.88 409.18 383.88 409.18 392.17 410.7 392.17 410.7 392.79 406.48 392.79"/><path d="M413.94,386.13h-.66v-1.56a6.12,6.12,0,0,1,1.26-.5,4.55,4.55,0,0,1,1.25-.18,3.28,3.28,0,0,1,2.16.66,2.21,2.21,0,0,1,.79,1.8c0,.86-.6,1.88-1.8,3.07l-.2.2-2.21,2.21h3.65v-1.08h.68v2h-5.64v-.64l2.66-2.65a6.51,6.51,0,0,0,1.24-1.61,3.23,3.23,0,0,0,.39-1.54A1.94,1.94,0,0,0,417,385a1.62,1.62,0,0,0-1.26-.51,1.9,1.9,0,0,0-1.3.42A1.84,1.84,0,0,0,413.94,386.13Z"/><path d="M423.86,393a2.55,2.55,0,0,1-2.24-1.19,7.43,7.43,0,0,1,0-6.67,2.67,2.67,0,0,1,4.46,0,7.35,7.35,0,0,1,0,6.67A2.54,2.54,0,0,1,423.86,393Zm0-.57a1.42,1.42,0,0,0,1.34-1,10.28,10.28,0,0,0,0-5.95,1.41,1.41,0,0,0-2.69,0,10.28,10.28,0,0,0,0,5.95A1.43,1.43,0,0,0,423.86,392.38Z"/><g style="clip-path:url(#clip-path)"><line x1="475.83" y1="376.66" x2="475.83" y2="8.66" style="fill:none;stroke:#b0b0b0;stroke-linecap:square;stroke-linejoin:round;stroke-width:0.800000011920929px;opacity:0.30000001192092896"/></g><line x1="475.83" y1="376.66" x2="475.83" y2="380.16"/><line x1="475.83" y1="376.66" x2="475.83" y2="380.16" style="fill:none;stroke:#000;stroke-linejoin:round;stroke-width:0.800000011920929px"/><polygon points="466.07 392.79 466.07 392.17 467.6 392.17 467.6 384.89 465.83 386.03 465.83 385.26 467.97 383.88 468.77 383.88 468.77 392.17 470.3 392.17 470.3 392.79 466.07 392.79"/><path d="M478.77,392.79h-4v-.62h1.4v-1.72h-3.82v-.64l3.83-5.92h1.17v5.94H479v.62h-1.66v1.72h1.4Zm-2.58-3v-4.66l-3,4.66Z"/><path d="M483.45,393a2.54,2.54,0,0,1-2.23-1.19,7.43,7.43,0,0,1,0-6.67,2.66,2.66,0,0,1,4.45,0,7.35,7.35,0,0,1,0,6.67A2.53,2.53,0,0,1,483.45,393Zm0-.57a1.42,1.42,0,0,0,1.34-1,10.06,10.06,0,0,0,0-5.95,1.45,1.45,0,0,0-1.34-1,1.43,1.43,0,0,0-1.34,1,10.06,10.06,0,0,0,0,5.95A1.4,1.4,0,0,0,483.45,392.38Z"/><g style="clip-path:url(#clip-path)"><line x1="535.42" y1="376.66" x2="535.42" y2="8.66" style="fill:none;stroke:#b0b0b0;stroke-linecap:square;stroke-linejoin:round;stroke-width:0.800000011920929px;opacity:0.30000001192092896"/></g><line x1="535.42" y1="376.66" x2="535.42" y2="380.16"/><line x1="535.42" y1="376.66" x2="535.42" y2="380.16" style="fill:none;stroke:#000;stroke-linejoin:round;stroke-width:0.800000011920929px"/><polygon points="525.67 392.79 525.67 392.17 527.19 392.17 527.19 384.89 525.43 386.03 525.43 385.26 527.56 383.88 528.37 383.88 528.37 392.17 529.89 392.17 529.89 392.79 525.67 392.79"/><path d="M533.61,388a2.68,2.68,0,0,1,.9-.66,3.09,3.09,0,0,1,3.21.57,3,3,0,0,1,.75,2.14,2.81,2.81,0,0,1-.81,2.12,3,3,0,0,1-2.19.8,2.64,2.64,0,0,1-2.28-1.1,5.31,5.31,0,0,1-.79-3.15,5.81,5.81,0,0,1,.94-3.55,3.11,3.11,0,0,1,2.66-1.26,6.56,6.56,0,0,1,1,.08,7.31,7.31,0,0,1,1,.26v1.44h-.66a1.4,1.4,0,0,0-.46-.9,1.59,1.59,0,0,0-1-.31,1.87,1.87,0,0,0-1.7.87A4.87,4.87,0,0,0,533.61,388Zm1.91,4.4a1.47,1.47,0,0,0,1.27-.6,3.61,3.61,0,0,0,0-3.49,1.47,1.47,0,0,0-1.27-.61,1.49,1.49,0,0,0-1.28.59,2.81,2.81,0,0,0-.44,1.69,3.07,3.07,0,0,0,.45,1.8A1.45,1.45,0,0,0,535.52,392.38Z"/><path d="M543,393a2.54,2.54,0,0,1-2.23-1.19,7.43,7.43,0,0,1,0-6.67,2.66,2.66,0,0,1,4.45,0,7.27,7.27,0,0,1,0,6.67A2.52,2.52,0,0,1,543,393Zm0-.57a1.43,1.43,0,0,0,1.35-1,10.28,10.28,0,0,0,0-5.95,1.46,1.46,0,0,0-1.35-1,1.44,1.44,0,0,0-1.34,1,10.28,10.28,0,0,0,0,5.95A1.41,1.41,0,0,0,543,392.38Z"/><path d="M275.81,409.93v-.73h1.3v-8.75h-1.3v-.73h4.83a3.58,3.58,0,0,1,2.42.79,2.88,2.88,0,0,1,0,4.18,3.57,3.57,0,0,1-2.42.77H278.5v3.74h1.58v.73Zm2.69-5.19h1.8a2.13,2.13,0,0,0,1.56-.55,2.22,2.22,0,0,0,.53-1.6,2.19,2.19,0,0,0-.53-1.59,2.09,2.09,0,0,0-1.56-.55h-1.8Z"/><path d="M290.67,405.39v3.81h1.12v.73h-2.38v-.78a2.65,2.65,0,0,1-1,.74,3.51,3.51,0,0,1-1.27.22,2.8,2.8,0,0,1-1.93-.63,2.18,2.18,0,0,1-.7-1.73,2,2,0,0,1,.81-1.74,3.64,3.64,0,0,1,2.3-.63h1.76v-.5a1.66,1.66,0,0,0-.5-1.28,2,2,0,0,0-1.42-.46,2,2,0,0,0-1.19.35,1.44,1.44,0,0,0-.56,1h-.64V403a8.2,8.2,0,0,1,1.27-.42,5.62,5.62,0,0,1,1.21-.14,3.21,3.21,0,0,1,2.29.75A2.85,2.85,0,0,1,290.67,405.39Zm-1.26,2.26v-1.54h-1.62a2.11,2.11,0,0,0-1.4.4,1.86,1.86,0,0,0,0,2.44,1.94,1.94,0,0,0,2.52,0A1.72,1.72,0,0,0,289.41,407.65Z"/><path d="M293.69,403.39h-1.1v-.73h1.1v-2.25H295v2.25h2.37v.73H295V408a2.3,2.3,0,0,0,.19,1.19.72.72,0,0,0,.65.25.85.85,0,0,0,.72-.29,1.78,1.78,0,0,0,.24-.94h.95a2,2,0,0,1-.55,1.44,2.09,2.09,0,0,1-1.47.45,2.13,2.13,0,0,1-1.54-.47,2.29,2.29,0,0,1-.45-1.63Z"/><path d="M305,407.75a2.81,2.81,0,0,1-3,2.36,3.25,3.25,0,0,1-2.54-1,4.47,4.47,0,0,1,0-5.56,3.27,3.27,0,0,1,2.54-1,5.54,5.54,0,0,1,1.38.17,8,8,0,0,1,1.37.47V405H304a2.29,2.29,0,0,0-.63-1.38,1.93,1.93,0,0,0-1.37-.45,1.7,1.7,0,0,0-1.54.8,5.64,5.64,0,0,0,0,4.73,1.68,1.68,0,0,0,1.54.78,1.93,1.93,0,0,0,1.29-.42,2.34,2.34,0,0,0,.67-1.28Z"/><path d="M306.22,409.93v-.73h1.14V400h-1.21v-.73h2.47V404a2.74,2.74,0,0,1,.89-1.1,2.55,2.55,0,0,1,3.07.3,3.38,3.38,0,0,1,.57,2.16v3.89h1.12v.73H310.8v-.73h1.09v-3.5a3.56,3.56,0,0,0-.33-1.82,1.31,1.31,0,0,0-1.15-.49,1.56,1.56,0,0,0-1.34.65,3.07,3.07,0,0,0-.45,1.84v3.32h1.09v.73Z"/><path d="M320.42,409.44v-2.32h.78a2.19,2.19,0,0,0,.68,1.72,2.83,2.83,0,0,0,1.94.56,3,3,0,0,0,1.85-.48,1.68,1.68,0,0,0,.64-1.41,1.62,1.62,0,0,0-.39-1.14,4.38,4.38,0,0,0-1.62-.77l-1.35-.4a4.46,4.46,0,0,1-2.07-1.11,2.6,2.6,0,0,1-.59-1.82,2.37,2.37,0,0,1,.93-2,4.09,4.09,0,0,1,2.59-.72,9,9,0,0,1,1.55.16c.56.11,1.16.25,1.81.44v2.17h-.77a2.21,2.21,0,0,0-.73-1.55,2.94,2.94,0,0,0-1.83-.49,2.63,2.63,0,0,0-1.66.45,1.52,1.52,0,0,0-.56,1.27,1.55,1.55,0,0,0,.42,1.15,4.62,4.62,0,0,0,1.81.83l1.26.37a4.45,4.45,0,0,1,2,1.07,2.45,2.45,0,0,1,.61,1.73,2.65,2.65,0,0,1-1,2.23,4.52,4.52,0,0,1-2.82.74,8.67,8.67,0,0,1-1.73-.17A7.91,7.91,0,0,1,320.42,409.44Z"/><path d="M331.68,409.2h1.19v.73h-3.66v-.73h1.21v-5.81h-1.21v-.73h2.47Zm-1.61-8.79a.77.77,0,0,1,.78-.78.74.74,0,0,1,.53.23.75.75,0,0,1,.24.55.76.76,0,0,1-.22.55.77.77,0,0,1-.55.22.76.76,0,0,1-.56-.22A.72.72,0,0,1,330.07,400.41Z"/><polygon points="333.75 409.93 333.75 409.34 338.3 403.39 334.7 403.39 334.7 404.65 333.97 404.65 333.97 402.66 339.92 402.66 339.92 403.25 335.37 409.2 339.32 409.2 339.32 407.89 340.05 407.89 340.05 409.93 333.75 409.93"/><path d="M346.67,405.7a3.29,3.29,0,0,0-.55-1.92,1.68,1.68,0,0,0-1.41-.64,1.61,1.61,0,0,0-1.37.66,3.5,3.5,0,0,0-.6,1.9Zm1.48.73h-5.41v.06a3.79,3.79,0,0,0,.54,2.22,1.87,1.87,0,0,0,1.64.74,2.11,2.11,0,0,0,1.36-.43,2.27,2.27,0,0,0,.74-1.29h1a3.06,3.06,0,0,1-1.11,1.79,3.51,3.51,0,0,1-2.13.59,3.31,3.31,0,0,1-2.56-1,4,4,0,0,1-1-2.79,3.89,3.89,0,0,1,1-2.77,3.56,3.56,0,0,1,5,0A4.43,4.43,0,0,1,348.15,406.43Z"/><g style="clip-path:url(#clip-path)"><line x1="66.12" y1="374.07" x2="557.77" y2="374.07" style="fill:none;stroke:#b0b0b0;stroke-linecap:square;stroke-linejoin:round;stroke-width:0.800000011920929px;opacity:0.30000001192092896"/></g><line x1="66.12" y1="374.07" x2="62.62" y2="374.07"/><line x1="66.12" y1="374.07" x2="62.62" y2="374.07" style="fill:none;stroke:#000;stroke-linejoin:round;stroke-width:0.800000011920929px"/><path d="M28.56,378.79a2.54,2.54,0,0,1-2.23-1.19,7.43,7.43,0,0,1,0-6.67,2.66,2.66,0,0,1,4.45,0,7.27,7.27,0,0,1,0,6.67A2.53,2.53,0,0,1,28.56,378.79Zm0-.57a1.43,1.43,0,0,0,1.35-1,10.28,10.28,0,0,0,0-5.95,1.46,1.46,0,0,0-1.35-1,1.44,1.44,0,0,0-1.34,1,10.06,10.06,0,0,0,0,5.95A1.41,1.41,0,0,0,28.56,378.22Z"/><path d="M33.51,378a.75.75,0,0,1,.78-.78.78.78,0,0,1,.55,1.33.82.82,0,0,1-1.12,0A.74.74,0,0,1,33.51,378Z"/><path d="M40,378.79a2.54,2.54,0,0,1-2.23-1.19,7.43,7.43,0,0,1,0-6.67,2.66,2.66,0,0,1,4.45,0,7.35,7.35,0,0,1,0,6.67A2.53,2.53,0,0,1,40,378.79Zm0-.57a1.42,1.42,0,0,0,1.34-1,10.06,10.06,0,0,0,0-5.95,1.45,1.45,0,0,0-1.34-1,1.43,1.43,0,0,0-1.34,1,10.06,10.06,0,0,0,0,5.95A1.4,1.4,0,0,0,40,378.22Z"/><polygon points="45.53 378.63 45.53 378 47.05 378 47.05 370.73 45.29 371.87 45.29 371.11 47.43 369.73 48.23 369.73 48.23 378 49.76 378 49.76 378.63 45.53 378.63"/><path d="M55.27,378.79A2.54,2.54,0,0,1,53,377.6a7.43,7.43,0,0,1,0-6.67,2.66,2.66,0,0,1,4.45,0,7.27,7.27,0,0,1,0,6.67A2.52,2.52,0,0,1,55.27,378.79Zm0-.57a1.43,1.43,0,0,0,1.35-1,10.28,10.28,0,0,0,0-5.95,1.46,1.46,0,0,0-1.35-1,1.44,1.44,0,0,0-1.34,1,10.28,10.28,0,0,0,0,5.95A1.41,1.41,0,0,0,55.27,378.22Z"/><g style="clip-path:url(#clip-path)"><line x1="66.12" y1="328.78" x2="557.77" y2="328.78" style="fill:none;stroke:#b0b0b0;stroke-linecap:square;stroke-linejoin:round;stroke-width:0.800000011920929px;opacity:0.30000001192092896"/></g><line x1="66.12" y1="328.78" x2="62.62" y2="328.78"/><line x1="66.12" y1="328.78" x2="62.62" y2="328.78" style="fill:none;stroke:#000;stroke-linejoin:round;stroke-width:0.800000011920929px"/><path d="M28.56,333.5a2.54,2.54,0,0,1-2.23-1.19,7.43,7.43,0,0,1,0-6.67,2.66,2.66,0,0,1,4.45,0,7.27,7.27,0,0,1,0,6.67A2.53,2.53,0,0,1,28.56,333.5Zm0-.57a1.43,1.43,0,0,0,1.35-1,10.28,10.28,0,0,0,0-5.95,1.46,1.46,0,0,0-1.35-1,1.44,1.44,0,0,0-1.34,1,10.06,10.06,0,0,0,0,5.95A1.41,1.41,0,0,0,28.56,332.93Z"/><path d="M33.51,332.73a.75.75,0,0,1,.78-.78.79.79,0,0,1,.78.78.8.8,0,0,1-1.35.55A.74.74,0,0,1,33.51,332.73Z"/><path d="M40,333.5a2.54,2.54,0,0,1-2.23-1.19,7.43,7.43,0,0,1,0-6.67,2.66,2.66,0,0,1,4.45,0,7.35,7.35,0,0,1,0,6.67A2.53,2.53,0,0,1,40,333.5Zm0-.57a1.42,1.42,0,0,0,1.34-1,10.06,10.06,0,0,0,0-5.95A1.45,1.45,0,0,0,40,325a1.43,1.43,0,0,0-1.34,1,10.06,10.06,0,0,0,0,5.95A1.4,1.4,0,0,0,40,332.93Z"/><polygon points="45.53 333.34 45.53 332.72 47.05 332.72 47.05 325.44 45.29 326.58 45.29 325.82 47.43 324.44 48.23 324.44 48.23 332.72 49.76 332.72 49.76 333.34 45.53 333.34"/><path d="M57.49,324.59v1h-4v2.51a2,2,0,0,1,.7-.31,3.68,3.68,0,0,1,.92-.11,3.13,3.13,0,0,1,2.23.79,2.83,2.83,0,0,1,.83,2.14,2.77,2.77,0,0,1-.83,2.16,3.26,3.26,0,0,1-2.33.77,5.32,5.32,0,0,1-1.24-.15,5,5,0,0,1-1.29-.43v-1.7h.66a1.78,1.78,0,0,0,.53,1.28,1.89,1.89,0,0,0,1.34.43,1.74,1.74,0,0,0,1.42-.61,2.7,2.7,0,0,0,.5-1.75,2.75,2.75,0,0,0-.49-1.74,1.74,1.74,0,0,0-1.43-.61,2.28,2.28,0,0,0-.94.19,1.82,1.82,0,0,0-.7.58h-.51v-4.4Z"/><g style="clip-path:url(#clip-path)"><line x1="66.12" y1="283.49" x2="557.77" y2="283.49" style="fill:none;stroke:#b0b0b0;stroke-linecap:square;stroke-linejoin:round;stroke-width:0.800000011920929px;opacity:0.30000001192092896"/></g><line x1="66.12" y1="283.49" x2="62.62" y2="283.49"/><line x1="66.12" y1="283.49" x2="62.62" y2="283.49" style="fill:none;stroke:#000;stroke-linejoin:round;stroke-width:0.800000011920929px"/><path d="M28.56,288.21A2.54,2.54,0,0,1,26.33,287a7.43,7.43,0,0,1,0-6.67,2.66,2.66,0,0,1,4.45,0,7.27,7.27,0,0,1,0,6.67A2.53,2.53,0,0,1,28.56,288.21Zm0-.56a1.44,1.44,0,0,0,1.35-1,7.85,7.85,0,0,0,.44-3,8,8,0,0,0-.44-3,1.45,1.45,0,0,0-1.35-1,1.43,1.43,0,0,0-1.34,1,7.56,7.56,0,0,0-.45,3,7.44,7.44,0,0,0,.45,3A1.42,1.42,0,0,0,28.56,287.65Z"/><path d="M33.51,287.44a.81.81,0,0,1,.21-.55.79.79,0,0,1,1.35.55.8.8,0,0,1-1.35.55A.74.74,0,0,1,33.51,287.44Z"/><path d="M40,288.21A2.54,2.54,0,0,1,37.78,287a7.43,7.43,0,0,1,0-6.67,2.66,2.66,0,0,1,4.45,0,7.35,7.35,0,0,1,0,6.67A2.53,2.53,0,0,1,40,288.21Zm0-.56a1.43,1.43,0,0,0,1.34-1,7.63,7.63,0,0,0,.45-3,7.75,7.75,0,0,0-.45-3,1.44,1.44,0,0,0-1.34-1,1.42,1.42,0,0,0-1.34,1,7.56,7.56,0,0,0-.45,3,7.44,7.44,0,0,0,.45,3A1.41,1.41,0,0,0,40,287.65Z"/><path d="M45.36,281.39H44.7v-1.56a6.75,6.75,0,0,1,1.26-.5,4.55,4.55,0,0,1,1.25-.18,3.33,3.33,0,0,1,2.16.66,2.21,2.21,0,0,1,.79,1.8c0,.86-.6,1.88-1.8,3.07l-.2.21L46,287.09H49.6V286h.68v2H44.64v-.63l2.65-2.65a6.71,6.71,0,0,0,1.25-1.61,3.39,3.39,0,0,0,.39-1.55,2,2,0,0,0-.47-1.38,1.61,1.61,0,0,0-1.26-.5,1.83,1.83,0,0,0-1.3.42A1.8,1.8,0,0,0,45.36,281.39Z"/><path d="M55.27,288.21A2.54,2.54,0,0,1,53,287a7.43,7.43,0,0,1,0-6.67,2.66,2.66,0,0,1,4.45,0,7.27,7.27,0,0,1,0,6.67A2.52,2.52,0,0,1,55.27,288.21Zm0-.56a1.44,1.44,0,0,0,1.35-1,7.66,7.66,0,0,0,.44-3,7.78,7.78,0,0,0-.44-3,1.45,1.45,0,0,0-1.35-1,1.43,1.43,0,0,0-1.34,1,7.59,7.59,0,0,0-.44,3,7.47,7.47,0,0,0,.44,3A1.42,1.42,0,0,0,55.27,287.65Z"/><g style="clip-path:url(#clip-path)"><line x1="66.12" y1="238.2" x2="557.77" y2="238.2" style="fill:none;stroke:#b0b0b0;stroke-linecap:square;stroke-linejoin:round;stroke-width:0.800000011920929px;opacity:0.30000001192092896"/></g><line x1="66.12" y1="238.2" x2="62.62" y2="238.2"/><line x1="66.12" y1="238.2" x2="62.62" y2="238.2" style="fill:none;stroke:#000;stroke-linejoin:round;stroke-width:0.800000011920929px"/><path d="M28.56,242.92a2.52,2.52,0,0,1-2.23-1.19,7.43,7.43,0,0,1,0-6.67,2.66,2.66,0,0,1,4.45,0,7.27,7.27,0,0,1,0,6.67A2.51,2.51,0,0,1,28.56,242.92Zm0-.56a1.44,1.44,0,0,0,1.35-1,7.82,7.82,0,0,0,.44-3,8,8,0,0,0-.44-3,1.45,1.45,0,0,0-1.35-1,1.43,1.43,0,0,0-1.34,1,7.56,7.56,0,0,0-.45,3,7.41,7.41,0,0,0,.45,3A1.42,1.42,0,0,0,28.56,242.36Z"/><path d="M33.51,242.15a.81.81,0,0,1,.21-.55.79.79,0,1,1,1.12,1.11.85.85,0,0,1-1.12,0A.78.78,0,0,1,33.51,242.15Z"/><path d="M40,242.92a2.52,2.52,0,0,1-2.23-1.19,7.43,7.43,0,0,1,0-6.67,2.66,2.66,0,0,1,4.45,0,7.35,7.35,0,0,1,0,6.67A2.51,2.51,0,0,1,40,242.92Zm0-.56a1.43,1.43,0,0,0,1.34-1,7.59,7.59,0,0,0,.45-3,7.75,7.75,0,0,0-.45-3,1.44,1.44,0,0,0-1.34-1,1.42,1.42,0,0,0-1.34,1,7.56,7.56,0,0,0-.45,3,7.41,7.41,0,0,0,.45,3A1.41,1.41,0,0,0,40,242.36Z"/><path d="M45.36,236.11H44.7v-1.56A6.16,6.16,0,0,1,46,234a4.55,4.55,0,0,1,1.25-.18,3.33,3.33,0,0,1,2.16.66,2.24,2.24,0,0,1,.79,1.8c0,.87-.6,1.89-1.8,3.07l-.2.21L46,241.81H49.6v-1.08h.68v2H44.64v-.64l2.65-2.65a6.71,6.71,0,0,0,1.25-1.61,3.39,3.39,0,0,0,.39-1.55,2,2,0,0,0-.47-1.38,1.65,1.65,0,0,0-1.26-.5,1.83,1.83,0,0,0-1.3.42A1.8,1.8,0,0,0,45.36,236.11Z"/><path d="M57.49,234v1h-4v2.51a2.05,2.05,0,0,1,.7-.32,3.71,3.71,0,0,1,.92-.1,3.09,3.09,0,0,1,2.23.79,2.81,2.81,0,0,1,.83,2.13,2.77,2.77,0,0,1-.83,2.16,3.26,3.26,0,0,1-2.33.77,6.24,6.24,0,0,1-2.53-.57v-1.71h.66a1.79,1.79,0,0,0,.53,1.29,1.94,1.94,0,0,0,1.34.43,1.77,1.77,0,0,0,1.42-.61,2.73,2.73,0,0,0,.5-1.76,2.77,2.77,0,0,0-.49-1.74,1.77,1.77,0,0,0-1.43-.61,2.28,2.28,0,0,0-.94.19,1.91,1.91,0,0,0-.7.58h-.51V234Z"/><g style="clip-path:url(#clip-path)"><line x1="66.12" y1="192.91" x2="557.77" y2="192.91" style="fill:none;stroke:#b0b0b0;stroke-linecap:square;stroke-linejoin:round;stroke-width:0.800000011920929px;opacity:0.30000001192092896"/></g><line x1="66.12" y1="192.91" x2="62.62" y2="192.91"/><line x1="66.12" y1="192.91" x2="62.62" y2="192.91" style="fill:none;stroke:#000;stroke-linejoin:round;stroke-width:0.800000011920929px"/><path d="M28.56,197.63a2.53,2.53,0,0,1-2.23-1.18,7.46,7.46,0,0,1,0-6.68,2.66,2.66,0,0,1,4.45,0,7.29,7.29,0,0,1,0,6.68A2.52,2.52,0,0,1,28.56,197.63Zm0-.56a1.43,1.43,0,0,0,1.35-1,10.31,10.31,0,0,0,0-6,1.46,1.46,0,0,0-1.35-1,1.44,1.44,0,0,0-1.34,1,10.09,10.09,0,0,0,0,6A1.41,1.41,0,0,0,28.56,197.07Z"/><path d="M33.51,196.87a.79.79,0,0,1,1.33-.56.83.83,0,0,1,.23.56.81.81,0,0,1-1.35.55A.77.77,0,0,1,33.51,196.87Z"/><path d="M40,197.63a2.53,2.53,0,0,1-2.23-1.18,7.46,7.46,0,0,1,0-6.68,2.66,2.66,0,0,1,4.45,0,7.37,7.37,0,0,1,0,6.68A2.52,2.52,0,0,1,40,197.63Zm0-.56a1.42,1.42,0,0,0,1.34-1,10.09,10.09,0,0,0,0-6,1.45,1.45,0,0,0-1.34-1,1.43,1.43,0,0,0-1.34,1,10.09,10.09,0,0,0,0,6A1.4,1.4,0,0,0,40,197.07Z"/><path d="M45,189.1a9.54,9.54,0,0,1,1.31-.39,5.66,5.66,0,0,1,1.19-.14,3.28,3.28,0,0,1,2,.56,1.82,1.82,0,0,1,.72,1.53,1.85,1.85,0,0,1-.5,1.32,2.57,2.57,0,0,1-1.41.72,2.8,2.8,0,0,1,1.67.79,2.52,2.52,0,0,1-.23,3.5,3.75,3.75,0,0,1-2.36.64,6.07,6.07,0,0,1-1.35-.14,5.43,5.43,0,0,1-1.29-.43v-1.71h.66a1.75,1.75,0,0,0,.56,1.29,2.15,2.15,0,0,0,1.44.43,1.91,1.91,0,0,0,1.42-.52,2,2,0,0,0,.51-1.42,2.1,2.1,0,0,0-.54-1.56,2.13,2.13,0,0,0-1.56-.53h-.55v-.6H47a2.34,2.34,0,0,0,1.54-.42,1.62,1.62,0,0,0,.51-1.29,1.57,1.57,0,0,0-.42-1.17,1.69,1.69,0,0,0-1.21-.41,1.86,1.86,0,0,0-1.24.38,1.7,1.7,0,0,0-.5,1.11H45Z"/><path d="M55.27,197.63A2.53,2.53,0,0,1,53,196.45a7.46,7.46,0,0,1,0-6.68,2.66,2.66,0,0,1,4.45,0,7.29,7.29,0,0,1,0,6.68A2.51,2.51,0,0,1,55.27,197.63Zm0-.56a1.43,1.43,0,0,0,1.35-1,10.31,10.31,0,0,0,0-6,1.46,1.46,0,0,0-1.35-1,1.44,1.44,0,0,0-1.34,1,10.31,10.31,0,0,0,0,6A1.41,1.41,0,0,0,55.27,197.07Z"/><g style="clip-path:url(#clip-path)"><line x1="66.12" y1="147.63" x2="557.77" y2="147.63" style="fill:none;stroke:#b0b0b0;stroke-linecap:square;stroke-linejoin:round;stroke-width:0.800000011920929px;opacity:0.30000001192092896"/></g><line x1="66.12" y1="147.63" x2="62.62" y2="147.63"/><line x1="66.12" y1="147.63" x2="62.62" y2="147.63" style="fill:none;stroke:#000;stroke-linejoin:round;stroke-width:0.800000011920929px"/><path d="M28.56,152.35a2.54,2.54,0,0,1-2.23-1.19,7.43,7.43,0,0,1,0-6.67,2.66,2.66,0,0,1,4.45,0,7.27,7.27,0,0,1,0,6.67A2.53,2.53,0,0,1,28.56,152.35Zm0-.57a1.43,1.43,0,0,0,1.35-1,10.28,10.28,0,0,0,0-6,1.46,1.46,0,0,0-1.35-1,1.44,1.44,0,0,0-1.34,1,10.06,10.06,0,0,0,0,6A1.41,1.41,0,0,0,28.56,151.78Z"/><path d="M33.51,151.58a.75.75,0,0,1,.78-.78.78.78,0,0,1,.55,1.33.82.82,0,0,1-1.12,0A.74.74,0,0,1,33.51,151.58Z"/><path d="M40,152.35a2.54,2.54,0,0,1-2.23-1.19,7.43,7.43,0,0,1,0-6.67,2.66,2.66,0,0,1,4.45,0,7.35,7.35,0,0,1,0,6.67A2.53,2.53,0,0,1,40,152.35Zm0-.57a1.42,1.42,0,0,0,1.34-1,10.06,10.06,0,0,0,0-6,1.45,1.45,0,0,0-1.34-1,1.43,1.43,0,0,0-1.34,1,10.06,10.06,0,0,0,0,6A1.4,1.4,0,0,0,40,151.78Z"/><path d="M45,143.81a11.18,11.18,0,0,1,1.31-.39,5.62,5.62,0,0,1,1.19-.13,3.28,3.28,0,0,1,2,.55,2,2,0,0,1,.22,2.85,2.57,2.57,0,0,1-1.41.72,2.8,2.8,0,0,1,1.67.8,2.51,2.51,0,0,1-.23,3.49,3.75,3.75,0,0,1-2.36.65A6.07,6.07,0,0,1,46,152.2a5.43,5.43,0,0,1-1.29-.43v-1.7h.66a1.75,1.75,0,0,0,.56,1.28,2.15,2.15,0,0,0,1.44.43,2,2,0,0,0,1.42-.51,2,2,0,0,0,.51-1.43,2.1,2.1,0,0,0-.54-1.56,2.13,2.13,0,0,0-1.56-.53h-.55v-.6H47a2.34,2.34,0,0,0,1.54-.42,1.61,1.61,0,0,0,.51-1.28,1.59,1.59,0,0,0-.42-1.18,1.73,1.73,0,0,0-1.21-.41,1.81,1.81,0,0,0-1.24.39,1.65,1.65,0,0,0-.5,1.1H45Z"/><path d="M57.49,143.44v1h-4v2.51a2,2,0,0,1,.7-.31,3.68,3.68,0,0,1,.92-.11,3.09,3.09,0,0,1,2.23.79,2.83,2.83,0,0,1,.83,2.14,2.8,2.8,0,0,1-.83,2.16,3.31,3.31,0,0,1-2.33.77,5.32,5.32,0,0,1-1.24-.15,5.43,5.43,0,0,1-1.29-.43v-1.7h.66a1.78,1.78,0,0,0,.53,1.28,1.89,1.89,0,0,0,1.34.43,1.74,1.74,0,0,0,1.42-.61,2.7,2.7,0,0,0,.5-1.75,2.75,2.75,0,0,0-.49-1.74,1.74,1.74,0,0,0-1.43-.61,2.28,2.28,0,0,0-.94.19,1.88,1.88,0,0,0-.7.57h-.51v-4.39Z"/><g style="clip-path:url(#clip-path)"><line x1="66.12" y1="102.34" x2="557.77" y2="102.34" style="fill:none;stroke:#b0b0b0;stroke-linecap:square;stroke-linejoin:round;stroke-width:0.800000011920929px;opacity:0.30000001192092896"/></g><line x1="66.12" y1="102.34" x2="62.62" y2="102.34"/><line x1="66.12" y1="102.34" x2="62.62" y2="102.34" style="fill:none;stroke:#000;stroke-linejoin:round;stroke-width:0.800000011920929px"/><path d="M28.56,107.06a2.54,2.54,0,0,1-2.23-1.19,7.43,7.43,0,0,1,0-6.67,2.66,2.66,0,0,1,4.45,0,7.27,7.27,0,0,1,0,6.67A2.53,2.53,0,0,1,28.56,107.06Zm0-.57a1.43,1.43,0,0,0,1.35-1,10.28,10.28,0,0,0,0-6,1.46,1.46,0,0,0-1.35-1,1.44,1.44,0,0,0-1.34,1,10.06,10.06,0,0,0,0,6A1.41,1.41,0,0,0,28.56,106.49Z"/><path d="M33.51,106.29a.75.75,0,0,1,.78-.78.79.79,0,0,1,.78.78.8.8,0,0,1-1.35.55A.74.74,0,0,1,33.51,106.29Z"/><path d="M40,107.06a2.54,2.54,0,0,1-2.23-1.19,7.43,7.43,0,0,1,0-6.67,2.66,2.66,0,0,1,4.45,0,7.35,7.35,0,0,1,0,6.67A2.53,2.53,0,0,1,40,107.06Zm0-.57a1.42,1.42,0,0,0,1.34-1,10.06,10.06,0,0,0,0-6,1.45,1.45,0,0,0-1.34-1,1.43,1.43,0,0,0-1.34,1,10.06,10.06,0,0,0,0,6A1.4,1.4,0,0,0,40,106.49Z"/><path d="M50.59,106.9h-4v-.62H48v-1.72H44.2v-.64L48,98h1.16v5.94h1.67v.62H49.19v1.72h1.4Zm-2.58-3V99.28l-3,4.66Z"/><path d="M55.27,107.06A2.54,2.54,0,0,1,53,105.87a7.43,7.43,0,0,1,0-6.67,2.66,2.66,0,0,1,4.45,0,7.27,7.27,0,0,1,0,6.67A2.52,2.52,0,0,1,55.27,107.06Zm0-.57a1.43,1.43,0,0,0,1.35-1,10.28,10.28,0,0,0,0-6,1.46,1.46,0,0,0-1.35-1,1.44,1.44,0,0,0-1.34,1,10.28,10.28,0,0,0,0,6A1.41,1.41,0,0,0,55.27,106.49Z"/><g style="clip-path:url(#clip-path)"><line x1="66.12" y1="57.05" x2="557.77" y2="57.05" style="fill:none;stroke:#b0b0b0;stroke-linecap:square;stroke-linejoin:round;stroke-width:0.800000011920929px;opacity:0.30000001192092896"/></g><line x1="66.12" y1="57.05" x2="62.62" y2="57.05"/><line x1="66.12" y1="57.05" x2="62.62" y2="57.05" style="fill:none;stroke:#000;stroke-linejoin:round;stroke-width:0.800000011920929px"/><path d="M28.56,61.77a2.54,2.54,0,0,1-2.23-1.19,6,6,0,0,1-.79-3.34,6,6,0,0,1,.79-3.33,2.66,2.66,0,0,1,4.45,0,6,6,0,0,1,.81,3.33,6,6,0,0,1-.81,3.34A2.53,2.53,0,0,1,28.56,61.77Zm0-.56a1.44,1.44,0,0,0,1.35-1,7.88,7.88,0,0,0,.44-3,8,8,0,0,0-.44-3,1.45,1.45,0,0,0-1.35-1,1.43,1.43,0,0,0-1.34,1,7.54,7.54,0,0,0-.45,3,7.46,7.46,0,0,0,.45,3A1.42,1.42,0,0,0,28.56,61.21Z"/><path d="M33.51,61a.81.81,0,0,1,.21-.55.8.8,0,0,1,1.12,0,.83.83,0,0,1,.23.55.8.8,0,0,1-1.35.55A.74.74,0,0,1,33.51,61Z"/><path d="M40,61.77a2.54,2.54,0,0,1-2.23-1.19A6,6,0,0,1,37,57.24a6,6,0,0,1,.79-3.33,2.66,2.66,0,0,1,4.45,0,6,6,0,0,1,.8,3.33,6,6,0,0,1-.8,3.34A2.53,2.53,0,0,1,40,61.77Zm0-.56a1.43,1.43,0,0,0,1.34-1,7.65,7.65,0,0,0,.45-3,7.73,7.73,0,0,0-.45-3,1.44,1.44,0,0,0-1.34-1,1.42,1.42,0,0,0-1.34,1,7.54,7.54,0,0,0-.45,3,7.46,7.46,0,0,0,.45,3A1.41,1.41,0,0,0,40,61.21Z"/><path d="M50.59,61.61h-4V61H48V59.27H44.2v-.63L48,52.71h1.16v5.94h1.67v.62H49.19V61h1.4Zm-2.58-3V54l-3,4.66Z"/><path d="M57.49,52.87v1h-4v2.5a2,2,0,0,1,.7-.31,3.68,3.68,0,0,1,.92-.11,3.09,3.09,0,0,1,2.23.8,3.19,3.19,0,0,1,0,4.29,3.26,3.26,0,0,1-2.33.77,5.32,5.32,0,0,1-1.24-.15,5,5,0,0,1-1.29-.43v-1.7h.66a1.77,1.77,0,0,0,.53,1.28,1.9,1.9,0,0,0,1.34.44,1.74,1.74,0,0,0,1.42-.62,2.7,2.7,0,0,0,.5-1.75,2.75,2.75,0,0,0-.49-1.74A1.74,1.74,0,0,0,55,56.49a2.28,2.28,0,0,0-.94.19,1.82,1.82,0,0,0-.7.58h-.51V52.87Z"/><g style="clip-path:url(#clip-path)"><line x1="66.12" y1="11.76" x2="557.77" y2="11.76" style="fill:none;stroke:#b0b0b0;stroke-linecap:square;stroke-linejoin:round;stroke-width:0.800000011920929px;opacity:0.30000001192092896"/></g><line x1="66.12" y1="11.76" x2="62.62" y2="11.76"/><line x1="66.12" y1="11.76" x2="62.62" y2="11.76" style="fill:none;stroke:#000;stroke-linejoin:round;stroke-width:0.800000011920929px"/><path d="M28.56,16.48a2.54,2.54,0,0,1-2.23-1.19A5.92,5.92,0,0,1,25.54,12a6,6,0,0,1,.79-3.34,2.66,2.66,0,0,1,4.45,0A6,6,0,0,1,31.59,12a5.91,5.91,0,0,1-.81,3.33A2.53,2.53,0,0,1,28.56,16.48Zm0-.56a1.44,1.44,0,0,0,1.35-1,7.85,7.85,0,0,0,.44-3,8,8,0,0,0-.44-3,1.45,1.45,0,0,0-1.35-1,1.43,1.43,0,0,0-1.34,1,7.56,7.56,0,0,0-.45,3,7.44,7.44,0,0,0,.45,3A1.42,1.42,0,0,0,28.56,15.92Z"/><path d="M33.51,15.71a.81.81,0,0,1,.21-.55.79.79,0,0,1,1.35.55.8.8,0,0,1-1.35.55A.74.74,0,0,1,33.51,15.71Z"/><path d="M40,16.48a2.54,2.54,0,0,1-2.23-1.19A5.92,5.92,0,0,1,37,12a6,6,0,0,1,.79-3.34,2.66,2.66,0,0,1,4.45,0A6,6,0,0,1,43,12a5.92,5.92,0,0,1-.8,3.33A2.53,2.53,0,0,1,40,16.48Zm0-.56a1.43,1.43,0,0,0,1.34-1,7.63,7.63,0,0,0,.45-3,7.75,7.75,0,0,0-.45-3A1.44,1.44,0,0,0,40,8a1.42,1.42,0,0,0-1.34,1,7.56,7.56,0,0,0-.45,3,7.44,7.44,0,0,0,.45,3A1.41,1.41,0,0,0,40,15.92Z"/><path d="M49.86,7.58v1h-4V11a2.19,2.19,0,0,1,.71-.31,3.66,3.66,0,0,1,.91-.11,3.12,3.12,0,0,1,2.24.8,2.79,2.79,0,0,1,.82,2.13,2.77,2.77,0,0,1-.82,2.16,3.29,3.29,0,0,1-2.33.77,5.89,5.89,0,0,1-1.24-.14,5.47,5.47,0,0,1-1.29-.44V14.2h.66A1.8,1.8,0,0,0,46,15.48a1.94,1.94,0,0,0,1.35.44,1.71,1.71,0,0,0,1.41-.62,2.63,2.63,0,0,0,.51-1.75,2.77,2.77,0,0,0-.49-1.74,1.74,1.74,0,0,0-1.43-.61,2.28,2.28,0,0,0-.94.19,1.92,1.92,0,0,0-.71.58h-.5V7.58Z"/><path d="M55.27,16.48A2.54,2.54,0,0,1,53,15.29,5.92,5.92,0,0,1,52.25,12,6,6,0,0,1,53,8.62a2.66,2.66,0,0,1,4.45,0A6,6,0,0,1,58.3,12a5.91,5.91,0,0,1-.81,3.33A2.52,2.52,0,0,1,55.27,16.48Zm0-.56a1.44,1.44,0,0,0,1.35-1,7.66,7.66,0,0,0,.44-3,7.78,7.78,0,0,0-.44-3,1.45,1.45,0,0,0-1.35-1,1.43,1.43,0,0,0-1.34,1,7.59,7.59,0,0,0-.44,3,7.47,7.47,0,0,0,.44,3A1.42,1.42,0,0,0,55.27,15.92Z"/><polygon points="17.84 229.13 17.11 229.13 17.11 227.83 8.45 227.83 8.45 230.82 10.04 230.82 10.04 231.66 7.63 231.66 7.63 222.6 10.04 222.6 10.04 223.44 8.45 223.44 8.45 226.44 17.11 226.44 17.11 225.14 17.84 225.14 17.84 229.13"/><path d="M18,219.33a3.29,3.29,0,0,1-1,2.55,4,4,0,0,1-2.79,1,3.93,3.93,0,0,1-2.77-1,3.31,3.31,0,0,1-1-2.56,3.27,3.27,0,0,1,1-2.55,3.94,3.94,0,0,1,2.77-1,4,4,0,0,1,2.79,1A3.26,3.26,0,0,1,18,219.33Zm-.66,0a1.72,1.72,0,0,0-.79-1.53,4.54,4.54,0,0,0-2.36-.52,4.54,4.54,0,0,0-2.36.52,1.72,1.72,0,0,0-.8,1.53,1.68,1.68,0,0,0,.8,1.52,4.35,4.35,0,0,0,2.36.52,4.35,4.35,0,0,0,2.36-.52A1.68,1.68,0,0,0,17.36,219.33Z"/><path d="M11.3,213.6v1.11h-.73V213.6H8.32v-1.26h2.25V210h.73v2.36h4.62a2.33,2.33,0,0,0,1.19-.18.74.74,0,0,0,.25-.66.83.83,0,0,0-.29-.71,1.69,1.69,0,0,0-.94-.24v-1a2,2,0,0,1,1.44.54,2.69,2.69,0,0,1,0,3,2.29,2.29,0,0,1-1.63.45Z"/><path d="M13.3,202.65h3.81v-1.12h.73v2.38h-.78a2.73,2.73,0,0,1,.74,1,3.55,3.55,0,0,1,.22,1.27,2.83,2.83,0,0,1-.63,1.94,2.22,2.22,0,0,1-1.73.7,2.05,2.05,0,0,1-1.74-.82,3.63,3.63,0,0,1-.63-2.29v-1.77h-.5a1.64,1.64,0,0,0-1.28.51,2,2,0,0,0-.46,1.41A1.91,1.91,0,0,0,11.4,207a1.44,1.44,0,0,0,1,.56v.65H10.94a8.68,8.68,0,0,1-.42-1.28,5.53,5.53,0,0,1-.14-1.2,3.22,3.22,0,0,1,.75-2.3A2.85,2.85,0,0,1,13.3,202.65Zm2.26,1.26H14v1.63a2.13,2.13,0,0,0,.4,1.4,1.57,1.57,0,0,0,1.24.45,1.58,1.58,0,0,0,1.2-.47,1.66,1.66,0,0,0,.45-1.26,1.74,1.74,0,0,0-.48-1.26A1.72,1.72,0,0,0,15.56,203.91Z"/><polygon points="17.11 198.27 17.11 197.08 17.84 197.08 17.84 200.74 17.11 200.74 17.11 199.53 7.93 199.53 7.93 200.74 7.2 200.74 7.2 198.27 17.11 198.27"/><polygon points="17.84 191.44 17.11 191.44 17.11 190.14 8.36 190.14 8.36 191.44 7.63 191.44 7.63 183.22 9.9 183.22 9.9 184.06 8.47 184.06 8.47 188.75 11.89 188.75 11.89 185.41 10.62 185.41 10.62 184.57 14.01 184.57 14.01 185.41 12.73 185.41 12.73 188.75 17 188.75 17 183.95 15.57 183.95 15.57 183.11 17.84 183.11 17.84 191.44"/><path d="M10.56,175.3h1.82V176a1.3,1.3,0,0,0-.81.29,1.13,1.13,0,0,0-.27.79,1.72,1.72,0,0,0,.65,1.42,2.92,2.92,0,0,0,1.84.49h3.32v-1.45h.73v3.85h-.73v-1.14H11.29v1.21h-.72V179h1.29a2.55,2.55,0,0,1-1.12-.93,2.71,2.71,0,0,1-.36-1.43c0-.2,0-.42,0-.65A7.2,7.2,0,0,1,10.56,175.3Z"/><path d="M10.56,168.61h1.82v.73a1.25,1.25,0,0,0-.81.29,1.12,1.12,0,0,0-.27.78,1.73,1.73,0,0,0,.65,1.43,2.92,2.92,0,0,0,1.84.49h3.32v-1.45h.73v3.85h-.73v-1.14H11.29v1.21h-.72v-2.47h1.29a2.56,2.56,0,0,1-1.12-.94,2.65,2.65,0,0,1-.36-1.42c0-.2,0-.42,0-.65A7.2,7.2,0,0,1,10.56,168.61Z"/><path d="M18,164.39a3.26,3.26,0,0,1-1,2.55,3.93,3.93,0,0,1-2.79,1,3.93,3.93,0,0,1-2.77-.95,3.33,3.33,0,0,1-1-2.57,3.27,3.27,0,0,1,1-2.54,3.9,3.9,0,0,1,2.77-1,3.93,3.93,0,0,1,2.79,1A3.25,3.25,0,0,1,18,164.39Zm-.66,0a1.7,1.7,0,0,0-.79-1.52,4.44,4.44,0,0,0-2.36-.52,4.44,4.44,0,0,0-2.36.52,1.85,1.85,0,0,0,0,3,4.35,4.35,0,0,0,2.36.52,4.35,4.35,0,0,0,2.36-.52A1.69,1.69,0,0,0,17.36,164.39Z"/><path d="M10.56,153.49h1.82v.73a1.25,1.25,0,0,0-.81.29,1.12,1.12,0,0,0-.27.78,1.73,1.73,0,0,0,.65,1.43,2.92,2.92,0,0,0,1.84.49h3.32v-1.45h.73v3.85h-.73v-1.14H11.29v1.21h-.72v-2.47h1.29a2.56,2.56,0,0,1-1.12-.94,2.65,2.65,0,0,1-.36-1.42c0-.2,0-.42,0-.65A7.2,7.2,0,0,1,10.56,153.49Z"/><g style="clip-path:url(#clip-path)"><polyline points="88.47 359.94 118.27 343.07 177.86 330.75 297.05 286.14 535.42 227.37" style="fill:none;stroke:#1f77b4;stroke-linecap:square;stroke-linejoin:round;stroke-width:2.5px;opacity:0.8999999761581421"/><g style="clip-path:url(#clip-path-19)"><path d="M88.47,363.94a4,4,0,1,0-2.83-1.17A4,4,0,0,0,88.47,363.94Z" style="fill:#1f77b4;opacity:0.8999999761581421"/><path d="M88.47,363.94a4,4,0,1,0-2.83-1.17A4,4,0,0,0,88.47,363.94Z" style="fill:none;stroke:#1f77b4;stroke-linejoin:round;opacity:0.8999999761581421"/></g><g style="clip-path:url(#clip-path-20)"><path d="M118.27,347.07a4,4,0,1,0-2.83-1.17A4,4,0,0,0,118.27,347.07Z" style="fill:#1f77b4;opacity:0.8999999761581421"/><path d="M118.27,347.07a4,4,0,1,0-2.83-1.17A4,4,0,0,0,118.27,347.07Z" style="fill:none;stroke:#1f77b4;stroke-linejoin:round;opacity:0.8999999761581421"/></g><g style="clip-path:url(#clip-path-21)"><path d="M177.86,334.75a4,4,0,1,0-2.83-1.17A4,4,0,0,0,177.86,334.75Z" style="fill:#1f77b4;opacity:0.8999999761581421"/><path d="M177.86,334.75a4,4,0,1,0-2.83-1.17A4,4,0,0,0,177.86,334.75Z" style="fill:none;stroke:#1f77b4;stroke-linejoin:round;opacity:0.8999999761581421"/></g><g style="clip-path:url(#clip-path-22)"><path d="M297.05,290.14a4,4,0,1,0-2.83-1.17A4,4,0,0,0,297.05,290.14Z" style="fill:#1f77b4;opacity:0.8999999761581421"/><path d="M297.05,290.14a4,4,0,1,0-2.83-1.17A4,4,0,0,0,297.05,290.14Z" style="fill:none;stroke:#1f77b4;stroke-linejoin:round;opacity:0.8999999761581421"/></g><g style="clip-path:url(#clip-path-23)"><path d="M535.42,231.37a4,4,0,1,0-2.82-1.17A4,4,0,0,0,535.42,231.37Z" style="fill:#1f77b4;opacity:0.8999999761581421"/><path d="M535.42,231.37a4,4,0,1,0-2.82-1.17A4,4,0,0,0,535.42,231.37Z" style="fill:none;stroke:#1f77b4;stroke-linejoin:round;opacity:0.8999999761581421"/></g></g><g style="clip-path:url(#clip-path)"><polyline points="88.47 341.08 118.27 308.1 177.86 270.93 297.05 168.61 535.42 25.39" style="fill:none;stroke:#ff7f0e;stroke-linejoin:round;stroke-width:2.5px;stroke-dasharray:9.25,4;opacity:0.8999999761581421"/><g style="clip-path:url(#clip-path-25)"><rect x="84.47" y="337.08" width="8" height="8" style="fill:#ff7f0e;opacity:0.8999999761581421"/><rect x="84.47" y="337.08" width="8" height="8" style="fill:none;stroke:#ff7f0e;stroke-miterlimit:10;opacity:0.8999999761581421"/></g><g style="clip-path:url(#clip-path-26)"><rect x="114.27" y="304.1" width="8" height="8" style="fill:#ff7f0e;opacity:0.8999999761581421"/><rect x="114.27" y="304.1" width="8" height="8" style="fill:none;stroke:#ff7f0e;stroke-miterlimit:10;opacity:0.8999999761581421"/></g><g style="clip-path:url(#clip-path-27)"><rect x="173.86" y="266.93" width="8" height="8" style="fill:#ff7f0e;opacity:0.8999999761581421"/><rect x="173.86" y="266.93" width="8" height="8" style="fill:none;stroke:#ff7f0e;stroke-miterlimit:10;opacity:0.8999999761581421"/></g><g style="clip-path:url(#clip-path-28)"><rect x="293.05" y="164.61" width="8" height="8" style="fill:#ff7f0e;opacity:0.8999999761581421"/><rect x="293.05" y="164.61" width="8" height="8" style="fill:none;stroke:#ff7f0e;stroke-miterlimit:10;opacity:0.8999999761581421"/></g><g style="clip-path:url(#clip-path-29)"><rect x="531.42" y="21.39" width="8" height="8" style="fill:#ff7f0e;opacity:0.8999999761581421"/><rect x="531.42" y="21.39" width="8" height="8" style="fill:none;stroke:#ff7f0e;stroke-miterlimit:10;opacity:0.8999999761581421"/></g></g><line x1="66.12" y1="376.66" x2="66.12" y2="8.66" style="fill:none;stroke:#000;stroke-linecap:square;stroke-miterlimit:10"/><line x1="66.12" y1="376.66" x2="557.77" y2="376.66" style="fill:none;stroke:#000;stroke-linecap:square;stroke-miterlimit:10"/><rect x="72.12" y="14.66" width="93.65" height="38.85" style="fill:#fff;opacity:0.800000011920929"/><rect x="72.12" y="14.66" width="93.65" height="38.85" style="fill:none;stroke:#000;stroke-miterlimit:10;opacity:0.800000011920929"/><polyline points="76.92 24.39 88.92 24.39 100.92 24.39" style="fill:none;stroke:#1f77b4;stroke-linecap:square;stroke-linejoin:round;stroke-width:2.5px;opacity:0.8999999761581421"/><path d="M88.92,28.39a4,4,0,1,0-2.83-1.18A4,4,0,0,0,88.92,28.39Z" style="fill:#1f77b4;opacity:0.8999999761581421"/><path d="M88.92,28.39a4,4,0,1,0-2.83-1.18A4,4,0,0,0,88.92,28.39Z" style="fill:none;stroke:#1f77b4;stroke-linejoin:round;opacity:0.8999999761581421"/><polygon points="111.18 28.59 111.18 27.96 112.3 27.96 112.3 20.46 111.12 20.46 111.12 19.84 113.67 19.84 116.74 26.07 119.81 19.84 122.2 19.84 122.2 20.46 121.03 20.46 121.03 27.96 122.15 27.96 122.15 28.59 118.73 28.59 118.73 27.96 119.85 27.96 119.85 21.2 116.85 27.3 116.02 27.3 113.02 21.2 113.02 27.96 114.13 27.96 114.13 28.59 111.18 28.59"/><path d="M126.42,28.74a2.8,2.8,0,0,1-2.18-.89,3.38,3.38,0,0,1-.83-2.38,3.33,3.33,0,0,1,.82-2.38,3.11,3.11,0,0,1,4.38,0,3.38,3.38,0,0,1,.82,2.38,3.38,3.38,0,0,1-.82,2.38A2.84,2.84,0,0,1,126.42,28.74Zm0-.56a1.46,1.46,0,0,0,1.31-.69,3.75,3.75,0,0,0,.44-2,3.85,3.85,0,0,0-.44-2,1.6,1.6,0,0,0-2.62,0,3.75,3.75,0,0,0-.44,2,3.66,3.66,0,0,0,.44,2A1.46,1.46,0,0,0,126.42,28.18Z"/><path d="M135.77,22.35v1.56h-.62a1.12,1.12,0,0,0-.26-.7,1,1,0,0,0-.67-.23,1.48,1.48,0,0,0-1.22.55,2.55,2.55,0,0,0-.42,1.59V28h1.25v.63h-3.3V28h1V23h-1v-.61h2.11v1.1a2.26,2.26,0,0,1,.8-1,2.39,2.39,0,0,1,1.23-.31,3.74,3.74,0,0,1,.55,0A5.29,5.29,0,0,1,135.77,22.35Z"/><path d="M137.07,23h-.95v-.62h.95V20.43h1.08v1.93h2V23h-2v4a2,2,0,0,0,.15,1,.64.64,0,0,0,.57.22.75.75,0,0,0,.61-.25,1.5,1.5,0,0,0,.2-.81h.82a1.76,1.76,0,0,1-.47,1.24,1.84,1.84,0,0,1-1.26.38,1.77,1.77,0,0,1-1.32-.41,2,2,0,0,1-.38-1.39Z"/><path d="M144.21,28.74a2.81,2.81,0,0,1-2.19-.89,3.38,3.38,0,0,1-.83-2.38,3.38,3.38,0,0,1,.82-2.38,2.84,2.84,0,0,1,2.2-.9,2.81,2.81,0,0,1,2.18.9,3.38,3.38,0,0,1,.83,2.38,3.38,3.38,0,0,1-.83,2.38A2.8,2.8,0,0,1,144.21,28.74Zm0-.56a1.45,1.45,0,0,0,1.3-.69,3.74,3.74,0,0,0,.45-2,3.84,3.84,0,0,0-.45-2,1.59,1.59,0,0,0-2.61,0,3.75,3.75,0,0,0-.45,2,3.65,3.65,0,0,0,.45,2A1.45,1.45,0,0,0,144.21,28.18Z"/><path d="M148.31,28.59V28h1V23h-1v-.62h2.11v1.1a2.38,2.38,0,0,1,.77-.95,1.94,1.94,0,0,1,1.12-.32,1.87,1.87,0,0,1,1.51.59,2.9,2.9,0,0,1,.49,1.85V28h1v.63h-3V28h.94V25a3,3,0,0,0-.29-1.56,1.07,1.07,0,0,0-1-.43,1.33,1.33,0,0,0-1.15.55,2.68,2.68,0,0,0-.39,1.6V28h.94v.63Z"/><polyline points="76.92 42.01 88.92 42.01 100.92 42.01" style="fill:none;stroke:#ff7f0e;stroke-linejoin:round;stroke-width:2.5px;stroke-dasharray:9.25,4;opacity:0.8999999761581421"/><rect x="84.92" y="38.01" width="8" height="8" style="fill:#ff7f0e;opacity:0.8999999761581421"/><rect x="84.92" y="38.01" width="8" height="8" style="fill:none;stroke:#ff7f0e;stroke-miterlimit:10;opacity:0.8999999761581421"/><path d="M113.49,41.52h1.72a1.84,1.84,0,0,0,1.31-3,1.81,1.81,0,0,0-1.31-.42h-1.72Zm2.78.35a1.82,1.82,0,0,1,.71.38,2.76,2.76,0,0,1,.53.74l1.27,2.6h1.07v.62h-2.07l-1.37-2.78a3.09,3.09,0,0,0-.72-1,1.53,1.53,0,0,0-.9-.24h-1.3v3.45h1.23v.62h-3.54v-.62h1.12v-7.5h-1.12v-.63h4.44a3,3,0,0,1,2,.61,2.21,2.21,0,0,1,.7,1.73,1.93,1.93,0,0,1-.51,1.42A2.46,2.46,0,0,1,116.27,41.87Z"/><path d="M125.68,42.32v3.27h1v.62h-2v-.67a2.16,2.16,0,0,1-.83.63,3,3,0,0,1-1.09.2,2.42,2.42,0,0,1-1.66-.54,1.92,1.92,0,0,1-.6-1.49,1.76,1.76,0,0,1,.7-1.49,3.14,3.14,0,0,1,2-.54h1.51v-.43a1.38,1.38,0,0,0-.43-1.09,1.72,1.72,0,0,0-1.21-.4,1.63,1.63,0,0,0-1,.3,1.22,1.22,0,0,0-.48.86h-.56V40.29a8.79,8.79,0,0,1,1.1-.36,5.17,5.17,0,0,1,1-.12,2.77,2.77,0,0,1,2,.65A2.45,2.45,0,0,1,125.68,42.32Zm-1.08,1.93V42.93h-1.39a1.77,1.77,0,0,0-1.2.35,1.33,1.33,0,0,0-.39,1.06,1.38,1.38,0,0,0,.4,1,1.45,1.45,0,0,0,1.08.38,1.41,1.41,0,0,0,1.5-1.5Z"/><path d="M127.47,46.21v-.62h1v-5h-1V40h2.11v1.11a2.31,2.31,0,0,1,.77-1,1.87,1.87,0,0,1,1.11-.33,1.91,1.91,0,0,1,1.52.59,2.92,2.92,0,0,1,.49,1.85v3.34h1v.62h-3v-.62h.94v-3A3,3,0,0,0,132,41a1.09,1.09,0,0,0-1-.44,1.37,1.37,0,0,0-1.16.56,2.75,2.75,0,0,0-.38,1.59v2.85h.94v.62Z"/><path d="M139.92,43.4v-.61a2.83,2.83,0,0,0-.43-1.7,1.45,1.45,0,0,0-1.25-.6,1.42,1.42,0,0,0-1.26.66,3.61,3.61,0,0,0-.42,1.94,3.71,3.71,0,0,0,.42,2,1.42,1.42,0,0,0,1.26.66,1.47,1.47,0,0,0,1.25-.59A2.85,2.85,0,0,0,139.92,43.4ZM141,45.59h1v.62h-2.12v-1a2.09,2.09,0,0,1-.8.86,2.64,2.64,0,0,1-1.21.27,2.32,2.32,0,0,1-1.89-.9,3.71,3.71,0,0,1-.72-2.38,3.67,3.67,0,0,1,.72-2.36,2.34,2.34,0,0,1,1.89-.92,2.52,2.52,0,0,1,1.21.28,2.23,2.23,0,0,1,.8.86V37.71h-1v-.62H141Z"/><path d="M146,46.37a2.81,2.81,0,0,1-2.19-.89,3.86,3.86,0,0,1,0-4.77,2.84,2.84,0,0,1,2.2-.9,2.81,2.81,0,0,1,2.18.9,3.84,3.84,0,0,1,0,4.77A2.8,2.8,0,0,1,146,46.37Zm0-.57a1.47,1.47,0,0,0,1.3-.68,3.8,3.8,0,0,0,.45-2,3.84,3.84,0,0,0-.45-2,1.59,1.59,0,0,0-2.61,0,3.75,3.75,0,0,0-.45,2,3.71,3.71,0,0,0,.45,2A1.46,1.46,0,0,0,146,45.8Z"/><path d="M155.82,41.19a2.57,2.57,0,0,1,.8-1,1.87,1.87,0,0,1,1.12-.35,1.78,1.78,0,0,1,1.47.62,2.93,2.93,0,0,1,.48,1.82v3.34h1v.62h-3v-.62h.94V42.37a2.5,2.5,0,0,0-.29-1.36,1.06,1.06,0,0,0-.92-.4,1.28,1.28,0,0,0-1.11.55,2.77,2.77,0,0,0-.37,1.58v2.85h.94v.62h-3v-.62h.94V42.33a2.36,2.36,0,0,0-.29-1.33,1.05,1.05,0,0,0-.92-.39,1.3,1.3,0,0,0-1.11.55,2.77,2.77,0,0,0-.37,1.58v2.85h.94v.62h-3v-.62h1v-5h-1V40h2.11v1.11a2.29,2.29,0,0,1,.76-1,1.77,1.77,0,0,1,1.05-.33,1.94,1.94,0,0,1,1.2.36A1.81,1.81,0,0,1,155.82,41.19Z"/></svg>