<svg id="Calque_1" data-name="Calque 1" xmlns="http://www.w3.org/2000/svg" xmlns:xlink="http://www.w3.org/1999/xlink" viewBox="0 0 564.97 420.45"><defs><clipPath id="clip-path"><rect x="66.12" y="7.2" width="491.65" height="369.88" style="fill:none"/></clipPath><clipPath id="clip-path-15"><rect x="79.47" y="351.27" width="18" height="18" style="fill:none"/></clipPath><clipPath id="clip-path-16"><rect x="109.27" y="290.77" width="18" height="18" style="fill:none"/></clipPath><clipPath id="clip-path-17"><rect x="168.86" y="273.13" width="18" height="18" style="fill:none"/></clipPath><clipPath id="clip-path-18"><rect x="288.05" y="243.89" width="18" height="18" style="fill:none"/></clipPath><clipPath id="clip-path-19"><rect x="526.42" y="76.16" width="18" height="18" style="fill:none"/></clipPath><clipPath id="clip-path-21"><rect x="79.47" y="217.45" width="18" height="18" style="fill:none"/></clipPath><clipPath id="clip-path-22"><rect x="109.27" y="232.76" width="18" height="18" style="fill:none"/></clipPath><clipPath id="clip-path-23"><rect x="168.86" y="125.59" width="18" height="18" style="fill:none"/></clipPath><clipPath id="clip-path-24"><rect x="288.05" y="15.01" width="18" height="18" style="fill:none"/></clipPath><clipPath id="clip-path-25"><rect x="526.42" y="23.13" width="18" height="18" style="fill:none"/></clipPath></defs><rect width="564.97" height="420.45" style="fill:#fff"/><rect x="66.12" y="7.2" width="491.65" height="369.88" style="fill:#fff"/><g style="clip-path:url(#clip-path)"><line x1="133.17" y1="377.08" x2="133.17" y2="7.2" style="fill:none;stroke:#b0b0b0;stroke-linecap:square;stroke-linejoin:round;stroke-width:0.800000011920929px;opacity:0.30000001192092896"/></g><line x1="133.17" y1="377.08" x2="133.17" y2="380.58"/><line x1="133.17" y1="377.08" x2="133.17" y2="380.58" style="fill:none;stroke:#000;stroke-linejoin:round;stroke-width:0.800000011920929px"/><path d="M131.56,384.46v1h-4v2.5a2,2,0,0,1,.71-.31,3.6,3.6,0,0,1,.91-.11,3.08,3.08,0,0,1,2.23.8,3.19,3.19,0,0,1,0,4.29,3.25,3.25,0,0,1-2.32.77,5.89,5.89,0,0,1-1.24-.14,5.7,5.7,0,0,1-1.3-.44v-1.7h.66a1.85,1.85,0,0,0,.53,1.28,1.92,1.92,0,0,0,1.35.44,1.71,1.71,0,0,0,1.41-.62,2.63,2.63,0,0,0,.51-1.75,2.71,2.71,0,0,0-.5-1.74,1.71,1.71,0,0,0-1.42-.61,2.25,2.25,0,0,0-.94.19,1.92,1.92,0,0,0-.71.58h-.5v-4.39Z"/><path d="M137,393.36a2.54,2.54,0,0,1-2.23-1.19,7.43,7.43,0,0,1,0-6.67,2.66,2.66,0,0,1,4.45,0,7.27,7.27,0,0,1,0,6.67A2.53,2.53,0,0,1,137,393.36Zm0-.56a1.44,1.44,0,0,0,1.35-1,7.85,7.85,0,0,0,.44-3,8,8,0,0,0-.44-3,1.45,1.45,0,0,0-1.35-1,1.43,1.43,0,0,0-1.34,1,7.56,7.56,0,0,0-.45,3,7.44,7.44,0,0,0,.45,3A1.42,1.42,0,0,0,137,392.8Z"/><g style="clip-path:url(#clip-path)"><line x1="207.66" y1="377.08" x2="207.66" y2="7.2" style="fill:none;stroke:#b0b0b0;stroke-linecap:square;stroke-linejoin:round;stroke-width:0.800000011920929px;opacity:0.30000001192092896"/></g><line x1="207.66" y1="377.08" x2="207.66" y2="380.58"/><line x1="207.66" y1="377.08" x2="207.66" y2="380.58" style="fill:none;stroke:#000;stroke-linejoin:round;stroke-width:0.800000011920929px"/><polygon points="197.9 393.2 197.9 392.58 199.43 392.58 199.43 385.31 197.66 386.45 197.66 385.68 199.8 384.3 200.6 384.3 200.6 392.58 202.13 392.58 202.13 393.2 197.9 393.2"/><path d="M207.64,393.36a2.54,2.54,0,0,1-2.23-1.19,7.43,7.43,0,0,1,0-6.67,2.66,2.66,0,0,1,4.45,0,7.27,7.27,0,0,1,0,6.67A2.52,2.52,0,0,1,207.64,393.36Zm0-.56a1.44,1.44,0,0,0,1.35-1,7.66,7.66,0,0,0,.44-3,7.78,7.78,0,0,0-.44-3,1.45,1.45,0,0,0-1.35-1,1.43,1.43,0,0,0-1.34,1,7.59,7.59,0,0,0-.44,3,7.47,7.47,0,0,0,.44,3A1.42,1.42,0,0,0,207.64,392.8Z"/><path d="M215.28,393.36a2.55,2.55,0,0,1-2.24-1.19,7.43,7.43,0,0,1,0-6.67,2.67,2.67,0,0,1,4.46,0,7.35,7.35,0,0,1,0,6.67A2.54,2.54,0,0,1,215.28,393.36Zm0-.56a1.43,1.43,0,0,0,1.34-1,7.66,7.66,0,0,0,.44-3,7.78,7.78,0,0,0-.44-3,1.41,1.41,0,0,0-2.69,0,7.59,7.59,0,0,0-.44,3,7.47,7.47,0,0,0,.44,3A1.44,1.44,0,0,0,215.28,392.8Z"/><g style="clip-path:url(#clip-path)"><line x1="282.15" y1="377.08" x2="282.15" y2="7.2" style="fill:none;stroke:#b0b0b0;stroke-linecap:square;stroke-linejoin:round;stroke-width:0.800000011920929px;opacity:0.30000001192092896"/></g><line x1="282.15" y1="377.08" x2="282.15" y2="380.58"/><line x1="282.15" y1="377.08" x2="282.15" y2="380.58" style="fill:none;stroke:#000;stroke-linejoin:round;stroke-width:0.800000011920929px"/><polygon points="272.39 393.2 272.39 392.58 273.92 392.58 273.92 385.31 272.15 386.45 272.15 385.68 274.29 384.3 275.09 384.3 275.09 392.58 276.62 392.58 276.62 393.2 272.39 393.2"/><path d="M284.36,384.46v1h-4v2.5a2,2,0,0,1,.71-.31,3.54,3.54,0,0,1,.91-.11,3.09,3.09,0,0,1,2.23.8,3.19,3.19,0,0,1,0,4.29,3.26,3.26,0,0,1-2.33.77,5.8,5.8,0,0,1-1.23-.14,5.39,5.39,0,0,1-1.3-.44v-1.7H280a1.85,1.85,0,0,0,.53,1.28,1.91,1.91,0,0,0,1.34.44,1.74,1.74,0,0,0,1.42-.62,2.68,2.68,0,0,0,.5-1.75,2.77,2.77,0,0,0-.49-1.74,1.73,1.73,0,0,0-1.43-.61,2.2,2.2,0,0,0-.93.19,1.77,1.77,0,0,0-.71.58h-.51v-4.39Z"/><path d="M289.77,393.36a2.54,2.54,0,0,1-2.23-1.19,7.35,7.35,0,0,1,0-6.67,2.66,2.66,0,0,1,4.45,0,7.35,7.35,0,0,1,0,6.67A2.53,2.53,0,0,1,289.77,393.36Zm0-.56a1.43,1.43,0,0,0,1.34-1,7.63,7.63,0,0,0,.45-3,7.75,7.75,0,0,0-.45-3,1.41,1.41,0,0,0-2.69,0,7.59,7.59,0,0,0-.44,3,7.47,7.47,0,0,0,.44,3A1.44,1.44,0,0,0,289.77,392.8Z"/><g style="clip-path:url(#clip-path)"><line x1="356.64" y1="377.08" x2="356.64" y2="7.2" style="fill:none;stroke:#b0b0b0;stroke-linecap:square;stroke-linejoin:round;stroke-width:0.800000011920929px;opacity:0.30000001192092896"/></g><line x1="356.64" y1="377.08" x2="356.64" y2="380.58"/><line x1="356.64" y1="377.08" x2="356.64" y2="380.58" style="fill:none;stroke:#000;stroke-linejoin:round;stroke-width:0.800000011920929px"/><path d="M346.72,386.54h-.66V385a6.75,6.75,0,0,1,1.26-.5,4.55,4.55,0,0,1,1.25-.18,3.33,3.33,0,0,1,2.16.66,2.24,2.24,0,0,1,.79,1.8c0,.86-.6,1.88-1.8,3.07l-.21.21-2.2,2.2H351v-1.08h.69v2H346v-.63l2.65-2.65a6.71,6.71,0,0,0,1.25-1.61,3.38,3.38,0,0,0,.38-1.55,1.91,1.91,0,0,0-.47-1.38,1.61,1.61,0,0,0-1.26-.5,1.82,1.82,0,0,0-1.29.42A1.8,1.8,0,0,0,346.72,386.54Z"/><path d="M356.63,393.36a2.54,2.54,0,0,1-2.23-1.19,7.43,7.43,0,0,1,0-6.67,2.66,2.66,0,0,1,4.45,0,7.35,7.35,0,0,1,0,6.67A2.53,2.53,0,0,1,356.63,393.36Zm0-.56a1.43,1.43,0,0,0,1.34-1,7.63,7.63,0,0,0,.45-3,7.75,7.75,0,0,0-.45-3,1.44,1.44,0,0,0-1.34-1,1.42,1.42,0,0,0-1.34,1,7.56,7.56,0,0,0-.45,3,7.44,7.44,0,0,0,.45,3A1.41,1.41,0,0,0,356.63,392.8Z"/><path d="M364.26,393.36a2.54,2.54,0,0,1-2.23-1.19,7.43,7.43,0,0,1,0-6.67,2.66,2.66,0,0,1,4.45,0,7.27,7.27,0,0,1,0,6.67A2.53,2.53,0,0,1,364.26,393.36Zm0-.56a1.44,1.44,0,0,0,1.35-1,7.85,7.85,0,0,0,.44-3,8,8,0,0,0-.44-3,1.45,1.45,0,0,0-1.35-1,1.43,1.43,0,0,0-1.34,1,7.56,7.56,0,0,0-.45,3,7.44,7.44,0,0,0,.45,3A1.42,1.42,0,0,0,364.26,392.8Z"/><g style="clip-path:url(#clip-path)"><line x1="431.13" y1="377.08" x2="431.13" y2="7.2" style="fill:none;stroke:#b0b0b0;stroke-linecap:square;stroke-linejoin:round;stroke-width:0.800000011920929px;opacity:0.30000001192092896"/></g><line x1="431.13" y1="377.08" x2="431.13" y2="380.58"/><line x1="431.13" y1="377.08" x2="431.13" y2="380.58" style="fill:none;stroke:#000;stroke-linejoin:round;stroke-width:0.800000011920929px"/><path d="M421.21,386.54h-.66V385a6.75,6.75,0,0,1,1.26-.5,4.55,4.55,0,0,1,1.25-.18,3.33,3.33,0,0,1,2.16.66,2.21,2.21,0,0,1,.79,1.8c0,.86-.6,1.88-1.8,3.07l-.2.21-2.21,2.2h3.65v-1.08h.68v2h-5.64v-.63l2.65-2.65a6.71,6.71,0,0,0,1.25-1.61,3.38,3.38,0,0,0,.38-1.55,2,2,0,0,0-.46-1.38,1.64,1.64,0,0,0-1.26-.5,1.83,1.83,0,0,0-1.3.42A1.8,1.8,0,0,0,421.21,386.54Z"/><path d="M433.34,384.46v1h-4v2.5a2.19,2.19,0,0,1,.71-.31,3.66,3.66,0,0,1,.91-.11,3.12,3.12,0,0,1,2.24.8,3.22,3.22,0,0,1,0,4.29,3.29,3.29,0,0,1-2.33.77,5.89,5.89,0,0,1-1.24-.14,5.47,5.47,0,0,1-1.29-.44v-1.7H429a1.8,1.8,0,0,0,.52,1.28,1.94,1.94,0,0,0,1.35.44,1.71,1.71,0,0,0,1.41-.62,2.63,2.63,0,0,0,.51-1.75,2.77,2.77,0,0,0-.49-1.74,1.74,1.74,0,0,0-1.43-.61,2.28,2.28,0,0,0-.94.19,1.92,1.92,0,0,0-.71.58h-.5v-4.39Z"/><path d="M438.75,393.36a2.54,2.54,0,0,1-2.23-1.19,7.43,7.43,0,0,1,0-6.67,2.66,2.66,0,0,1,4.45,0,7.27,7.27,0,0,1,0,6.67A2.52,2.52,0,0,1,438.75,393.36Zm0-.56a1.44,1.44,0,0,0,1.35-1,7.66,7.66,0,0,0,.44-3,7.78,7.78,0,0,0-.44-3,1.45,1.45,0,0,0-1.35-1,1.43,1.43,0,0,0-1.34,1,7.59,7.59,0,0,0-.44,3,7.47,7.47,0,0,0,.44,3A1.42,1.42,0,0,0,438.75,392.8Z"/><g style="clip-path:url(#clip-path)"><line x1="505.63" y1="377.08" x2="505.63" y2="7.2" style="fill:none;stroke:#b0b0b0;stroke-linecap:square;stroke-linejoin:round;stroke-width:0.800000011920929px;opacity:0.30000001192092896"/></g><line x1="505.63" y1="377.08" x2="505.63" y2="380.58"/><line x1="505.63" y1="377.08" x2="505.63" y2="380.58" style="fill:none;stroke:#000;stroke-linejoin:round;stroke-width:0.800000011920929px"/><path d="M495.33,384.83a11.31,11.31,0,0,1,1.31-.4,6.36,6.36,0,0,1,1.19-.13,3.28,3.28,0,0,1,2,.55,2,2,0,0,1,.22,2.86,2.57,2.57,0,0,1-1.41.72,2.8,2.8,0,0,1,1.67.79,2.25,2.25,0,0,1,.6,1.62,2.23,2.23,0,0,1-.83,1.87,3.75,3.75,0,0,1-2.36.65,6.72,6.72,0,0,1-1.35-.14,5.47,5.47,0,0,1-1.29-.44v-1.7h.66a1.71,1.71,0,0,0,.56,1.28,2.16,2.16,0,0,0,1.44.44,1.91,1.91,0,0,0,1.42-.52,2,2,0,0,0,.51-1.43,2.11,2.11,0,0,0-.54-1.56,2.13,2.13,0,0,0-1.56-.53H497v-.6h.29a2.34,2.34,0,0,0,1.54-.42,1.58,1.58,0,0,0,.51-1.28,1.61,1.61,0,0,0-.42-1.18,1.73,1.73,0,0,0-1.21-.4,1.86,1.86,0,0,0-1.24.38,1.65,1.65,0,0,0-.5,1.1h-.66Z"/><path d="M505.61,393.36a2.54,2.54,0,0,1-2.23-1.19,7.43,7.43,0,0,1,0-6.67,2.66,2.66,0,0,1,4.45,0,7.27,7.27,0,0,1,0,6.67A2.52,2.52,0,0,1,505.61,393.36Zm0-.56a1.44,1.44,0,0,0,1.35-1,7.66,7.66,0,0,0,.44-3,7.78,7.78,0,0,0-.44-3,1.45,1.45,0,0,0-1.35-1,1.43,1.43,0,0,0-1.34,1,7.59,7.59,0,0,0-.44,3,7.47,7.47,0,0,0,.44,3A1.42,1.42,0,0,0,505.61,392.8Z"/><path d="M513.25,393.36a2.55,2.55,0,0,1-2.24-1.19,7.43,7.43,0,0,1,0-6.67,2.67,2.67,0,0,1,4.46,0,7.35,7.35,0,0,1,0,6.67A2.54,2.54,0,0,1,513.25,393.36Zm0-.56a1.43,1.43,0,0,0,1.34-1,7.66,7.66,0,0,0,.44-3,7.78,7.78,0,0,0-.44-3,1.41,1.41,0,0,0-2.69,0,7.59,7.59,0,0,0-.44,3,7.47,7.47,0,0,0,.44,3A1.44,1.44,0,0,0,513.25,392.8Z"/><path d="M275.81,410.35v-.73h1.3v-8.75h-1.3v-.73h4.83a3.62,3.62,0,0,1,2.42.78,2.89,2.89,0,0,1,0,4.19,3.57,3.57,0,0,1-2.42.77H278.5v3.74h1.58v.73Zm2.69-5.2h1.8a2.13,2.13,0,0,0,1.56-.54,2.68,2.68,0,0,0,0-3.2,2.13,2.13,0,0,0-1.56-.54h-1.8Z"/><path d="M290.67,405.81v3.81h1.12v.73h-2.38v-.79a2.45,2.45,0,0,1-1,.74,3.51,3.51,0,0,1-1.27.23,2.8,2.8,0,0,1-1.93-.63,2.19,2.19,0,0,1-.7-1.74,2,2,0,0,1,.81-1.73,3.64,3.64,0,0,1,2.3-.63h1.76v-.51a1.66,1.66,0,0,0-.5-1.27,2,2,0,0,0-1.42-.46,1.89,1.89,0,0,0-1.19.35,1.44,1.44,0,0,0-.56,1h-.64v-1.47a8.2,8.2,0,0,1,1.27-.42,6.33,6.33,0,0,1,1.21-.14,3.21,3.21,0,0,1,2.29.76A2.84,2.84,0,0,1,290.67,405.81Zm-1.26,2.25v-1.54h-1.62a2.05,2.05,0,0,0-1.4.41,1.57,1.57,0,0,0-.45,1.23,1.6,1.6,0,0,0,.46,1.21,1.73,1.73,0,0,0,1.26.44,1.7,1.7,0,0,0,1.26-.47A1.73,1.73,0,0,0,289.41,408.06Z"/><path d="M293.69,403.81h-1.1v-.73h1.1v-2.25H295v2.25h2.37v.73H295v4.62a2.33,2.33,0,0,0,.19,1.19.72.72,0,0,0,.65.25.88.88,0,0,0,.72-.29,1.81,1.81,0,0,0,.24-.94h.95a2,2,0,0,1-.55,1.44,2.13,2.13,0,0,1-1.47.45,2.08,2.08,0,0,1-1.54-.48,2.26,2.26,0,0,1-.45-1.62Z"/><path d="M305,408.16a2.81,2.81,0,0,1-3,2.37,3.26,3.26,0,0,1-2.54-1,4.47,4.47,0,0,1,0-5.56,3.27,3.27,0,0,1,2.54-1.05,6.06,6.06,0,0,1,1.38.17,8,8,0,0,1,1.37.48v1.86H304a2.35,2.35,0,0,0-.63-1.39,2,2,0,0,0-1.37-.44,1.69,1.69,0,0,0-1.54.79,5.66,5.66,0,0,0,0,4.74,1.68,1.68,0,0,0,1.54.78,1.93,1.93,0,0,0,1.29-.42,2.33,2.33,0,0,0,.67-1.29Z"/><path d="M306.22,410.35v-.73h1.14v-9.19h-1.21v-.72h2.47v4.66a2.71,2.71,0,0,1,.89-1.11,2.27,2.27,0,0,1,1.31-.38,2.19,2.19,0,0,1,1.76.69,3.36,3.36,0,0,1,.57,2.16v3.89h1.12v.73H310.8v-.73h1.09v-3.5a3.54,3.54,0,0,0-.33-1.82,1.31,1.31,0,0,0-1.15-.49,1.55,1.55,0,0,0-1.34.64,3.1,3.1,0,0,0-.45,1.85v3.32h1.09v.73Z"/><path d="M320.42,409.86v-2.33h.78a2.16,2.16,0,0,0,.68,1.72,2.83,2.83,0,0,0,1.94.56,3,3,0,0,0,1.85-.47,1.69,1.69,0,0,0,.64-1.42,1.59,1.59,0,0,0-.39-1.13,4.23,4.23,0,0,0-1.62-.77l-1.35-.41a4.37,4.37,0,0,1-2.07-1.1,2.64,2.64,0,0,1-.59-1.82,2.4,2.4,0,0,1,.93-2,4.16,4.16,0,0,1,2.59-.71,8.89,8.89,0,0,1,1.55.15,17.65,17.65,0,0,1,1.81.45v2.17h-.77a2.21,2.21,0,0,0-.73-1.55,2.87,2.87,0,0,0-1.83-.49,2.69,2.69,0,0,0-1.66.44,1.76,1.76,0,0,0-.14,2.43,4.5,4.5,0,0,0,1.81.82l1.26.38a4.45,4.45,0,0,1,2,1.06,2.48,2.48,0,0,1,.61,1.74,2.67,2.67,0,0,1-1,2.23,4.52,4.52,0,0,1-2.82.74,9.47,9.47,0,0,1-1.73-.17A9.14,9.14,0,0,1,320.42,409.86Z"/><path d="M331.68,409.62h1.19v.73h-3.66v-.73h1.21v-5.81h-1.21v-.73h2.47Zm-1.61-8.79a.75.75,0,0,1,.22-.55.78.78,0,0,1,.56-.24.75.75,0,0,1,.53.24.77.77,0,1,1-1.09,1.09A.7.7,0,0,1,330.07,400.83Z"/><polygon points="333.75 410.35 333.75 409.76 338.3 403.81 334.7 403.81 334.7 405.07 333.97 405.07 333.97 403.08 339.92 403.08 339.92 403.67 335.37 409.62 339.32 409.62 339.32 408.3 340.05 408.3 340.05 410.35 333.75 410.35"/><path d="M346.67,406.12a3.27,3.27,0,0,0-.55-1.92,1.68,1.68,0,0,0-1.41-.64,1.63,1.63,0,0,0-1.37.65,3.57,3.57,0,0,0-.6,1.91Zm1.48.73h-5.41v0a3.84,3.84,0,0,0,.54,2.23,1.9,1.9,0,0,0,1.64.74,2.11,2.11,0,0,0,1.36-.43,2.31,2.31,0,0,0,.74-1.29h1a3.06,3.06,0,0,1-1.11,1.79,3.58,3.58,0,0,1-2.13.59,3.32,3.32,0,0,1-2.56-1,4.52,4.52,0,0,1,0-5.56,3.55,3.55,0,0,1,5,0A4.43,4.43,0,0,1,348.15,406.85Z"/><g style="clip-path:url(#clip-path)"><line x1="66.12" y1="352.42" x2="557.77" y2="352.42" style="fill:none;stroke:#b0b0b0;stroke-linecap:square;stroke-linejoin:round;stroke-width:0.800000011920929px;opacity:0.30000001192092896"/></g><line x1="66.12" y1="352.42" x2="62.62" y2="352.42"/><line x1="66.12" y1="352.42" x2="62.62" y2="352.42" style="fill:none;stroke:#000;stroke-linejoin:round;stroke-width:0.800000011920929px"/><path d="M28.56,357.14A2.54,2.54,0,0,1,26.33,356a7.43,7.43,0,0,1,0-6.67,2.66,2.66,0,0,1,4.45,0,7.27,7.27,0,0,1,0,6.67A2.53,2.53,0,0,1,28.56,357.14Zm0-.57a1.43,1.43,0,0,0,1.35-1,10.28,10.28,0,0,0,0-5.95,1.46,1.46,0,0,0-1.35-1,1.44,1.44,0,0,0-1.34,1,10.06,10.06,0,0,0,0,5.95A1.41,1.41,0,0,0,28.56,356.57Z"/><path d="M33.51,356.37a.75.75,0,0,1,.78-.78.78.78,0,0,1,.55,1.33.82.82,0,0,1-1.12,0A.74.74,0,0,1,33.51,356.37Z"/><path d="M40,357.14A2.54,2.54,0,0,1,37.78,356a7.43,7.43,0,0,1,0-6.67,2.66,2.66,0,0,1,4.45,0,7.35,7.35,0,0,1,0,6.67A2.53,2.53,0,0,1,40,357.14Zm0-.57a1.42,1.42,0,0,0,1.34-1,10.06,10.06,0,0,0,0-5.95,1.45,1.45,0,0,0-1.34-1,1.43,1.43,0,0,0-1.34,1,10.06,10.06,0,0,0,0,5.95A1.4,1.4,0,0,0,40,356.57Z"/><path d="M45.36,350.32H44.7v-1.56a6.12,6.12,0,0,1,1.26-.5,4.55,4.55,0,0,1,1.25-.18,3.28,3.28,0,0,1,2.16.66,2.21,2.21,0,0,1,.79,1.8c0,.86-.6,1.88-1.8,3.07l-.2.2L46,356H49.6v-1.08h.68v2H44.64v-.64l2.65-2.65a6.34,6.34,0,0,0,1.25-1.61,3.35,3.35,0,0,0,.39-1.54,1.94,1.94,0,0,0-.47-1.38,1.62,1.62,0,0,0-1.26-.51,1.88,1.88,0,0,0-1.3.42A1.84,1.84,0,0,0,45.36,350.32Z"/><path d="M55.27,357.14A2.54,2.54,0,0,1,53,356a7.43,7.43,0,0,1,0-6.67,2.66,2.66,0,0,1,4.45,0,7.27,7.27,0,0,1,0,6.67A2.52,2.52,0,0,1,55.27,357.14Zm0-.57a1.43,1.43,0,0,0,1.35-1,10.28,10.28,0,0,0,0-5.95,1.46,1.46,0,0,0-1.35-1,1.44,1.44,0,0,0-1.34,1,10.28,10.28,0,0,0,0,5.95A1.41,1.41,0,0,0,55.27,356.57Z"/><g style="clip-path:url(#clip-path)"><line x1="66.12" y1="299.02" x2="557.77" y2="299.02" style="fill:none;stroke:#b0b0b0;stroke-linecap:square;stroke-linejoin:round;stroke-width:0.800000011920929px;opacity:0.30000001192092896"/></g><line x1="66.12" y1="299.02" x2="62.62" y2="299.02"/><line x1="66.12" y1="299.02" x2="62.62" y2="299.02" style="fill:none;stroke:#000;stroke-linejoin:round;stroke-width:0.800000011920929px"/><path d="M28.56,303.74a2.52,2.52,0,0,1-2.23-1.19,7.43,7.43,0,0,1,0-6.67,2.66,2.66,0,0,1,4.45,0,7.27,7.27,0,0,1,0,6.67A2.51,2.51,0,0,1,28.56,303.74Zm0-.56a1.44,1.44,0,0,0,1.35-1,7.82,7.82,0,0,0,.44-3,8,8,0,0,0-.44-3,1.45,1.45,0,0,0-1.35-1,1.43,1.43,0,0,0-1.34,1,7.56,7.56,0,0,0-.45,3,7.41,7.41,0,0,0,.45,3A1.42,1.42,0,0,0,28.56,303.18Z"/><path d="M33.51,303a.81.81,0,0,1,.21-.55.79.79,0,1,1,1.12,1.11.85.85,0,0,1-1.12,0A.78.78,0,0,1,33.51,303Z"/><path d="M40,303.74a2.52,2.52,0,0,1-2.23-1.19,7.43,7.43,0,0,1,0-6.67,2.66,2.66,0,0,1,4.45,0,7.35,7.35,0,0,1,0,6.67A2.51,2.51,0,0,1,40,303.74Zm0-.56a1.43,1.43,0,0,0,1.34-1,7.59,7.59,0,0,0,.45-3,7.75,7.75,0,0,0-.45-3,1.44,1.44,0,0,0-1.34-1,1.42,1.42,0,0,0-1.34,1,7.56,7.56,0,0,0-.45,3,7.41,7.41,0,0,0,.45,3A1.41,1.41,0,0,0,40,303.18Z"/><path d="M45.36,296.93H44.7v-1.56a6.16,6.16,0,0,1,1.26-.51,4.55,4.55,0,0,1,1.25-.18,3.33,3.33,0,0,1,2.16.66,2.24,2.24,0,0,1,.79,1.8c0,.87-.6,1.89-1.8,3.07l-.2.21L46,302.63H49.6v-1.08h.68v2H44.64V303l2.65-2.65a6.71,6.71,0,0,0,1.25-1.61,3.39,3.39,0,0,0,.39-1.55,2,2,0,0,0-.47-1.38,1.65,1.65,0,0,0-1.26-.5,1.83,1.83,0,0,0-1.3.42A1.8,1.8,0,0,0,45.36,296.93Z"/><path d="M57.49,294.84v1h-4v2.51a2.05,2.05,0,0,1,.7-.32,3.71,3.71,0,0,1,.92-.1,3.09,3.09,0,0,1,2.23.79,2.81,2.81,0,0,1,.83,2.13,2.77,2.77,0,0,1-.83,2.16,3.26,3.26,0,0,1-2.33.77,6.24,6.24,0,0,1-2.53-.57v-1.71h.66a1.79,1.79,0,0,0,.53,1.29,1.94,1.94,0,0,0,1.34.43,1.77,1.77,0,0,0,1.42-.61,2.73,2.73,0,0,0,.5-1.76,2.77,2.77,0,0,0-.49-1.74,1.77,1.77,0,0,0-1.43-.61,2.28,2.28,0,0,0-.94.19,1.91,1.91,0,0,0-.7.58h-.51v-4.39Z"/><g style="clip-path:url(#clip-path)"><line x1="66.12" y1="245.63" x2="557.77" y2="245.63" style="fill:none;stroke:#b0b0b0;stroke-linecap:square;stroke-linejoin:round;stroke-width:0.800000011920929px;opacity:0.30000001192092896"/></g><line x1="66.12" y1="245.63" x2="62.62" y2="245.63"/><line x1="66.12" y1="245.63" x2="62.62" y2="245.63" style="fill:none;stroke:#000;stroke-linejoin:round;stroke-width:0.800000011920929px"/><path d="M28.56,250.35a2.54,2.54,0,0,1-2.23-1.19,7.43,7.43,0,0,1,0-6.67,2.66,2.66,0,0,1,4.45,0,7.27,7.27,0,0,1,0,6.67A2.53,2.53,0,0,1,28.56,250.35Zm0-.57a1.43,1.43,0,0,0,1.35-1,10.28,10.28,0,0,0,0-6,1.46,1.46,0,0,0-1.35-1,1.44,1.44,0,0,0-1.34,1,10.06,10.06,0,0,0,0,6A1.41,1.41,0,0,0,28.56,249.78Z"/><path d="M33.51,249.58a.75.75,0,0,1,.78-.78.79.79,0,0,1,.78.78.8.8,0,0,1-1.35.55A.74.74,0,0,1,33.51,249.58Z"/><path d="M40,250.35a2.54,2.54,0,0,1-2.23-1.19,7.43,7.43,0,0,1,0-6.67,2.66,2.66,0,0,1,4.45,0,7.35,7.35,0,0,1,0,6.67A2.53,2.53,0,0,1,40,250.35Zm0-.57a1.42,1.42,0,0,0,1.34-1,10.06,10.06,0,0,0,0-6,1.45,1.45,0,0,0-1.34-1,1.43,1.43,0,0,0-1.34,1,10.06,10.06,0,0,0,0,6A1.4,1.4,0,0,0,40,249.78Z"/><path d="M45,241.82a11.31,11.31,0,0,1,1.31-.4,6.36,6.36,0,0,1,1.19-.13,3.28,3.28,0,0,1,2,.55,1.84,1.84,0,0,1,.72,1.54,1.87,1.87,0,0,1-.5,1.32,2.57,2.57,0,0,1-1.41.72,2.74,2.74,0,0,1,1.67.79,2.51,2.51,0,0,1-.23,3.49,3.75,3.75,0,0,1-2.36.65A6.07,6.07,0,0,1,46,250.2a5,5,0,0,1-1.29-.43v-1.7h.66a1.75,1.75,0,0,0,.56,1.28,2.15,2.15,0,0,0,1.44.43,1.91,1.91,0,0,0,1.42-.51,2,2,0,0,0,.51-1.43,2.11,2.11,0,0,0-.54-1.56,2.13,2.13,0,0,0-1.56-.53h-.55v-.6H47a2.34,2.34,0,0,0,1.54-.42,1.61,1.61,0,0,0,.51-1.28,1.59,1.59,0,0,0-.42-1.18,1.73,1.73,0,0,0-1.21-.41,1.86,1.86,0,0,0-1.24.39,1.65,1.65,0,0,0-.5,1.1H45Z"/><path d="M55.27,250.35A2.54,2.54,0,0,1,53,249.16a7.43,7.43,0,0,1,0-6.67,2.66,2.66,0,0,1,4.45,0,7.27,7.27,0,0,1,0,6.67A2.52,2.52,0,0,1,55.27,250.35Zm0-.57a1.43,1.43,0,0,0,1.35-1,10.28,10.28,0,0,0,0-6,1.46,1.46,0,0,0-1.35-1,1.44,1.44,0,0,0-1.34,1,10.28,10.28,0,0,0,0,6A1.41,1.41,0,0,0,55.27,249.78Z"/><g style="clip-path:url(#clip-path)"><line x1="66.12" y1="192.24" x2="557.77" y2="192.24" style="fill:none;stroke:#b0b0b0;stroke-linecap:square;stroke-linejoin:round;stroke-width:0.800000011920929px;opacity:0.30000001192092896"/></g><line x1="66.12" y1="192.24" x2="62.62" y2="192.24"/><line x1="66.12" y1="192.24" x2="62.62" y2="192.24" style="fill:none;stroke:#000;stroke-linejoin:round;stroke-width:0.800000011920929px"/><path d="M28.56,197a2.54,2.54,0,0,1-2.23-1.19,7.43,7.43,0,0,1,0-6.67,2.66,2.66,0,0,1,4.45,0,7.27,7.27,0,0,1,0,6.67A2.53,2.53,0,0,1,28.56,197Zm0-.57a1.43,1.43,0,0,0,1.35-1,10.28,10.28,0,0,0,0-5.95,1.46,1.46,0,0,0-1.35-1,1.44,1.44,0,0,0-1.34,1,10.06,10.06,0,0,0,0,5.95A1.41,1.41,0,0,0,28.56,196.39Z"/><path d="M33.51,196.19a.75.75,0,0,1,.78-.78.78.78,0,0,1,.55,1.33.82.82,0,0,1-1.12,0A.74.74,0,0,1,33.51,196.19Z"/><path d="M40,197a2.54,2.54,0,0,1-2.23-1.19,7.43,7.43,0,0,1,0-6.67,2.66,2.66,0,0,1,4.45,0,7.35,7.35,0,0,1,0,6.67A2.53,2.53,0,0,1,40,197Zm0-.57a1.42,1.42,0,0,0,1.34-1,10.06,10.06,0,0,0,0-5.95,1.45,1.45,0,0,0-1.34-1,1.43,1.43,0,0,0-1.34,1,10.06,10.06,0,0,0,0,5.95A1.4,1.4,0,0,0,40,196.39Z"/><path d="M45,188.42A11.18,11.18,0,0,1,46.3,188a5.62,5.62,0,0,1,1.19-.13,3.28,3.28,0,0,1,2,.55,2,2,0,0,1,.22,2.85,2.57,2.57,0,0,1-1.41.72,2.8,2.8,0,0,1,1.67.8,2.51,2.51,0,0,1-.23,3.49,3.75,3.75,0,0,1-2.36.65,6.07,6.07,0,0,1-1.35-.15,5.43,5.43,0,0,1-1.29-.43v-1.7h.66A1.75,1.75,0,0,0,46,196a2.15,2.15,0,0,0,1.44.43,2,2,0,0,0,1.42-.51,2,2,0,0,0,.51-1.43,2.1,2.1,0,0,0-.54-1.56,2.13,2.13,0,0,0-1.56-.53h-.55v-.6H47a2.34,2.34,0,0,0,1.54-.42,1.61,1.61,0,0,0,.51-1.28,1.59,1.59,0,0,0-.42-1.18,1.73,1.73,0,0,0-1.21-.41,1.81,1.81,0,0,0-1.24.39,1.65,1.65,0,0,0-.5,1.1H45Z"/><path d="M57.49,188.05v1h-4v2.51a2,2,0,0,1,.7-.31,3.68,3.68,0,0,1,.92-.11,3.09,3.09,0,0,1,2.23.79,2.83,2.83,0,0,1,.83,2.14,2.8,2.8,0,0,1-.83,2.16A3.31,3.31,0,0,1,55,197a5.32,5.32,0,0,1-1.24-.15,5.43,5.43,0,0,1-1.29-.43v-1.7h.66a1.78,1.78,0,0,0,.53,1.28,1.89,1.89,0,0,0,1.34.43,1.74,1.74,0,0,0,1.42-.61,2.7,2.7,0,0,0,.5-1.75,2.75,2.75,0,0,0-.49-1.74,1.74,1.74,0,0,0-1.43-.61,2.28,2.28,0,0,0-.94.19,1.88,1.88,0,0,0-.7.57h-.51v-4.39Z"/><g style="clip-path:url(#clip-path)"><line x1="66.12" y1="138.84" x2="557.77" y2="138.84" style="fill:none;stroke:#b0b0b0;stroke-linecap:square;stroke-linejoin:round;stroke-width:0.800000011920929px;opacity:0.30000001192092896"/></g><line x1="66.12" y1="138.84" x2="62.62" y2="138.84"/><line x1="66.12" y1="138.84" x2="62.62" y2="138.84" style="fill:none;stroke:#000;stroke-linejoin:round;stroke-width:0.800000011920929px"/><path d="M28.56,143.56a2.52,2.52,0,0,1-2.23-1.19,7.43,7.43,0,0,1,0-6.67,2.66,2.66,0,0,1,4.45,0,7.27,7.27,0,0,1,0,6.67A2.51,2.51,0,0,1,28.56,143.56Zm0-.56a1.44,1.44,0,0,0,1.35-1,7.82,7.82,0,0,0,.44-3,8,8,0,0,0-.44-3,1.45,1.45,0,0,0-1.35-1,1.43,1.43,0,0,0-1.34,1,7.56,7.56,0,0,0-.45,3,7.41,7.41,0,0,0,.45,3A1.42,1.42,0,0,0,28.56,143Z"/><path d="M33.51,142.79a.81.81,0,0,1,.21-.55.79.79,0,1,1,1.12,1.11.85.85,0,0,1-1.12,0A.78.78,0,0,1,33.51,142.79Z"/><path d="M40,143.56a2.52,2.52,0,0,1-2.23-1.19,7.43,7.43,0,0,1,0-6.67,2.66,2.66,0,0,1,4.45,0,7.35,7.35,0,0,1,0,6.67A2.51,2.51,0,0,1,40,143.56Zm0-.56a1.43,1.43,0,0,0,1.34-1,7.59,7.59,0,0,0,.45-3,7.75,7.75,0,0,0-.45-3,1.44,1.44,0,0,0-1.34-1,1.42,1.42,0,0,0-1.34,1,7.56,7.56,0,0,0-.45,3,7.41,7.41,0,0,0,.45,3A1.41,1.41,0,0,0,40,143Z"/><path d="M50.59,143.41h-4v-.63H48v-1.71H44.2v-.64L48,134.5h1.16v5.94h1.67v.63H49.19v1.71h1.4Zm-2.58-3v-4.65l-3,4.65Z"/><path d="M55.27,143.56A2.52,2.52,0,0,1,53,142.37a7.43,7.43,0,0,1,0-6.67,2.66,2.66,0,0,1,4.45,0,7.27,7.27,0,0,1,0,6.67A2.5,2.5,0,0,1,55.27,143.56Zm0-.56a1.44,1.44,0,0,0,1.35-1,7.62,7.62,0,0,0,.44-3,7.78,7.78,0,0,0-.44-3,1.45,1.45,0,0,0-1.35-1,1.43,1.43,0,0,0-1.34,1,7.59,7.59,0,0,0-.44,3,7.44,7.44,0,0,0,.44,3A1.42,1.42,0,0,0,55.27,143Z"/><g style="clip-path:url(#clip-path)"><line x1="66.12" y1="85.45" x2="557.77" y2="85.45" style="fill:none;stroke:#b0b0b0;stroke-linecap:square;stroke-linejoin:round;stroke-width:0.800000011920929px;opacity:0.30000001192092896"/></g><line x1="66.12" y1="85.45" x2="62.62" y2="85.45"/><line x1="66.12" y1="85.45" x2="62.62" y2="85.45" style="fill:none;stroke:#000;stroke-linejoin:round;stroke-width:0.800000011920929px"/><path d="M28.56,90.17A2.54,2.54,0,0,1,26.33,89a7.43,7.43,0,0,1,0-6.67,2.66,2.66,0,0,1,4.45,0,7.27,7.27,0,0,1,0,6.67A2.53,2.53,0,0,1,28.56,90.17Zm0-.56a1.44,1.44,0,0,0,1.35-1,7.85,7.85,0,0,0,.44-3,8,8,0,0,0-.44-3,1.45,1.45,0,0,0-1.35-1,1.43,1.43,0,0,0-1.34,1,7.56,7.56,0,0,0-.45,3,7.44,7.44,0,0,0,.45,3A1.42,1.42,0,0,0,28.56,89.61Z"/><path d="M33.51,89.4a.81.81,0,0,1,.21-.55.79.79,0,0,1,1.35.55.8.8,0,0,1-1.35.55A.74.74,0,0,1,33.51,89.4Z"/><path d="M40,90.17A2.54,2.54,0,0,1,37.78,89a7.43,7.43,0,0,1,0-6.67,2.66,2.66,0,0,1,4.45,0,7.35,7.35,0,0,1,0,6.67A2.53,2.53,0,0,1,40,90.17Zm0-.56a1.43,1.43,0,0,0,1.34-1,7.63,7.63,0,0,0,.45-3,7.75,7.75,0,0,0-.45-3,1.44,1.44,0,0,0-1.34-1,1.42,1.42,0,0,0-1.34,1,7.56,7.56,0,0,0-.45,3,7.44,7.44,0,0,0,.45,3A1.41,1.41,0,0,0,40,89.61Z"/><path d="M50.59,90h-4v-.62H48V87.67H44.2V87L48,81.11h1.16v5.94h1.67v.62H49.19v1.72h1.4Zm-2.58-3V82.39l-3,4.66Z"/><path d="M57.49,81.27v1h-4v2.5a2,2,0,0,1,.7-.31,3.68,3.68,0,0,1,.92-.11,3.09,3.09,0,0,1,2.23.8,3.19,3.19,0,0,1,0,4.29,3.26,3.26,0,0,1-2.33.77A5.89,5.89,0,0,1,53.77,90a5.47,5.47,0,0,1-1.29-.44v-1.7h.66a1.77,1.77,0,0,0,.53,1.28,1.9,1.9,0,0,0,1.34.44A1.74,1.74,0,0,0,56.43,89a2.68,2.68,0,0,0,.5-1.75,2.77,2.77,0,0,0-.49-1.74A1.74,1.74,0,0,0,55,84.89a2.28,2.28,0,0,0-.94.19,1.82,1.82,0,0,0-.7.58h-.51V81.27Z"/><g style="clip-path:url(#clip-path)"><line x1="66.12" y1="32.06" x2="557.77" y2="32.06" style="fill:none;stroke:#b0b0b0;stroke-linecap:square;stroke-linejoin:round;stroke-width:0.800000011920929px;opacity:0.30000001192092896"/></g><line x1="66.12" y1="32.06" x2="62.62" y2="32.06"/><line x1="66.12" y1="32.06" x2="62.62" y2="32.06" style="fill:none;stroke:#000;stroke-linejoin:round;stroke-width:0.800000011920929px"/><path d="M28.56,36.78a2.54,2.54,0,0,1-2.23-1.19,6,6,0,0,1-.79-3.34,5.94,5.94,0,0,1,.79-3.33,2.66,2.66,0,0,1,4.45,0,5.93,5.93,0,0,1,.81,3.33,6,6,0,0,1-.81,3.34A2.53,2.53,0,0,1,28.56,36.78Zm0-.57a1.43,1.43,0,0,0,1.35-1,7.91,7.91,0,0,0,.44-3,7.93,7.93,0,0,0-.44-3,1.46,1.46,0,0,0-1.35-1,1.44,1.44,0,0,0-1.34,1,7.51,7.51,0,0,0-.45,3,7.5,7.5,0,0,0,.45,3A1.41,1.41,0,0,0,28.56,36.21Z"/><path d="M33.51,36a.75.75,0,0,1,.78-.78.78.78,0,0,1,.55,1.33.82.82,0,0,1-1.12,0A.74.74,0,0,1,33.51,36Z"/><path d="M40,36.78a2.54,2.54,0,0,1-2.23-1.19A6,6,0,0,1,37,32.25a5.94,5.94,0,0,1,.79-3.33,2.66,2.66,0,0,1,4.45,0,5.94,5.94,0,0,1,.8,3.33,6,6,0,0,1-.8,3.34A2.53,2.53,0,0,1,40,36.78Zm0-.57a1.42,1.42,0,0,0,1.34-1,7.68,7.68,0,0,0,.45-3,7.7,7.7,0,0,0-.45-3,1.45,1.45,0,0,0-1.34-1,1.43,1.43,0,0,0-1.34,1,7.51,7.51,0,0,0-.45,3,7.5,7.5,0,0,0,.45,3A1.4,1.4,0,0,0,40,36.21Z"/><path d="M49.86,27.87v1h-4v2.51a2.19,2.19,0,0,1,.71-.31,3.66,3.66,0,0,1,.91-.11,3.11,3.11,0,0,1,2.24.79,2.83,2.83,0,0,1,.82,2.14A2.8,2.8,0,0,1,49.71,36a3.34,3.34,0,0,1-2.33.77,5.32,5.32,0,0,1-1.24-.15,5.43,5.43,0,0,1-1.29-.43V34.5h.66A1.82,1.82,0,0,0,46,35.78a1.94,1.94,0,0,0,1.35.43,1.7,1.7,0,0,0,1.41-.61,2.65,2.65,0,0,0,.51-1.75,2.75,2.75,0,0,0-.49-1.74,1.74,1.74,0,0,0-1.43-.61,2.28,2.28,0,0,0-.94.19,2,2,0,0,0-.71.57h-.5V27.87Z"/><path d="M55.27,36.78A2.54,2.54,0,0,1,53,35.59a6,6,0,0,1-.79-3.34A5.94,5.94,0,0,1,53,28.92a2.66,2.66,0,0,1,4.45,0,5.93,5.93,0,0,1,.81,3.33,6,6,0,0,1-.81,3.34A2.52,2.52,0,0,1,55.27,36.78Zm0-.57a1.43,1.43,0,0,0,1.35-1,7.71,7.71,0,0,0,.44-3,7.73,7.73,0,0,0-.44-3,1.46,1.46,0,0,0-1.35-1,1.44,1.44,0,0,0-1.34,1,7.54,7.54,0,0,0-.44,3,7.53,7.53,0,0,0,.44,3A1.41,1.41,0,0,0,55.27,36.21Z"/><polygon points="17.84 228.61 17.11 228.61 17.11 227.31 8.45 227.31 8.45 230.3 10.04 230.3 10.04 231.14 7.63 231.14 7.63 222.08 10.04 222.08 10.04 222.92 8.45 222.92 8.45 225.92 17.11 225.92 17.11 224.62 17.84 224.62 17.84 228.61"/><path d="M18,218.81a3.25,3.25,0,0,1-1,2.54,3.93,3.93,0,0,1-2.79,1,3.93,3.93,0,0,1-2.77-.95,3.33,3.33,0,0,1-1-2.56,3.27,3.27,0,0,1,1-2.55,3.9,3.9,0,0,1,2.77-1,3.93,3.93,0,0,1,2.79,1A3.26,3.26,0,0,1,18,218.81Zm-.66,0a1.7,1.7,0,0,0-.79-1.53,4.44,4.44,0,0,0-2.36-.52,4.44,4.44,0,0,0-2.36.52,1.71,1.71,0,0,0-.8,1.53,1.68,1.68,0,0,0,.8,1.52,4.35,4.35,0,0,0,2.36.52,4.35,4.35,0,0,0,2.36-.52A1.68,1.68,0,0,0,17.36,218.81Z"/><path d="M11.3,213.08v1.11h-.73v-1.11H8.32v-1.26h2.25v-2.37h.73v2.37h4.62a2.45,2.45,0,0,0,1.19-.18.74.74,0,0,0,.25-.66.83.83,0,0,0-.29-.71,1.69,1.69,0,0,0-.94-.24v-.95a2,2,0,0,1,1.44.54,2.09,2.09,0,0,1,.45,1.47,2.11,2.11,0,0,1-.47,1.54,2.29,2.29,0,0,1-1.63.45Z"/><path d="M13.3,202.13h3.81V201h.73v2.38h-.78a2.65,2.65,0,0,1,.74,1,3.55,3.55,0,0,1,.22,1.27,2.8,2.8,0,0,1-.63,1.93,2.18,2.18,0,0,1-1.73.7,2,2,0,0,1-1.74-.81,3.63,3.63,0,0,1-.63-2.29v-1.77h-.5a1.64,1.64,0,0,0-1.28.51,2,2,0,0,0-.46,1.41,1.94,1.94,0,0,0,.35,1.19,1.44,1.44,0,0,0,1,.56v.64H10.94a8.2,8.2,0,0,1-.42-1.27,5.6,5.6,0,0,1-.14-1.2,3.22,3.22,0,0,1,.75-2.3A2.85,2.85,0,0,1,13.3,202.13Zm2.26,1.26H14V205a2.13,2.13,0,0,0,.4,1.4,1.61,1.61,0,0,0,1.24.44,1.57,1.57,0,0,0,1.2-.46,1.94,1.94,0,0,0,0-2.52A1.72,1.72,0,0,0,15.56,203.39Z"/><polygon points="17.11 197.75 17.11 196.56 17.84 196.56 17.84 200.22 17.11 200.22 17.11 199.01 7.93 199.01 7.93 200.22 7.2 200.22 7.2 197.75 17.11 197.75"/><polygon points="17.84 190.92 17.11 190.92 17.11 189.62 8.36 189.62 8.36 190.92 7.63 190.92 7.63 182.7 9.9 182.7 9.9 183.54 8.47 183.54 8.47 188.23 11.89 188.23 11.89 184.88 10.62 184.88 10.62 184.04 14.01 184.04 14.01 184.88 12.73 184.88 12.73 188.23 17 188.23 17 183.43 15.57 183.43 15.57 182.59 17.84 182.59 17.84 190.92"/><path d="M10.56,174.78h1.82v.72a1.31,1.31,0,0,0-.81.3,1.12,1.12,0,0,0-.27.78A1.74,1.74,0,0,0,12,178a2.92,2.92,0,0,0,1.84.49h3.32V177h.73v3.85h-.73v-1.13H11.29V181h-.72V178.5h1.29a2.63,2.63,0,0,1-1.12-.94,2.69,2.69,0,0,1-.36-1.43c0-.19,0-.42,0-.64A7.2,7.2,0,0,1,10.56,174.78Z"/><path d="M10.56,168.08h1.82v.73a1.31,1.31,0,0,0-.81.3,1.1,1.1,0,0,0-.27.78,1.74,1.74,0,0,0,.65,1.43,3,3,0,0,0,1.84.49h3.32v-1.46h.73v3.85h-.73v-1.13H11.29v1.2h-.72v-2.46h1.29a2.63,2.63,0,0,1-1.12-.94,2.69,2.69,0,0,1-.36-1.43c0-.19,0-.42,0-.64S10.5,168.34,10.56,168.08Z"/><path d="M18,163.87a3.29,3.29,0,0,1-1,2.55,4,4,0,0,1-2.79,1,3.89,3.89,0,0,1-2.77-.95,3.63,3.63,0,0,1,0-5.11,3.94,3.94,0,0,1,2.77-1,4,4,0,0,1,2.79,1A3.29,3.29,0,0,1,18,163.87Zm-.66,0a1.72,1.72,0,0,0-.79-1.53,4.54,4.54,0,0,0-2.36-.51,4.54,4.54,0,0,0-2.36.51,1.86,1.86,0,0,0,0,3.06,4.35,4.35,0,0,0,2.36.51,4.35,4.35,0,0,0,2.36-.51A1.7,1.7,0,0,0,17.36,163.87Z"/><path d="M10.56,153h1.82v.73a1.31,1.31,0,0,0-.81.3,1.1,1.1,0,0,0-.27.78A1.74,1.74,0,0,0,12,156.2a3,3,0,0,0,1.84.49h3.32v-1.46h.73v3.85h-.73V158H11.29v1.2h-.72v-2.46h1.29a2.63,2.63,0,0,1-1.12-.94,2.69,2.69,0,0,1-.36-1.43c0-.19,0-.42,0-.64S10.5,153.22,10.56,153Z"/><g style="clip-path:url(#clip-path)"><polyline points="88.47 360.27 118.27 299.77 177.86 282.13 297.05 252.89 535.42 85.16" style="fill:none;stroke:#1f77b4;stroke-linecap:square;stroke-linejoin:round;stroke-width:2.5px;opacity:0.8999999761581421"/><g style="clip-path:url(#clip-path-15)"><path d="M88.47,364.27a4,4,0,1,0-2.83-1.17A4,4,0,0,0,88.47,364.27Z" style="fill:#1f77b4;opacity:0.8999999761581421"/><path d="M88.47,364.27a4,4,0,1,0-2.83-1.17A4,4,0,0,0,88.47,364.27Z" style="fill:none;stroke:#1f77b4;stroke-linejoin:round;opacity:0.8999999761581421"/></g><g style="clip-path:url(#clip-path-16)"><path d="M118.27,303.77a4,4,0,0,0,4-4A4,4,0,0,0,121.1,297a4,4,0,0,0-5.66,0,4,4,0,0,0,2.83,6.82Z" style="fill:#1f77b4;opacity:0.8999999761581421"/><path d="M118.27,303.77a4,4,0,0,0,4-4A4,4,0,0,0,121.1,297a4,4,0,0,0-5.66,0,4,4,0,0,0,2.83,6.82Z" style="fill:none;stroke:#1f77b4;stroke-linejoin:round;opacity:0.8999999761581421"/></g><g style="clip-path:url(#clip-path-17)"><path d="M177.86,286.13A4,4,0,1,0,175,285,4,4,0,0,0,177.86,286.13Z" style="fill:#1f77b4;opacity:0.8999999761581421"/><path d="M177.86,286.13A4,4,0,1,0,175,285,4,4,0,0,0,177.86,286.13Z" style="fill:none;stroke:#1f77b4;stroke-linejoin:round;opacity:0.8999999761581421"/></g><g style="clip-path:url(#clip-path-18)"><path d="M297.05,256.89a4,4,0,1,0-2.83-1.17A4,4,0,0,0,297.05,256.89Z" style="fill:#1f77b4;opacity:0.8999999761581421"/><path d="M297.05,256.89a4,4,0,1,0-2.83-1.17A4,4,0,0,0,297.05,256.89Z" style="fill:none;stroke:#1f77b4;stroke-linejoin:round;opacity:0.8999999761581421"/></g><g style="clip-path:url(#clip-path-19)"><path d="M535.42,89.16A4,4,0,1,0,532.6,88,4,4,0,0,0,535.42,89.16Z" style="fill:#1f77b4;opacity:0.8999999761581421"/><path d="M535.42,89.16A4,4,0,1,0,532.6,88,4,4,0,0,0,535.42,89.16Z" style="fill:none;stroke:#1f77b4;stroke-linejoin:round;opacity:0.8999999761581421"/></g></g><g style="clip-path:url(#clip-path)"><polyline points="88.47 226.45 118.27 241.76 177.86 134.59 297.05 24.01 535.42 32.13" style="fill:none;stroke:#ff7f0e;stroke-linejoin:round;stroke-width:2.5px;stroke-dasharray:9.25,4;opacity:0.8999999761581421"/><g style="clip-path:url(#clip-path-21)"><rect x="84.47" y="222.45" width="8" height="8" style="fill:#ff7f0e;opacity:0.8999999761581421"/><rect x="84.47" y="222.45" width="8" height="8" style="fill:none;stroke:#ff7f0e;stroke-miterlimit:10;opacity:0.8999999761581421"/></g><g style="clip-path:url(#clip-path-22)"><rect x="114.27" y="237.76" width="8" height="8" style="fill:#ff7f0e;opacity:0.8999999761581421"/><rect x="114.27" y="237.76" width="8" height="8" style="fill:none;stroke:#ff7f0e;stroke-miterlimit:10;opacity:0.8999999761581421"/></g><g style="clip-path:url(#clip-path-23)"><rect x="173.86" y="130.59" width="8" height="8" style="fill:#ff7f0e;opacity:0.8999999761581421"/><rect x="173.86" y="130.59" width="8" height="8" style="fill:none;stroke:#ff7f0e;stroke-miterlimit:10;opacity:0.8999999761581421"/></g><g style="clip-path:url(#clip-path-24)"><rect x="293.05" y="20.01" width="8" height="8" style="fill:#ff7f0e;opacity:0.8999999761581421"/><rect x="293.05" y="20.01" width="8" height="8" style="fill:none;stroke:#ff7f0e;stroke-miterlimit:10;opacity:0.8999999761581421"/></g><g style="clip-path:url(#clip-path-25)"><rect x="531.42" y="28.13" width="8" height="8" style="fill:#ff7f0e;opacity:0.8999999761581421"/><rect x="531.42" y="28.13" width="8" height="8" style="fill:none;stroke:#ff7f0e;stroke-miterlimit:10;opacity:0.8999999761581421"/></g></g><line x1="66.12" y1="377.08" x2="66.12" y2="7.2" style="fill:none;stroke:#000;stroke-linecap:square;stroke-miterlimit:10"/><line x1="66.12" y1="377.08" x2="557.77" y2="377.08" style="fill:none;stroke:#000;stroke-linecap:square;stroke-miterlimit:10"/><rect x="72.12" y="13.2" width="93.65" height="38.85" style="fill:#fff;opacity:0.800000011920929"/><rect x="72.12" y="13.2" width="93.65" height="38.85" style="fill:none;stroke:#000;stroke-miterlimit:10;opacity:0.800000011920929"/><polyline points="76.92 22.93 88.92 22.93 100.92 22.93" style="fill:none;stroke:#1f77b4;stroke-linecap:square;stroke-linejoin:round;stroke-width:2.5px;opacity:0.8999999761581421"/><path d="M88.92,26.92a4,4,0,1,0-2.83-1.17A4,4,0,0,0,88.92,26.92Z" style="fill:#1f77b4;opacity:0.8999999761581421"/><path d="M88.92,26.92a4,4,0,1,0-2.83-1.17A4,4,0,0,0,88.92,26.92Z" style="fill:none;stroke:#1f77b4;stroke-linejoin:round;opacity:0.8999999761581421"/><polygon points="111.18 27.13 111.18 26.5 112.3 26.5 112.3 19 111.12 19 111.12 18.38 113.67 18.38 116.74 24.61 119.81 18.38 122.2 18.38 122.2 19 121.03 19 121.03 26.5 122.15 26.5 122.15 27.13 118.73 27.13 118.73 26.5 119.85 26.5 119.85 19.75 116.85 25.84 116.02 25.84 113.02 19.75 113.02 26.5 114.13 26.5 114.13 27.13 111.18 27.13"/><path d="M126.42,27.28a2.8,2.8,0,0,1-2.18-.89,3.38,3.38,0,0,1-.83-2.38,3.33,3.33,0,0,1,.82-2.38,3.11,3.11,0,0,1,4.38,0,3.38,3.38,0,0,1,.82,2.38,3.38,3.38,0,0,1-.82,2.38A2.84,2.84,0,0,1,126.42,27.28Zm0-.56a1.46,1.46,0,0,0,1.31-.69,3.77,3.77,0,0,0,.44-2,3.85,3.85,0,0,0-.44-2,1.59,1.59,0,0,0-2.62,0,3.75,3.75,0,0,0-.44,2,3.68,3.68,0,0,0,.44,2A1.46,1.46,0,0,0,126.42,26.72Z"/><path d="M135.77,20.89v1.56h-.62a1.1,1.1,0,0,0-.26-.7,1,1,0,0,0-.67-.23,1.48,1.48,0,0,0-1.22.55,2.55,2.55,0,0,0-.42,1.59V26.5h1.25v.62h-3.3V26.5h1v-5h-1V20.9h2.11V22a2.26,2.26,0,0,1,.8-1,2.39,2.39,0,0,1,1.23-.31,3.74,3.74,0,0,1,.55.05A5.29,5.29,0,0,1,135.77,20.89Z"/><path d="M137.07,21.52h-.95V20.9h.95V19h1.08V20.9h2v.62h-2v4a2,2,0,0,0,.15,1,.66.66,0,0,0,.57.22.73.73,0,0,0,.61-.26,1.43,1.43,0,0,0,.2-.8h.82A1.77,1.77,0,0,1,140,26.9a1.84,1.84,0,0,1-1.26.38,1.77,1.77,0,0,1-1.32-.41,2,2,0,0,1-.38-1.39Z"/><path d="M144.21,27.28a2.81,2.81,0,0,1-2.19-.89,3.38,3.38,0,0,1-.83-2.38,3.38,3.38,0,0,1,.82-2.38,2.84,2.84,0,0,1,2.2-.9,2.81,2.81,0,0,1,2.18.9,3.38,3.38,0,0,1,.83,2.38,3.38,3.38,0,0,1-.83,2.38A2.8,2.8,0,0,1,144.21,27.28Zm0-.56a1.45,1.45,0,0,0,1.3-.69,3.76,3.76,0,0,0,.45-2,3.84,3.84,0,0,0-.45-2,1.58,1.58,0,0,0-2.61,0,3.75,3.75,0,0,0-.45,2,3.67,3.67,0,0,0,.45,2A1.45,1.45,0,0,0,144.21,26.72Z"/><path d="M148.31,27.12V26.5h1v-5h-1V20.9h2.11V22a2.38,2.38,0,0,1,.77-.95,1.94,1.94,0,0,1,1.12-.32,1.87,1.87,0,0,1,1.51.59,2.9,2.9,0,0,1,.49,1.85V26.5h1v.62h-3V26.5h.94v-3a3,3,0,0,0-.29-1.56,1.07,1.07,0,0,0-1-.43,1.33,1.33,0,0,0-1.15.55,2.68,2.68,0,0,0-.39,1.6V26.5h.94v.62Z"/><polyline points="76.92 40.55 88.92 40.55 100.92 40.55" style="fill:none;stroke:#ff7f0e;stroke-linejoin:round;stroke-width:2.5px;stroke-dasharray:9.25,4;opacity:0.8999999761581421"/><rect x="84.92" y="36.55" width="8" height="8" style="fill:#ff7f0e;opacity:0.8999999761581421"/><rect x="84.92" y="36.55" width="8" height="8" style="fill:none;stroke:#ff7f0e;stroke-miterlimit:10;opacity:0.8999999761581421"/><path d="M113.49,40.06h1.72a1.84,1.84,0,0,0,1.31-3,1.81,1.81,0,0,0-1.31-.42h-1.72Zm2.78.35a1.82,1.82,0,0,1,.71.38,2.76,2.76,0,0,1,.53.74l1.27,2.6h1.07v.62h-2.07L116.41,42a3.09,3.09,0,0,0-.72-1,1.53,1.53,0,0,0-.9-.24h-1.3v3.45h1.23v.62h-3.54v-.62h1.12v-7.5h-1.12V36h4.44a3,3,0,0,1,2,.61,2.21,2.21,0,0,1,.7,1.73,1.93,1.93,0,0,1-.51,1.42A2.46,2.46,0,0,1,116.27,40.41Z"/><path d="M125.68,40.86v3.27h1v.62h-2v-.67a2.16,2.16,0,0,1-.83.63,3,3,0,0,1-1.09.2,2.42,2.42,0,0,1-1.66-.54,1.92,1.92,0,0,1-.6-1.49,1.76,1.76,0,0,1,.7-1.49,3.14,3.14,0,0,1,2-.54h1.51v-.43a1.38,1.38,0,0,0-.43-1.09,1.72,1.72,0,0,0-1.21-.4,1.63,1.63,0,0,0-1,.3,1.22,1.22,0,0,0-.48.86h-.56V38.83a8.79,8.79,0,0,1,1.1-.36,5.17,5.17,0,0,1,1-.12,2.77,2.77,0,0,1,2,.65A2.45,2.45,0,0,1,125.68,40.86Zm-1.08,1.93V41.47h-1.39a1.77,1.77,0,0,0-1.2.35,1.33,1.33,0,0,0-.39,1.06,1.38,1.38,0,0,0,.4,1,1.45,1.45,0,0,0,1.08.38,1.41,1.41,0,0,0,1.5-1.5Z"/><path d="M127.47,44.75v-.62h1v-5h-1v-.63h2.11v1.11a2.31,2.31,0,0,1,.77-1,1.87,1.87,0,0,1,1.11-.33,1.91,1.91,0,0,1,1.52.59,2.92,2.92,0,0,1,.49,1.85v3.34h1v.62h-3v-.62h.94v-3a3,3,0,0,0-.29-1.56,1.09,1.09,0,0,0-1-.44,1.37,1.37,0,0,0-1.16.56,2.75,2.75,0,0,0-.38,1.59v2.85h.94v.62Z"/><path d="M139.92,41.94v-.61a2.83,2.83,0,0,0-.43-1.7,1.45,1.45,0,0,0-1.25-.6,1.42,1.42,0,0,0-1.26.66,3.61,3.61,0,0,0-.42,1.94,3.71,3.71,0,0,0,.42,2,1.42,1.42,0,0,0,1.26.66,1.47,1.47,0,0,0,1.25-.59A2.85,2.85,0,0,0,139.92,41.94ZM141,44.13h1v.62h-2.12v-1a2.09,2.09,0,0,1-.8.86,2.64,2.64,0,0,1-1.21.27A2.32,2.32,0,0,1,136,44a3.71,3.71,0,0,1-.72-2.38,3.67,3.67,0,0,1,.72-2.36,2.34,2.34,0,0,1,1.89-.92,2.52,2.52,0,0,1,1.21.28,2.23,2.23,0,0,1,.8.86V36.25h-1v-.62H141Z"/><path d="M146,44.91a2.81,2.81,0,0,1-2.19-.89,3.86,3.86,0,0,1,0-4.77,2.84,2.84,0,0,1,2.2-.9,2.81,2.81,0,0,1,2.18.9,3.84,3.84,0,0,1,0,4.77A2.8,2.8,0,0,1,146,44.91Zm0-.57a1.47,1.47,0,0,0,1.3-.68,3.8,3.8,0,0,0,.45-2,3.84,3.84,0,0,0-.45-2,1.59,1.59,0,0,0-2.61,0,3.75,3.75,0,0,0-.45,2,3.71,3.71,0,0,0,.45,2A1.46,1.46,0,0,0,146,44.34Z"/><path d="M155.82,39.73a2.57,2.57,0,0,1,.8-1,1.87,1.87,0,0,1,1.12-.35,1.78,1.78,0,0,1,1.47.62,2.93,2.93,0,0,1,.48,1.82v3.34h1v.62h-3v-.62h.94V40.91a2.5,2.5,0,0,0-.29-1.36,1.06,1.06,0,0,0-.92-.4,1.28,1.28,0,0,0-1.11.55,2.77,2.77,0,0,0-.37,1.58v2.85h.94v.62h-3v-.62h.94V40.87a2.36,2.36,0,0,0-.29-1.33,1.05,1.05,0,0,0-.92-.39,1.3,1.3,0,0,0-1.11.55,2.77,2.77,0,0,0-.37,1.58v2.85h.94v.62h-3v-.62h1v-5h-1v-.61h2.11v1.11a2.29,2.29,0,0,1,.76-1,1.77,1.77,0,0,1,1.05-.33,1.94,1.94,0,0,1,1.2.36A1.81,1.81,0,0,1,155.82,39.73Z"/></svg>