<svg xmlns="http://www.w3.org/2000/svg" viewBox="0 0 375.3 241.31"><defs><style>.cls-1{fill:#e30613;}.cls-2{fill:#1d1d1b;}.cls-3{fill:none;stroke:#1d1d1b;stroke-miterlimit:10;}</style></defs><g id="Calque_2" data-name="Calque 2"><g id="Calque_1-2" data-name="Calque 1"><path class="cls-1" d="M8.73,102.56l-3,10.36H4.26l-2.7-10.08c-.11-.42-.21-.76-.31-1a2.81,2.81,0,0,0-.28-.62,1.17,1.17,0,0,0-.3-.35,1.78,1.78,0,0,0-.47-.2v-.45h4v.45a1.62,1.62,0,0,0-.8.34.83.83,0,0,0-.23.62,4,4,0,0,0,.09.77c0,.3.13.63.23,1l1.87,7.33,3-10.52H9.87l2.42,10.53,2.19-7.08a7.09,7.09,0,0,0,.4-1.84,1.14,1.14,0,0,0-.24-.81,1.35,1.35,0,0,0-.78-.35v-.45h3.66v.45a2.41,2.41,0,0,0-.45.21,1.61,1.61,0,0,0-.32.32,3.05,3.05,0,0,0-.33.62c-.12.27-.26.65-.43,1.12l-3.37,10H11.29Z" transform="translate(-0.2)"/><path class="cls-1" d="M20.89,105.44h0a8.68,8.68,0,0,1,1.15-1,3.94,3.94,0,0,1,.83-.44,2.86,2.86,0,0,1,.89-.14,3.18,3.18,0,0,1,.91.12,2.11,2.11,0,0,1,.7.36,2.09,2.09,0,0,1,.49.61,3,3,0,0,1,.28.85,7.25,7.25,0,0,1,.09,1.26v3.49a6.17,6.17,0,0,0,.07,1.1.89.89,0,0,0,.25.46,2,2,0,0,0,.73.31v.45H23.67v-.45a3.59,3.59,0,0,0,.52-.2.71.71,0,0,0,.26-.23,1.2,1.2,0,0,0,.17-.46,5.33,5.33,0,0,0,.06-.94v-2.43a10.12,10.12,0,0,0-.13-1.89,1.66,1.66,0,0,0-.49-1,1.5,1.5,0,0,0-1-.32,1.6,1.6,0,0,0-.67.13,3,3,0,0,0-.69.46,2.82,2.82,0,0,0-.59.69,1.5,1.5,0,0,0-.2.75v3.55a6.22,6.22,0,0,0,0,.9,1.34,1.34,0,0,0,.12.45.73.73,0,0,0,.28.3,2.38,2.38,0,0,0,.59.22v.45H18.25v-.45a3.43,3.43,0,0,0,.58-.21.88.88,0,0,0,.28-.26,1.39,1.39,0,0,0,.14-.46,6.78,6.78,0,0,0,.05-.94v-7.76c0-.59,0-1,0-1.24a3.09,3.09,0,0,0-.07-.6,1,1,0,0,0-.17-.39.74.74,0,0,0-.29-.22,2.85,2.85,0,0,0-.65-.17v-.48l2.24-.09h.55Z" transform="translate(-0.2)"/><path class="cls-1" d="M36.3,111.28a7.47,7.47,0,0,1-1.09,1,4,4,0,0,1-2.4.75,3.58,3.58,0,0,1-2.88-1.14,5.13,5.13,0,0,1-1-3.39,5.64,5.64,0,0,1,.5-2.43,3.74,3.74,0,0,1,1.42-1.64,3.9,3.9,0,0,1,2.11-.57,4,4,0,0,1,1.6.29,2.62,2.62,0,0,1,1.05.82,3.68,3.68,0,0,1,.61,1.29,8.47,8.47,0,0,1,.25,2H30.64v.17a5.76,5.76,0,0,0,.25,1.84,2.26,2.26,0,0,0,.81,1.17,2.36,2.36,0,0,0,1.46.42,3.23,3.23,0,0,0,1.37-.28,4.23,4.23,0,0,0,1.21-.93Zm-1.56-3.77a6.75,6.75,0,0,0-.25-1.64,2,2,0,0,0-.58-1,1.48,1.48,0,0,0-1-.34,1.79,1.79,0,0,0-1.53.77,4.11,4.11,0,0,0-.67,2.18Z" transform="translate(-0.2)"/><path class="cls-1" d="M47.19,112.85H43.54v-.45a3.59,3.59,0,0,0,.52-.2.71.71,0,0,0,.26-.23,1.2,1.2,0,0,0,.17-.46,5.33,5.33,0,0,0,.06-.94v-2.43c0-.43,0-.83,0-1.18a4.56,4.56,0,0,0-.12-.87,1.59,1.59,0,0,0-.22-.52,1.32,1.32,0,0,0-.29-.33,1.39,1.39,0,0,0-.4-.21,1.84,1.84,0,0,0-.58-.08,1.81,1.81,0,0,0-.69.14,2.92,2.92,0,0,0-.71.5,2.51,2.51,0,0,0-.57.7,1.63,1.63,0,0,0-.17.78v3.46a5.5,5.5,0,0,0,.07,1.11.83.83,0,0,0,.28.48,2.13,2.13,0,0,0,.68.28v.45H38.16v-.45a3,3,0,0,0,.51-.2.71.71,0,0,0,.26-.23,1.21,1.21,0,0,0,.17-.45,5.52,5.52,0,0,0,.06-1v-4c0-.4,0-.72,0-1A1.34,1.34,0,0,0,39,105a.71.71,0,0,0-.34-.32,2.67,2.67,0,0,0-.64-.18V104l2.17-.08h.56l-.1,1.51.13,0a9.71,9.71,0,0,1,1.11-1,3.94,3.94,0,0,1,.85-.46,2.58,2.58,0,0,1,.92-.16,3.44,3.44,0,0,1,.89.11,2,2,0,0,1,.7.36,2,2,0,0,1,.5.6,3.1,3.1,0,0,1,.29.86,7.17,7.17,0,0,1,.1,1.27v3.49q0,.64,0,.93a1.43,1.43,0,0,0,.13.45.75.75,0,0,0,.27.26,2.71,2.71,0,0,0,.61.23Z" transform="translate(-0.2)"/><path class="cls-1" d="M61.27,104.92l-1.72-.06-.08.1a2,2,0,0,1,.45.78,3.38,3.38,0,0,1,.17,1.07,3,3,0,0,1-.93,2.34,3.93,3.93,0,0,1-2.65.82,4,4,0,0,1-1.33-.2,1.43,1.43,0,0,0-.7,1.06.85.85,0,0,0,.13.52.75.75,0,0,0,.45.25,4.22,4.22,0,0,0,.94.08h2.22a3.7,3.7,0,0,1,1.61.3,2,2,0,0,1,.89.82A2.71,2.71,0,0,1,61,114a2.59,2.59,0,0,1-.5,1.56A3.23,3.23,0,0,1,59,116.62a5.94,5.94,0,0,1-2.21.38,12.82,12.82,0,0,1-1.71-.11,4.58,4.58,0,0,1-1.32-.38,2.06,2.06,0,0,1-.86-.69,1.86,1.86,0,0,1-.3-1.08,1.66,1.66,0,0,1,.39-1.07,3.49,3.49,0,0,1,1.1-.83,1.57,1.57,0,0,1-.68-.52,1.32,1.32,0,0,1-.25-.81,1.75,1.75,0,0,1,.29-1,4.87,4.87,0,0,1,1.05-1,2.58,2.58,0,0,1-1-1.06,3.13,3.13,0,0,1-.35-1.52,3.43,3.43,0,0,1,.26-1.38,2.6,2.6,0,0,1,.74-1,3.11,3.11,0,0,1,1.1-.57,4.77,4.77,0,0,1,1.39-.19A5.94,5.94,0,0,1,58,104h3.29ZM55.06,113a2.91,2.91,0,0,0-.71.75,1.67,1.67,0,0,0-.24.89,1.33,1.33,0,0,0,.67,1.23,4,4,0,0,0,2,.4,4.34,4.34,0,0,0,1.43-.22,2,2,0,0,0,.91-.65,1.55,1.55,0,0,0,.32-1,1.79,1.79,0,0,0-.07-.51,1,1,0,0,0-.24-.44,1.31,1.31,0,0,0-.52-.31,2.93,2.93,0,0,0-.87-.11H56.39A13,13,0,0,1,55.06,113Zm-.23-6.2a3,3,0,0,0,.47,1.8,1.61,1.61,0,0,0,1.37.63,1.66,1.66,0,0,0,.8-.18,1.56,1.56,0,0,0,.55-.5,2.08,2.08,0,0,0,.3-.73,3.46,3.46,0,0,0,.1-.87,3.57,3.57,0,0,0-.23-1.36,1.74,1.74,0,0,0-.63-.8,1.7,1.7,0,0,0-.92-.26,1.63,1.63,0,0,0-1.35.59A2.65,2.65,0,0,0,54.83,106.8Z" transform="translate(-0.2)"/><path class="cls-1" d="M66.37,113a3.78,3.78,0,0,1-3-1.13,5,5,0,0,1-1-3.37,5.8,5.8,0,0,1,.53-2.59,3.65,3.65,0,0,1,1.46-1.57,4.35,4.35,0,0,1,2.12-.51,3.79,3.79,0,0,1,3,1.15,4.82,4.82,0,0,1,1,3.32,5.83,5.83,0,0,1-.51,2.6,3.52,3.52,0,0,1-1.44,1.58A4.5,4.5,0,0,1,66.37,113Zm-2.21-4.69a5.74,5.74,0,0,0,.61,2.93,1.9,1.9,0,0,0,1.74,1,1.84,1.84,0,0,0,1.06-.3,2.34,2.34,0,0,0,.71-.81,4.06,4.06,0,0,0,.39-1.19,7.93,7.93,0,0,0,.12-1.4,7.3,7.3,0,0,0-.3-2.27,2.75,2.75,0,0,0-.82-1.32,1.84,1.84,0,0,0-1.19-.42,1.9,1.9,0,0,0-1.72,1A5.34,5.34,0,0,0,64.16,108.31Z" transform="translate(-0.2)"/><path class="cls-1" d="M81.45,112.85H77.8v-.45a3.59,3.59,0,0,0,.52-.2.71.71,0,0,0,.26-.23,1.2,1.2,0,0,0,.17-.46,5.33,5.33,0,0,0,.06-.94v-2.43c0-.43,0-.83,0-1.18a4.56,4.56,0,0,0-.12-.87,1.59,1.59,0,0,0-.22-.52,1.32,1.32,0,0,0-.29-.33,1.39,1.39,0,0,0-.4-.21,1.84,1.84,0,0,0-.58-.08,1.81,1.81,0,0,0-.69.14,2.92,2.92,0,0,0-.71.5,2.51,2.51,0,0,0-.57.7,1.76,1.76,0,0,0-.17.78v3.46a5.5,5.5,0,0,0,.07,1.11.83.83,0,0,0,.28.48,2.11,2.11,0,0,0,.69.28v.45H72.42v-.45a3,3,0,0,0,.51-.2.64.64,0,0,0,.26-.23,1.21,1.21,0,0,0,.17-.45,5.52,5.52,0,0,0,.06-1v-4c0-.4,0-.72,0-1a1.34,1.34,0,0,0-.13-.58.71.71,0,0,0-.34-.32,2.67,2.67,0,0,0-.64-.18V104l2.17-.08H75l-.11,1.51.13,0a9.71,9.71,0,0,1,1.11-1A3.78,3.78,0,0,1,77,104a2.49,2.49,0,0,1,.91-.16,3.44,3.44,0,0,1,.89.11,2,2,0,0,1,.7.36,2,2,0,0,1,.5.6,3.1,3.1,0,0,1,.29.86,7.17,7.17,0,0,1,.1,1.27v3.49q0,.64,0,.93a1.43,1.43,0,0,0,.13.45.75.75,0,0,0,.27.26,2.71,2.71,0,0,0,.61.23Z" transform="translate(-0.2)"/><path class="cls-1" d="M90.44,111.28a8,8,0,0,1-1.09,1,4.14,4.14,0,0,1-1.09.55A4,4,0,0,1,87,113a3.59,3.59,0,0,1-2.89-1.14,5.13,5.13,0,0,1-1-3.39,5.64,5.64,0,0,1,.49-2.43A3.87,3.87,0,0,1,85,104.4a3.92,3.92,0,0,1,2.11-.57,4,4,0,0,1,1.6.29,2.62,2.62,0,0,1,1.05.82,3.69,3.69,0,0,1,.62,1.29,9.07,9.07,0,0,1,.24,2H84.78v.17a6.08,6.08,0,0,0,.24,1.84,2.19,2.19,0,0,0,2.27,1.59,3.2,3.2,0,0,0,1.37-.28,4.09,4.09,0,0,0,1.21-.93Zm-1.56-3.77a7.28,7.28,0,0,0-.25-1.64,2,2,0,0,0-.59-1,1.48,1.48,0,0,0-1-.34,1.77,1.77,0,0,0-1.52.77,4.11,4.11,0,0,0-.68,2.18Z" transform="translate(-0.2)"/><path class="cls-1" d="M101.84,111.53l-.14,0a5.8,5.8,0,0,1-1.52,1.17,3.38,3.38,0,0,1-1.51.34,2.73,2.73,0,0,1-1.24-.27,2,2,0,0,1-.83-.77,2.25,2.25,0,0,1-.28-1.15,2.28,2.28,0,0,1,1.34-2.09,9.48,9.48,0,0,1,4-.86v-.6a4.77,4.77,0,0,0-.19-1.52,1.45,1.45,0,0,0-.58-.82,2,2,0,0,0-1.07-.26,1.72,1.72,0,0,0-1.16.38,2.36,2.36,0,0,0-.67,1.14H96.8V105a12.3,12.3,0,0,1,1.48-.68,9.38,9.38,0,0,1,1.19-.35,6.13,6.13,0,0,1,1.21-.12,3.1,3.1,0,0,1,1.47.29,1.87,1.87,0,0,1,.84.89,4.67,4.67,0,0,1,.28,1.82v3.23c0,.46,0,.78,0,1a2.78,2.78,0,0,0,0,.52,1.1,1.1,0,0,0,.14.39.73.73,0,0,0,.27.25,4,4,0,0,0,.59.21v.45h-2.54Zm-.16-2.91a6.64,6.64,0,0,0-2.82.5,1.56,1.56,0,0,0-.94,1.46,1.42,1.42,0,0,0,.22.84,1.13,1.13,0,0,0,.53.42,2.27,2.27,0,0,0,.77.11,2.24,2.24,0,0,0,1.15-.3,2.39,2.39,0,0,0,.8-.78,1.84,1.84,0,0,0,.29-.94Z" transform="translate(-0.2)"/><path class="cls-1" d="M108.26,105.41l.13,0a11.4,11.4,0,0,1,.91-.84,4,4,0,0,1,.69-.45,2.66,2.66,0,0,1,.63-.25,2.35,2.35,0,0,1,.6-.07,2.54,2.54,0,0,1,1.51.42,2.24,2.24,0,0,1,.81,1.31,12.55,12.55,0,0,1,1.12-1,3.78,3.78,0,0,1,.88-.51,2.61,2.61,0,0,1,1-.18,2.91,2.91,0,0,1,1.08.18,1.89,1.89,0,0,1,.76.55,2.4,2.4,0,0,1,.45,1,6.17,6.17,0,0,1,.14,1.52v3.49a6.84,6.84,0,0,0,0,1,1.21,1.21,0,0,0,.14.42.7.7,0,0,0,.26.25,3,3,0,0,0,.59.22v.45h-3.64v-.45a3.59,3.59,0,0,0,.52-.2.71.71,0,0,0,.26-.23,1.2,1.2,0,0,0,.17-.46,5.33,5.33,0,0,0,.06-.94v-2.43c0-.52,0-1,0-1.3a4.26,4.26,0,0,0-.13-.82,1.5,1.5,0,0,0-.22-.49,1.33,1.33,0,0,0-.28-.3,1.12,1.12,0,0,0-.37-.21,1.76,1.76,0,0,0-.57-.07,1.65,1.65,0,0,0-.69.15,2.68,2.68,0,0,0-.69.5,2.48,2.48,0,0,0-.55.71,2,2,0,0,0-.16.84v3.38a7.31,7.31,0,0,0,0,1,1.21,1.21,0,0,0,.14.42.89.89,0,0,0,.26.25,2.89,2.89,0,0,0,.6.22v.45H111v-.45a3.17,3.17,0,0,0,.52-.2.64.64,0,0,0,.26-.23,1.05,1.05,0,0,0,.17-.46,5.33,5.33,0,0,0,.06-.94v-2.43a12.38,12.38,0,0,0,0-1.34,3.83,3.83,0,0,0-.14-.84,1.52,1.52,0,0,0-.25-.51,1.09,1.09,0,0,0-.68-.45,2.28,2.28,0,0,0-.48,0,1.62,1.62,0,0,0-.72.17,3.18,3.18,0,0,0-.68.5,2.17,2.17,0,0,0-.52.68,1.6,1.6,0,0,0-.18.75v3.48a8,8,0,0,0,0,.81,1.86,1.86,0,0,0,.09.44.76.76,0,0,0,.15.25.92.92,0,0,0,.26.19,2.76,2.76,0,0,0,.52.18v.45h-3.64v-.45a3,3,0,0,0,.51-.2.71.71,0,0,0,.26-.23,1.06,1.06,0,0,0,.17-.45,5.76,5.76,0,0,0,0-1v-4c0-.4,0-.72,0-1a1.72,1.72,0,0,0-.13-.58.75.75,0,0,0-.34-.32,2.77,2.77,0,0,0-.65-.18V104l2.17-.08h.57Z" transform="translate(-0.2)"/><path class="cls-1" d="M128.8,110.53a6.67,6.67,0,0,0,0,.91,1.25,1.25,0,0,0,.14.46.78.78,0,0,0,.29.28,3,3,0,0,0,.61.22v.45H126v-.45a2,2,0,0,0,.77-.33.88.88,0,0,0,.25-.52,6.26,6.26,0,0,0,.06-1v-8a6.91,6.91,0,0,0,0-.93,1.17,1.17,0,0,0-.16-.46.78.78,0,0,0-.28-.26,3.63,3.63,0,0,0-.6-.22v-.45h3.91v.45a2.53,2.53,0,0,0-.59.21.85.85,0,0,0-.28.25,1,1,0,0,0-.16.46,5.69,5.69,0,0,0,0,1Z" transform="translate(-0.2)"/><path class="cls-1" d="M133.87,110.7A6.25,6.25,0,0,1,134,112a3.07,3.07,0,0,1-.22,1.19,3.9,3.9,0,0,1-.71,1.07,9.3,9.3,0,0,1-1.34,1.17l-.5-.56a4.32,4.32,0,0,0,.68-.8,2.37,2.37,0,0,0,.31-.82,6,6,0,0,0,.09-1.14c0-.47,0-.93-.06-1.39Z" transform="translate(-0.2)"/><path class="cls-1" d="M139.43,104.45a2,2,0,0,0,.75-.26,1.38,1.38,0,0,0,.45-.48,2.81,2.81,0,0,0,.26-.73c.06-.3.12-.72.19-1.29h1.32V104h3v.94h-3v4.13a10.82,10.82,0,0,0,.07,1.43,1.93,1.93,0,0,0,.28.84,1.32,1.32,0,0,0,.46.43,1.48,1.48,0,0,0,.67.13,1.66,1.66,0,0,0,.7-.15,3.06,3.06,0,0,0,.64-.44l.42.5a5.15,5.15,0,0,1-1.25.92,2.64,2.64,0,0,1-1.22.29,2.15,2.15,0,0,1-1.78-.71,3.45,3.45,0,0,1-.59-2.22v-5.15h-1.37Z" transform="translate(-0.2)"/><path class="cls-1" d="M148.9,105.44h0a9.45,9.45,0,0,1,1.14-1,4,4,0,0,1,.84-.44,2.8,2.8,0,0,1,.88-.14,3.14,3.14,0,0,1,.91.12,2,2,0,0,1,.7.36,2,2,0,0,1,.5.61,3,3,0,0,1,.28.85,7.25,7.25,0,0,1,.09,1.26v3.49a5.32,5.32,0,0,0,.07,1.1.89.89,0,0,0,.25.46,1.89,1.89,0,0,0,.73.31v.45h-3.66v-.45a2.83,2.83,0,0,0,.52-.2.67.67,0,0,0,.27-.23,1.39,1.39,0,0,0,.17-.46,5.33,5.33,0,0,0,.06-.94v-2.43a11.07,11.07,0,0,0-.13-1.89,1.72,1.72,0,0,0-.49-1,1.79,1.79,0,0,0-1.69-.19,3,3,0,0,0-.69.46,2.62,2.62,0,0,0-.59.69,1.5,1.5,0,0,0-.2.75v3.55a9,9,0,0,0,0,.9,1.61,1.61,0,0,0,.13.45.67.67,0,0,0,.28.3,2.38,2.38,0,0,0,.59.22v.45h-3.67v-.45a3.81,3.81,0,0,0,.58-.21.88.88,0,0,0,.28-.26,1.39,1.39,0,0,0,.14-.46,6.78,6.78,0,0,0,.05-.94v-7.76c0-.59,0-1,0-1.24a3.09,3.09,0,0,0-.07-.6,1,1,0,0,0-.17-.39.82.82,0,0,0-.29-.22,3,3,0,0,0-.65-.17v-.48l2.23-.09h.56Z" transform="translate(-0.2)"/><path class="cls-1" d="M164.31,111.28a7.47,7.47,0,0,1-1.09,1,4,4,0,0,1-2.4.75,3.58,3.58,0,0,1-2.88-1.14,5.13,5.13,0,0,1-1-3.39,5.64,5.64,0,0,1,.5-2.43,3.74,3.74,0,0,1,1.42-1.64,3.9,3.9,0,0,1,2.11-.57,4,4,0,0,1,1.6.29,2.62,2.62,0,0,1,1,.82,3.68,3.68,0,0,1,.61,1.29,8.47,8.47,0,0,1,.25,2h-5.85v.17a5.76,5.76,0,0,0,.25,1.84,2.26,2.26,0,0,0,.81,1.17,2.36,2.36,0,0,0,1.46.42,3.23,3.23,0,0,0,1.37-.28,4.23,4.23,0,0,0,1.21-.93Zm-1.56-3.77a6.75,6.75,0,0,0-.25-1.64,2,2,0,0,0-.58-1,1.48,1.48,0,0,0-1-.34,1.79,1.79,0,0,0-1.53.77,4.11,4.11,0,0,0-.67,2.18Z" transform="translate(-0.2)"/><path class="cls-1" d="M172.83,110.53a5.5,5.5,0,0,0,.07,1.11.83.83,0,0,0,.28.48,2.11,2.11,0,0,0,.69.28v.45h-3.69v-.45a2,2,0,0,0,.65-.25.76.76,0,0,0,.26-.31,1.79,1.79,0,0,0,.11-.49c0-.21,0-.48,0-.82v-7.76c0-.59,0-1,0-1.24a3,3,0,0,0-.08-.6,1,1,0,0,0-.16-.39.82.82,0,0,0-.29-.22,3,3,0,0,0-.66-.17v-.48l2.24-.09h.56Z" transform="translate(-0.2)"/><path class="cls-1" d="M180.87,111.53l-.14,0a5.64,5.64,0,0,1-1.52,1.17,3.36,3.36,0,0,1-1.5.34,2.77,2.77,0,0,1-1.25-.27,2,2,0,0,1-.82-.77,2.26,2.26,0,0,1-.29-1.15,2.3,2.3,0,0,1,1.34-2.09,9.51,9.51,0,0,1,4-.86v-.6a5.12,5.12,0,0,0-.18-1.52,1.51,1.51,0,0,0-.59-.82,1.93,1.93,0,0,0-1.06-.26,1.73,1.73,0,0,0-1.17.38,2.43,2.43,0,0,0-.66,1.14h-1.22V105a12.33,12.33,0,0,1,1.49-.68,8.79,8.79,0,0,1,1.18-.35,6.13,6.13,0,0,1,1.21-.12,3.14,3.14,0,0,1,1.48.29,1.85,1.85,0,0,1,.83.89,4.49,4.49,0,0,1,.28,1.82v3.23c0,.46,0,.78,0,1a2.78,2.78,0,0,0,.05.52,1.34,1.34,0,0,0,.14.39.85.85,0,0,0,.28.25,3.63,3.63,0,0,0,.59.21v.45h-2.55Zm-.16-2.91a6.71,6.71,0,0,0-2.82.5,1.57,1.57,0,0,0-.93,1.46,1.49,1.49,0,0,0,.21.84,1.11,1.11,0,0,0,.54.42,2.47,2.47,0,0,0,1.91-.19,2.3,2.3,0,0,0,.8-.78,1.75,1.75,0,0,0,.29-.94Z" transform="translate(-0.2)"/><path class="cls-1" d="M191,106h-.89a2.87,2.87,0,0,0-.48-.88,1.67,1.67,0,0,0-.63-.45,2.49,2.49,0,0,0-.87-.13,1.88,1.88,0,0,0-1.18.35,1.15,1.15,0,0,0-.44,1,1.25,1.25,0,0,0,.18.7,1.63,1.63,0,0,0,.55.52,8.62,8.62,0,0,0,1.3.64,11.17,11.17,0,0,1,1.46.75,2.69,2.69,0,0,1,.81.8,2,2,0,0,1,.29,1.09,2.67,2.67,0,0,1-.25,1.23,2.07,2.07,0,0,1-.7.82,3.08,3.08,0,0,1-1.08.45,5.94,5.94,0,0,1-1.37.14,10.52,10.52,0,0,1-1.51-.11,12.93,12.93,0,0,1-1.43-.31v-1.93h.91a2.29,2.29,0,0,0,.74,1.23,2.13,2.13,0,0,0,1.35.39,2.9,2.9,0,0,0,.66-.07A1.8,1.8,0,0,0,189,112a1.21,1.21,0,0,0,.4-.44,1.68,1.68,0,0,0,0-1.47,1.69,1.69,0,0,0-.58-.54,8.88,8.88,0,0,0-1.37-.66,9.23,9.23,0,0,1-1.35-.69,2.62,2.62,0,0,1-.8-.79,1.9,1.9,0,0,1-.3-1.08,2.17,2.17,0,0,1,.42-1.32,2.57,2.57,0,0,1,1.19-.86,5.32,5.32,0,0,1,1.83-.29,11.37,11.37,0,0,1,1.18.06c.38,0,.86.12,1.43.23Z" transform="translate(-0.2)"/><path class="cls-1" d="M192.39,104.45a2,2,0,0,0,.75-.26,1.22,1.22,0,0,0,.45-.48,2.48,2.48,0,0,0,.26-.73c.06-.3.13-.72.19-1.29h1.32V104h3v.94h-3v4.13a10.54,10.54,0,0,0,.08,1.43,2.07,2.07,0,0,0,.27.84,1.27,1.27,0,0,0,.47.43,1.43,1.43,0,0,0,.67.13,1.62,1.62,0,0,0,.69-.15,2.82,2.82,0,0,0,.64-.44l.42.5a5.15,5.15,0,0,1-1.25.92,2.64,2.64,0,0,1-1.22.29,2.15,2.15,0,0,1-1.78-.71,3.45,3.45,0,0,1-.58-2.22v-5.15h-1.38Z" transform="translate(-0.2)"/><path class="cls-1" d="M207.6,113a3.78,3.78,0,0,1-2.95-1.13,5,5,0,0,1-1-3.37,5.67,5.67,0,0,1,.53-2.59,3.6,3.6,0,0,1,1.46-1.57,4.35,4.35,0,0,1,2.12-.51,3.79,3.79,0,0,1,3,1.15,4.87,4.87,0,0,1,1,3.32,6,6,0,0,1-.51,2.6,3.52,3.52,0,0,1-1.44,1.58A4.5,4.5,0,0,1,207.6,113Zm-2.21-4.69a5.74,5.74,0,0,0,.61,2.93,1.9,1.9,0,0,0,1.74,1,1.86,1.86,0,0,0,1.06-.3,2.22,2.22,0,0,0,.7-.81,3.79,3.79,0,0,0,.4-1.19,7.93,7.93,0,0,0,.12-1.4,7.3,7.3,0,0,0-.3-2.27,2.83,2.83,0,0,0-.82-1.32,1.84,1.84,0,0,0-1.19-.42,1.9,1.9,0,0,0-1.72,1A5.34,5.34,0,0,0,205.39,108.31Z" transform="translate(-0.2)"/><path class="cls-1" d="M218.42,104.92H216.2v5.61a5.41,5.41,0,0,0,.06.94,1.2,1.2,0,0,0,.18.48.85.85,0,0,0,.3.26,3,3,0,0,0,.61.19v.45h-3.8v-.45a3.63,3.63,0,0,0,.59-.21.75.75,0,0,0,.27-.26,1.18,1.18,0,0,0,.15-.46,7.18,7.18,0,0,0,0-.94v-5.61h-1.12v-.47l.47-.09a.62.62,0,0,0,.22-.1.64.64,0,0,0,.19-.18,1.28,1.28,0,0,0,.14-.36,4,4,0,0,0,.09-.66,5.24,5.24,0,0,1,.37-1.65,2.8,2.8,0,0,1,.83-1.07,3.14,3.14,0,0,1,1.16-.63,5.17,5.17,0,0,1,1.45-.18,7.14,7.14,0,0,1,1.24.1v1.68h-.92a1.77,1.77,0,0,0-.41-.77.93.93,0,0,0-.66-.23,1.54,1.54,0,0,0-.52.08,1.22,1.22,0,0,0-.38.26,1.41,1.41,0,0,0-.3.48,2.67,2.67,0,0,0-.19.73,9,9,0,0,0-.06,1.15v1h2.22Z" transform="translate(-0.2)"/><path class="cls-1" d="M223,104.45a2,2,0,0,0,.75-.26,1.38,1.38,0,0,0,.45-.48,2.49,2.49,0,0,0,.25-.73c.07-.3.13-.72.2-1.29H226V104h3v.94h-3v4.13a10.82,10.82,0,0,0,.07,1.43,1.93,1.93,0,0,0,.28.84,1.32,1.32,0,0,0,.46.43,1.48,1.48,0,0,0,.67.13,1.66,1.66,0,0,0,.7-.15,3.06,3.06,0,0,0,.64-.44l.41.5a5.12,5.12,0,0,1-1.24.92,2.67,2.67,0,0,1-1.22.29,2.15,2.15,0,0,1-1.78-.71,3.45,3.45,0,0,1-.59-2.22v-5.15H223Z" transform="translate(-0.2)"/><path class="cls-1" d="M232.5,105.44h0a9.45,9.45,0,0,1,1.14-1,3.77,3.77,0,0,1,.84-.44,2.8,2.8,0,0,1,.88-.14,3.14,3.14,0,0,1,.91.12,2,2,0,0,1,.7.36,1.94,1.94,0,0,1,.49.61,2.74,2.74,0,0,1,.29.85,7.25,7.25,0,0,1,.09,1.26v3.49a5.32,5.32,0,0,0,.07,1.1.89.89,0,0,0,.25.46,1.89,1.89,0,0,0,.73.31v.45h-3.66v-.45a3.17,3.17,0,0,0,.52-.2.67.67,0,0,0,.27-.23,1.21,1.21,0,0,0,.16-.46,5.12,5.12,0,0,0,.07-.94v-2.43a11.07,11.07,0,0,0-.13-1.89,1.72,1.72,0,0,0-.49-1,1.55,1.55,0,0,0-1-.32,1.63,1.63,0,0,0-.67.13,3.25,3.25,0,0,0-.68.46,2.62,2.62,0,0,0-.59.69,1.5,1.5,0,0,0-.2.75v3.55a9,9,0,0,0,0,.9,1.33,1.33,0,0,0,.13.45.67.67,0,0,0,.28.3,2.23,2.23,0,0,0,.59.22v.45h-3.67v-.45a3.81,3.81,0,0,0,.58-.21.75.75,0,0,0,.27-.26,1.18,1.18,0,0,0,.15-.46,7.18,7.18,0,0,0,0-.94v-7.76c0-.59,0-1,0-1.24a3.09,3.09,0,0,0-.07-.6,1,1,0,0,0-.17-.39.82.82,0,0,0-.29-.22,3,3,0,0,0-.65-.17v-.48l2.23-.09h.56Z" transform="translate(-0.2)"/><path class="cls-1" d="M247.91,111.28a8,8,0,0,1-1.09,1,4,4,0,0,1-1.09.55,3.91,3.91,0,0,1-1.31.2,3.57,3.57,0,0,1-2.88-1.14,5.13,5.13,0,0,1-1-3.39,5.64,5.64,0,0,1,.5-2.43,3.78,3.78,0,0,1,1.41-1.64,3.93,3.93,0,0,1,2.12-.57,4,4,0,0,1,1.59.29,2.73,2.73,0,0,1,1.06.82,3.87,3.87,0,0,1,.61,1.29,8.53,8.53,0,0,1,.24,2h-5.84v.17a5.76,5.76,0,0,0,.25,1.84,2.3,2.3,0,0,0,.8,1.17,2.38,2.38,0,0,0,1.46.42,3.17,3.17,0,0,0,1.37-.28,4,4,0,0,0,1.21-.93Zm-1.56-3.77a7.28,7.28,0,0,0-.25-1.64,2,2,0,0,0-.58-1,1.48,1.48,0,0,0-1-.34,1.79,1.79,0,0,0-1.53.77,4,4,0,0,0-.67,2.18Z" transform="translate(-0.2)"/><path class="cls-2" d="M256.83,112.22a5.74,5.74,0,0,1-.29,2,2.94,2.94,0,0,1-1,1.32,6,6,0,0,1-1.94.92l-.3-.82a3.86,3.86,0,0,0,1.16-.63,1.68,1.68,0,0,0,.48-.8,5.61,5.61,0,0,0,.13-1.3V102.51a5.11,5.11,0,0,0-.08-1.1.9.9,0,0,0-.26-.46,2.12,2.12,0,0,0-.75-.31v-.45h3.92v.45a2.53,2.53,0,0,0-.59.21.89.89,0,0,0-.29.25,1.36,1.36,0,0,0-.16.46,7.06,7.06,0,0,0-.05,1Z" transform="translate(-0.2)"/><path class="cls-2" d="M267.19,111.28a8,8,0,0,1-1.09,1,4,4,0,0,1-1.09.55,3.91,3.91,0,0,1-1.31.2,3.59,3.59,0,0,1-2.89-1.14,5.13,5.13,0,0,1-1-3.39,5.5,5.5,0,0,1,.5-2.43,3.78,3.78,0,0,1,1.41-1.64,3.93,3.93,0,0,1,2.12-.57,4,4,0,0,1,1.59.29,2.62,2.62,0,0,1,1.05.82,3.69,3.69,0,0,1,.62,1.29,9.07,9.07,0,0,1,.24,2h-5.84v.17a6.08,6.08,0,0,0,.24,1.84,2.19,2.19,0,0,0,2.27,1.59,3.17,3.17,0,0,0,1.37-.28,4,4,0,0,0,1.21-.93Zm-1.56-3.77a7.28,7.28,0,0,0-.25-1.64,2,2,0,0,0-.59-1,1.48,1.48,0,0,0-1-.34,1.79,1.79,0,0,0-1.52.77,4.11,4.11,0,0,0-.68,2.18Z" transform="translate(-0.2)"/><path class="cls-2" d="M275.31,102.77c0-.59,0-1,0-1.24a3.09,3.09,0,0,0-.07-.6,1,1,0,0,0-.17-.39.82.82,0,0,0-.29-.22,3,3,0,0,0-.65-.17v-.48l2.24-.09h.55v10.74c0,.48,0,.83,0,1a1.46,1.46,0,0,0,.12.49.65.65,0,0,0,.29.3,2.5,2.5,0,0,0,.7.22v.48l-2.19.1h-.55l.11-1.53-.14,0a7.81,7.81,0,0,1-1,.93,4.11,4.11,0,0,1-.92.5,3,3,0,0,1-1,.18,2.72,2.72,0,0,1-2.35-1.15,5.72,5.72,0,0,1-.82-3.34,5.65,5.65,0,0,1,.54-2.58,3.55,3.55,0,0,1,1.45-1.58,4,4,0,0,1,2.05-.52,6.43,6.43,0,0,1,1.12.09,6.69,6.69,0,0,1,1,.32Zm0,4.58a8.64,8.64,0,0,0-.07-1.16,2.33,2.33,0,0,0-.22-.73,1.43,1.43,0,0,0-.41-.5,1.56,1.56,0,0,0-.57-.3,2.75,2.75,0,0,0-.75-.09,2,2,0,0,0-1.81,1,5,5,0,0,0-.62,2.73,5.75,5.75,0,0,0,.51,2.71,1.66,1.66,0,0,0,1.55.93,2.63,2.63,0,0,0,.68-.07,2.38,2.38,0,0,0,.53-.22,3.23,3.23,0,0,0,.53-.43,2,2,0,0,0,.39-.49,1.93,1.93,0,0,0,.19-.51,3.64,3.64,0,0,0,.07-.74Z" transform="translate(-0.2)"/><path class="cls-2" d="M279.58,112.4a3.17,3.17,0,0,0,.52-.2.71.71,0,0,0,.26-.23,1.22,1.22,0,0,0,.16-.45,5.52,5.52,0,0,0,.06-1v-4c0-.4,0-.72,0-1a1.72,1.72,0,0,0-.13-.58.75.75,0,0,0-.34-.32,2.77,2.77,0,0,0-.65-.18V104l2.16-.08h.57v6.63a6.39,6.39,0,0,0,.07,1.11.84.84,0,0,0,.29.48,2,2,0,0,0,.68.28v.45h-3.64Zm2.66-12.05v1.8h-1.71v-1.8Z" transform="translate(-0.2)"/><path class="cls-1" d="M295.55,105.92l-2.43,7h-1.29L289.6,106a7.66,7.66,0,0,0-.35-1,1.35,1.35,0,0,0-.31-.4,1.34,1.34,0,0,0-.52-.23V104h3.66v.46a1.54,1.54,0,0,0-.73.29.7.7,0,0,0-.19.54,2.46,2.46,0,0,0,.06.53,5.84,5.84,0,0,0,.16.63l1.46,4.74,2.38-7.19h1.31l2,7.19,1.64-4.54c.08-.24.15-.46.21-.67a2.26,2.26,0,0,0,.08-.6.85.85,0,0,0-.2-.61,1.43,1.43,0,0,0-.71-.31V104h3.23v.46a2.19,2.19,0,0,0-.39.13,1.16,1.16,0,0,0-.25.21,2.15,2.15,0,0,0-.28.42,7.64,7.64,0,0,0-.38.87l-2.69,6.83h-1.25Z" transform="translate(-0.2)"/><path class="cls-1" d="M303.76,112.4a3,3,0,0,0,.51-.2.64.64,0,0,0,.26-.23,1.21,1.21,0,0,0,.17-.45,5.52,5.52,0,0,0,.06-1v-4c0-.4,0-.72,0-1a1.34,1.34,0,0,0-.13-.58.71.71,0,0,0-.34-.32,2.67,2.67,0,0,0-.64-.18V104l2.16-.08h.57v6.63a5.5,5.5,0,0,0,.07,1.11.83.83,0,0,0,.28.48,2.11,2.11,0,0,0,.69.28v.45h-3.64Zm2.65-12.05v1.8H304.7v-1.8Z" transform="translate(-0.2)"/><path class="cls-1" d="M311.51,110.53a5.29,5.29,0,0,0,.08,1.11.83.83,0,0,0,.28.48,2.13,2.13,0,0,0,.68.28v.45h-3.68v-.45a2.13,2.13,0,0,0,.65-.25.85.85,0,0,0,.26-.31,2.25,2.25,0,0,0,.11-.49c0-.21,0-.48,0-.82v-7.76c0-.59,0-1,0-1.24a3,3,0,0,0-.08-.6,1,1,0,0,0-.17-.39.78.78,0,0,0-.28-.22,3,3,0,0,0-.66-.17v-.48l2.24-.09h.55Z" transform="translate(-0.2)"/><path class="cls-1" d="M316.67,110.53a5.29,5.29,0,0,0,.08,1.11.83.83,0,0,0,.28.48,2.13,2.13,0,0,0,.68.28v.45H314v-.45a2,2,0,0,0,.64-.25.76.76,0,0,0,.26-.31,1.48,1.48,0,0,0,.11-.49,6.11,6.11,0,0,0,0-.82v-7.76c0-.59,0-1,0-1.24a3.09,3.09,0,0,0-.07-.6,1,1,0,0,0-.17-.39.74.74,0,0,0-.29-.22,2.85,2.85,0,0,0-.65-.17v-.48l2.24-.09h.55Z" transform="translate(-0.2)"/><path class="cls-1" d="M327.46,113.61a12.56,12.56,0,0,1-1,1.87,3.6,3.6,0,0,1-1.06,1.07,2.5,2.5,0,0,1-1.38.37,6.33,6.33,0,0,1-1.15-.12V115h.82a1.23,1.23,0,0,0,.28.53.7.7,0,0,0,.49.15,1.1,1.1,0,0,0,.49-.11,1.46,1.46,0,0,0,.46-.37,5.66,5.66,0,0,0,.55-.79,15,15,0,0,0,.72-1.37l-2.6-7a6.37,6.37,0,0,0-.4-1,1.29,1.29,0,0,0-.33-.41,1.37,1.37,0,0,0-.54-.22V104h3.78v.46a2.36,2.36,0,0,0-.61.2.57.57,0,0,0-.26.25.75.75,0,0,0-.09.39,2.37,2.37,0,0,0,.06.52c0,.18.11.39.19.63l1.66,4.65,1.85-4.45a5.88,5.88,0,0,0,.25-.68,2.1,2.1,0,0,0,.09-.58.82.82,0,0,0-.22-.61,1.76,1.76,0,0,0-.76-.32V104h3.47v.46a1.26,1.26,0,0,0-.56.23,1.68,1.68,0,0,0-.39.48c-.13.22-.28.53-.46.92Z" transform="translate(-0.2)"/><path class="cls-1" d="M336.78,113a3.78,3.78,0,0,1-2.95-1.13,4.9,4.9,0,0,1-1-3.37,5.67,5.67,0,0,1,.53-2.59,3.54,3.54,0,0,1,1.46-1.57,4.31,4.31,0,0,1,2.11-.51,3.8,3.8,0,0,1,3,1.15,4.87,4.87,0,0,1,1,3.32,6,6,0,0,1-.51,2.6,3.49,3.49,0,0,1-1.45,1.58A4.43,4.43,0,0,1,336.78,113Zm-2.21-4.69a5.74,5.74,0,0,0,.61,2.93,1.9,1.9,0,0,0,1.74,1A1.8,1.8,0,0,0,338,112a2.24,2.24,0,0,0,.71-.81,3.79,3.79,0,0,0,.4-1.19,7.93,7.93,0,0,0,.12-1.4,7.3,7.3,0,0,0-.3-2.27,2.83,2.83,0,0,0-.82-1.32,1.86,1.86,0,0,0-1.19-.42,1.9,1.9,0,0,0-1.72,1A5.34,5.34,0,0,0,334.57,108.31Z" transform="translate(-0.2)"/><path class="cls-1" d="M342.6,104h2.65v4.73a13.39,13.39,0,0,0,.08,1.65,2.54,2.54,0,0,0,.25.85,1.43,1.43,0,0,0,.47.48,1.59,1.59,0,0,0,.85.2,1.8,1.8,0,0,0,.68-.14,3.06,3.06,0,0,0,.72-.49,2.32,2.32,0,0,0,.57-.69,1.81,1.81,0,0,0,.17-.8V106.3a7.77,7.77,0,0,0,0-.8,1.39,1.39,0,0,0-.09-.43.87.87,0,0,0-.15-.27.8.8,0,0,0-.25-.18,2.44,2.44,0,0,0-.53-.18V104h2.65v6.34c0,.48,0,.82,0,1a1.11,1.11,0,0,0,.12.5.63.63,0,0,0,.28.3,2.5,2.5,0,0,0,.7.22v.48l-2.13.1h-.56l.05-1.53-.13,0a6.38,6.38,0,0,1-1.48,1.22,2.83,2.83,0,0,1-1.4.39,2.65,2.65,0,0,1-1.39-.33,2,2,0,0,1-.82-1,5.1,5.1,0,0,1-.27-1.87v-3.5a6.45,6.45,0,0,0-.06-1.08.91.91,0,0,0-.23-.46,1.66,1.66,0,0,0-.75-.32Z" transform="translate(-0.2)"/><path class="cls-1" d="M359.84,105.44h0a7.65,7.65,0,0,1,1.08-1,3.47,3.47,0,0,1,.89-.47,3,3,0,0,1,1-.16,2.91,2.91,0,0,1,1.7.5,3.15,3.15,0,0,1,1.09,1.52,6.9,6.9,0,0,1,.39,2.48,6.42,6.42,0,0,1-.46,2.55,3.36,3.36,0,0,1-1.36,1.58,4.09,4.09,0,0,1-2.12.53,6.65,6.65,0,0,1-1.29-.12,6.09,6.09,0,0,1-1.28-.44l-.65.56-.63-.15V102.77c0-.59,0-1,0-1.24a3.09,3.09,0,0,0-.07-.6,1,1,0,0,0-.17-.39.82.82,0,0,0-.29-.22,3,3,0,0,0-.65-.17v-.48l2.24-.09h.55Zm0,4.07a6.89,6.89,0,0,0,.07,1.14,2.07,2.07,0,0,0,.21.7,1.66,1.66,0,0,0,.45.51,1.59,1.59,0,0,0,.65.32,3.35,3.35,0,0,0,.81.09,1.88,1.88,0,0,0,1.69-.91,5.24,5.24,0,0,0,.57-2.73,5.75,5.75,0,0,0-.52-2.76,1.72,1.72,0,0,0-1.58-.92,2.2,2.2,0,0,0-.9.16,2.59,2.59,0,0,0-.74.51,2.68,2.68,0,0,0-.54.68,1.66,1.66,0,0,0-.17.75Z" transform="translate(-0.2)"/><path class="cls-1" d="M375.32,111.28a8,8,0,0,1-1.09,1,4.14,4.14,0,0,1-1.09.55,4,4,0,0,1-1.31.2,3.59,3.59,0,0,1-2.89-1.14,5.13,5.13,0,0,1-1-3.39,5.64,5.64,0,0,1,.49-2.43,3.8,3.8,0,0,1,1.42-1.64,3.92,3.92,0,0,1,2.11-.57,4,4,0,0,1,1.6.29,2.62,2.62,0,0,1,1.05.82,3.52,3.52,0,0,1,.61,1.29,8.47,8.47,0,0,1,.25,2h-5.84v.17a6.08,6.08,0,0,0,.24,1.84,2.32,2.32,0,0,0,.81,1.17,2.36,2.36,0,0,0,1.46.42,3.2,3.2,0,0,0,1.37-.28,4.09,4.09,0,0,0,1.21-.93Zm-1.56-3.77a7.28,7.28,0,0,0-.25-1.64,2,2,0,0,0-.59-1,1.48,1.48,0,0,0-1-.34,1.77,1.77,0,0,0-1.52.77,4.11,4.11,0,0,0-.68,2.18Z" transform="translate(-0.2)"/><path class="cls-3" d="M270.7,117c-6.35,159.16-244.59,171.14-244.59-.73" transform="translate(-0.2)"/><path class="cls-3" d="M270.7,117C246,257.45,72,268.72,72,116.27" transform="translate(-0.2)"/><path class="cls-3" d="M270.7,117c-28.95,35.48-119.82,98.78-119.82-.73" transform="translate(-0.2)"/><path class="cls-3" d="M270.7,117c-21.1,18.93-57.91,31.57-57.91,0" transform="translate(-0.2)"/><path class="cls-3" d="M270.7,117c-21.73,21.17-85.29,68-85.29,0" transform="translate(-0.2)"/><path class="cls-3" d="M270.7,117c-76.69,99.51-146.26,88.57-143.43-.73" transform="translate(-0.2)"/><path class="cls-3" d="M270.7,117c-31.94,88.92-162,139-162-.73" transform="translate(-0.2)"/><path class="cls-3" d="M336.93,117c0,15.51-42.82,38.65-66.23,0" transform="translate(-0.2)"/><path class="cls-3" d="M365.64,117c0,26-61.82,56.57-94.94,0" transform="translate(-0.2)"/><path class="cls-3" d="M305.44,116.27c0,27.53-29.45,9.72-34.74.73" transform="translate(-0.2)"/><path class="cls-3" d="M270.7,117c-21.1,18.93-35.12,9.61-35.12-.73" transform="translate(-0.2)"/><line class="cls-3" x1="25.91" y1="94.04" x2="25.91" y2="50.98"/><polygon class="cls-2" points="25.91 43.92 29.97 53.87 25.91 51.51 21.84 53.87 25.91 43.92"/><line class="cls-3" x1="71.79" y1="94.04" x2="71.79" y2="50.98"/><polygon class="cls-2" points="71.79 43.92 75.86 53.87 71.79 51.51 67.72 53.87 71.79 43.92"/><line class="cls-3" x1="108.5" y1="94.04" x2="108.5" y2="50.98"/><polygon class="cls-2" points="108.5 43.92 112.56 53.87 108.5 51.51 104.43 53.87 108.5 43.92"/><line class="cls-3" x1="126.98" y1="94.04" x2="126.98" y2="50.98"/><polygon class="cls-2" points="126.98 43.92 131.05 53.87 126.98 51.51 122.92 53.87 126.98 43.92"/><line class="cls-3" x1="150.67" y1="94.04" x2="150.67" y2="50.98"/><polygon class="cls-2" points="150.67 43.92 154.74 53.87 150.67 51.51 146.61 53.87 150.67 43.92"/><line class="cls-3" x1="185.2" y1="94.04" x2="185.2" y2="50.98"/><polygon class="cls-2" points="185.2 43.92 189.27 53.87 185.2 51.51 181.14 53.87 185.2 43.92"/><line class="cls-3" x1="212.59" y1="94.04" x2="212.59" y2="50.98"/><polygon class="cls-2" points="212.59 43.92 216.66 53.87 212.59 51.51 208.53 53.87 212.59 43.92"/><line class="cls-3" x1="235.38" y1="94.04" x2="235.38" y2="50.98"/><polygon class="cls-2" points="235.38 43.92 239.44 53.87 235.38 51.51 231.31 53.87 235.38 43.92"/><line class="cls-3" x1="270.31" y1="94.04" x2="270.31" y2="50.98"/><polygon class="cls-2" points="270.31 43.92 274.37 53.87 270.31 51.51 266.24 53.87 270.31 43.92"/><line class="cls-3" x1="305.24" y1="94.04" x2="305.24" y2="50.98"/><polygon class="cls-2" points="305.24 43.92 309.3 53.87 305.24 51.51 301.17 53.87 305.24 43.92"/><line class="cls-3" x1="336.73" y1="94.04" x2="336.73" y2="50.98"/><polygon class="cls-2" points="336.73 43.92 340.8 53.87 336.73 51.51 332.67 53.87 336.73 43.92"/><line class="cls-3" x1="365.44" y1="94.04" x2="365.44" y2="50.98"/><polygon class="cls-2" points="365.44 43.92 369.5 53.87 365.44 51.51 361.37 53.87 365.44 43.92"/><path class="cls-2" d="M129.35,22.07v-.46a2.65,2.65,0,0,0,.69-.2.79.79,0,0,0,.34-.31,1.13,1.13,0,0,0,.11-.53,4.48,4.48,0,0,0-.07-.69c0-.24-.13-.51-.22-.82l-.34-1.19h-4.32l-.32.91a7,7,0,0,0-.31,1,3,3,0,0,0-.08.64,1,1,0,0,0,.28.81,1.59,1.59,0,0,0,.87.34v.46h-4v-.46a1.33,1.33,0,0,0,.9-.6,5.93,5.93,0,0,0,.75-1.48l3.87-10.27H129l3.16,10.34q.22.72.39,1.11a1.82,1.82,0,0,0,.42.59,1.45,1.45,0,0,0,.66.31v.46Zm-3.56-5h3.87l-1.76-6Z" transform="translate(-0.2)"/><path class="cls-2" d="M133.87,13.66a1.84,1.84,0,0,0,.75-.26,1.35,1.35,0,0,0,.45-.47,2.56,2.56,0,0,0,.25-.74c.06-.29.13-.72.2-1.28h1.32V13.2h3v.94h-3v4.13a10.92,10.92,0,0,0,.07,1.43,1.93,1.93,0,0,0,.28.83,1.2,1.2,0,0,0,.46.44,1.64,1.64,0,0,0,.67.12,1.66,1.66,0,0,0,.7-.15,2.72,2.72,0,0,0,.64-.44l.41.5a4.94,4.94,0,0,1-1.24.93,2.8,2.8,0,0,1-1.22.29,2.2,2.2,0,0,1-1.79-.71,3.47,3.47,0,0,1-.58-2.22V14.14h-1.37Z" transform="translate(-0.2)"/><path class="cls-2" d="M140.3,13.66a1.84,1.84,0,0,0,.75-.26,1.35,1.35,0,0,0,.45-.47,2.56,2.56,0,0,0,.25-.74c.06-.29.13-.72.2-1.28h1.32V13.2h3v.94h-3v4.13a10.92,10.92,0,0,0,.07,1.43,1.93,1.93,0,0,0,.28.83,1.2,1.2,0,0,0,.46.44,1.61,1.61,0,0,0,.67.12,1.66,1.66,0,0,0,.7-.15,2.72,2.72,0,0,0,.64-.44l.41.5a4.79,4.79,0,0,1-1.25.93,2.73,2.73,0,0,1-1.21.29,2.2,2.2,0,0,1-1.79-.71,3.47,3.47,0,0,1-.58-2.22V14.14H140.3Z" transform="translate(-0.2)"/><path class="cls-2" d="M154.53,20.49a8.18,8.18,0,0,1-1.09,1,4.29,4.29,0,0,1-1.09.55,4.19,4.19,0,0,1-1.31.2,3.54,3.54,0,0,1-2.88-1.15,5,5,0,0,1-1-3.38,5.72,5.72,0,0,1,.5-2.44,3.75,3.75,0,0,1,1.41-1.63,4.25,4.25,0,0,1,3.71-.28,2.8,2.8,0,0,1,1.06.81,3.92,3.92,0,0,1,.61,1.3,8.4,8.4,0,0,1,.24,2.05h-5.84v.16a5.72,5.72,0,0,0,.25,1.84,2.17,2.17,0,0,0,2.26,1.59,3.17,3.17,0,0,0,1.37-.28,3.93,3.93,0,0,0,1.21-.92ZM153,16.73a7.19,7.19,0,0,0-.25-1.64,2.11,2.11,0,0,0-.59-1,1.49,1.49,0,0,0-1-.33,1.8,1.8,0,0,0-1.52.76,4.06,4.06,0,0,0-.67,2.19Z" transform="translate(-0.2)"/><path class="cls-2" d="M165.42,22.07h-3.66v-.46a2.56,2.56,0,0,0,.52-.19.75.75,0,0,0,.27-.23,1.21,1.21,0,0,0,.16-.46,5.2,5.2,0,0,0,.07-.94V17.36c0-.44,0-.83,0-1.18a5.4,5.4,0,0,0-.13-.87,2.08,2.08,0,0,0-.21-.53,1.3,1.3,0,0,0-.3-.32,1.47,1.47,0,0,0-.39-.22,1.9,1.9,0,0,0-.59-.07,1.56,1.56,0,0,0-.68.14,2.77,2.77,0,0,0-.72.5,2.27,2.27,0,0,0-.56.69,1.67,1.67,0,0,0-.18.79v3.46a5.42,5.42,0,0,0,.08,1.11.75.75,0,0,0,.28.47,1.84,1.84,0,0,0,.68.28v.46h-3.64v-.46a2.56,2.56,0,0,0,.52-.19.82.82,0,0,0,.26-.23,1.39,1.39,0,0,0,.17-.46,5.38,5.38,0,0,0,.06-.95V15.73c0-.39,0-.71,0-1a1.66,1.66,0,0,0-.13-.58.72.72,0,0,0-.34-.33,2.77,2.77,0,0,0-.65-.18V13.2l2.17-.08H159l-.1,1.51.13,0a8.38,8.38,0,0,1,1.11-1,4.16,4.16,0,0,1,.85-.46,2.76,2.76,0,0,1,.91-.16,3.06,3.06,0,0,1,.9.12,1.86,1.86,0,0,1,1.19.95,2.9,2.9,0,0,1,.29.86,6.46,6.46,0,0,1,.1,1.27v3.5a6.91,6.91,0,0,0,0,.93,1.09,1.09,0,0,0,.13.44.7.7,0,0,0,.27.27,2.62,2.62,0,0,0,.61.22Z" transform="translate(-0.2)"/><path class="cls-2" d="M166.43,13.66a1.84,1.84,0,0,0,.75-.26,1.35,1.35,0,0,0,.45-.47,2.55,2.55,0,0,0,.26-.74c.06-.29.12-.72.19-1.28h1.32V13.2h3v.94h-3v4.13a10.92,10.92,0,0,0,.07,1.43,2.07,2.07,0,0,0,.28.83,1.22,1.22,0,0,0,.47.44,1.56,1.56,0,0,0,.66.12,1.66,1.66,0,0,0,.7-.15,2.53,2.53,0,0,0,.64-.44l.42.5a5,5,0,0,1-1.25.93,2.77,2.77,0,0,1-1.22.29,2.18,2.18,0,0,1-1.78-.71,3.47,3.47,0,0,1-.59-2.22V14.14h-1.37Z" transform="translate(-0.2)"/><path class="cls-2" d="M173.42,21.61a2.42,2.42,0,0,0,.51-.19.82.82,0,0,0,.26-.23,1.2,1.2,0,0,0,.17-.46,5.38,5.38,0,0,0,.06-.95V15.73c0-.39,0-.71,0-1a1.46,1.46,0,0,0-.13-.58.68.68,0,0,0-.34-.33,2.67,2.67,0,0,0-.64-.18V13.2l2.16-.08H176v6.63a5.42,5.42,0,0,0,.08,1.11.8.8,0,0,0,.28.47,1.92,1.92,0,0,0,.68.28v.46h-3.63Zm2.65-12v1.8h-1.71V9.56Z" transform="translate(-0.2)"/><path class="cls-2" d="M182.73,22.22a3.73,3.73,0,0,1-2.94-1.14,4.89,4.89,0,0,1-1-3.36,5.8,5.8,0,0,1,.53-2.59,3.6,3.6,0,0,1,1.46-1.57,4.24,4.24,0,0,1,2.12-.52,3.82,3.82,0,0,1,3,1.16,4.84,4.84,0,0,1,1,3.31,5.94,5.94,0,0,1-.51,2.6A3.49,3.49,0,0,1,185,21.69,4.5,4.5,0,0,1,182.73,22.22Zm-2.21-4.7a5.86,5.86,0,0,0,.61,2.94,1.94,1.94,0,0,0,1.74,1,1.82,1.82,0,0,0,1.06-.31,2.24,2.24,0,0,0,.71-.81,4,4,0,0,0,.39-1.18,8,8,0,0,0,.12-1.41,7.23,7.23,0,0,0-.3-2.26A2.75,2.75,0,0,0,184,14.2a1.84,1.84,0,0,0-1.19-.42,1.9,1.9,0,0,0-1.72,1A5.3,5.3,0,0,0,180.52,17.52Z" transform="translate(-0.2)"/><path class="cls-2" d="M197.82,22.07h-3.66v-.46a2.56,2.56,0,0,0,.52-.19.72.72,0,0,0,.26-.23,1.05,1.05,0,0,0,.17-.46,5.41,5.41,0,0,0,.06-.94V17.36c0-.44,0-.83,0-1.18a4.56,4.56,0,0,0-.12-.87,2.08,2.08,0,0,0-.21-.53,1.83,1.83,0,0,0-.3-.32,1.71,1.71,0,0,0-.4-.22,1.83,1.83,0,0,0-.58-.07,1.64,1.64,0,0,0-.69.14,2.92,2.92,0,0,0-.71.5,2.48,2.48,0,0,0-.57.69,1.8,1.8,0,0,0-.17.79v3.46a5.63,5.63,0,0,0,.07,1.11.85.85,0,0,0,.28.47,1.91,1.91,0,0,0,.69.28v.46h-3.64v-.46a2.42,2.42,0,0,0,.51-.19.72.72,0,0,0,.26-.23,1.2,1.2,0,0,0,.17-.46,5.38,5.38,0,0,0,.06-.95V15.73c0-.39,0-.71,0-1a1.31,1.31,0,0,0-.13-.58.65.65,0,0,0-.34-.33,2.67,2.67,0,0,0-.64-.18V13.2l2.17-.08h.57l-.11,1.51.14,0a8.43,8.43,0,0,1,1.1-1,4.23,4.23,0,0,1,.86-.46,2.72,2.72,0,0,1,.91-.16,3.16,3.16,0,0,1,.9.12,2,2,0,0,1,.69.35,2.22,2.22,0,0,1,.5.6,2.9,2.9,0,0,1,.29.86,6.46,6.46,0,0,1,.1,1.27v3.5q0,.64,0,.93a1.28,1.28,0,0,0,.13.44.87.87,0,0,0,.27.27,3,3,0,0,0,.62.22Z" transform="translate(-0.2)"/><path class="cls-2" d="M209.78,15.23h-.89a2.72,2.72,0,0,0-.48-.87,1.48,1.48,0,0,0-.63-.45,2.43,2.43,0,0,0-.86-.13,1.89,1.89,0,0,0-1.19.34,1.17,1.17,0,0,0-.44,1,1.29,1.29,0,0,0,.18.71,1.85,1.85,0,0,0,.55.52,9.72,9.72,0,0,0,1.3.64,9.31,9.31,0,0,1,1.47.75,2.77,2.77,0,0,1,.8.8,1.9,1.9,0,0,1,.29,1.08,2.74,2.74,0,0,1-.25,1.24,2.11,2.11,0,0,1-.7.81,2.94,2.94,0,0,1-1.08.46,6.55,6.55,0,0,1-1.37.14A9.33,9.33,0,0,1,205,22.1c-.49-.08-1-.18-1.43-.3V19.86h.91a2.38,2.38,0,0,0,.74,1.24,2.13,2.13,0,0,0,1.35.39,3.51,3.51,0,0,0,.66-.07,1.81,1.81,0,0,0,.57-.24,1.07,1.07,0,0,0,.4-.44,1.41,1.41,0,0,0,.15-.69,1.44,1.44,0,0,0-.19-.77,1.77,1.77,0,0,0-.57-.55,11.64,11.64,0,0,0-1.38-.66,7.6,7.6,0,0,1-1.35-.69,2.6,2.6,0,0,1-.8-.78,2,2,0,0,1-.3-1.08,2.12,2.12,0,0,1,.42-1.32,2.51,2.51,0,0,1,1.19-.86,5.09,5.09,0,0,1,1.83-.3,11.22,11.22,0,0,1,1.18.06c.38,0,.86.12,1.43.24Z" transform="translate(-0.2)"/><path class="cls-2" d="M218.64,13.41v1.94h-1.18a3.17,3.17,0,0,0-.38-.95,1.35,1.35,0,0,0-.54-.48,1.93,1.93,0,0,0-1.91.27,2.78,2.78,0,0,0-.8,1.27,6.67,6.67,0,0,0-.29,2.09,9,9,0,0,0,.11,1.44,3.43,3.43,0,0,0,.38,1.12,2,2,0,0,0,.72.73,2.16,2.16,0,0,0,1.1.25,2.79,2.79,0,0,0,1.19-.25,3.72,3.72,0,0,0,1.15-.88l.53.62a8.31,8.31,0,0,1-.84.8,4.07,4.07,0,0,1-.77.47,4,4,0,0,1-.82.28,4,4,0,0,1-.88.09,3.23,3.23,0,0,1-2.68-1.17,5.26,5.26,0,0,1-.92-3.36,5.39,5.39,0,0,1,.52-2.43,3.81,3.81,0,0,1,1.45-1.64,4,4,0,0,1,2.16-.58,10.24,10.24,0,0,1,1.41.09A8.5,8.5,0,0,1,218.64,13.41Z" transform="translate(-0.2)"/><path class="cls-2" d="M224.14,22.22a3.74,3.74,0,0,1-2.94-1.14,4.89,4.89,0,0,1-1-3.36,5.67,5.67,0,0,1,.54-2.59,3.49,3.49,0,0,1,1.46-1.57,4.18,4.18,0,0,1,2.11-.52,3.8,3.8,0,0,1,3,1.16,4.84,4.84,0,0,1,1,3.31,5.94,5.94,0,0,1-.51,2.6,3.44,3.44,0,0,1-1.45,1.58A4.45,4.45,0,0,1,224.14,22.22Zm-2.2-4.7a5.87,5.87,0,0,0,.6,2.94,1.94,1.94,0,0,0,1.74,1,1.82,1.82,0,0,0,1.06-.31,2.24,2.24,0,0,0,.71-.81,4,4,0,0,0,.39-1.18,8,8,0,0,0,.13-1.41,7.2,7.2,0,0,0-.31-2.26,2.75,2.75,0,0,0-.82-1.32,1.82,1.82,0,0,0-1.19-.42,1.91,1.91,0,0,0-1.72,1A5.31,5.31,0,0,0,221.94,17.52Z" transform="translate(-0.2)"/><path class="cls-2" d="M232.7,14.74l.13,0a6.9,6.9,0,0,1,.94-1,3.45,3.45,0,0,1,.94-.55,3.19,3.19,0,0,1,1.15-.2,7.1,7.1,0,0,1,1,.06v2.13h-1a2.3,2.3,0,0,0-.48-.73,1,1,0,0,0-.68-.22,1.29,1.29,0,0,0-.67.19,2.36,2.36,0,0,0-.63.57,2.09,2.09,0,0,0-.42.69,2.26,2.26,0,0,0-.12.77v3.25a4.33,4.33,0,0,0,.1,1.16.81.81,0,0,0,.34.47,1.9,1.9,0,0,0,.71.23v.46H230.2v-.46a2.67,2.67,0,0,0,.51-.19.82.82,0,0,0,.26-.23,1.05,1.05,0,0,0,.17-.46,7,7,0,0,0,.05-.95V15.73c0-.39,0-.71,0-1a1.48,1.48,0,0,0-.12-.58.72.72,0,0,0-.34-.33,2.92,2.92,0,0,0-.65-.18v-.48l2.17-.09h.57Z" transform="translate(-0.2)"/><path class="cls-2" d="M245.18,20.49a7.6,7.6,0,0,1-1.09,1,4,4,0,0,1-2.39.75,3.56,3.56,0,0,1-2.89-1.15,5.09,5.09,0,0,1-1-3.38,5.72,5.72,0,0,1,.49-2.44,3.71,3.71,0,0,1,1.42-1.63,4.25,4.25,0,0,1,3.71-.28,2.69,2.69,0,0,1,1,.81,3.74,3.74,0,0,1,.61,1.3,8.34,8.34,0,0,1,.25,2.05h-5.85v.16a6,6,0,0,0,.25,1.84,2.26,2.26,0,0,0,.81,1.17,2.3,2.3,0,0,0,1.46.42,3.2,3.2,0,0,0,1.37-.28,4,4,0,0,0,1.21-.92Zm-1.56-3.76a7.25,7.25,0,0,0-.24-1.64,2.2,2.2,0,0,0-.59-1,1.53,1.53,0,0,0-1-.33,1.81,1.81,0,0,0-1.53.76,4.15,4.15,0,0,0-.67,2.19Z" transform="translate(-0.2)"/><path class="cls-2" d="M253.25,15.23h-.89a2.54,2.54,0,0,0-.48-.87,1.37,1.37,0,0,0-.63-.45,2.4,2.4,0,0,0-.86-.13,1.84,1.84,0,0,0-1.18.34,1.15,1.15,0,0,0-.45,1,1.29,1.29,0,0,0,.18.71,1.85,1.85,0,0,0,.55.52,10,10,0,0,0,1.31.64,9.6,9.6,0,0,1,1.46.75,2.77,2.77,0,0,1,.8.8,1.9,1.9,0,0,1,.3,1.08,2.88,2.88,0,0,1-.25,1.24,2.22,2.22,0,0,1-.71.81,2.94,2.94,0,0,1-1.08.46,6.48,6.48,0,0,1-1.37.14,9.33,9.33,0,0,1-1.51-.12c-.49-.08-1-.18-1.43-.3V19.86h.91a2.38,2.38,0,0,0,.74,1.24,2.14,2.14,0,0,0,1.36.39,3.5,3.5,0,0,0,.65-.07,1.81,1.81,0,0,0,.57-.24,1.07,1.07,0,0,0,.4-.44,1.41,1.41,0,0,0,.15-.69,1.35,1.35,0,0,0-.19-.77,1.77,1.77,0,0,0-.57-.55,11.64,11.64,0,0,0-1.38-.66,7.6,7.6,0,0,1-1.35-.69,2.6,2.6,0,0,1-.8-.78,1.94,1.94,0,0,1-.29-1.08,2.12,2.12,0,0,1,.41-1.32,2.51,2.51,0,0,1,1.19-.86,5.09,5.09,0,0,1,1.83-.3,11.22,11.22,0,0,1,1.18.06c.38,0,.86.12,1.43.24Z" transform="translate(-0.2)"/><rect class="cls-3" x="114.17" y="0.5" width="147.53" height="28.94"/></g></g></svg>