<svg id="Calque_1" data-name="Calque 1" xmlns="http://www.w3.org/2000/svg" xmlns:xlink="http://www.w3.org/1999/xlink" viewBox="0 0 564.98 420.45"><defs><clipPath id="clip-path"><rect x="58.48" y="7.2" width="499.3" height="369.88" style="fill:none"/></clipPath><clipPath id="clip-path-17"><rect x="72.18" y="351.27" width="18" height="18" style="fill:none"/></clipPath><clipPath id="clip-path-18"><rect x="102.44" y="315.24" width="18" height="18" style="fill:none"/></clipPath><clipPath id="clip-path-19"><rect x="162.96" y="289.94" width="18" height="18" style="fill:none"/></clipPath><clipPath id="clip-path-20"><rect x="284" y="236.23" width="18" height="18" style="fill:none"/></clipPath><clipPath id="clip-path-21"><rect x="526.09" y="160.02" width="18" height="18" style="fill:none"/></clipPath><clipPath id="clip-path-23"><rect x="72.18" y="332.38" width="18" height="18" style="fill:none"/></clipPath><clipPath id="clip-path-24"><rect x="102.44" y="269.41" width="18" height="18" style="fill:none"/></clipPath><clipPath id="clip-path-25"><rect x="162.96" y="223.32" width="18" height="18" style="fill:none"/></clipPath><clipPath id="clip-path-26"><rect x="284" y="126.96" width="18" height="18" style="fill:none"/></clipPath><clipPath id="clip-path-27"><rect x="526.09" y="15.01" width="18" height="18" style="fill:none"/></clipPath></defs><rect width="564.98" height="420.45" style="fill:#fff"/><rect x="58.48" y="7.2" width="499.3" height="369.88" style="fill:#fff"/><g style="clip-path:url(#clip-path)"><line x1="111.44" y1="377.08" x2="111.44" y2="7.2" style="fill:none;stroke:#b0b0b0;stroke-linecap:square;stroke-linejoin:round;stroke-width:0.800000011920929px;opacity:0.30000001192092896"/></g><line x1="111.44" y1="377.08" x2="111.44" y2="380.58"/><line x1="111.44" y1="377.08" x2="111.44" y2="380.58" style="fill:none;stroke:#000;stroke-linejoin:round;stroke-width:0.800000011920929px"/><path d="M105.33,386.54h-.66V385a6.75,6.75,0,0,1,1.26-.5,4.55,4.55,0,0,1,1.25-.18,3.33,3.33,0,0,1,2.16.66,2.21,2.21,0,0,1,.79,1.8c0,.86-.6,1.88-1.8,3.07l-.2.21-2.21,2.2h3.65v-1.08h.68v2h-5.64v-.63l2.65-2.65a6.71,6.71,0,0,0,1.25-1.61,3.39,3.39,0,0,0,.39-1.55,2,2,0,0,0-.47-1.38,1.61,1.61,0,0,0-1.26-.5,1.83,1.83,0,0,0-1.3.42A1.8,1.8,0,0,0,105.33,386.54Z"/><path d="M115.24,393.36a2.54,2.54,0,0,1-2.23-1.19,7.43,7.43,0,0,1,0-6.67,2.66,2.66,0,0,1,4.45,0,7.27,7.27,0,0,1,0,6.67A2.52,2.52,0,0,1,115.24,393.36Zm0-.56a1.44,1.44,0,0,0,1.35-1,7.66,7.66,0,0,0,.44-3,7.78,7.78,0,0,0-.44-3,1.45,1.45,0,0,0-1.35-1,1.43,1.43,0,0,0-1.34,1,7.59,7.59,0,0,0-.44,3,7.47,7.47,0,0,0,.44,3A1.42,1.42,0,0,0,115.24,392.8Z"/><g style="clip-path:url(#clip-path)"><line x1="171.96" y1="377.08" x2="171.96" y2="7.2" style="fill:none;stroke:#b0b0b0;stroke-linecap:square;stroke-linejoin:round;stroke-width:0.800000011920929px;opacity:0.30000001192092896"/></g><line x1="171.96" y1="377.08" x2="171.96" y2="380.58"/><line x1="171.96" y1="377.08" x2="171.96" y2="380.58" style="fill:none;stroke:#000;stroke-linejoin:round;stroke-width:0.800000011920929px"/><path d="M171.09,393.2h-4v-.62h1.41v-1.72h-3.82v-.63l3.83-5.93h1.16v5.94h1.67v.62h-1.67v1.72h1.41Zm-2.58-3v-4.66l-3,4.66Z"/><path d="M175.77,393.36a2.55,2.55,0,0,1-2.24-1.19,7.43,7.43,0,0,1,0-6.67,2.67,2.67,0,0,1,4.46,0,7.35,7.35,0,0,1,0,6.67A2.54,2.54,0,0,1,175.77,393.36Zm0-.56a1.43,1.43,0,0,0,1.34-1,7.66,7.66,0,0,0,.44-3,7.78,7.78,0,0,0-.44-3,1.41,1.41,0,0,0-2.69,0,7.59,7.59,0,0,0-.44,3,7.47,7.47,0,0,0,.44,3A1.44,1.44,0,0,0,175.77,392.8Z"/><g style="clip-path:url(#clip-path)"><line x1="232.48" y1="377.08" x2="232.48" y2="7.2" style="fill:none;stroke:#b0b0b0;stroke-linecap:square;stroke-linejoin:round;stroke-width:0.800000011920929px;opacity:0.30000001192092896"/></g><line x1="232.48" y1="377.08" x2="232.48" y2="380.58"/><line x1="232.48" y1="377.08" x2="232.48" y2="380.58" style="fill:none;stroke:#000;stroke-linejoin:round;stroke-width:0.800000011920929px"/><path d="M226.86,388.39a2.62,2.62,0,0,1,.9-.66,2.86,2.86,0,0,1,1.14-.21,2.71,2.71,0,0,1,2.06.79,3,3,0,0,1,.76,2.13,2.86,2.86,0,0,1-.82,2.13,3,3,0,0,1-2.18.79,2.63,2.63,0,0,1-2.28-1.09,5.34,5.34,0,0,1-.8-3.16,5.9,5.9,0,0,1,.94-3.55,3.11,3.11,0,0,1,2.66-1.26,8.43,8.43,0,0,1,1,.08,7.62,7.62,0,0,1,1,.27v1.44h-.66a1.31,1.31,0,0,0-.46-.9,1.52,1.52,0,0,0-1-.31,1.87,1.87,0,0,0-1.7.86A5,5,0,0,0,226.86,388.39Zm1.9,4.41a1.5,1.5,0,0,0,1.28-.6,3.7,3.7,0,0,0,0-3.5,1.5,1.5,0,0,0-1.28-.61,1.53,1.53,0,0,0-1.28.59,2.83,2.83,0,0,0-.43,1.69,3.07,3.07,0,0,0,.44,1.8A1.45,1.45,0,0,0,228.76,392.8Z"/><path d="M236.29,393.36a2.52,2.52,0,0,1-2.23-1.19,7.35,7.35,0,0,1,0-6.67,2.66,2.66,0,0,1,4.45,0,7.35,7.35,0,0,1,0,6.67A2.53,2.53,0,0,1,236.29,393.36Zm0-.56a1.43,1.43,0,0,0,1.34-1,7.63,7.63,0,0,0,.45-3,7.75,7.75,0,0,0-.45-3,1.41,1.41,0,0,0-2.69,0,7.59,7.59,0,0,0-.44,3,7.47,7.47,0,0,0,.44,3A1.44,1.44,0,0,0,236.29,392.8Z"/><g style="clip-path:url(#clip-path)"><line x1="293" y1="377.08" x2="293" y2="7.2" style="fill:none;stroke:#b0b0b0;stroke-linecap:square;stroke-linejoin:round;stroke-width:0.800000011920929px;opacity:0.30000001192092896"/></g><line x1="293" y1="377.08" x2="293" y2="380.58"/><line x1="293" y1="377.08" x2="293" y2="380.58" style="fill:none;stroke:#000;stroke-linejoin:round;stroke-width:0.800000011920929px"/><path d="M290.08,388.55a2.46,2.46,0,0,1,1.54.73,2.16,2.16,0,0,1,.57,1.54,2.35,2.35,0,0,1-.78,1.88,4.11,4.11,0,0,1-4.47,0,2.32,2.32,0,0,1-.78-1.88,2.15,2.15,0,0,1,.56-1.54,2.47,2.47,0,0,1,1.56-.73,2.28,2.28,0,0,1-1.36-.67,1.88,1.88,0,0,1-.47-1.31,2.07,2.07,0,0,1,.72-1.66,3.58,3.58,0,0,1,4,0,2.07,2.07,0,0,1,.73,1.66,1.88,1.88,0,0,1-.48,1.31A2.31,2.31,0,0,1,290.08,388.55Zm.63-2a1.81,1.81,0,0,0-.41-1.25,1.66,1.66,0,0,0-2.25,0,1.76,1.76,0,0,0-.41,1.25,1.73,1.73,0,0,0,.41,1.25,1.66,1.66,0,0,0,2.25,0A1.78,1.78,0,0,0,290.71,386.57Zm.24,4.25a2.07,2.07,0,0,0-.47-1.46,1.9,1.9,0,0,0-2.61,0,2.5,2.5,0,0,0,0,2.92,1.9,1.9,0,0,0,2.61,0A2.09,2.09,0,0,0,291,390.82Z"/><path d="M296.81,393.36a2.52,2.52,0,0,1-2.23-1.19,7.35,7.35,0,0,1,0-6.67,2.66,2.66,0,0,1,4.45,0,7.35,7.35,0,0,1,0,6.67A2.53,2.53,0,0,1,296.81,393.36Zm0-.56a1.43,1.43,0,0,0,1.34-1,7.63,7.63,0,0,0,.45-3,7.75,7.75,0,0,0-.45-3,1.41,1.41,0,0,0-2.69,0,7.59,7.59,0,0,0-.44,3,7.47,7.47,0,0,0,.44,3A1.44,1.44,0,0,0,296.81,392.8Z"/><g style="clip-path:url(#clip-path)"><line x1="353.52" y1="377.08" x2="353.52" y2="7.2" style="fill:none;stroke:#b0b0b0;stroke-linecap:square;stroke-linejoin:round;stroke-width:0.800000011920929px;opacity:0.30000001192092896"/></g><line x1="353.52" y1="377.08" x2="353.52" y2="380.58"/><line x1="353.52" y1="377.08" x2="353.52" y2="380.58" style="fill:none;stroke:#000;stroke-linejoin:round;stroke-width:0.800000011920929px"/><polygon points="343.76 393.2 343.76 392.58 345.29 392.58 345.29 385.31 343.52 386.45 343.52 385.68 345.66 384.3 346.46 384.3 346.46 392.58 347.99 392.58 347.99 393.2 343.76 393.2"/><path d="M353.51,393.36a2.54,2.54,0,0,1-2.23-1.19,7.43,7.43,0,0,1,0-6.67,2.66,2.66,0,0,1,4.45,0,7.35,7.35,0,0,1,0,6.67A2.53,2.53,0,0,1,353.51,393.36Zm0-.56a1.43,1.43,0,0,0,1.34-1,7.63,7.63,0,0,0,.45-3,7.75,7.75,0,0,0-.45-3,1.44,1.44,0,0,0-1.34-1,1.42,1.42,0,0,0-1.34,1,7.56,7.56,0,0,0-.45,3,7.44,7.44,0,0,0,.45,3A1.41,1.41,0,0,0,353.51,392.8Z"/><path d="M361.14,393.36a2.54,2.54,0,0,1-2.23-1.19,7.43,7.43,0,0,1,0-6.67,2.66,2.66,0,0,1,4.45,0,7.27,7.27,0,0,1,0,6.67A2.53,2.53,0,0,1,361.14,393.36Zm0-.56a1.44,1.44,0,0,0,1.35-1,7.85,7.85,0,0,0,.44-3,8,8,0,0,0-.44-3,1.45,1.45,0,0,0-1.35-1,1.43,1.43,0,0,0-1.34,1,7.56,7.56,0,0,0-.45,3,7.44,7.44,0,0,0,.45,3A1.42,1.42,0,0,0,361.14,392.8Z"/><g style="clip-path:url(#clip-path)"><line x1="414.04" y1="377.08" x2="414.04" y2="7.2" style="fill:none;stroke:#b0b0b0;stroke-linecap:square;stroke-linejoin:round;stroke-width:0.800000011920929px;opacity:0.30000001192092896"/></g><line x1="414.04" y1="377.08" x2="414.04" y2="380.58"/><line x1="414.04" y1="377.08" x2="414.04" y2="380.58" style="fill:none;stroke:#000;stroke-linejoin:round;stroke-width:0.800000011920929px"/><polygon points="404.29 393.2 404.29 392.58 405.81 392.58 405.81 385.31 404.05 386.45 404.05 385.68 406.18 384.3 406.99 384.3 406.99 392.58 408.51 392.58 408.51 393.2 404.29 393.2"/><path d="M411.75,386.54h-.66V385a6.75,6.75,0,0,1,1.26-.5,4.55,4.55,0,0,1,1.25-.18,3.33,3.33,0,0,1,2.16.66,2.21,2.21,0,0,1,.79,1.8c0,.86-.6,1.88-1.8,3.07l-.2.21-2.21,2.2H416v-1.08h.68v2H411v-.63l2.65-2.65a6.71,6.71,0,0,0,1.25-1.61,3.38,3.38,0,0,0,.38-1.55,2,2,0,0,0-.46-1.38,1.64,1.64,0,0,0-1.26-.5,1.83,1.83,0,0,0-1.3.42A1.8,1.8,0,0,0,411.75,386.54Z"/><path d="M421.66,393.36a2.54,2.54,0,0,1-2.23-1.19,7.43,7.43,0,0,1,0-6.67,2.66,2.66,0,0,1,4.45,0,7.27,7.27,0,0,1,0,6.67A2.53,2.53,0,0,1,421.66,393.36Zm0-.56a1.44,1.44,0,0,0,1.35-1,7.85,7.85,0,0,0,.44-3,8,8,0,0,0-.44-3,1.45,1.45,0,0,0-1.35-1,1.43,1.43,0,0,0-1.34,1,7.56,7.56,0,0,0-.45,3,7.44,7.44,0,0,0,.45,3A1.42,1.42,0,0,0,421.66,392.8Z"/><g style="clip-path:url(#clip-path)"><line x1="474.56" y1="377.08" x2="474.56" y2="7.2" style="fill:none;stroke:#b0b0b0;stroke-linecap:square;stroke-linejoin:round;stroke-width:0.800000011920929px;opacity:0.30000001192092896"/></g><line x1="474.56" y1="377.08" x2="474.56" y2="380.58"/><line x1="474.56" y1="377.08" x2="474.56" y2="380.58" style="fill:none;stroke:#000;stroke-linejoin:round;stroke-width:0.800000011920929px"/><polygon points="464.81 393.2 464.81 392.58 466.33 392.58 466.33 385.31 464.57 386.45 464.57 385.68 466.7 384.3 467.51 384.3 467.51 392.58 469.03 392.58 469.03 393.2 464.81 393.2"/><path d="M477.5,393.2h-4v-.62h1.4v-1.72h-3.81v-.63l3.83-5.93h1.16v5.94h1.67v.62H476.1v1.72h1.4Zm-2.58-3v-4.66l-3,4.66Z"/><path d="M482.18,393.36a2.54,2.54,0,0,1-2.23-1.19,7.43,7.43,0,0,1,0-6.67,2.66,2.66,0,0,1,4.45,0,7.27,7.27,0,0,1,0,6.67A2.52,2.52,0,0,1,482.18,393.36Zm0-.56a1.44,1.44,0,0,0,1.35-1,7.66,7.66,0,0,0,.44-3,7.78,7.78,0,0,0-.44-3,1.45,1.45,0,0,0-1.35-1,1.43,1.43,0,0,0-1.34,1,7.59,7.59,0,0,0-.44,3,7.47,7.47,0,0,0,.44,3A1.42,1.42,0,0,0,482.18,392.8Z"/><g style="clip-path:url(#clip-path)"><line x1="535.09" y1="377.08" x2="535.09" y2="7.2" style="fill:none;stroke:#b0b0b0;stroke-linecap:square;stroke-linejoin:round;stroke-width:0.800000011920929px;opacity:0.30000001192092896"/></g><line x1="535.09" y1="377.08" x2="535.09" y2="380.58"/><line x1="535.09" y1="377.08" x2="535.09" y2="380.58" style="fill:none;stroke:#000;stroke-linejoin:round;stroke-width:0.800000011920929px"/><polygon points="525.33 393.2 525.33 392.58 526.85 392.58 526.85 385.31 525.09 386.45 525.09 385.68 527.23 384.3 528.03 384.3 528.03 392.58 529.55 392.58 529.55 393.2 525.33 393.2"/><path d="M533.27,388.39a2.82,2.82,0,0,1,.9-.66,2.93,2.93,0,0,1,1.14-.21,2.74,2.74,0,0,1,2.07.79,3,3,0,0,1,.75,2.13,2.85,2.85,0,0,1-.81,2.13,3,3,0,0,1-2.19.79,2.65,2.65,0,0,1-2.28-1.09,5.34,5.34,0,0,1-.79-3.16,5.83,5.83,0,0,1,.94-3.55,3.11,3.11,0,0,1,2.66-1.26,8.27,8.27,0,0,1,1,.08,7.38,7.38,0,0,1,1,.27v1.44H537a1.36,1.36,0,0,0-.46-.9,1.53,1.53,0,0,0-1-.31,1.86,1.86,0,0,0-1.7.86A4.9,4.9,0,0,0,533.27,388.39Zm1.91,4.41a1.49,1.49,0,0,0,1.27-.6,3.63,3.63,0,0,0,0-3.5,1.5,1.5,0,0,0-1.27-.61,1.52,1.52,0,0,0-1.28.59,2.83,2.83,0,0,0-.44,1.69,3.07,3.07,0,0,0,.45,1.8A1.45,1.45,0,0,0,535.18,392.8Z"/><path d="M542.7,393.36a2.54,2.54,0,0,1-2.23-1.19,7.43,7.43,0,0,1,0-6.67,2.66,2.66,0,0,1,4.45,0,7.27,7.27,0,0,1,0,6.67A2.52,2.52,0,0,1,542.7,393.36Zm0-.56a1.44,1.44,0,0,0,1.35-1,7.66,7.66,0,0,0,.44-3,7.78,7.78,0,0,0-.44-3,1.45,1.45,0,0,0-1.35-1,1.43,1.43,0,0,0-1.34,1,7.59,7.59,0,0,0-.44,3,7.47,7.47,0,0,0,.44,3A1.42,1.42,0,0,0,542.7,392.8Z"/><path d="M272,410.35v-.73h1.31v-8.75H272v-.73h4.84a3.64,3.64,0,0,1,2.42.78,2.91,2.91,0,0,1,0,4.19,3.59,3.59,0,0,1-2.42.77h-2.15v3.74h1.59v.73Zm2.69-5.2h1.81a2.1,2.1,0,0,0,1.55-.54,2.64,2.64,0,0,0,0-3.2,2.1,2.1,0,0,0-1.55-.54h-1.81Z"/><path d="M286.85,405.81v3.81H288v.73h-2.38v-.79a2.49,2.49,0,0,1-1,.74,3.61,3.61,0,0,1-1.28.23,2.82,2.82,0,0,1-1.93-.63,2.22,2.22,0,0,1-.7-1.74,2.06,2.06,0,0,1,.81-1.73,3.68,3.68,0,0,1,2.3-.63h1.76v-.51a1.62,1.62,0,0,0-.5-1.27,2,2,0,0,0-1.41-.46,1.85,1.85,0,0,0-1.19.35,1.44,1.44,0,0,0-.56,1h-.65v-1.47a8.68,8.68,0,0,1,1.28-.42,6.23,6.23,0,0,1,1.2-.14,3.24,3.24,0,0,1,2.3.76A2.83,2.83,0,0,1,286.85,405.81Zm-1.26,2.25v-1.54H284a2.07,2.07,0,0,0-1.4.41,1.57,1.57,0,0,0-.45,1.23,1.64,1.64,0,0,0,.46,1.21,1.73,1.73,0,0,0,1.26.44,1.65,1.65,0,0,0,1.75-1.75Z"/><path d="M289.88,403.81h-1.11v-.73h1.11v-2.25h1.26v2.25h2.36v.73h-2.36v4.62a2.36,2.36,0,0,0,.18,1.19.74.74,0,0,0,.66.25.86.86,0,0,0,.71-.29,1.71,1.71,0,0,0,.24-.94h.95a2,2,0,0,1-.54,1.44,2.17,2.17,0,0,1-1.47.45,2.07,2.07,0,0,1-1.54-.48,2.26,2.26,0,0,1-.45-1.62Z"/><path d="M301.19,408.16a3,3,0,0,1-1,1.77,3.07,3.07,0,0,1-2,.6,3.27,3.27,0,0,1-2.55-1,4.47,4.47,0,0,1,0-5.56,3.27,3.27,0,0,1,2.55-1.05,5.91,5.91,0,0,1,1.37.17,7.73,7.73,0,0,1,1.37.48v1.86h-.73a2.23,2.23,0,0,0-.63-1.39,2,2,0,0,0-1.37-.44,1.71,1.71,0,0,0-1.54.79,5.66,5.66,0,0,0,0,4.74,1.7,1.7,0,0,0,1.54.78,1.91,1.91,0,0,0,1.29-.42,2.27,2.27,0,0,0,.67-1.29Z"/><path d="M302.41,410.35v-.73h1.13v-9.19h-1.2v-.72h2.46v4.66a2.73,2.73,0,0,1,.9-1.11,2.24,2.24,0,0,1,1.3-.38,2.16,2.16,0,0,1,1.76.69,3.36,3.36,0,0,1,.58,2.16v3.89h1.12v.73H307v-.73h1.09v-3.5a3.42,3.42,0,0,0-.34-1.82,1.3,1.3,0,0,0-1.15-.49,1.58,1.58,0,0,0-1.34.64,3.1,3.1,0,0,0-.45,1.85v3.32h1.09v.73Z"/><path d="M316.6,409.86v-2.33h.79a2.16,2.16,0,0,0,.67,1.72,2.86,2.86,0,0,0,1.95.56,3,3,0,0,0,1.84-.47,1.7,1.7,0,0,0,.65-1.42,1.59,1.59,0,0,0-.39-1.13,4.29,4.29,0,0,0-1.63-.77l-1.34-.41a4.37,4.37,0,0,1-2.07-1.1,2.59,2.59,0,0,1-.59-1.82,2.42,2.42,0,0,1,.92-2A4.18,4.18,0,0,1,320,400a8.91,8.91,0,0,1,1.56.15,16.88,16.88,0,0,1,1.8.45v2.17h-.77a2.18,2.18,0,0,0-.73-1.55,2.86,2.86,0,0,0-1.83-.49,2.66,2.66,0,0,0-1.65.44,1.52,1.52,0,0,0-.56,1.28,1.55,1.55,0,0,0,.42,1.15,4.44,4.44,0,0,0,1.8.82l1.26.38a4.43,4.43,0,0,1,2,1.06,2.52,2.52,0,0,1,.6,1.74,2.66,2.66,0,0,1-.95,2.23,4.55,4.55,0,0,1-2.83.74,9.37,9.37,0,0,1-1.72-.17A9,9,0,0,1,316.6,409.86Z"/><path d="M327.86,409.62h1.19v.73H325.4v-.73h1.2v-5.81h-1.2v-.73h2.46Zm-1.61-8.79a.75.75,0,0,1,.22-.55A.8.8,0,0,1,327,400a.79.79,0,0,1,.54.24.76.76,0,0,1,.23.55.74.74,0,0,1-.22.54.73.73,0,0,1-.55.23.75.75,0,0,1-.56-.23A.7.7,0,0,1,326.25,400.83Z"/><polygon points="329.93 410.35 329.93 409.76 334.48 403.81 330.88 403.81 330.88 405.07 330.16 405.07 330.16 403.08 336.11 403.08 336.11 403.67 331.56 409.62 335.5 409.62 335.5 408.3 336.23 408.3 336.23 410.35 329.93 410.35"/><path d="M342.85,406.12a3.27,3.27,0,0,0-.54-1.92,1.72,1.72,0,0,0-1.42-.64,1.65,1.65,0,0,0-1.37.65,3.65,3.65,0,0,0-.6,1.91Zm1.49.73h-5.42v0a3.76,3.76,0,0,0,.55,2.23,1.88,1.88,0,0,0,1.63.74,2.09,2.09,0,0,0,1.36-.43,2.31,2.31,0,0,0,.74-1.29h1a3,3,0,0,1-1.1,1.79,3.6,3.6,0,0,1-2.13.59,3.29,3.29,0,0,1-2.56-1,3.91,3.91,0,0,1-1-2.78,4,4,0,0,1,.95-2.78,3.56,3.56,0,0,1,5,0A4.49,4.49,0,0,1,344.34,406.85Z"/><g style="clip-path:url(#clip-path)"><line x1="58.48" y1="373.85" x2="557.78" y2="373.85" style="fill:none;stroke:#b0b0b0;stroke-linecap:square;stroke-linejoin:round;stroke-width:0.800000011920929px;opacity:0.30000001192092896"/></g><line x1="58.48" y1="373.85" x2="54.98" y2="373.85"/><line x1="58.48" y1="373.85" x2="54.98" y2="373.85" style="fill:none;stroke:#000;stroke-linejoin:round;stroke-width:0.800000011920929px"/><path d="M28.56,378.57a2.52,2.52,0,0,1-2.23-1.19,7.43,7.43,0,0,1,0-6.67,2.66,2.66,0,0,1,4.45,0,7.27,7.27,0,0,1,0,6.67A2.51,2.51,0,0,1,28.56,378.57Zm0-.56a1.44,1.44,0,0,0,1.35-1,7.82,7.82,0,0,0,.44-3,8,8,0,0,0-.44-3,1.45,1.45,0,0,0-1.35-1,1.43,1.43,0,0,0-1.34,1,7.56,7.56,0,0,0-.45,3,7.41,7.41,0,0,0,.45,3A1.42,1.42,0,0,0,28.56,378Z"/><path d="M33.51,377.8a.81.81,0,0,1,.21-.55.79.79,0,1,1,1.12,1.11.85.85,0,0,1-1.12,0A.78.78,0,0,1,33.51,377.8Z"/><path d="M40,378.57a2.52,2.52,0,0,1-2.23-1.19,7.43,7.43,0,0,1,0-6.67,2.66,2.66,0,0,1,4.45,0,7.35,7.35,0,0,1,0,6.67A2.51,2.51,0,0,1,40,378.57Zm0-.56a1.43,1.43,0,0,0,1.34-1,7.59,7.59,0,0,0,.45-3,7.75,7.75,0,0,0-.45-3,1.44,1.44,0,0,0-1.34-1,1.42,1.42,0,0,0-1.34,1,7.56,7.56,0,0,0-.45,3,7.41,7.41,0,0,0,.45,3A1.41,1.41,0,0,0,40,378Z"/><path d="M45,370a11.31,11.31,0,0,1,1.31-.4,6.36,6.36,0,0,1,1.19-.13,3.28,3.28,0,0,1,2,.55,2,2,0,0,1,.22,2.86,2.57,2.57,0,0,1-1.41.72,2.8,2.8,0,0,1,1.67.79,2.25,2.25,0,0,1,.6,1.62,2.23,2.23,0,0,1-.83,1.87,3.69,3.69,0,0,1-2.36.65,6.72,6.72,0,0,1-1.35-.14,5.92,5.92,0,0,1-1.29-.43v-1.71h.66a1.75,1.75,0,0,0,.56,1.29,2.21,2.21,0,0,0,1.44.43,1.91,1.91,0,0,0,1.42-.52,2,2,0,0,0,.51-1.43,2.11,2.11,0,0,0-.54-1.56,2.17,2.17,0,0,0-1.56-.52h-.55v-.6H47a2.4,2.4,0,0,0,1.54-.42,1.62,1.62,0,0,0,.51-1.29,1.57,1.57,0,0,0-.42-1.17,1.69,1.69,0,0,0-1.21-.41,1.86,1.86,0,0,0-1.24.38,1.67,1.67,0,0,0-.5,1.11H45Z"/><g style="clip-path:url(#clip-path)"><line x1="58.48" y1="320.02" x2="557.78" y2="320.02" style="fill:none;stroke:#b0b0b0;stroke-linecap:square;stroke-linejoin:round;stroke-width:0.800000011920929px;opacity:0.30000001192092896"/></g><line x1="58.48" y1="320.02" x2="54.98" y2="320.02"/><line x1="58.48" y1="320.02" x2="54.98" y2="320.02" style="fill:none;stroke:#000;stroke-linejoin:round;stroke-width:0.800000011920929px"/><path d="M28.56,324.74a2.54,2.54,0,0,1-2.23-1.19,7.43,7.43,0,0,1,0-6.67,2.66,2.66,0,0,1,4.45,0,7.27,7.27,0,0,1,0,6.67A2.53,2.53,0,0,1,28.56,324.74Zm0-.57a1.43,1.43,0,0,0,1.35-1,10.28,10.28,0,0,0,0-5.95,1.46,1.46,0,0,0-1.35-1,1.44,1.44,0,0,0-1.34,1,10.06,10.06,0,0,0,0,5.95A1.41,1.41,0,0,0,28.56,324.17Z"/><path d="M33.51,324a.75.75,0,0,1,.78-.78.79.79,0,0,1,.78.78.8.8,0,0,1-1.35.55A.74.74,0,0,1,33.51,324Z"/><path d="M40,324.74a2.54,2.54,0,0,1-2.23-1.19,7.43,7.43,0,0,1,0-6.67,2.66,2.66,0,0,1,4.45,0,7.35,7.35,0,0,1,0,6.67A2.53,2.53,0,0,1,40,324.74Zm0-.57a1.42,1.42,0,0,0,1.34-1,10.06,10.06,0,0,0,0-5.95,1.45,1.45,0,0,0-1.34-1,1.43,1.43,0,0,0-1.34,1,10.06,10.06,0,0,0,0,5.95A1.4,1.4,0,0,0,40,324.17Z"/><path d="M50.59,324.58h-4V324H48v-1.72H44.2v-.63L48,315.68h1.16v5.94h1.67v.62H49.19V324h1.4Zm-2.58-3V317l-3,4.66Z"/><g style="clip-path:url(#clip-path)"><line x1="58.48" y1="266.19" x2="557.78" y2="266.19" style="fill:none;stroke:#b0b0b0;stroke-linecap:square;stroke-linejoin:round;stroke-width:0.800000011920929px;opacity:0.30000001192092896"/></g><line x1="58.48" y1="266.19" x2="54.98" y2="266.19"/><line x1="58.48" y1="266.19" x2="54.98" y2="266.19" style="fill:none;stroke:#000;stroke-linejoin:round;stroke-width:0.800000011920929px"/><path d="M28.56,270.91a2.54,2.54,0,0,1-2.23-1.19,7.43,7.43,0,0,1,0-6.67,2.66,2.66,0,0,1,4.45,0,7.27,7.27,0,0,1,0,6.67A2.53,2.53,0,0,1,28.56,270.91Zm0-.57a1.43,1.43,0,0,0,1.35-1,10.28,10.28,0,0,0,0-5.95,1.46,1.46,0,0,0-1.35-1,1.44,1.44,0,0,0-1.34,1,10.06,10.06,0,0,0,0,5.95A1.41,1.41,0,0,0,28.56,270.34Z"/><path d="M33.51,270.14a.75.75,0,0,1,.78-.78.78.78,0,0,1,.55,1.33.82.82,0,0,1-1.12,0A.74.74,0,0,1,33.51,270.14Z"/><path d="M40,270.91a2.54,2.54,0,0,1-2.23-1.19,7.43,7.43,0,0,1,0-6.67,2.66,2.66,0,0,1,4.45,0,7.35,7.35,0,0,1,0,6.67A2.53,2.53,0,0,1,40,270.91Zm0-.57a1.42,1.42,0,0,0,1.34-1,10.06,10.06,0,0,0,0-5.95,1.45,1.45,0,0,0-1.34-1,1.43,1.43,0,0,0-1.34,1,10.06,10.06,0,0,0,0,5.95A1.4,1.4,0,0,0,40,270.34Z"/><path d="M49.86,262v1h-4v2.51a2.19,2.19,0,0,1,.71-.31,3.66,3.66,0,0,1,.91-.11,3.11,3.11,0,0,1,2.24.79,2.83,2.83,0,0,1,.82,2.14,2.8,2.8,0,0,1-.82,2.16,3.34,3.34,0,0,1-2.33.77,5.32,5.32,0,0,1-1.24-.15,5.43,5.43,0,0,1-1.29-.43v-1.7h.66a1.82,1.82,0,0,0,.52,1.28,1.94,1.94,0,0,0,1.35.43,1.7,1.7,0,0,0,1.41-.61A2.65,2.65,0,0,0,49.3,268a2.75,2.75,0,0,0-.49-1.74,1.74,1.74,0,0,0-1.43-.61,2.28,2.28,0,0,0-.94.19,2,2,0,0,0-.71.57h-.5V262Z"/><g style="clip-path:url(#clip-path)"><line x1="58.48" y1="212.36" x2="557.78" y2="212.36" style="fill:none;stroke:#b0b0b0;stroke-linecap:square;stroke-linejoin:round;stroke-width:0.800000011920929px;opacity:0.30000001192092896"/></g><line x1="58.48" y1="212.36" x2="54.98" y2="212.36"/><line x1="58.48" y1="212.36" x2="54.98" y2="212.36" style="fill:none;stroke:#000;stroke-linejoin:round;stroke-width:0.800000011920929px"/><path d="M28.56,217.07a2.53,2.53,0,0,1-2.23-1.18,7.46,7.46,0,0,1,0-6.68,2.66,2.66,0,0,1,4.45,0,7.29,7.29,0,0,1,0,6.68A2.52,2.52,0,0,1,28.56,217.07Zm0-.56a1.43,1.43,0,0,0,1.35-1,10.31,10.31,0,0,0,0-6,1.46,1.46,0,0,0-1.35-1,1.44,1.44,0,0,0-1.34,1,10.09,10.09,0,0,0,0,6A1.41,1.41,0,0,0,28.56,216.51Z"/><path d="M33.51,216.31a.79.79,0,0,1,1.33-.56.83.83,0,0,1,.23.56.81.81,0,0,1-1.35.55A.77.77,0,0,1,33.51,216.31Z"/><path d="M40,217.07a2.53,2.53,0,0,1-2.23-1.18,7.46,7.46,0,0,1,0-6.68,2.66,2.66,0,0,1,4.45,0,7.37,7.37,0,0,1,0,6.68A2.52,2.52,0,0,1,40,217.07Zm0-.56a1.42,1.42,0,0,0,1.34-1,10.09,10.09,0,0,0,0-6,1.45,1.45,0,0,0-1.34-1,1.43,1.43,0,0,0-1.34,1,10.09,10.09,0,0,0,0,6A1.4,1.4,0,0,0,40,216.51Z"/><path d="M45.84,212.11a2.68,2.68,0,0,1,.9-.66A3.09,3.09,0,0,1,50,212a3,3,0,0,1,.75,2.14,2.83,2.83,0,0,1-.81,2.12,3,3,0,0,1-2.19.79A2.65,2.65,0,0,1,45.42,216a5.33,5.33,0,0,1-.79-3.15,5.84,5.84,0,0,1,.94-3.56A3.11,3.11,0,0,1,48.23,208a6.61,6.61,0,0,1,1,.09,7.31,7.31,0,0,1,1,.26v1.44h-.66a1.4,1.4,0,0,0-.46-.9,1.59,1.59,0,0,0-1-.31,1.88,1.88,0,0,0-1.7.86A4.94,4.94,0,0,0,45.84,212.11Zm1.91,4.4a1.47,1.47,0,0,0,1.27-.6,3.61,3.61,0,0,0,0-3.49,1.47,1.47,0,0,0-1.27-.61,1.51,1.51,0,0,0-1.28.58,2.85,2.85,0,0,0-.44,1.7,3.07,3.07,0,0,0,.45,1.8A1.45,1.45,0,0,0,47.75,216.51Z"/><g style="clip-path:url(#clip-path)"><line x1="58.48" y1="158.52" x2="557.78" y2="158.52" style="fill:none;stroke:#b0b0b0;stroke-linecap:square;stroke-linejoin:round;stroke-width:0.800000011920929px;opacity:0.30000001192092896"/></g><line x1="58.48" y1="158.52" x2="54.98" y2="158.52"/><line x1="58.48" y1="158.52" x2="54.98" y2="158.52" style="fill:none;stroke:#000;stroke-linejoin:round;stroke-width:0.800000011920929px"/><path d="M28.56,163.24a2.52,2.52,0,0,1-2.23-1.19,7.43,7.43,0,0,1,0-6.67,2.66,2.66,0,0,1,4.45,0,7.27,7.27,0,0,1,0,6.67A2.51,2.51,0,0,1,28.56,163.24Zm0-.56a1.44,1.44,0,0,0,1.35-1,7.82,7.82,0,0,0,.44-3,8,8,0,0,0-.44-3,1.45,1.45,0,0,0-1.35-1,1.43,1.43,0,0,0-1.34,1,7.56,7.56,0,0,0-.45,3,7.41,7.41,0,0,0,.45,3A1.42,1.42,0,0,0,28.56,162.68Z"/><path d="M33.51,162.47a.81.81,0,0,1,.21-.55A.79.79,0,1,1,34.84,163a.85.85,0,0,1-1.12,0A.78.78,0,0,1,33.51,162.47Z"/><path d="M40,163.24a2.52,2.52,0,0,1-2.23-1.19,7.43,7.43,0,0,1,0-6.67,2.66,2.66,0,0,1,4.45,0,7.35,7.35,0,0,1,0,6.67A2.51,2.51,0,0,1,40,163.24Zm0-.56a1.43,1.43,0,0,0,1.34-1,7.59,7.59,0,0,0,.45-3,7.75,7.75,0,0,0-.45-3,1.44,1.44,0,0,0-1.34-1,1.42,1.42,0,0,0-1.34,1,7.56,7.56,0,0,0-.45,3,7.41,7.41,0,0,0,.45,3A1.41,1.41,0,0,0,40,162.68Z"/><polygon points="50.59 154.94 47.17 163.09 46.3 163.09 49.56 155.3 45.52 155.3 45.52 156.38 44.84 156.38 44.84 154.34 50.59 154.34 50.59 154.94"/><g style="clip-path:url(#clip-path)"><line x1="58.48" y1="104.69" x2="557.78" y2="104.69" style="fill:none;stroke:#b0b0b0;stroke-linecap:square;stroke-linejoin:round;stroke-width:0.800000011920929px;opacity:0.30000001192092896"/></g><line x1="58.48" y1="104.69" x2="54.98" y2="104.69"/><line x1="58.48" y1="104.69" x2="54.98" y2="104.69" style="fill:none;stroke:#000;stroke-linejoin:round;stroke-width:0.800000011920929px"/><path d="M28.56,109.41a2.54,2.54,0,0,1-2.23-1.19,7.43,7.43,0,0,1,0-6.67,2.66,2.66,0,0,1,4.45,0,7.27,7.27,0,0,1,0,6.67A2.53,2.53,0,0,1,28.56,109.41Zm0-.56a1.44,1.44,0,0,0,1.35-1,7.85,7.85,0,0,0,.44-3,8,8,0,0,0-.44-3,1.45,1.45,0,0,0-1.35-1,1.43,1.43,0,0,0-1.34,1,7.56,7.56,0,0,0-.45,3,7.44,7.44,0,0,0,.45,3A1.42,1.42,0,0,0,28.56,108.85Z"/><path d="M33.51,108.64a.81.81,0,0,1,.21-.55.79.79,0,0,1,1.35.55.8.8,0,0,1-1.35.55A.74.74,0,0,1,33.51,108.64Z"/><path d="M40,109.41a2.54,2.54,0,0,1-2.23-1.19,7.43,7.43,0,0,1,0-6.67,2.66,2.66,0,0,1,4.45,0,7.35,7.35,0,0,1,0,6.67A2.53,2.53,0,0,1,40,109.41Zm0-.56a1.43,1.43,0,0,0,1.34-1,7.63,7.63,0,0,0,.45-3,7.75,7.75,0,0,0-.45-3,1.44,1.44,0,0,0-1.34-1,1.42,1.42,0,0,0-1.34,1,7.56,7.56,0,0,0-.45,3,7.44,7.44,0,0,0,.45,3A1.41,1.41,0,0,0,40,108.85Z"/><path d="M48.54,104.6a2.49,2.49,0,0,1,1.55.73,2.19,2.19,0,0,1,.56,1.54,2.32,2.32,0,0,1-.78,1.88,4.1,4.1,0,0,1-4.46,0,2.29,2.29,0,0,1-.78-1.88,2.19,2.19,0,0,1,.55-1.54,2.49,2.49,0,0,1,1.56-.73,2.25,2.25,0,0,1-1.35-.67,1.83,1.83,0,0,1-.47-1.31,2.07,2.07,0,0,1,.72-1.66,3.57,3.57,0,0,1,4,0,2.08,2.08,0,0,1,.74,1.66,1.88,1.88,0,0,1-.48,1.31A2.34,2.34,0,0,1,48.54,104.6Zm.64-2a1.86,1.86,0,0,0-.41-1.25,1.49,1.49,0,0,0-1.13-.44,1.48,1.48,0,0,0-1.13.44,1.81,1.81,0,0,0-.4,1.25,1.77,1.77,0,0,0,.4,1.25,1.67,1.67,0,0,0,2.26,0A1.82,1.82,0,0,0,49.18,102.62Zm.24,4.25a2.12,2.12,0,0,0-.47-1.46,1.91,1.91,0,0,0-2.62,0,2.55,2.55,0,0,0,0,2.92,1.91,1.91,0,0,0,2.62,0A2.13,2.13,0,0,0,49.42,106.87Z"/><g style="clip-path:url(#clip-path)"><line x1="58.48" y1="50.86" x2="557.78" y2="50.86" style="fill:none;stroke:#b0b0b0;stroke-linecap:square;stroke-linejoin:round;stroke-width:0.800000011920929px;opacity:0.30000001192092896"/></g><line x1="58.48" y1="50.86" x2="54.98" y2="50.86"/><line x1="58.48" y1="50.86" x2="54.98" y2="50.86" style="fill:none;stroke:#000;stroke-linejoin:round;stroke-width:0.800000011920929px"/><path d="M28.56,55.58a2.54,2.54,0,0,1-2.23-1.19,6,6,0,0,1-.79-3.34,6,6,0,0,1,.79-3.33,2.66,2.66,0,0,1,4.45,0,6,6,0,0,1,.81,3.33,6,6,0,0,1-.81,3.34A2.53,2.53,0,0,1,28.56,55.58Zm0-.57a1.43,1.43,0,0,0,1.35-1,7.88,7.88,0,0,0,.44-3,7.93,7.93,0,0,0-.44-3,1.46,1.46,0,0,0-1.35-1,1.44,1.44,0,0,0-1.34,1,7.51,7.51,0,0,0-.45,3,7.46,7.46,0,0,0,.45,3A1.41,1.41,0,0,0,28.56,55Z"/><path d="M33.51,54.81a.75.75,0,0,1,.78-.78.79.79,0,0,1,.78.78.8.8,0,0,1-1.35.55A.74.74,0,0,1,33.51,54.81Z"/><path d="M40,55.58a2.54,2.54,0,0,1-2.23-1.19A6,6,0,0,1,37,51.05a6,6,0,0,1,.79-3.33,2.66,2.66,0,0,1,4.45,0,6,6,0,0,1,.8,3.33,6,6,0,0,1-.8,3.34A2.53,2.53,0,0,1,40,55.58ZM40,55a1.42,1.42,0,0,0,1.34-1,7.65,7.65,0,0,0,.45-3,7.7,7.7,0,0,0-.45-3,1.45,1.45,0,0,0-1.34-1,1.43,1.43,0,0,0-1.34,1,7.51,7.51,0,0,0-.45,3,7.46,7.46,0,0,0,.45,3A1.4,1.4,0,0,0,40,55Z"/><path d="M47.53,47.09a1.47,1.47,0,0,0-1.27.62,2.87,2.87,0,0,0-.44,1.74,2.92,2.92,0,0,0,.44,1.75,1.45,1.45,0,0,0,1.27.6,1.49,1.49,0,0,0,1.28-.59,2.84,2.84,0,0,0,.44-1.69,3.22,3.22,0,0,0-.44-1.79A1.48,1.48,0,0,0,47.53,47.09Zm1.91,4.41a2.53,2.53,0,0,1-.91.66,3,3,0,0,1-1.14.21,2.68,2.68,0,0,1-2.06-.78,2.91,2.91,0,0,1-.75-2.14,2.82,2.82,0,0,1,.82-2.13,3,3,0,0,1,2.18-.8,2.65,2.65,0,0,1,2.28,1.1,5.39,5.39,0,0,1,.79,3.16,5.88,5.88,0,0,1-.94,3.55,3.13,3.13,0,0,1-2.66,1.25,6.73,6.73,0,0,1-1-.09,5.4,5.4,0,0,1-1-.25V53.79h.66a1.31,1.31,0,0,0,.45.91,1.5,1.5,0,0,0,1,.31,1.88,1.88,0,0,0,1.7-.85A5.28,5.28,0,0,0,49.44,51.5Z"/><polygon points="17.84 228.61 17.11 228.61 17.11 227.31 8.45 227.31 8.45 230.3 10.04 230.3 10.04 231.14 7.63 231.14 7.63 222.08 10.04 222.08 10.04 222.92 8.45 222.92 8.45 225.92 17.11 225.92 17.11 224.62 17.84 224.62 17.84 228.61"/><path d="M18,218.81a3.25,3.25,0,0,1-1,2.54,3.93,3.93,0,0,1-2.79,1,3.93,3.93,0,0,1-2.77-.95,3.33,3.33,0,0,1-1-2.56,3.27,3.27,0,0,1,1-2.55,3.9,3.9,0,0,1,2.77-1,3.93,3.93,0,0,1,2.79,1A3.26,3.26,0,0,1,18,218.81Zm-.66,0a1.7,1.7,0,0,0-.79-1.53,4.44,4.44,0,0,0-2.36-.52,4.44,4.44,0,0,0-2.36.52,1.71,1.71,0,0,0-.8,1.53,1.68,1.68,0,0,0,.8,1.52,4.35,4.35,0,0,0,2.36.52,4.35,4.35,0,0,0,2.36-.52A1.68,1.68,0,0,0,17.36,218.81Z"/><path d="M11.3,213.08v1.11h-.73v-1.11H8.32v-1.26h2.25v-2.37h.73v2.37h4.62a2.45,2.45,0,0,0,1.19-.18.74.74,0,0,0,.25-.66.83.83,0,0,0-.29-.71,1.69,1.69,0,0,0-.94-.24v-.95a2,2,0,0,1,1.44.54,2.09,2.09,0,0,1,.45,1.47,2.11,2.11,0,0,1-.47,1.54,2.29,2.29,0,0,1-1.63.45Z"/><path d="M13.3,202.13h3.81V201h.73v2.38h-.78a2.65,2.65,0,0,1,.74,1,3.55,3.55,0,0,1,.22,1.27,2.8,2.8,0,0,1-.63,1.93,2.18,2.18,0,0,1-1.73.7,2,2,0,0,1-1.74-.81,3.63,3.63,0,0,1-.63-2.29v-1.77h-.5a1.64,1.64,0,0,0-1.28.51,2,2,0,0,0-.46,1.41,1.94,1.94,0,0,0,.35,1.19,1.44,1.44,0,0,0,1,.56v.64H10.94a8.2,8.2,0,0,1-.42-1.27,5.6,5.6,0,0,1-.14-1.2,3.22,3.22,0,0,1,.75-2.3A2.85,2.85,0,0,1,13.3,202.13Zm2.26,1.26H14V205a2.13,2.13,0,0,0,.4,1.4,1.61,1.61,0,0,0,1.24.44,1.57,1.57,0,0,0,1.2-.46,1.94,1.94,0,0,0,0-2.52A1.72,1.72,0,0,0,15.56,203.39Z"/><polygon points="17.11 197.75 17.11 196.56 17.84 196.56 17.84 200.22 17.11 200.22 17.11 199.01 7.93 199.01 7.93 200.22 7.2 200.22 7.2 197.75 17.11 197.75"/><polygon points="17.84 190.92 17.11 190.92 17.11 189.62 8.36 189.62 8.36 190.92 7.63 190.92 7.63 182.7 9.9 182.7 9.9 183.54 8.47 183.54 8.47 188.23 11.89 188.23 11.89 184.88 10.62 184.88 10.62 184.04 14.01 184.04 14.01 184.88 12.73 184.88 12.73 188.23 17 188.23 17 183.43 15.57 183.43 15.57 182.59 17.84 182.59 17.84 190.92"/><path d="M10.56,174.78h1.82v.72a1.31,1.31,0,0,0-.81.3,1.12,1.12,0,0,0-.27.78A1.74,1.74,0,0,0,12,178a2.92,2.92,0,0,0,1.84.49h3.32V177h.73v3.85h-.73v-1.13H11.29V181h-.72V178.5h1.29a2.63,2.63,0,0,1-1.12-.94,2.69,2.69,0,0,1-.36-1.43c0-.19,0-.42,0-.64A7.2,7.2,0,0,1,10.56,174.78Z"/><path d="M10.56,168.08h1.82v.73a1.31,1.31,0,0,0-.81.3,1.1,1.1,0,0,0-.27.78,1.74,1.74,0,0,0,.65,1.43,3,3,0,0,0,1.84.49h3.32v-1.46h.73v3.85h-.73v-1.13H11.29v1.2h-.72v-2.46h1.29a2.63,2.63,0,0,1-1.12-.94,2.69,2.69,0,0,1-.36-1.43c0-.19,0-.42,0-.64S10.5,168.34,10.56,168.08Z"/><path d="M18,163.87a3.29,3.29,0,0,1-1,2.55,4,4,0,0,1-2.79,1,3.89,3.89,0,0,1-2.77-.95,3.63,3.63,0,0,1,0-5.11,3.94,3.94,0,0,1,2.77-1,4,4,0,0,1,2.79,1A3.29,3.29,0,0,1,18,163.87Zm-.66,0a1.72,1.72,0,0,0-.79-1.53,4.54,4.54,0,0,0-2.36-.51,4.54,4.54,0,0,0-2.36.51,1.86,1.86,0,0,0,0,3.06,4.35,4.35,0,0,0,2.36.51,4.35,4.35,0,0,0,2.36-.51A1.7,1.7,0,0,0,17.36,163.87Z"/><path d="M10.56,153h1.82v.73a1.31,1.31,0,0,0-.81.3,1.1,1.1,0,0,0-.27.78A1.74,1.74,0,0,0,12,156.2a3,3,0,0,0,1.84.49h3.32v-1.46h.73v3.85h-.73V158H11.29v1.2h-.72v-2.46h1.29a2.63,2.63,0,0,1-1.12-.94,2.69,2.69,0,0,1-.36-1.43c0-.19,0-.42,0-.64S10.5,153.22,10.56,153Z"/><g style="clip-path:url(#clip-path)"><polyline points="81.18 360.27 111.44 324.24 171.96 298.94 293 245.23 535.09 169.03" style="fill:none;stroke:#1f77b4;stroke-linecap:square;stroke-linejoin:round;stroke-width:2.5px;opacity:0.8999999761581421"/><g style="clip-path:url(#clip-path-17)"><path d="M81.18,364.27a4,4,0,1,0-2.83-1.17A4,4,0,0,0,81.18,364.27Z" style="fill:#1f77b4;opacity:0.8999999761581421"/><path d="M81.18,364.27a4,4,0,1,0-2.83-1.17A4,4,0,0,0,81.18,364.27Z" style="fill:none;stroke:#1f77b4;stroke-linejoin:round;opacity:0.8999999761581421"/></g><g style="clip-path:url(#clip-path-18)"><path d="M111.44,328.24a4,4,0,1,0-2.83-1.17A4,4,0,0,0,111.44,328.24Z" style="fill:#1f77b4;opacity:0.8999999761581421"/><path d="M111.44,328.24a4,4,0,1,0-2.83-1.17A4,4,0,0,0,111.44,328.24Z" style="fill:none;stroke:#1f77b4;stroke-linejoin:round;opacity:0.8999999761581421"/></g><g style="clip-path:url(#clip-path-19)"><path d="M172,302.94a4,4,0,1,0-2.83-1.17A4,4,0,0,0,172,302.94Z" style="fill:#1f77b4;opacity:0.8999999761581421"/><path d="M172,302.94a4,4,0,1,0-2.83-1.17A4,4,0,0,0,172,302.94Z" style="fill:none;stroke:#1f77b4;stroke-linejoin:round;opacity:0.8999999761581421"/></g><g style="clip-path:url(#clip-path-20)"><path d="M293,249.23a4,4,0,1,0-2.83-1.17A4,4,0,0,0,293,249.23Z" style="fill:#1f77b4;opacity:0.8999999761581421"/><path d="M293,249.23a4,4,0,1,0-2.83-1.17A4,4,0,0,0,293,249.23Z" style="fill:none;stroke:#1f77b4;stroke-linejoin:round;opacity:0.8999999761581421"/></g><g style="clip-path:url(#clip-path-21)"><path d="M535.09,173a4,4,0,1,0-2.83-1.17A4,4,0,0,0,535.09,173Z" style="fill:#1f77b4;opacity:0.8999999761581421"/><path d="M535.09,173a4,4,0,1,0-2.83-1.17A4,4,0,0,0,535.09,173Z" style="fill:none;stroke:#1f77b4;stroke-linejoin:round;opacity:0.8999999761581421"/></g></g><g style="clip-path:url(#clip-path)"><polyline points="81.18 341.38 111.44 278.41 171.96 232.32 293 135.96 535.09 24.01" style="fill:none;stroke:#ff7f0e;stroke-linejoin:round;stroke-width:2.5px;stroke-dasharray:9.25,4;opacity:0.8999999761581421"/><g style="clip-path:url(#clip-path-23)"><rect x="77.18" y="337.38" width="8" height="8" style="fill:#ff7f0e;opacity:0.8999999761581421"/><rect x="77.18" y="337.38" width="8" height="8" style="fill:none;stroke:#ff7f0e;stroke-miterlimit:10;opacity:0.8999999761581421"/></g><g style="clip-path:url(#clip-path-24)"><rect x="107.44" y="274.41" width="8" height="8" style="fill:#ff7f0e;opacity:0.8999999761581421"/><rect x="107.44" y="274.41" width="8" height="8" style="fill:none;stroke:#ff7f0e;stroke-miterlimit:10;opacity:0.8999999761581421"/></g><g style="clip-path:url(#clip-path-25)"><rect x="167.96" y="228.32" width="8" height="8" style="fill:#ff7f0e;opacity:0.8999999761581421"/><rect x="167.96" y="228.32" width="8" height="8" style="fill:none;stroke:#ff7f0e;stroke-miterlimit:10;opacity:0.8999999761581421"/></g><g style="clip-path:url(#clip-path-26)"><rect x="289" y="131.96" width="8" height="8" style="fill:#ff7f0e;opacity:0.8999999761581421"/><rect x="289" y="131.96" width="8" height="8" style="fill:none;stroke:#ff7f0e;stroke-miterlimit:10;opacity:0.8999999761581421"/></g><g style="clip-path:url(#clip-path-27)"><rect x="531.09" y="20.01" width="8" height="8" style="fill:#ff7f0e;opacity:0.8999999761581421"/><rect x="531.09" y="20.01" width="8" height="8" style="fill:none;stroke:#ff7f0e;stroke-miterlimit:10;opacity:0.8999999761581421"/></g></g><line x1="58.48" y1="377.08" x2="58.48" y2="7.2" style="fill:none;stroke:#000;stroke-linecap:square;stroke-miterlimit:10"/><line x1="58.48" y1="377.08" x2="557.78" y2="377.08" style="fill:none;stroke:#000;stroke-linecap:square;stroke-miterlimit:10"/><rect x="64.48" y="13.2" width="93.65" height="38.85" style="fill:#fff;opacity:0.800000011920929"/><rect x="64.48" y="13.2" width="93.65" height="38.85" style="fill:none;stroke:#000;stroke-miterlimit:10;opacity:0.800000011920929"/><polyline points="69.28 22.93 81.28 22.93 93.28 22.93" style="fill:none;stroke:#1f77b4;stroke-linecap:square;stroke-linejoin:round;stroke-width:2.5px;opacity:0.8999999761581421"/><path d="M81.28,26.92a4,4,0,1,0-2.83-1.17A4,4,0,0,0,81.28,26.92Z" style="fill:#1f77b4;opacity:0.8999999761581421"/><path d="M81.28,26.92a4,4,0,1,0-2.83-1.17A4,4,0,0,0,81.28,26.92Z" style="fill:none;stroke:#1f77b4;stroke-linejoin:round;opacity:0.8999999761581421"/><polygon points="103.54 27.13 103.54 26.5 104.66 26.5 104.66 19 103.48 19 103.48 18.38 106.03 18.38 109.1 24.61 112.17 18.38 114.56 18.38 114.56 19 113.39 19 113.39 26.5 114.51 26.5 114.51 27.13 111.09 27.13 111.09 26.5 112.2 26.5 112.2 19.75 109.2 25.84 108.38 25.84 105.38 19.75 105.38 26.5 106.49 26.5 106.49 27.13 103.54 27.13"/><path d="M118.78,27.28a2.8,2.8,0,0,1-2.18-.89,3.38,3.38,0,0,1-.83-2.38,3.33,3.33,0,0,1,.82-2.38,3.11,3.11,0,0,1,4.38,0,3.38,3.38,0,0,1,.82,2.38,3.38,3.38,0,0,1-.82,2.38A2.84,2.84,0,0,1,118.78,27.28Zm0-.56a1.46,1.46,0,0,0,1.31-.69,3.77,3.77,0,0,0,.44-2,3.85,3.85,0,0,0-.44-2,1.59,1.59,0,0,0-2.62,0,3.75,3.75,0,0,0-.44,2,3.68,3.68,0,0,0,.44,2A1.46,1.46,0,0,0,118.78,26.72Z"/><path d="M128.13,20.89v1.56h-.62a1.1,1.1,0,0,0-.26-.7,1,1,0,0,0-.67-.23,1.48,1.48,0,0,0-1.22.55,2.55,2.55,0,0,0-.42,1.59V26.5h1.25v.62h-3.3V26.5h1v-5h-1V20.9h2.11V22a2.26,2.26,0,0,1,.8-1,2.39,2.39,0,0,1,1.23-.31,3.74,3.74,0,0,1,.55.05A5.29,5.29,0,0,1,128.13,20.89Z"/><path d="M129.43,21.52h-1V20.9h1V19h1.08V20.9h2v.62h-2v4a2,2,0,0,0,.15,1,.66.66,0,0,0,.57.22.73.73,0,0,0,.61-.26,1.43,1.43,0,0,0,.2-.8h.82a1.77,1.77,0,0,1-.47,1.24,1.84,1.84,0,0,1-1.26.38,1.77,1.77,0,0,1-1.32-.41,2,2,0,0,1-.38-1.39Z"/><path d="M136.57,27.28a2.81,2.81,0,0,1-2.19-.89,3.38,3.38,0,0,1-.83-2.38,3.38,3.38,0,0,1,.82-2.38,2.84,2.84,0,0,1,2.2-.9,2.81,2.81,0,0,1,2.18.9,3.38,3.38,0,0,1,.83,2.38,3.38,3.38,0,0,1-.83,2.38A2.8,2.8,0,0,1,136.57,27.28Zm0-.56a1.45,1.45,0,0,0,1.3-.69,3.76,3.76,0,0,0,.45-2,3.84,3.84,0,0,0-.45-2,1.58,1.58,0,0,0-2.61,0,3.75,3.75,0,0,0-.45,2,3.67,3.67,0,0,0,.45,2A1.45,1.45,0,0,0,136.57,26.72Z"/><path d="M140.67,27.12V26.5h1v-5h-1V20.9h2.11V22a2.38,2.38,0,0,1,.77-.95,1.94,1.94,0,0,1,1.12-.32,1.87,1.87,0,0,1,1.51.59,2.9,2.9,0,0,1,.49,1.85V26.5h1v.62h-3V26.5h.94v-3a3,3,0,0,0-.29-1.56,1.07,1.07,0,0,0-1-.43,1.33,1.33,0,0,0-1.15.55,2.68,2.68,0,0,0-.39,1.6V26.5h.94v.62Z"/><polyline points="69.28 40.55 81.28 40.55 93.28 40.55" style="fill:none;stroke:#ff7f0e;stroke-linejoin:round;stroke-width:2.5px;stroke-dasharray:9.25,4;opacity:0.8999999761581421"/><rect x="77.28" y="36.55" width="8" height="8" style="fill:#ff7f0e;opacity:0.8999999761581421"/><rect x="77.28" y="36.55" width="8" height="8" style="fill:none;stroke:#ff7f0e;stroke-miterlimit:10;opacity:0.8999999761581421"/><path d="M105.85,40.06h1.72a1.84,1.84,0,0,0,1.31-3,1.81,1.81,0,0,0-1.31-.42h-1.72Zm2.78.35a1.82,1.82,0,0,1,.71.38,2.76,2.76,0,0,1,.53.74l1.27,2.6h1.07v.62h-2.07L108.77,42a3.09,3.09,0,0,0-.72-1,1.53,1.53,0,0,0-.9-.24h-1.3v3.45h1.23v.62h-3.54v-.62h1.12v-7.5h-1.12V36H108a3,3,0,0,1,2,.61,2.21,2.21,0,0,1,.7,1.73,1.93,1.93,0,0,1-.51,1.42A2.46,2.46,0,0,1,108.63,40.41Z"/><path d="M118,40.86v3.27h1v.62h-2v-.67a2.16,2.16,0,0,1-.83.63,3,3,0,0,1-1.09.2,2.42,2.42,0,0,1-1.66-.54,1.89,1.89,0,0,1-.6-1.49,1.76,1.76,0,0,1,.7-1.49,3.1,3.1,0,0,1,2-.54H117v-.43a1.41,1.41,0,0,0-.43-1.09,1.73,1.73,0,0,0-1.22-.4,1.67,1.67,0,0,0-1,.3,1.26,1.26,0,0,0-.48.86h-.55V38.83a8.17,8.17,0,0,1,1.09-.36,5.35,5.35,0,0,1,1-.12,2.73,2.73,0,0,1,2,.65A2.42,2.42,0,0,1,118,40.86ZM117,42.79V41.47h-1.39a1.77,1.77,0,0,0-1.2.35,1.58,1.58,0,0,0,0,2.09,1.45,1.45,0,0,0,1.08.38,1.49,1.49,0,0,0,1.08-.4A1.52,1.52,0,0,0,117,42.79Z"/><path d="M119.83,44.75v-.62h1v-5h-1v-.63h2.11v1.11a2.23,2.23,0,0,1,.77-1,2.14,2.14,0,0,1,2.62.26,2.86,2.86,0,0,1,.5,1.85v3.34h1v.62h-3v-.62h.94v-3a3,3,0,0,0-.29-1.56,1.1,1.1,0,0,0-1-.44,1.36,1.36,0,0,0-1.15.56,2.75,2.75,0,0,0-.38,1.59v2.85h.93v.62Z"/><path d="M132.28,41.94v-.61a2.83,2.83,0,0,0-.43-1.7,1.45,1.45,0,0,0-1.25-.6,1.42,1.42,0,0,0-1.26.66,3.52,3.52,0,0,0-.42,1.94,3.61,3.61,0,0,0,.42,2,1.42,1.42,0,0,0,1.26.66,1.47,1.47,0,0,0,1.25-.59A2.85,2.85,0,0,0,132.28,41.94Zm1.08,2.19h1v.62h-2.11v-1a2.09,2.09,0,0,1-.8.86,2.64,2.64,0,0,1-1.21.27,2.32,2.32,0,0,1-1.89-.9,3.71,3.71,0,0,1-.72-2.38,3.67,3.67,0,0,1,.72-2.36,2.34,2.34,0,0,1,1.89-.92,2.52,2.52,0,0,1,1.21.28,2.23,2.23,0,0,1,.8.86V36.25h-1v-.62h2.1Z"/><path d="M138.35,44.91a2.8,2.8,0,0,1-2.18-.89,3.86,3.86,0,0,1,0-4.77,3.11,3.11,0,0,1,4.38,0,3.84,3.84,0,0,1,0,4.77A2.81,2.81,0,0,1,138.35,44.91Zm0-.57a1.47,1.47,0,0,0,1.31-.68,3.8,3.8,0,0,0,.45-2,3.84,3.84,0,0,0-.45-2,1.47,1.47,0,0,0-1.31-.68,1.44,1.44,0,0,0-1.3.68,3.75,3.75,0,0,0-.45,2,3.71,3.71,0,0,0,.45,2A1.44,1.44,0,0,0,138.35,44.34Z"/><path d="M148.18,39.73a2.64,2.64,0,0,1,.79-1,1.92,1.92,0,0,1,1.13-.35,1.78,1.78,0,0,1,1.47.62,2.93,2.93,0,0,1,.48,1.82v3.34h1v.62h-3v-.62H151V40.91a2.5,2.5,0,0,0-.29-1.36,1.07,1.07,0,0,0-.93-.4,1.27,1.27,0,0,0-1.1.55,2.77,2.77,0,0,0-.37,1.58v2.85h.93v.62h-3v-.62h.94V40.87a2.36,2.36,0,0,0-.29-1.33,1.05,1.05,0,0,0-.92-.39,1.28,1.28,0,0,0-1.11.55,2.77,2.77,0,0,0-.37,1.58v2.85h.94v.62h-3v-.62h1v-5h-1v-.61h2.11v1.11a2.22,2.22,0,0,1,.76-1,1.77,1.77,0,0,1,1-.33,1.94,1.94,0,0,1,1.2.36A1.81,1.81,0,0,1,148.18,39.73Z"/></svg>