<svg id="Calque_1" data-name="Calque 1" xmlns="http://www.w3.org/2000/svg" xmlns:xlink="http://www.w3.org/1999/xlink" viewBox="0 0 565.71 420.45"><defs><clipPath id="clip-path"><rect x="60.75" y="7.2" width="497.76" height="369.88" style="fill:none"/></clipPath><clipPath id="clip-path-10"><rect x="33.66" y="216.35" width="24.16" height="12.24" style="fill:none"/></clipPath><clipPath id="clip-path-12"><rect x="74.37" y="197.17" width="18" height="18" style="fill:none"/></clipPath><clipPath id="clip-path-13"><rect x="104.54" y="177.05" width="18" height="18" style="fill:none"/></clipPath><clipPath id="clip-path-14"><rect x="164.87" y="164.05" width="18" height="18" style="fill:none"/></clipPath><clipPath id="clip-path-15"><rect x="285.54" y="125.32" width="18" height="18" style="fill:none"/></clipPath><clipPath id="clip-path-16"><rect x="526.88" y="87" width="18" height="18" style="fill:none"/></clipPath><clipPath id="clip-path-18"><rect x="74.37" y="174.87" width="18" height="18" style="fill:none"/></clipPath><clipPath id="clip-path-19"><rect x="104.54" y="143.01" width="18" height="18" style="fill:none"/></clipPath><clipPath id="clip-path-20"><rect x="164.87" y="114.31" width="18" height="18" style="fill:none"/></clipPath><clipPath id="clip-path-21"><rect x="285.54" y="57.2" width="18" height="18" style="fill:none"/></clipPath><clipPath id="clip-path-22"><rect x="526.88" y="4.05" width="18" height="18" style="fill:none"/></clipPath><clipPath id="clip-path-24"><rect x="74.37" y="299.57" width="18" height="18" style="fill:none"/></clipPath><clipPath id="clip-path-25"><rect x="104.54" y="291.84" width="18" height="18" style="fill:none"/></clipPath><clipPath id="clip-path-26"><rect x="164.87" y="293.84" width="18" height="18" style="fill:none"/></clipPath><clipPath id="clip-path-27"><rect x="285.54" y="298.58" width="18" height="18" style="fill:none"/></clipPath><clipPath id="clip-path-28"><rect x="526.88" y="286.66" width="18" height="18" style="fill:none"/></clipPath><clipPath id="clip-path-30"><rect x="74.37" y="286.36" width="18" height="18" style="fill:none"/></clipPath><clipPath id="clip-path-31"><rect x="104.54" y="291.58" width="18" height="18" style="fill:none"/></clipPath><clipPath id="clip-path-32"><rect x="164.87" y="275.16" width="18" height="18" style="fill:none"/></clipPath><clipPath id="clip-path-33"><rect x="285.54" y="285.11" width="18" height="18" style="fill:none"/></clipPath><clipPath id="clip-path-34"><rect x="526.88" y="291.93" width="18" height="18" style="fill:none"/></clipPath></defs><rect width="565.71" height="420.45" style="fill:#fff"/><rect x="60.75" y="7.2" width="497.76" height="369.88" style="fill:#fff"/><g style="clip-path:url(#clip-path)"><line x1="113.54" y1="377.08" x2="113.54" y2="7.2" style="fill:none;stroke:#b0b0b0;stroke-linecap:square;stroke-linejoin:round;stroke-width:0.800000011920929px;opacity:0.30000001192092896"/></g><line x1="113.54" y1="377.08" x2="113.54" y2="380.58"/><line x1="113.54" y1="377.08" x2="113.54" y2="380.58" style="fill:none;stroke:#000;stroke-linejoin:round;stroke-width:0.800000011920929px"/><path d="M107.43,386.54h-.66V385a6.75,6.75,0,0,1,1.26-.5,4.55,4.55,0,0,1,1.25-.18,3.33,3.33,0,0,1,2.16.66,2.21,2.21,0,0,1,.79,1.8c0,.86-.6,1.88-1.8,3.07l-.2.21-2.21,2.2h3.65v-1.08h.68v2h-5.64v-.63l2.66-2.65a6.9,6.9,0,0,0,1.24-1.61,3.27,3.27,0,0,0,.39-1.55,2,2,0,0,0-.47-1.38,1.61,1.61,0,0,0-1.26-.5,1.85,1.85,0,0,0-1.3.42A1.8,1.8,0,0,0,107.43,386.54Z"/><path d="M117.35,393.36a2.55,2.55,0,0,1-2.24-1.19,7.43,7.43,0,0,1,0-6.67,2.67,2.67,0,0,1,4.46,0,7.35,7.35,0,0,1,0,6.67A2.54,2.54,0,0,1,117.35,393.36Zm0-.56a1.43,1.43,0,0,0,1.34-1,7.66,7.66,0,0,0,.44-3,7.78,7.78,0,0,0-.44-3,1.41,1.41,0,0,0-2.69,0,7.59,7.59,0,0,0-.44,3,7.47,7.47,0,0,0,.44,3A1.44,1.44,0,0,0,117.35,392.8Z"/><g style="clip-path:url(#clip-path)"><line x1="173.87" y1="377.08" x2="173.87" y2="7.2" style="fill:none;stroke:#b0b0b0;stroke-linecap:square;stroke-linejoin:round;stroke-width:0.800000011920929px;opacity:0.30000001192092896"/></g><line x1="173.87" y1="377.08" x2="173.87" y2="380.58"/><line x1="173.87" y1="377.08" x2="173.87" y2="380.58" style="fill:none;stroke:#000;stroke-linejoin:round;stroke-width:0.800000011920929px"/><path d="M173,393.2h-4v-.62h1.4v-1.72h-3.81v-.63l3.82-5.93h1.17v5.94h1.67v.62H171.6v1.72H173Zm-2.58-3v-4.66l-3,4.66Z"/><path d="M177.68,393.36a2.54,2.54,0,0,1-2.23-1.19,7.43,7.43,0,0,1,0-6.67,2.66,2.66,0,0,1,4.45,0,7.27,7.27,0,0,1,0,6.67A2.53,2.53,0,0,1,177.68,393.36Zm0-.56a1.44,1.44,0,0,0,1.35-1,7.85,7.85,0,0,0,.44-3,8,8,0,0,0-.44-3,1.45,1.45,0,0,0-1.35-1,1.43,1.43,0,0,0-1.34,1,7.56,7.56,0,0,0-.45,3,7.44,7.44,0,0,0,.45,3A1.42,1.42,0,0,0,177.68,392.8Z"/><g style="clip-path:url(#clip-path)"><line x1="234.21" y1="377.08" x2="234.21" y2="7.2" style="fill:none;stroke:#b0b0b0;stroke-linecap:square;stroke-linejoin:round;stroke-width:0.800000011920929px;opacity:0.30000001192092896"/></g><line x1="234.21" y1="377.08" x2="234.21" y2="380.58"/><line x1="234.21" y1="377.08" x2="234.21" y2="380.58" style="fill:none;stroke:#000;stroke-linejoin:round;stroke-width:0.800000011920929px"/><path d="M228.58,388.39a2.82,2.82,0,0,1,.9-.66,2.93,2.93,0,0,1,1.14-.21,2.74,2.74,0,0,1,2.07.79,3,3,0,0,1,.75,2.13,2.85,2.85,0,0,1-.81,2.13,3,3,0,0,1-2.19.79,2.65,2.65,0,0,1-2.28-1.09,5.42,5.42,0,0,1-.79-3.16,5.83,5.83,0,0,1,.94-3.55A3.11,3.11,0,0,1,231,384.3a8.27,8.27,0,0,1,1,.08,7.38,7.38,0,0,1,1.05.27v1.44h-.66a1.36,1.36,0,0,0-.46-.9,1.53,1.53,0,0,0-1-.31,1.86,1.86,0,0,0-1.7.86A5,5,0,0,0,228.58,388.39Zm1.91,4.41a1.49,1.49,0,0,0,1.27-.6,3.63,3.63,0,0,0,0-3.5,1.5,1.5,0,0,0-1.27-.61,1.53,1.53,0,0,0-1.28.59,2.83,2.83,0,0,0-.43,1.69,3.07,3.07,0,0,0,.44,1.8A1.45,1.45,0,0,0,230.49,392.8Z"/><path d="M238,393.36a2.55,2.55,0,0,1-2.24-1.19,7.43,7.43,0,0,1,0-6.67,2.67,2.67,0,0,1,4.46,0,7.35,7.35,0,0,1,0,6.67A2.54,2.54,0,0,1,238,393.36Zm0-.56a1.43,1.43,0,0,0,1.34-1,7.66,7.66,0,0,0,.44-3,7.78,7.78,0,0,0-.44-3,1.41,1.41,0,0,0-2.69,0,7.59,7.59,0,0,0-.44,3,7.47,7.47,0,0,0,.44,3A1.44,1.44,0,0,0,238,392.8Z"/><g style="clip-path:url(#clip-path)"><line x1="294.54" y1="377.08" x2="294.54" y2="7.2" style="fill:none;stroke:#b0b0b0;stroke-linecap:square;stroke-linejoin:round;stroke-width:0.800000011920929px;opacity:0.30000001192092896"/></g><line x1="294.54" y1="377.08" x2="294.54" y2="380.58"/><line x1="294.54" y1="377.08" x2="294.54" y2="380.58" style="fill:none;stroke:#000;stroke-linejoin:round;stroke-width:0.800000011920929px"/><path d="M291.62,388.55a2.52,2.52,0,0,1,1.55.73,2.19,2.19,0,0,1,.56,1.54,2.32,2.32,0,0,1-.78,1.88,3.39,3.39,0,0,1-2.23.66,3.34,3.34,0,0,1-2.23-.66,2.29,2.29,0,0,1-.78-1.88,2.19,2.19,0,0,1,.55-1.54,2.49,2.49,0,0,1,1.56-.73,2.28,2.28,0,0,1-1.36-.67,1.88,1.88,0,0,1-.47-1.31,2.07,2.07,0,0,1,.72-1.66,3,3,0,0,1,2-.61,3,3,0,0,1,2,.61,2.07,2.07,0,0,1,.73,1.66,1.88,1.88,0,0,1-.48,1.31A2.31,2.31,0,0,1,291.62,388.55Zm.63-2a1.86,1.86,0,0,0-.4-1.25,1.49,1.49,0,0,0-1.13-.44,1.46,1.46,0,0,0-1.13.44,1.76,1.76,0,0,0-.41,1.25,1.73,1.73,0,0,0,.41,1.25,1.43,1.43,0,0,0,1.13.44,1.46,1.46,0,0,0,1.13-.44A1.82,1.82,0,0,0,292.25,386.57Zm.24,4.25a2.11,2.11,0,0,0-.46-1.46,1.72,1.72,0,0,0-1.31-.52,1.68,1.68,0,0,0-1.31.52,2.5,2.5,0,0,0,0,2.92,1.65,1.65,0,0,0,1.31.52,1.69,1.69,0,0,0,1.31-.52A2.13,2.13,0,0,0,292.49,390.82Z"/><path d="M298.35,393.36a2.54,2.54,0,0,1-2.23-1.19,7.43,7.43,0,0,1,0-6.67,2.66,2.66,0,0,1,4.45,0,7.35,7.35,0,0,1,0,6.67A2.53,2.53,0,0,1,298.35,393.36Zm0-.56a1.43,1.43,0,0,0,1.34-1,7.63,7.63,0,0,0,.45-3,7.75,7.75,0,0,0-.45-3,1.44,1.44,0,0,0-1.34-1,1.42,1.42,0,0,0-1.34,1,7.56,7.56,0,0,0-.45,3,7.44,7.44,0,0,0,.45,3A1.41,1.41,0,0,0,298.35,392.8Z"/><g style="clip-path:url(#clip-path)"><line x1="354.88" y1="377.08" x2="354.88" y2="7.2" style="fill:none;stroke:#b0b0b0;stroke-linecap:square;stroke-linejoin:round;stroke-width:0.800000011920929px;opacity:0.30000001192092896"/></g><line x1="354.88" y1="377.08" x2="354.88" y2="380.58"/><line x1="354.88" y1="377.08" x2="354.88" y2="380.58" style="fill:none;stroke:#000;stroke-linejoin:round;stroke-width:0.800000011920929px"/><polygon points="345.12 393.2 345.12 392.58 346.64 392.58 346.64 385.31 344.88 386.45 344.88 385.68 347.02 384.3 347.82 384.3 347.82 392.58 349.35 392.58 349.35 393.2 345.12 393.2"/><path d="M354.86,393.36a2.54,2.54,0,0,1-2.23-1.19,7.43,7.43,0,0,1,0-6.67,2.66,2.66,0,0,1,4.45,0,7.27,7.27,0,0,1,0,6.67A2.52,2.52,0,0,1,354.86,393.36Zm0-.56a1.44,1.44,0,0,0,1.35-1,7.66,7.66,0,0,0,.44-3,7.78,7.78,0,0,0-.44-3,1.45,1.45,0,0,0-1.35-1,1.43,1.43,0,0,0-1.34,1,7.59,7.59,0,0,0-.44,3,7.47,7.47,0,0,0,.44,3A1.42,1.42,0,0,0,354.86,392.8Z"/><path d="M362.5,393.36a2.55,2.55,0,0,1-2.24-1.19,7.43,7.43,0,0,1,0-6.67,2.67,2.67,0,0,1,4.46,0,7.35,7.35,0,0,1,0,6.67A2.54,2.54,0,0,1,362.5,393.36Zm0-.56a1.43,1.43,0,0,0,1.34-1,7.66,7.66,0,0,0,.44-3,7.78,7.78,0,0,0-.44-3,1.41,1.41,0,0,0-2.69,0,7.59,7.59,0,0,0-.44,3,7.47,7.47,0,0,0,.44,3A1.44,1.44,0,0,0,362.5,392.8Z"/><g style="clip-path:url(#clip-path)"><line x1="415.21" y1="377.08" x2="415.21" y2="7.2" style="fill:none;stroke:#b0b0b0;stroke-linecap:square;stroke-linejoin:round;stroke-width:0.800000011920929px;opacity:0.30000001192092896"/></g><line x1="415.21" y1="377.08" x2="415.21" y2="380.58"/><line x1="415.21" y1="377.08" x2="415.21" y2="380.58" style="fill:none;stroke:#000;stroke-linejoin:round;stroke-width:0.800000011920929px"/><polygon points="405.45 393.2 405.45 392.58 406.98 392.58 406.98 385.31 405.21 386.45 405.21 385.68 407.35 384.3 408.15 384.3 408.15 392.58 409.68 392.58 409.68 393.2 405.45 393.2"/><path d="M412.92,386.54h-.66V385a6.75,6.75,0,0,1,1.26-.5,4.55,4.55,0,0,1,1.25-.18,3.33,3.33,0,0,1,2.16.66,2.21,2.21,0,0,1,.79,1.8c0,.86-.6,1.88-1.8,3.07l-.2.21-2.21,2.2h3.65v-1.08h.68v2H412.2v-.63l2.65-2.65a6.71,6.71,0,0,0,1.25-1.61,3.38,3.38,0,0,0,.38-1.55,2,2,0,0,0-.46-1.38,1.64,1.64,0,0,0-1.26-.5,1.83,1.83,0,0,0-1.3.42A1.8,1.8,0,0,0,412.92,386.54Z"/><path d="M422.83,393.36a2.54,2.54,0,0,1-2.23-1.19,7.43,7.43,0,0,1,0-6.67,2.66,2.66,0,0,1,4.45,0,7.27,7.27,0,0,1,0,6.67A2.53,2.53,0,0,1,422.83,393.36Zm0-.56a1.44,1.44,0,0,0,1.35-1,7.85,7.85,0,0,0,.44-3,8,8,0,0,0-.44-3,1.45,1.45,0,0,0-1.35-1,1.43,1.43,0,0,0-1.34,1,7.56,7.56,0,0,0-.45,3,7.44,7.44,0,0,0,.45,3A1.42,1.42,0,0,0,422.83,392.8Z"/><g style="clip-path:url(#clip-path)"><line x1="475.55" y1="377.08" x2="475.55" y2="7.2" style="fill:none;stroke:#b0b0b0;stroke-linecap:square;stroke-linejoin:round;stroke-width:0.800000011920929px;opacity:0.30000001192092896"/></g><line x1="475.55" y1="377.08" x2="475.55" y2="380.58"/><line x1="475.55" y1="377.08" x2="475.55" y2="380.58" style="fill:none;stroke:#000;stroke-linejoin:round;stroke-width:0.800000011920929px"/><polygon points="465.79 393.2 465.79 392.58 467.31 392.58 467.31 385.31 465.55 386.45 465.55 385.68 467.69 384.3 468.49 384.3 468.49 392.58 470.01 392.58 470.01 393.2 465.79 393.2"/><path d="M478.49,393.2h-4v-.62h1.41v-1.72h-3.82v-.63l3.83-5.93h1.16v5.94h1.67v.62h-1.67v1.72h1.41Zm-2.58-3v-4.66l-3,4.66Z"/><path d="M483.17,393.36a2.55,2.55,0,0,1-2.24-1.19,7.43,7.43,0,0,1,0-6.67,2.67,2.67,0,0,1,4.46,0,7.35,7.35,0,0,1,0,6.67A2.54,2.54,0,0,1,483.17,393.36Zm0-.56a1.43,1.43,0,0,0,1.34-1,7.66,7.66,0,0,0,.44-3,7.78,7.78,0,0,0-.44-3,1.41,1.41,0,0,0-2.69,0,7.59,7.59,0,0,0-.44,3,7.47,7.47,0,0,0,.44,3A1.44,1.44,0,0,0,483.17,392.8Z"/><g style="clip-path:url(#clip-path)"><line x1="535.88" y1="377.08" x2="535.88" y2="7.2" style="fill:none;stroke:#b0b0b0;stroke-linecap:square;stroke-linejoin:round;stroke-width:0.800000011920929px;opacity:0.30000001192092896"/></g><line x1="535.88" y1="377.08" x2="535.88" y2="380.58"/><line x1="535.88" y1="377.08" x2="535.88" y2="380.58" style="fill:none;stroke:#000;stroke-linejoin:round;stroke-width:0.800000011920929px"/><polygon points="526.12 393.2 526.12 392.58 527.65 392.58 527.65 385.31 525.88 386.45 525.88 385.68 528.02 384.3 528.82 384.3 528.82 392.58 530.35 392.58 530.35 393.2 526.12 393.2"/><path d="M534.07,388.39a2.62,2.62,0,0,1,.9-.66,2.9,2.9,0,0,1,1.14-.21,2.71,2.71,0,0,1,2.06.79,2.92,2.92,0,0,1,.76,2.13,2.86,2.86,0,0,1-.82,2.13,3,3,0,0,1-2.18.79,2.64,2.64,0,0,1-2.28-1.09,5.34,5.34,0,0,1-.79-3.16,5.9,5.9,0,0,1,.93-3.55,3.13,3.13,0,0,1,2.67-1.26,8.44,8.44,0,0,1,1,.08,7.62,7.62,0,0,1,1,.27v1.44h-.66a1.35,1.35,0,0,0-.45-.9,1.55,1.55,0,0,0-1-.31,1.88,1.88,0,0,0-1.71.86A5,5,0,0,0,534.07,388.39ZM536,392.8a1.49,1.49,0,0,0,1.27-.6,3.7,3.7,0,0,0,0-3.5,1.5,1.5,0,0,0-1.27-.61,1.53,1.53,0,0,0-1.29.59,2.83,2.83,0,0,0-.43,1.69,3.07,3.07,0,0,0,.44,1.8A1.46,1.46,0,0,0,536,392.8Z"/><path d="M543.5,393.36a2.54,2.54,0,0,1-2.23-1.19,7.43,7.43,0,0,1,0-6.67,2.66,2.66,0,0,1,4.45,0,7.35,7.35,0,0,1,0,6.67A2.53,2.53,0,0,1,543.5,393.36Zm0-.56a1.43,1.43,0,0,0,1.34-1,7.63,7.63,0,0,0,.45-3,7.75,7.75,0,0,0-.45-3,1.44,1.44,0,0,0-1.34-1,1.42,1.42,0,0,0-1.34,1,7.56,7.56,0,0,0-.45,3,7.44,7.44,0,0,0,.45,3A1.41,1.41,0,0,0,543.5,392.8Z"/><path d="M273.49,410.35v-.73h1.3v-8.75h-1.3v-.73h4.83a3.62,3.62,0,0,1,2.42.78,2.89,2.89,0,0,1,0,4.19,3.57,3.57,0,0,1-2.42.77h-2.14v3.74h1.58v.73Zm2.69-5.2H278a2.13,2.13,0,0,0,1.56-.54,2.68,2.68,0,0,0,0-3.2,2.13,2.13,0,0,0-1.56-.54h-1.8Z"/><path d="M288.35,405.81v3.81h1.12v.73h-2.38v-.79a2.45,2.45,0,0,1-1,.74,3.51,3.51,0,0,1-1.27.23,2.8,2.8,0,0,1-1.93-.63,2.19,2.19,0,0,1-.7-1.74,2,2,0,0,1,.81-1.73,3.64,3.64,0,0,1,2.3-.63h1.76v-.51a1.66,1.66,0,0,0-.5-1.27,2,2,0,0,0-1.42-.46,1.89,1.89,0,0,0-1.19.35,1.44,1.44,0,0,0-.56,1h-.64v-1.47a8.2,8.2,0,0,1,1.27-.42,6.33,6.33,0,0,1,1.21-.14,3.21,3.21,0,0,1,2.29.76A2.84,2.84,0,0,1,288.35,405.81Zm-1.26,2.25v-1.54h-1.62a2.05,2.05,0,0,0-1.4.41,1.57,1.57,0,0,0-.45,1.23,1.6,1.6,0,0,0,.46,1.21,1.73,1.73,0,0,0,1.26.44,1.7,1.7,0,0,0,1.26-.47A1.73,1.73,0,0,0,287.09,408.06Z"/><path d="M291.37,403.81h-1.1v-.73h1.1v-2.25h1.26v2.25H295v.73h-2.37v4.62a2.33,2.33,0,0,0,.19,1.19.72.72,0,0,0,.65.25.88.88,0,0,0,.72-.29,1.81,1.81,0,0,0,.24-.94h.95a2,2,0,0,1-.55,1.44,2.13,2.13,0,0,1-1.47.45,2.08,2.08,0,0,1-1.54-.48,2.26,2.26,0,0,1-.45-1.62Z"/><path d="M302.69,408.16a2.81,2.81,0,0,1-3,2.37,3.26,3.26,0,0,1-2.54-1,4.47,4.47,0,0,1,0-5.56,3.27,3.27,0,0,1,2.54-1.05,6.06,6.06,0,0,1,1.38.17,8,8,0,0,1,1.37.48v1.86h-.73a2.35,2.35,0,0,0-.63-1.39,2,2,0,0,0-1.37-.44,1.69,1.69,0,0,0-1.54.79,5.66,5.66,0,0,0,0,4.74,1.68,1.68,0,0,0,1.54.78,1.93,1.93,0,0,0,1.29-.42,2.33,2.33,0,0,0,.67-1.29Z"/><path d="M303.9,410.35v-.73H305v-9.19h-1.21v-.72h2.47v4.66a2.71,2.71,0,0,1,.89-1.11,2.27,2.27,0,0,1,1.31-.38,2.19,2.19,0,0,1,1.76.69,3.36,3.36,0,0,1,.57,2.16v3.89H312v.73h-3.47v-.73h1.09v-3.5a3.54,3.54,0,0,0-.33-1.82,1.31,1.31,0,0,0-1.15-.49,1.55,1.55,0,0,0-1.34.64,3.1,3.1,0,0,0-.45,1.85v3.32h1.09v.73Z"/><path d="M318.1,409.86v-2.33h.78a2.16,2.16,0,0,0,.68,1.72,2.83,2.83,0,0,0,1.94.56,3,3,0,0,0,1.85-.47,1.69,1.69,0,0,0,.64-1.42,1.59,1.59,0,0,0-.39-1.13A4.23,4.23,0,0,0,322,406l-1.35-.41a4.37,4.37,0,0,1-2.07-1.1,2.64,2.64,0,0,1-.59-1.82,2.4,2.4,0,0,1,.93-2,4.16,4.16,0,0,1,2.59-.71,8.89,8.89,0,0,1,1.55.15,17.65,17.65,0,0,1,1.81.45v2.17h-.77a2.21,2.21,0,0,0-.73-1.55,2.87,2.87,0,0,0-1.83-.49,2.69,2.69,0,0,0-1.66.44,1.76,1.76,0,0,0-.14,2.43,4.5,4.5,0,0,0,1.81.82l1.26.38a4.45,4.45,0,0,1,2,1.06,2.48,2.48,0,0,1,.61,1.74,2.67,2.67,0,0,1-1,2.23,4.52,4.52,0,0,1-2.82.74,9.47,9.47,0,0,1-1.73-.17A9.14,9.14,0,0,1,318.1,409.86Z"/><path d="M329.36,409.62h1.19v.73h-3.66v-.73h1.21v-5.81h-1.21v-.73h2.47Zm-1.61-8.79a.75.75,0,0,1,.22-.55.78.78,0,0,1,.56-.24.75.75,0,0,1,.53.24.77.77,0,1,1-1.09,1.09A.7.7,0,0,1,327.75,400.83Z"/><polygon points="331.43 410.35 331.43 409.76 335.98 403.81 332.38 403.81 332.38 405.07 331.65 405.07 331.65 403.08 337.6 403.08 337.6 403.67 333.05 409.62 337 409.62 337 408.3 337.73 408.3 337.73 410.35 331.43 410.35"/><path d="M344.35,406.12a3.27,3.27,0,0,0-.55-1.92,1.68,1.68,0,0,0-1.41-.64,1.63,1.63,0,0,0-1.37.65,3.57,3.57,0,0,0-.6,1.91Zm1.48.73h-5.41v0a3.84,3.84,0,0,0,.54,2.23,1.9,1.9,0,0,0,1.64.74,2.11,2.11,0,0,0,1.36-.43,2.31,2.31,0,0,0,.74-1.29h1a3.06,3.06,0,0,1-1.11,1.79,3.58,3.58,0,0,1-2.13.59,3.32,3.32,0,0,1-2.56-1,4.52,4.52,0,0,1,0-5.56,3.55,3.55,0,0,1,5,0A4.43,4.43,0,0,1,345.83,406.85Z"/><g style="clip-path:url(#clip-path)"><line x1="60.75" y1="225.69" x2="558.51" y2="225.69" style="fill:none;stroke:#b0b0b0;stroke-linecap:square;stroke-linejoin:round;stroke-width:0.800000011920929px;opacity:0.30000001192092896"/></g><line x1="60.75" y1="225.69" x2="57.25" y2="225.69"/><line x1="60.75" y1="225.69" x2="57.25" y2="225.69" style="fill:none;stroke:#000;stroke-linejoin:round;stroke-width:0.800000011920929px"/><polygon points="26.45 230.04 26.45 229.41 27.98 229.41 27.98 222.14 26.21 223.28 26.21 222.51 28.35 221.13 29.15 221.13 29.15 229.41 30.68 229.41 30.68 230.04 26.45 230.04"/><path d="M36.2,230.19A2.5,2.5,0,0,1,34,229a7.35,7.35,0,0,1,0-6.67,2.66,2.66,0,0,1,4.45,0,7.35,7.35,0,0,1,0,6.67A2.51,2.51,0,0,1,36.2,230.19Zm0-.56a1.43,1.43,0,0,0,1.34-1,7.59,7.59,0,0,0,.45-3,7.75,7.75,0,0,0-.45-3,1.41,1.41,0,0,0-2.69,0,7.59,7.59,0,0,0-.44,3,7.44,7.44,0,0,0,.44,3A1.44,1.44,0,0,0,36.2,229.63Z"/><path d="M48.24,221h-.46v-1.09a4.14,4.14,0,0,1,.88-.35,3,3,0,0,1,.87-.13,2.33,2.33,0,0,1,1.51.46,1.56,1.56,0,0,1,.56,1.26,3.38,3.38,0,0,1-1.26,2.15l-.14.14L48.65,225H51.2v-.76h.48v1.43h-4v-.44l1.86-1.86a4.61,4.61,0,0,0,.87-1.12,2.34,2.34,0,0,0,.27-1.09,1.37,1.37,0,0,0-.32-1,1.15,1.15,0,0,0-.89-.36,1.25,1.25,0,0,0-.9.3A1.22,1.22,0,0,0,48.24,221Z"/><g style="clip-path:url(#clip-path-10)"><rect x="41.02" y="222.71" width="5.26" height="0.66"/></g><line x1="60.75" y1="349.09" x2="58.75" y2="349.09"/><line x1="60.75" y1="349.09" x2="58.75" y2="349.09" style="fill:none;stroke:#000;stroke-linejoin:round;stroke-width:0.6000000238418579px"/><line x1="60.75" y1="319.04" x2="58.75" y2="319.04"/><line x1="60.75" y1="319.04" x2="58.75" y2="319.04" style="fill:none;stroke:#000;stroke-linejoin:round;stroke-width:0.6000000238418579px"/><line x1="60.75" y1="294.48" x2="58.75" y2="294.48"/><line x1="60.75" y1="294.48" x2="58.75" y2="294.48" style="fill:none;stroke:#000;stroke-linejoin:round;stroke-width:0.6000000238418579px"/><line x1="60.75" y1="273.72" x2="58.75" y2="273.72"/><line x1="60.75" y1="273.72" x2="58.75" y2="273.72" style="fill:none;stroke:#000;stroke-linejoin:round;stroke-width:0.6000000238418579px"/><line x1="60.75" y1="255.74" x2="58.75" y2="255.74"/><line x1="60.75" y1="255.74" x2="58.75" y2="255.74" style="fill:none;stroke:#000;stroke-linejoin:round;stroke-width:0.6000000238418579px"/><line x1="60.75" y1="239.88" x2="58.75" y2="239.88"/><line x1="60.75" y1="239.88" x2="58.75" y2="239.88" style="fill:none;stroke:#000;stroke-linejoin:round;stroke-width:0.6000000238418579px"/><line x1="60.75" y1="132.34" x2="58.75" y2="132.34"/><line x1="60.75" y1="132.34" x2="58.75" y2="132.34" style="fill:none;stroke:#000;stroke-linejoin:round;stroke-width:0.6000000238418579px"/><line x1="60.75" y1="77.73" x2="58.75" y2="77.73"/><line x1="60.75" y1="77.73" x2="58.75" y2="77.73" style="fill:none;stroke:#000;stroke-linejoin:round;stroke-width:0.6000000238418579px"/><line x1="60.75" y1="38.99" x2="58.75" y2="38.99"/><line x1="60.75" y1="38.99" x2="58.75" y2="38.99" style="fill:none;stroke:#000;stroke-linejoin:round;stroke-width:0.6000000238418579px"/><line x1="60.75" y1="8.94" x2="58.75" y2="8.94"/><line x1="60.75" y1="8.94" x2="58.75" y2="8.94" style="fill:none;stroke:#000;stroke-linejoin:round;stroke-width:0.6000000238418579px"/><polygon points="17.84 228.61 17.11 228.61 17.11 227.31 8.45 227.31 8.45 230.3 10.04 230.3 10.04 231.14 7.63 231.14 7.63 222.08 10.04 222.08 10.04 222.92 8.45 222.92 8.45 225.92 17.11 225.92 17.11 224.62 17.84 224.62 17.84 228.61"/><path d="M18,218.81a3.25,3.25,0,0,1-1,2.54,3.93,3.93,0,0,1-2.79,1,3.93,3.93,0,0,1-2.77-.95,3.33,3.33,0,0,1-1-2.56,3.27,3.27,0,0,1,1-2.55,3.9,3.9,0,0,1,2.77-1,3.93,3.93,0,0,1,2.79,1A3.26,3.26,0,0,1,18,218.81Zm-.66,0a1.7,1.7,0,0,0-.79-1.53,4.44,4.44,0,0,0-2.36-.52,4.44,4.44,0,0,0-2.36.52,1.71,1.71,0,0,0-.8,1.53,1.68,1.68,0,0,0,.8,1.52,4.35,4.35,0,0,0,2.36.52,4.35,4.35,0,0,0,2.36-.52A1.68,1.68,0,0,0,17.36,218.81Z"/><path d="M11.3,213.08v1.11h-.73v-1.11H8.32v-1.26h2.25v-2.37h.73v2.37h4.62a2.45,2.45,0,0,0,1.19-.18.74.74,0,0,0,.25-.66.83.83,0,0,0-.29-.71,1.69,1.69,0,0,0-.94-.24v-.95a2,2,0,0,1,1.44.54,2.09,2.09,0,0,1,.45,1.47,2.11,2.11,0,0,1-.47,1.54,2.29,2.29,0,0,1-1.63.45Z"/><path d="M13.3,202.13h3.81V201h.73v2.38h-.78a2.65,2.65,0,0,1,.74,1,3.55,3.55,0,0,1,.22,1.27,2.8,2.8,0,0,1-.63,1.93,2.18,2.18,0,0,1-1.73.7,2,2,0,0,1-1.74-.81,3.63,3.63,0,0,1-.63-2.29v-1.77h-.5a1.64,1.64,0,0,0-1.28.51,2,2,0,0,0-.46,1.41,1.94,1.94,0,0,0,.35,1.19,1.44,1.44,0,0,0,1,.56v.64H10.94a8.2,8.2,0,0,1-.42-1.27,5.6,5.6,0,0,1-.14-1.2,3.22,3.22,0,0,1,.75-2.3A2.85,2.85,0,0,1,13.3,202.13Zm2.26,1.26H14V205a2.13,2.13,0,0,0,.4,1.4,1.61,1.61,0,0,0,1.24.44,1.57,1.57,0,0,0,1.2-.46,1.94,1.94,0,0,0,0-2.52A1.72,1.72,0,0,0,15.56,203.39Z"/><polygon points="17.11 197.75 17.11 196.56 17.84 196.56 17.84 200.22 17.11 200.22 17.11 199.01 7.93 199.01 7.93 200.22 7.2 200.22 7.2 197.75 17.11 197.75"/><polygon points="17.84 190.92 17.11 190.92 17.11 189.62 8.36 189.62 8.36 190.92 7.63 190.92 7.63 182.7 9.9 182.7 9.9 183.54 8.47 183.54 8.47 188.23 11.89 188.23 11.89 184.88 10.62 184.88 10.62 184.04 14.01 184.04 14.01 184.88 12.73 184.88 12.73 188.23 17 188.23 17 183.43 15.57 183.43 15.57 182.59 17.84 182.59 17.84 190.92"/><path d="M10.56,174.78h1.82v.72a1.31,1.31,0,0,0-.81.3,1.12,1.12,0,0,0-.27.78A1.74,1.74,0,0,0,12,178a2.92,2.92,0,0,0,1.84.49h3.32V177h.73v3.85h-.73v-1.13H11.29V181h-.72V178.5h1.29a2.63,2.63,0,0,1-1.12-.94,2.69,2.69,0,0,1-.36-1.43c0-.19,0-.42,0-.64A7.2,7.2,0,0,1,10.56,174.78Z"/><path d="M10.56,168.08h1.82v.73a1.31,1.31,0,0,0-.81.3,1.1,1.1,0,0,0-.27.78,1.74,1.74,0,0,0,.65,1.43,3,3,0,0,0,1.84.49h3.32v-1.46h.73v3.85h-.73v-1.13H11.29v1.2h-.72v-2.46h1.29a2.63,2.63,0,0,1-1.12-.94,2.69,2.69,0,0,1-.36-1.43c0-.19,0-.42,0-.64S10.5,168.34,10.56,168.08Z"/><path d="M18,163.87a3.29,3.29,0,0,1-1,2.55,4,4,0,0,1-2.79,1,3.89,3.89,0,0,1-2.77-.95,3.63,3.63,0,0,1,0-5.11,3.94,3.94,0,0,1,2.77-1,4,4,0,0,1,2.79,1A3.29,3.29,0,0,1,18,163.87Zm-.66,0a1.72,1.72,0,0,0-.79-1.53,4.54,4.54,0,0,0-2.36-.51,4.54,4.54,0,0,0-2.36.51,1.86,1.86,0,0,0,0,3.06,4.35,4.35,0,0,0,2.36.51,4.35,4.35,0,0,0,2.36-.51A1.7,1.7,0,0,0,17.36,163.87Z"/><path d="M10.56,153h1.82v.73a1.31,1.31,0,0,0-.81.3,1.1,1.1,0,0,0-.27.78A1.74,1.74,0,0,0,12,156.2a3,3,0,0,0,1.84.49h3.32v-1.46h.73v3.85h-.73V158H11.29v1.2h-.72v-2.46h1.29a2.63,2.63,0,0,1-1.12-.94,2.69,2.69,0,0,1-.36-1.43c0-.19,0-.42,0-.64S10.5,153.22,10.56,153Z"/><g style="clip-path:url(#clip-path)"><polyline points="83.37 206.16 113.54 186.05 173.87 173.05 294.54 134.32 535.88 96" style="fill:none;stroke:#1f77b4;stroke-linecap:square;stroke-linejoin:round;stroke-width:2.5px;opacity:0.8999999761581421"/><g style="clip-path:url(#clip-path-12)"><path d="M83.37,210.17A4,4,0,1,0,80.54,209,4,4,0,0,0,83.37,210.17Z" style="fill:#1f77b4;opacity:0.8999999761581421"/><path d="M83.37,210.17A4,4,0,1,0,80.54,209,4,4,0,0,0,83.37,210.17Z" style="fill:none;stroke:#1f77b4;stroke-linejoin:round;opacity:0.8999999761581421"/></g><g style="clip-path:url(#clip-path-13)"><path d="M113.54,190.05a4,4,0,1,0-2.83-1.17A4,4,0,0,0,113.54,190.05Z" style="fill:#1f77b4;opacity:0.8999999761581421"/><path d="M113.54,190.05a4,4,0,1,0-2.83-1.17A4,4,0,0,0,113.54,190.05Z" style="fill:none;stroke:#1f77b4;stroke-linejoin:round;opacity:0.8999999761581421"/></g><g style="clip-path:url(#clip-path-14)"><path d="M173.87,177.05a4,4,0,1,0-2.82-1.17A4,4,0,0,0,173.87,177.05Z" style="fill:#1f77b4;opacity:0.8999999761581421"/><path d="M173.87,177.05a4,4,0,1,0-2.82-1.17A4,4,0,0,0,173.87,177.05Z" style="fill:none;stroke:#1f77b4;stroke-linejoin:round;opacity:0.8999999761581421"/></g><g style="clip-path:url(#clip-path-15)"><path d="M294.54,138.32a4,4,0,1,0-2.83-1.17A4,4,0,0,0,294.54,138.32Z" style="fill:#1f77b4;opacity:0.8999999761581421"/><path d="M294.54,138.32a4,4,0,1,0-2.83-1.17A4,4,0,0,0,294.54,138.32Z" style="fill:none;stroke:#1f77b4;stroke-linejoin:round;opacity:0.8999999761581421"/></g><g style="clip-path:url(#clip-path-16)"><path d="M535.88,100a4,4,0,1,0-2.83-1.17A4,4,0,0,0,535.88,100Z" style="fill:#1f77b4;opacity:0.8999999761581421"/><path d="M535.88,100a4,4,0,1,0-2.83-1.17A4,4,0,0,0,535.88,100Z" style="fill:none;stroke:#1f77b4;stroke-linejoin:round;opacity:0.8999999761581421"/></g></g><g style="clip-path:url(#clip-path)"><polyline points="83.37 183.87 113.54 152.01 173.87 123.31 294.54 66.2 535.88 13.05" style="fill:none;stroke:#ff7f0e;stroke-linejoin:round;stroke-width:2.5px;stroke-dasharray:2.5,4.125;opacity:0.8999999761581421"/><g style="clip-path:url(#clip-path-18)"><rect x="79.37" y="179.87" width="8" height="8" style="fill:#ff7f0e;opacity:0.8999999761581421"/><rect x="79.37" y="179.87" width="8" height="8" style="fill:none;stroke:#ff7f0e;stroke-miterlimit:10;opacity:0.8999999761581421"/></g><g style="clip-path:url(#clip-path-19)"><rect x="109.54" y="148.01" width="8" height="8" style="fill:#ff7f0e;opacity:0.8999999761581421"/><rect x="109.54" y="148.01" width="8" height="8" style="fill:none;stroke:#ff7f0e;stroke-miterlimit:10;opacity:0.8999999761581421"/></g><g style="clip-path:url(#clip-path-20)"><rect x="169.87" y="119.31" width="8" height="8" style="fill:#ff7f0e;opacity:0.8999999761581421"/><rect x="169.87" y="119.31" width="8" height="8" style="fill:none;stroke:#ff7f0e;stroke-miterlimit:10;opacity:0.8999999761581421"/></g><g style="clip-path:url(#clip-path-21)"><rect x="290.54" y="62.2" width="8" height="8" style="fill:#ff7f0e;opacity:0.8999999761581421"/><rect x="290.54" y="62.2" width="8" height="8" style="fill:none;stroke:#ff7f0e;stroke-miterlimit:10;opacity:0.8999999761581421"/></g><g style="clip-path:url(#clip-path-22)"><rect x="531.88" y="9.05" width="8" height="8" style="fill:#ff7f0e;opacity:0.8999999761581421"/><rect x="531.88" y="9.05" width="8" height="8" style="fill:none;stroke:#ff7f0e;stroke-miterlimit:10;opacity:0.8999999761581421"/></g></g><g style="clip-path:url(#clip-path)"><polyline points="83.37 308.57 113.54 300.84 173.87 302.84 294.54 307.58 535.88 295.66" style="fill:none;stroke:#2ca02c;stroke-linecap:square;stroke-linejoin:round;stroke-width:2.5px;opacity:0.8999999761581421"/><g style="clip-path:url(#clip-path-24)"><path d="M83.37,312.57a4,4,0,1,0-2.83-1.17A4,4,0,0,0,83.37,312.57Z" style="fill:#2ca02c;opacity:0.8999999761581421"/><path d="M83.37,312.57a4,4,0,1,0-2.83-1.17A4,4,0,0,0,83.37,312.57Z" style="fill:none;stroke:#2ca02c;stroke-linejoin:round;opacity:0.8999999761581421"/></g><g style="clip-path:url(#clip-path-25)"><path d="M113.54,304.84a4,4,0,1,0-2.83-1.18A4,4,0,0,0,113.54,304.84Z" style="fill:#2ca02c;opacity:0.8999999761581421"/><path d="M113.54,304.84a4,4,0,1,0-2.83-1.18A4,4,0,0,0,113.54,304.84Z" style="fill:none;stroke:#2ca02c;stroke-linejoin:round;opacity:0.8999999761581421"/></g><g style="clip-path:url(#clip-path-26)"><path d="M173.87,306.84a4,4,0,1,0-2.82-1.17A4,4,0,0,0,173.87,306.84Z" style="fill:#2ca02c;opacity:0.8999999761581421"/><path d="M173.87,306.84a4,4,0,1,0-2.82-1.17A4,4,0,0,0,173.87,306.84Z" style="fill:none;stroke:#2ca02c;stroke-linejoin:round;opacity:0.8999999761581421"/></g><g style="clip-path:url(#clip-path-27)"><path d="M294.54,311.58a4,4,0,1,0-2.83-1.17A4,4,0,0,0,294.54,311.58Z" style="fill:#2ca02c;opacity:0.8999999761581421"/><path d="M294.54,311.58a4,4,0,1,0-2.83-1.17A4,4,0,0,0,294.54,311.58Z" style="fill:none;stroke:#2ca02c;stroke-linejoin:round;opacity:0.8999999761581421"/></g><g style="clip-path:url(#clip-path-28)"><path d="M535.88,299.66a4,4,0,1,0-2.83-1.17A4,4,0,0,0,535.88,299.66Z" style="fill:#2ca02c;opacity:0.8999999761581421"/><path d="M535.88,299.66a4,4,0,1,0-2.83-1.17A4,4,0,0,0,535.88,299.66Z" style="fill:none;stroke:#2ca02c;stroke-linejoin:round;opacity:0.8999999761581421"/></g></g><g style="clip-path:url(#clip-path)"><polyline points="83.37 295.36 113.54 300.58 173.87 284.16 294.54 294.11 535.88 300.93" style="fill:none;stroke:#d62728;stroke-linejoin:round;stroke-width:2.5px;stroke-dasharray:2.5,4.125;opacity:0.8999999761581421"/><g style="clip-path:url(#clip-path-30)"><rect x="79.37" y="291.36" width="8" height="8" style="fill:#d62728;opacity:0.8999999761581421"/><rect x="79.37" y="291.36" width="8" height="8" style="fill:none;stroke:#d62728;stroke-miterlimit:10;opacity:0.8999999761581421"/></g><g style="clip-path:url(#clip-path-31)"><rect x="109.54" y="296.58" width="8" height="8" style="fill:#d62728;opacity:0.8999999761581421"/><rect x="109.54" y="296.58" width="8" height="8" style="fill:none;stroke:#d62728;stroke-miterlimit:10;opacity:0.8999999761581421"/></g><g style="clip-path:url(#clip-path-32)"><rect x="169.87" y="280.16" width="8" height="8" style="fill:#d62728;opacity:0.8999999761581421"/><rect x="169.87" y="280.16" width="8" height="8" style="fill:none;stroke:#d62728;stroke-miterlimit:10;opacity:0.8999999761581421"/></g><g style="clip-path:url(#clip-path-33)"><rect x="290.54" y="290.11" width="8" height="8" style="fill:#d62728;opacity:0.8999999761581421"/><rect x="290.54" y="290.11" width="8" height="8" style="fill:none;stroke:#d62728;stroke-miterlimit:10;opacity:0.8999999761581421"/></g><g style="clip-path:url(#clip-path-34)"><rect x="531.88" y="296.93" width="8" height="8" style="fill:#d62728;opacity:0.8999999761581421"/><rect x="531.88" y="296.93" width="8" height="8" style="fill:none;stroke:#d62728;stroke-miterlimit:10;opacity:0.8999999761581421"/></g></g><line x1="60.75" y1="377.08" x2="60.75" y2="7.2" style="fill:none;stroke:#000;stroke-linecap:square;stroke-miterlimit:10"/><line x1="60.75" y1="377.08" x2="558.51" y2="377.08" style="fill:none;stroke:#000;stroke-linecap:square;stroke-miterlimit:10"/><rect x="66.75" y="13.2" width="144.53" height="74.1" style="fill:#fff;opacity:0.800000011920929"/><rect x="66.75" y="13.2" width="144.53" height="74.1" style="fill:none;stroke:#000;stroke-miterlimit:10;opacity:0.800000011920929"/><polyline points="71.55 22.93 83.55 22.93 95.55 22.93" style="fill:none;stroke:#1f77b4;stroke-linecap:square;stroke-linejoin:round;stroke-width:2.5px;opacity:0.8999999761581421"/><path d="M83.55,26.92a4,4,0,1,0-2.83-1.17A4,4,0,0,0,83.55,26.92Z" style="fill:#1f77b4;opacity:0.8999999761581421"/><path d="M83.55,26.92a4,4,0,1,0-2.83-1.17A4,4,0,0,0,83.55,26.92Z" style="fill:none;stroke:#1f77b4;stroke-linejoin:round;opacity:0.8999999761581421"/><polygon points="105.81 27.13 105.81 26.5 106.92 26.5 106.92 19 105.75 19 105.75 18.38 108.29 18.38 111.36 24.61 114.44 18.38 116.82 18.38 116.82 19 115.66 19 115.66 26.5 116.78 26.5 116.78 27.13 113.36 27.13 113.36 26.5 114.47 26.5 114.47 19.75 111.47 25.84 110.64 25.84 107.64 19.75 107.64 26.5 108.76 26.5 108.76 27.13 105.81 27.13"/><polygon points="119.53 19 122.11 25.72 124.69 19 123.71 19 123.71 18.38 126.28 18.38 126.28 19 125.43 19 122.31 27.13 121.3 27.13 118.19 19 117.33 19 117.33 18.38 120.51 18.38 120.51 19 119.53 19"/><polygon points="128.39 27.13 128.39 26.5 129.51 26.5 129.51 19.07 126.94 19.07 126.94 20.44 126.22 20.44 126.22 18.38 133.98 18.38 133.98 20.44 133.26 20.44 133.26 19.07 130.69 19.07 130.69 26.5 131.81 26.5 131.81 27.13 128.39 27.13"/><path d="M141.75,29a4.4,4.4,0,0,1-2.16-2,7.44,7.44,0,0,1-.72-3.47,7.5,7.5,0,0,1,.72-3.47,4.38,4.38,0,0,1,2.16-2v.57a3.5,3.5,0,0,0-1.3,1.75,10.1,10.1,0,0,0-.4,3.17,10,10,0,0,0,.4,3.17,3.48,3.48,0,0,0,1.3,1.74Z"/><path d="M148.81,22.11a2.5,2.5,0,0,1,.8-1,1.87,1.87,0,0,1,1.12-.35,1.77,1.77,0,0,1,1.47.61,3,3,0,0,1,.48,1.83V26.5h1v.62h-3V26.5h.94V23.29a2.45,2.45,0,0,0-.29-1.36,1.07,1.07,0,0,0-.92-.41,1.28,1.28,0,0,0-1.11.55,2.79,2.79,0,0,0-.37,1.59V26.5h.94v.62h-3V26.5h.94V23.25a2.32,2.32,0,0,0-.29-1.33,1,1,0,0,0-.92-.4,1.3,1.3,0,0,0-1.11.55,2.79,2.79,0,0,0-.37,1.59V26.5h.94v.62h-3V26.5h1v-5h-1V20.9h2.11V22a2.36,2.36,0,0,1,.76-.95,1.83,1.83,0,0,1,1-.32,1.94,1.94,0,0,1,1.2.36A1.81,1.81,0,0,1,148.81,22.11Z"/><path d="M157.59,27.28a2.81,2.81,0,0,1-2.19-.89,3.38,3.38,0,0,1-.83-2.38,3.38,3.38,0,0,1,.82-2.38,2.84,2.84,0,0,1,2.2-.9,2.81,2.81,0,0,1,2.18.9A3.38,3.38,0,0,1,160.6,24a3.38,3.38,0,0,1-.83,2.38A2.8,2.8,0,0,1,157.59,27.28Zm0-.56a1.45,1.45,0,0,0,1.3-.69,3.76,3.76,0,0,0,.45-2,3.84,3.84,0,0,0-.45-2,1.58,1.58,0,0,0-2.61,0,3.75,3.75,0,0,0-.45,2,3.67,3.67,0,0,0,.45,2A1.45,1.45,0,0,0,157.59,26.72Z"/><path d="M166.93,20.89v1.56h-.62a1.1,1.1,0,0,0-.25-.7,1,1,0,0,0-.67-.23,1.5,1.5,0,0,0-1.23.55,2.55,2.55,0,0,0-.42,1.59V26.5H165v.62h-3.3V26.5h1v-5h-1V20.9h2.11V22a2.28,2.28,0,0,1,.81-1,2.32,2.32,0,0,1,1.22-.31,3.62,3.62,0,0,1,.55.05A4.93,4.93,0,0,1,166.93,20.89Z"/><path d="M168.23,21.52h-.95V20.9h.95V19h1.08V20.9h2v.62h-2v4a2,2,0,0,0,.16,1,.63.63,0,0,0,.56.22.72.72,0,0,0,.61-.26,1.51,1.51,0,0,0,.21-.8h.81a1.73,1.73,0,0,1-.47,1.24,1.81,1.81,0,0,1-1.26.38,1.78,1.78,0,0,1-1.32-.41,2,2,0,0,1-.38-1.39Z"/><path d="M175.37,27.28a2.8,2.8,0,0,1-2.18-.89,3.34,3.34,0,0,1-.83-2.38,3.37,3.37,0,0,1,.81-2.38,2.86,2.86,0,0,1,2.2-.9,2.81,2.81,0,0,1,2.18.9,3.34,3.34,0,0,1,.83,2.38,3.34,3.34,0,0,1-.83,2.38A2.8,2.8,0,0,1,175.37,27.28Zm0-.56a1.46,1.46,0,0,0,1.31-.69,3.77,3.77,0,0,0,.44-2,3.85,3.85,0,0,0-.44-2,1.59,1.59,0,0,0-2.62,0,3.75,3.75,0,0,0-.44,2,3.68,3.68,0,0,0,.44,2A1.45,1.45,0,0,0,175.37,26.72Z"/><path d="M179.47,27.12V26.5h1v-5h-1V20.9h2.12V22a2.36,2.36,0,0,1,.76-.95,2,2,0,0,1,1.12-.32,1.85,1.85,0,0,1,1.51.59,2.84,2.84,0,0,1,.49,1.85V26.5h1v.62h-3V26.5h.93v-3a3,3,0,0,0-.28-1.56,1.1,1.1,0,0,0-1-.43,1.34,1.34,0,0,0-1.15.55,2.76,2.76,0,0,0-.38,1.6V26.5h.93v.62Z"/><path d="M187.56,29v-.57a3.53,3.53,0,0,0,1.3-1.74,10.06,10.06,0,0,0,.39-3.17,10.15,10.15,0,0,0-.39-3.17,3.56,3.56,0,0,0-1.3-1.75V18a4.4,4.4,0,0,1,2.15,2,7.49,7.49,0,0,1,.73,3.47,7.43,7.43,0,0,1-.73,3.47A4.43,4.43,0,0,1,187.56,29Z"/><polyline points="71.55 40.55 83.55 40.55 95.55 40.55" style="fill:none;stroke:#ff7f0e;stroke-linejoin:round;stroke-width:2.5px;stroke-dasharray:2.5,4.125;opacity:0.8999999761581421"/><rect x="79.55" y="36.55" width="8" height="8" style="fill:#ff7f0e;opacity:0.8999999761581421"/><rect x="79.55" y="36.55" width="8" height="8" style="fill:none;stroke:#ff7f0e;stroke-miterlimit:10;opacity:0.8999999761581421"/><polygon points="105.81 44.75 105.81 44.13 106.92 44.13 106.92 36.63 105.75 36.63 105.75 36 108.29 36 111.36 42.23 114.44 36 116.82 36 116.82 36.63 115.66 36.63 115.66 44.13 116.78 44.13 116.78 44.75 113.36 44.75 113.36 44.13 114.47 44.13 114.47 37.37 111.47 43.47 110.64 43.47 107.64 37.37 107.64 44.13 108.76 44.13 108.76 44.75 105.81 44.75"/><polygon points="119.53 36.63 122.11 43.35 124.69 36.63 123.71 36.63 123.71 36 126.28 36 126.28 36.63 125.43 36.63 122.31 44.75 121.3 44.75 118.19 36.63 117.33 36.63 117.33 36 120.51 36 120.51 36.63 119.53 36.63"/><polygon points="128.39 44.75 128.39 44.13 129.51 44.13 129.51 36.7 126.94 36.7 126.94 38.07 126.22 38.07 126.22 36 133.98 36 133.98 38.07 133.26 38.07 133.26 36.7 130.69 36.7 130.69 44.13 131.81 44.13 131.81 44.75 128.39 44.75"/><path d="M141.75,46.61a4.38,4.38,0,0,1-2.16-2,7.4,7.4,0,0,1-.72-3.46,7.44,7.44,0,0,1,.72-3.47,4.36,4.36,0,0,1,2.16-2v.58a3.46,3.46,0,0,0-1.3,1.75,10.06,10.06,0,0,0-.4,3.17,10,10,0,0,0,.4,3.16,3.43,3.43,0,0,0,1.3,1.74Z"/><path d="M148.33,38.51v1.56h-.62a1.15,1.15,0,0,0-.25-.7,1,1,0,0,0-.67-.22,1.5,1.5,0,0,0-1.23.55,2.52,2.52,0,0,0-.42,1.58v2.85h1.25v.62h-3.3v-.62h1v-5h-1v-.61h2.11v1.11a2.16,2.16,0,0,1,.81-1,2.24,2.24,0,0,1,1.22-.32c.17,0,.36,0,.55,0S148.12,38.46,148.33,38.51Z"/><path d="M154.19,40.86v3.27h1v.62h-2v-.67a2.16,2.16,0,0,1-.83.63,3,3,0,0,1-1.09.2,2.42,2.42,0,0,1-1.66-.54,1.92,1.92,0,0,1-.6-1.49,1.76,1.76,0,0,1,.7-1.49,3.14,3.14,0,0,1,2-.54h1.51v-.43a1.38,1.38,0,0,0-.43-1.09,1.72,1.72,0,0,0-1.21-.4,1.63,1.63,0,0,0-1,.3,1.22,1.22,0,0,0-.48.86h-.56V38.83a8.79,8.79,0,0,1,1.1-.36,5.17,5.17,0,0,1,1-.12,2.77,2.77,0,0,1,2,.65A2.45,2.45,0,0,1,154.19,40.86Zm-1.08,1.93V41.47h-1.39a1.77,1.77,0,0,0-1.2.35,1.33,1.33,0,0,0-.39,1.06,1.38,1.38,0,0,0,.4,1,1.45,1.45,0,0,0,1.08.38,1.41,1.41,0,0,0,1.5-1.5Z"/><path d="M156,44.75v-.62h1v-5h-1v-.63H158v1.11a2.31,2.31,0,0,1,.77-1,1.87,1.87,0,0,1,1.11-.33,1.91,1.91,0,0,1,1.52.59,2.92,2.92,0,0,1,.49,1.85v3.34h1v.62h-3v-.62h.94v-3a3,3,0,0,0-.29-1.56,1.09,1.09,0,0,0-1-.44,1.37,1.37,0,0,0-1.16.56,2.75,2.75,0,0,0-.38,1.59v2.85H159v.62Z"/><path d="M168.43,41.94v-.61a2.83,2.83,0,0,0-.43-1.7,1.45,1.45,0,0,0-1.25-.6,1.42,1.42,0,0,0-1.26.66,3.61,3.61,0,0,0-.42,1.94,3.71,3.71,0,0,0,.42,2,1.42,1.42,0,0,0,1.26.66,1.47,1.47,0,0,0,1.25-.59A2.85,2.85,0,0,0,168.43,41.94Zm1.08,2.19h1v.62h-2.12v-1a2.09,2.09,0,0,1-.8.86,2.64,2.64,0,0,1-1.21.27,2.32,2.32,0,0,1-1.89-.9,3.71,3.71,0,0,1-.72-2.38,3.67,3.67,0,0,1,.72-2.36,2.34,2.34,0,0,1,1.89-.92,2.52,2.52,0,0,1,1.21.28,2.23,2.23,0,0,1,.8.86V36.25h-1v-.62h2.1Z"/><path d="M174.51,44.91a2.81,2.81,0,0,1-2.19-.89,3.86,3.86,0,0,1,0-4.77,2.84,2.84,0,0,1,2.2-.9,2.81,2.81,0,0,1,2.18.9,3.84,3.84,0,0,1,0,4.77A2.8,2.8,0,0,1,174.51,44.91Zm0-.57a1.47,1.47,0,0,0,1.3-.68,3.8,3.8,0,0,0,.45-2,3.84,3.84,0,0,0-.45-2,1.59,1.59,0,0,0-2.61,0,3.75,3.75,0,0,0-.45,2,3.71,3.71,0,0,0,.45,2A1.46,1.46,0,0,0,174.51,44.34Z"/><path d="M184.33,39.73a2.57,2.57,0,0,1,.8-1,1.87,1.87,0,0,1,1.12-.35,1.78,1.78,0,0,1,1.47.62,2.93,2.93,0,0,1,.48,1.82v3.34h1v.62h-3v-.62h.94V40.91a2.5,2.5,0,0,0-.29-1.36,1.06,1.06,0,0,0-.92-.4,1.28,1.28,0,0,0-1.11.55,2.77,2.77,0,0,0-.37,1.58v2.85h.94v.62h-3v-.62h.94V40.87a2.36,2.36,0,0,0-.29-1.33,1.05,1.05,0,0,0-.92-.39,1.3,1.3,0,0,0-1.11.55,2.77,2.77,0,0,0-.37,1.58v2.85h.94v.62h-3v-.62h1v-5h-1v-.61h2.11v1.11a2.29,2.29,0,0,1,.76-1,1.77,1.77,0,0,1,1.05-.33,1.94,1.94,0,0,1,1.2.36A1.81,1.81,0,0,1,184.33,39.73Z"/><path d="M190.35,46.61V46a3.42,3.42,0,0,0,1.29-1.74,9.67,9.67,0,0,0,.4-3.16,9.77,9.77,0,0,0-.4-3.17,3.44,3.44,0,0,0-1.29-1.75v-.58a4.4,4.4,0,0,1,2.14,2,7.43,7.43,0,0,1,.74,3.47,7.39,7.39,0,0,1-.74,3.46A4.42,4.42,0,0,1,190.35,46.61Z"/><polyline points="71.55 58.17 83.55 58.17 95.55 58.17" style="fill:none;stroke:#2ca02c;stroke-linecap:square;stroke-linejoin:round;stroke-width:2.5px;opacity:0.8999999761581421"/><path d="M83.55,62.17A4,4,0,1,0,80.72,61,4,4,0,0,0,83.55,62.17Z" style="fill:#2ca02c;opacity:0.8999999761581421"/><path d="M83.55,62.17A4,4,0,1,0,80.72,61,4,4,0,0,0,83.55,62.17Z" style="fill:none;stroke:#2ca02c;stroke-linejoin:round;opacity:0.8999999761581421"/><polygon points="105.81 62.38 105.81 61.75 106.92 61.75 106.92 54.25 105.75 54.25 105.75 53.63 108.29 53.63 111.36 59.85 114.44 53.63 116.82 53.63 116.82 54.25 115.66 54.25 115.66 61.75 116.78 61.75 116.78 62.38 113.36 62.38 113.36 61.75 114.47 61.75 114.47 54.99 111.47 61.09 110.64 61.09 107.64 54.99 107.64 61.75 108.76 61.75 108.76 62.38 105.81 62.38"/><polygon points="118.09 62.38 118.09 61.75 119.21 61.75 119.21 54.25 118.03 54.25 118.03 53.63 120.58 53.63 123.65 59.85 126.72 53.63 129.11 53.63 129.11 54.25 127.95 54.25 127.95 61.75 129.06 61.75 129.06 62.38 125.64 62.38 125.64 61.75 126.76 61.75 126.76 54.99 123.76 61.09 122.93 61.09 119.93 54.99 119.93 61.75 121.05 61.75 121.05 62.38 118.09 62.38"/><polygon points="131.82 54.25 134.4 60.97 136.98 54.25 136 54.25 136 53.63 138.57 53.63 138.57 54.25 137.72 54.25 134.59 62.38 133.59 62.38 130.48 54.25 129.62 54.25 129.62 53.63 132.79 53.63 132.79 54.25 131.82 54.25"/><polygon points="140.68 62.38 140.68 61.75 141.79 61.75 141.79 54.32 139.23 54.32 139.23 55.69 138.51 55.69 138.51 53.63 146.27 53.63 146.27 55.69 145.55 55.69 145.55 54.32 142.98 54.32 142.98 61.75 144.1 61.75 144.1 62.38 140.68 62.38"/><path d="M154,64.23a4.4,4.4,0,0,1-2.16-2,8.72,8.72,0,0,1,0-6.94,4.38,4.38,0,0,1,2.16-2v.57a3.48,3.48,0,0,0-1.29,1.75,9.82,9.82,0,0,0-.4,3.17,9.73,9.73,0,0,0,.4,3.17A3.46,3.46,0,0,0,154,63.66Z"/><path d="M161.1,57.36a2.57,2.57,0,0,1,.79-1A1.92,1.92,0,0,1,163,56a1.77,1.77,0,0,1,1.47.61,3,3,0,0,1,.48,1.83v3.33h1v.63h-3v-.63h.94V58.54a2.45,2.45,0,0,0-.29-1.36,1.07,1.07,0,0,0-.93-.41,1.27,1.27,0,0,0-1.1.55,2.79,2.79,0,0,0-.37,1.59v2.84h.93v.63h-2.95v-.63h.94V58.5a2.34,2.34,0,0,0-.29-1.33,1,1,0,0,0-.92-.4,1.28,1.28,0,0,0-1.11.55,2.79,2.79,0,0,0-.37,1.59v2.84h.94v.63h-3v-.63h1v-5h-1v-.61h2.11v1.1a2.28,2.28,0,0,1,.76-1,1.83,1.83,0,0,1,1.05-.32,1.94,1.94,0,0,1,1.2.36A1.81,1.81,0,0,1,161.1,57.36Z"/><path d="M169.87,62.53a2.8,2.8,0,0,1-2.18-.89,3.85,3.85,0,0,1,0-4.76,3.11,3.11,0,0,1,4.38,0,3.83,3.83,0,0,1,0,4.76A2.81,2.81,0,0,1,169.87,62.53Zm0-.56a1.46,1.46,0,0,0,1.31-.69,3.76,3.76,0,0,0,.45-2,3.84,3.84,0,0,0-.45-2,1.46,1.46,0,0,0-1.31-.69,1.43,1.43,0,0,0-1.3.69,3.75,3.75,0,0,0-.45,2,3.67,3.67,0,0,0,.45,2A1.43,1.43,0,0,0,169.87,62Z"/><path d="M179.22,56.14V57.7h-.62a1.16,1.16,0,0,0-.25-.7,1,1,0,0,0-.68-.23,1.49,1.49,0,0,0-1.22.55,2.55,2.55,0,0,0-.42,1.59v2.84h1.25v.63H174v-.63h1v-5h-1v-.61H176v1.1a2.26,2.26,0,0,1,.8-1,2.39,2.39,0,0,1,1.23-.31,3.62,3.62,0,0,1,.55.05A4.93,4.93,0,0,1,179.22,56.14Z"/><path d="M180.52,56.77h-1v-.62h1V54.21h1.08v1.94h2v.62h-2v4a2.14,2.14,0,0,0,.15,1,.66.66,0,0,0,.57.22.73.73,0,0,0,.61-.26,1.43,1.43,0,0,0,.2-.8H184a1.77,1.77,0,0,1-.47,1.24,1.81,1.81,0,0,1-1.26.38,1.77,1.77,0,0,1-1.32-.41,2,2,0,0,1-.38-1.39Z"/><path d="M187.66,62.53a2.84,2.84,0,0,1-2.19-.89,3.88,3.88,0,0,1,0-4.76,2.85,2.85,0,0,1,2.2-.9,2.81,2.81,0,0,1,2.18.9,3.83,3.83,0,0,1,0,4.76A2.8,2.8,0,0,1,187.66,62.53Zm0-.56a1.47,1.47,0,0,0,1.31-.69,3.87,3.87,0,0,0,.44-2,4,4,0,0,0-.44-2,1.47,1.47,0,0,0-1.31-.69,1.45,1.45,0,0,0-1.31.69,3.75,3.75,0,0,0-.44,2,3.68,3.68,0,0,0,.44,2A1.45,1.45,0,0,0,187.66,62Z"/><path d="M191.76,62.38v-.63h1v-5h-1v-.62h2.11v1.1a2.46,2.46,0,0,1,.77-1A2,2,0,0,1,195.7,56a1.85,1.85,0,0,1,1.51.59,2.9,2.9,0,0,1,.49,1.85v3.33h1v.63h-3v-.63h.93v-3a2.91,2.91,0,0,0-.29-1.56,1.07,1.07,0,0,0-1-.43,1.34,1.34,0,0,0-1.15.55,2.68,2.68,0,0,0-.39,1.6v2.84h.94v.63Z"/><path d="M199.85,64.23v-.57a3.53,3.53,0,0,0,1.3-1.74,10.06,10.06,0,0,0,.39-3.17,10.15,10.15,0,0,0-.39-3.17,3.56,3.56,0,0,0-1.3-1.75v-.57a4.4,4.4,0,0,1,2.15,2,8.61,8.61,0,0,1,0,6.94A4.43,4.43,0,0,1,199.85,64.23Z"/><polyline points="71.55 75.8 83.55 75.8 95.55 75.8" style="fill:none;stroke:#d62728;stroke-linejoin:round;stroke-width:2.5px;stroke-dasharray:2.5,4.125;opacity:0.8999999761581421"/><rect x="79.55" y="71.8" width="8" height="8" style="fill:#d62728;opacity:0.8999999761581421"/><rect x="79.55" y="71.8" width="8" height="8" style="fill:none;stroke:#d62728;stroke-miterlimit:10;opacity:0.8999999761581421"/><polygon points="105.81 80 105.81 79.38 106.92 79.38 106.92 71.88 105.75 71.88 105.75 71.25 108.29 71.25 111.36 77.48 114.44 71.25 116.82 71.25 116.82 71.88 115.66 71.88 115.66 79.38 116.78 79.38 116.78 80 113.36 80 113.36 79.38 114.47 79.38 114.47 72.62 111.47 78.72 110.64 78.72 107.64 72.62 107.64 79.38 108.76 79.38 108.76 80 105.81 80"/><polygon points="118.09 80 118.09 79.38 119.21 79.38 119.21 71.88 118.03 71.88 118.03 71.25 120.58 71.25 123.65 77.48 126.72 71.25 129.11 71.25 129.11 71.88 127.95 71.88 127.95 79.38 129.06 79.38 129.06 80 125.64 80 125.64 79.38 126.76 79.38 126.76 72.62 123.76 78.72 122.93 78.72 119.93 72.62 119.93 79.38 121.05 79.38 121.05 80 118.09 80"/><polygon points="131.82 71.88 134.4 78.6 136.98 71.88 136 71.88 136 71.25 138.57 71.25 138.57 71.88 137.72 71.88 134.59 80 133.59 80 130.48 71.88 129.62 71.88 129.62 71.25 132.79 71.25 132.79 71.88 131.82 71.88"/><polygon points="140.68 80 140.68 79.38 141.79 79.38 141.79 71.95 139.23 71.95 139.23 73.32 138.51 73.32 138.51 71.25 146.27 71.25 146.27 73.32 145.55 73.32 145.55 71.95 142.98 71.95 142.98 79.38 144.1 79.38 144.1 80 140.68 80"/><path d="M154,81.86a4.38,4.38,0,0,1-2.16-2,8.7,8.7,0,0,1,0-6.93,4.36,4.36,0,0,1,2.16-2v.58a3.44,3.44,0,0,0-1.29,1.75,9.77,9.77,0,0,0-.4,3.17,9.67,9.67,0,0,0,.4,3.16A3.42,3.42,0,0,0,154,81.28Z"/><path d="M160.62,73.76v1.56H160a1.21,1.21,0,0,0-.25-.7,1,1,0,0,0-.68-.22,1.49,1.49,0,0,0-1.22.55,2.52,2.52,0,0,0-.42,1.58v2.85h1.25V80h-3.3v-.62h1v-5h-1v-.61h2.11v1.11a2.15,2.15,0,0,1,.8-1,2.3,2.3,0,0,1,1.23-.32c.17,0,.36,0,.55.05S160.41,73.71,160.62,73.76Z"/><path d="M166.48,76.11v3.27h1V80h-2v-.67a2.16,2.16,0,0,1-.83.63,3,3,0,0,1-1.09.2,2.42,2.42,0,0,1-1.66-.54,1.89,1.89,0,0,1-.6-1.49,1.76,1.76,0,0,1,.7-1.49,3.1,3.1,0,0,1,2-.54h1.51v-.43a1.41,1.41,0,0,0-.43-1.09,1.73,1.73,0,0,0-1.22-.4,1.67,1.67,0,0,0-1,.3,1.26,1.26,0,0,0-.48.86h-.55V74.08a8.17,8.17,0,0,1,1.09-.36,5.35,5.35,0,0,1,1-.12,2.73,2.73,0,0,1,2,.65A2.42,2.42,0,0,1,166.48,76.11ZM165.4,78V76.72H164a1.77,1.77,0,0,0-1.2.35,1.58,1.58,0,0,0,0,2.09,1.45,1.45,0,0,0,1.08.38,1.49,1.49,0,0,0,1.08-.4A1.52,1.52,0,0,0,165.4,78Z"/><path d="M168.27,80v-.62h1v-5h-1v-.63h2.11v1.11a2.23,2.23,0,0,1,.77-.95,2.14,2.14,0,0,1,2.62.26,2.86,2.86,0,0,1,.5,1.85v3.34h1V80h-3v-.62h.94v-3a3,3,0,0,0-.29-1.56,1.1,1.1,0,0,0-1-.44,1.36,1.36,0,0,0-1.15.56,2.75,2.75,0,0,0-.38,1.59v2.85h.93V80Z"/><path d="M180.72,77.19v-.61a2.83,2.83,0,0,0-.43-1.7,1.45,1.45,0,0,0-1.25-.6,1.42,1.42,0,0,0-1.26.66,3.52,3.52,0,0,0-.42,1.94,3.61,3.61,0,0,0,.42,2,1.42,1.42,0,0,0,1.26.66,1.47,1.47,0,0,0,1.25-.59A2.85,2.85,0,0,0,180.72,77.19Zm1.08,2.19h1V80h-2.11V79a2.09,2.09,0,0,1-.8.86,2.64,2.64,0,0,1-1.21.27,2.32,2.32,0,0,1-1.89-.9,3.71,3.71,0,0,1-.72-2.38,3.67,3.67,0,0,1,.72-2.36,2.34,2.34,0,0,1,1.89-.92,2.52,2.52,0,0,1,1.21.28,2.23,2.23,0,0,1,.8.86V71.5h-1v-.62h2.1Z"/><path d="M186.79,80.16a2.8,2.8,0,0,1-2.18-.89,3.86,3.86,0,0,1,0-4.77,3.11,3.11,0,0,1,4.38,0,3.84,3.84,0,0,1,0,4.77A2.81,2.81,0,0,1,186.79,80.16Zm0-.57a1.47,1.47,0,0,0,1.31-.68,3.8,3.8,0,0,0,.45-2,3.84,3.84,0,0,0-.45-2,1.47,1.47,0,0,0-1.31-.68,1.44,1.44,0,0,0-1.3.68,3.75,3.75,0,0,0-.45,2,3.71,3.71,0,0,0,.45,2A1.44,1.44,0,0,0,186.79,79.59Z"/><path d="M196.62,75a2.64,2.64,0,0,1,.79-1,1.92,1.92,0,0,1,1.13-.35,1.78,1.78,0,0,1,1.47.62,2.93,2.93,0,0,1,.48,1.82v3.34h1V80h-3v-.62h.94V76.16a2.5,2.5,0,0,0-.29-1.36,1.07,1.07,0,0,0-.93-.4,1.27,1.27,0,0,0-1.1.55,2.77,2.77,0,0,0-.37,1.58v2.85h.93V80h-3v-.62h.94V76.12a2.36,2.36,0,0,0-.29-1.33,1.05,1.05,0,0,0-.92-.39,1.28,1.28,0,0,0-1.11.55,2.77,2.77,0,0,0-.37,1.58v2.85h.94V80h-3v-.62h1v-5h-1v-.61H193v1.11a2.22,2.22,0,0,1,.76-.95,1.77,1.77,0,0,1,1-.33A1.94,1.94,0,0,1,196,74,1.81,1.81,0,0,1,196.62,75Z"/><path d="M202.63,81.86v-.58a3.43,3.43,0,0,0,1.3-1.74,10,10,0,0,0,.4-3.16,10.06,10.06,0,0,0-.4-3.17,3.46,3.46,0,0,0-1.3-1.75v-.58a4.38,4.38,0,0,1,2.15,2,8.59,8.59,0,0,1,0,6.93A4.4,4.4,0,0,1,202.63,81.86Z"/></svg>