<svg id="Calque_1" data-name="Calque 1" xmlns="http://www.w3.org/2000/svg" xmlns:xlink="http://www.w3.org/1999/xlink" viewBox="0 0 564.81 420.45"><defs><clipPath id="clip-path"><rect x="73.76" y="7.2" width="474.78" height="369.88" style="fill:none"/></clipPath><clipPath id="clip-path-15"><rect x="86.34" y="351.27" width="18" height="18" style="fill:none"/></clipPath><clipPath id="clip-path-16"><rect x="115.12" y="209.19" width="18" height="18" style="fill:none"/></clipPath><clipPath id="clip-path-17"><rect x="172.67" y="213.54" width="18" height="18" style="fill:none"/></clipPath><clipPath id="clip-path-18"><rect x="287.77" y="182.82" width="18" height="18" style="fill:none"/></clipPath><clipPath id="clip-path-19"><rect x="517.96" y="125.99" width="18" height="18" style="fill:none"/></clipPath><clipPath id="clip-path-21"><rect x="86.34" y="276.14" width="18" height="18" style="fill:none"/></clipPath><clipPath id="clip-path-22"><rect x="115.12" y="200.08" width="18" height="18" style="fill:none"/></clipPath><clipPath id="clip-path-23"><rect x="172.67" y="176.08" width="18" height="18" style="fill:none"/></clipPath><clipPath id="clip-path-24"><rect x="287.77" y="97.48" width="18" height="18" style="fill:none"/></clipPath><clipPath id="clip-path-25"><rect x="517.96" y="15.01" width="18" height="18" style="fill:none"/></clipPath></defs><rect width="564.81" height="420.45" style="fill:#fff"/><rect x="73.76" y="7.2" width="474.78" height="369.88" style="fill:#fff"/><g style="clip-path:url(#clip-path)"><line x1="162.48" y1="377.08" x2="162.48" y2="7.2" style="fill:none;stroke:#b0b0b0;stroke-linecap:square;stroke-linejoin:round;stroke-width:0.800000011920929px;opacity:0.30000001192092896"/></g><line x1="162.48" y1="377.08" x2="162.48" y2="380.58"/><line x1="162.48" y1="377.08" x2="162.48" y2="380.58" style="fill:none;stroke:#000;stroke-linejoin:round;stroke-width:0.800000011920929px"/><polygon points="152.73 393.2 152.73 392.58 154.25 392.58 154.25 385.31 152.49 386.45 152.49 385.68 154.62 384.3 155.43 384.3 155.43 392.58 156.95 392.58 156.95 393.2 152.73 393.2"/><path d="M162.47,393.36a2.54,2.54,0,0,1-2.23-1.19,7.43,7.43,0,0,1,0-6.67,2.66,2.66,0,0,1,4.45,0,7.27,7.27,0,0,1,0,6.67A2.53,2.53,0,0,1,162.47,393.36Zm0-.56a1.44,1.44,0,0,0,1.35-1,7.85,7.85,0,0,0,.44-3,8,8,0,0,0-.44-3,1.45,1.45,0,0,0-1.35-1,1.43,1.43,0,0,0-1.34,1,7.56,7.56,0,0,0-.45,3,7.44,7.44,0,0,0,.45,3A1.42,1.42,0,0,0,162.47,392.8Z"/><path d="M170.1,393.36a2.54,2.54,0,0,1-2.23-1.19,7.43,7.43,0,0,1,0-6.67,2.66,2.66,0,0,1,4.45,0,7.27,7.27,0,0,1,0,6.67A2.52,2.52,0,0,1,170.1,393.36Zm0-.56a1.44,1.44,0,0,0,1.35-1,7.66,7.66,0,0,0,.44-3,7.78,7.78,0,0,0-.44-3,1.45,1.45,0,0,0-1.35-1,1.43,1.43,0,0,0-1.34,1,7.59,7.59,0,0,0-.44,3,7.47,7.47,0,0,0,.44,3A1.42,1.42,0,0,0,170.1,392.8Z"/><g style="clip-path:url(#clip-path)"><line x1="258.4" y1="377.08" x2="258.4" y2="7.2" style="fill:none;stroke:#b0b0b0;stroke-linecap:square;stroke-linejoin:round;stroke-width:0.800000011920929px;opacity:0.30000001192092896"/></g><line x1="258.4" y1="377.08" x2="258.4" y2="380.58"/><line x1="258.4" y1="377.08" x2="258.4" y2="380.58" style="fill:none;stroke:#000;stroke-linejoin:round;stroke-width:0.800000011920929px"/><path d="M248.47,386.54h-.66V385a6.75,6.75,0,0,1,1.26-.5,4.55,4.55,0,0,1,1.25-.18,3.33,3.33,0,0,1,2.16.66,2.21,2.21,0,0,1,.79,1.8c0,.86-.6,1.88-1.8,3.07l-.2.21-2.21,2.2h3.65v-1.08h.68v2h-5.64v-.63l2.66-2.65a6.9,6.9,0,0,0,1.24-1.61,3.27,3.27,0,0,0,.39-1.55,2,2,0,0,0-.47-1.38,1.61,1.61,0,0,0-1.26-.5,1.85,1.85,0,0,0-1.3.42A1.8,1.8,0,0,0,248.47,386.54Z"/><path d="M258.39,393.36a2.55,2.55,0,0,1-2.24-1.19,7.43,7.43,0,0,1,0-6.67,2.67,2.67,0,0,1,4.46,0,7.35,7.35,0,0,1,0,6.67A2.54,2.54,0,0,1,258.39,393.36Zm0-.56a1.43,1.43,0,0,0,1.34-1,7.66,7.66,0,0,0,.44-3,7.78,7.78,0,0,0-.44-3,1.41,1.41,0,0,0-2.69,0,7.59,7.59,0,0,0-.44,3,7.47,7.47,0,0,0,.44,3A1.44,1.44,0,0,0,258.39,392.8Z"/><path d="M266,393.36a2.52,2.52,0,0,1-2.23-1.19,7.35,7.35,0,0,1,0-6.67,2.66,2.66,0,0,1,4.45,0,7.35,7.35,0,0,1,0,6.67A2.53,2.53,0,0,1,266,393.36Zm0-.56a1.43,1.43,0,0,0,1.34-1,7.63,7.63,0,0,0,.45-3,7.75,7.75,0,0,0-.45-3,1.41,1.41,0,0,0-2.69,0,7.59,7.59,0,0,0-.44,3,7.47,7.47,0,0,0,.44,3A1.44,1.44,0,0,0,266,392.8Z"/><g style="clip-path:url(#clip-path)"><line x1="354.31" y1="377.08" x2="354.31" y2="7.2" style="fill:none;stroke:#b0b0b0;stroke-linecap:square;stroke-linejoin:round;stroke-width:0.800000011920929px;opacity:0.30000001192092896"/></g><line x1="354.31" y1="377.08" x2="354.31" y2="380.58"/><line x1="354.31" y1="377.08" x2="354.31" y2="380.58" style="fill:none;stroke:#000;stroke-linejoin:round;stroke-width:0.800000011920929px"/><path d="M344,384.83a10.75,10.75,0,0,1,1.31-.4,6.35,6.35,0,0,1,1.18-.13,3.29,3.29,0,0,1,2,.55,1.84,1.84,0,0,1,.72,1.54,1.82,1.82,0,0,1-.51,1.32,2.51,2.51,0,0,1-1.4.72,2.8,2.8,0,0,1,1.67.79,2.3,2.3,0,0,1,.6,1.62,2.23,2.23,0,0,1-.83,1.87,3.75,3.75,0,0,1-2.36.65,6.65,6.65,0,0,1-1.35-.14,5.47,5.47,0,0,1-1.29-.44v-1.7h.66a1.68,1.68,0,0,0,.56,1.28,2.16,2.16,0,0,0,1.44.44,1.91,1.91,0,0,0,1.42-.52,2,2,0,0,0,.51-1.43,2.11,2.11,0,0,0-.54-1.56,2.13,2.13,0,0,0-1.56-.53h-.55v-.6H346a2.29,2.29,0,0,0,1.53-.42,1.56,1.56,0,0,0,.52-1.28,1.61,1.61,0,0,0-.42-1.18,1.73,1.73,0,0,0-1.21-.4,1.86,1.86,0,0,0-1.24.38,1.6,1.6,0,0,0-.5,1.1H344Z"/><path d="M354.3,393.36a2.54,2.54,0,0,1-2.23-1.19,7.43,7.43,0,0,1,0-6.67,2.66,2.66,0,0,1,4.45,0,7.27,7.27,0,0,1,0,6.67A2.53,2.53,0,0,1,354.3,393.36Zm0-.56a1.44,1.44,0,0,0,1.35-1,7.85,7.85,0,0,0,.44-3,8,8,0,0,0-.44-3,1.45,1.45,0,0,0-1.35-1,1.43,1.43,0,0,0-1.34,1,7.56,7.56,0,0,0-.45,3,7.44,7.44,0,0,0,.45,3A1.42,1.42,0,0,0,354.3,392.8Z"/><path d="M361.93,393.36a2.54,2.54,0,0,1-2.23-1.19,7.43,7.43,0,0,1,0-6.67,2.66,2.66,0,0,1,4.45,0,7.27,7.27,0,0,1,0,6.67A2.52,2.52,0,0,1,361.93,393.36Zm0-.56a1.44,1.44,0,0,0,1.35-1,7.66,7.66,0,0,0,.44-3,7.78,7.78,0,0,0-.44-3,1.45,1.45,0,0,0-1.35-1,1.43,1.43,0,0,0-1.34,1,7.59,7.59,0,0,0-.44,3,7.47,7.47,0,0,0,.44,3A1.42,1.42,0,0,0,361.93,392.8Z"/><g style="clip-path:url(#clip-path)"><line x1="450.23" y1="377.08" x2="450.23" y2="7.2" style="fill:none;stroke:#b0b0b0;stroke-linecap:square;stroke-linejoin:round;stroke-width:0.800000011920929px;opacity:0.30000001192092896"/></g><line x1="450.23" y1="377.08" x2="450.23" y2="380.58"/><line x1="450.23" y1="377.08" x2="450.23" y2="380.58" style="fill:none;stroke:#000;stroke-linejoin:round;stroke-width:0.800000011920929px"/><path d="M445.54,393.2h-4v-.62H443v-1.72h-3.82v-.63L443,384.3h1.16v5.94h1.67v.62h-1.67v1.72h1.41Zm-2.58-3v-4.66l-3,4.66Z"/><path d="M450.22,393.36a2.55,2.55,0,0,1-2.24-1.19,7.43,7.43,0,0,1,0-6.67,2.67,2.67,0,0,1,4.46,0,7.35,7.35,0,0,1,0,6.67A2.54,2.54,0,0,1,450.22,393.36Zm0-.56a1.43,1.43,0,0,0,1.34-1,7.66,7.66,0,0,0,.44-3,7.78,7.78,0,0,0-.44-3,1.41,1.41,0,0,0-2.69,0,7.59,7.59,0,0,0-.44,3,7.47,7.47,0,0,0,.44,3A1.44,1.44,0,0,0,450.22,392.8Z"/><path d="M457.85,393.36a2.52,2.52,0,0,1-2.23-1.19,7.35,7.35,0,0,1,0-6.67,2.66,2.66,0,0,1,4.45,0,7.35,7.35,0,0,1,0,6.67A2.53,2.53,0,0,1,457.85,393.36Zm0-.56a1.43,1.43,0,0,0,1.34-1,7.63,7.63,0,0,0,.45-3,7.75,7.75,0,0,0-.45-3,1.41,1.41,0,0,0-2.69,0,7.59,7.59,0,0,0-.44,3,7.47,7.47,0,0,0,.44,3A1.44,1.44,0,0,0,457.85,392.8Z"/><g style="clip-path:url(#clip-path)"><line x1="546.14" y1="377.08" x2="546.14" y2="7.2" style="fill:none;stroke:#b0b0b0;stroke-linecap:square;stroke-linejoin:round;stroke-width:0.800000011920929px;opacity:0.30000001192092896"/></g><line x1="546.14" y1="377.08" x2="546.14" y2="380.58"/><line x1="546.14" y1="377.08" x2="546.14" y2="380.58" style="fill:none;stroke:#000;stroke-linejoin:round;stroke-width:0.800000011920929px"/><path d="M540.72,384.46v1h-4v2.5a2,2,0,0,1,.71-.31,3.6,3.6,0,0,1,.91-.11,3.08,3.08,0,0,1,2.23.8,3.19,3.19,0,0,1,0,4.29,3.25,3.25,0,0,1-2.32.77,5.89,5.89,0,0,1-1.24-.14,5.7,5.7,0,0,1-1.3-.44v-1.7h.66a1.85,1.85,0,0,0,.53,1.28,1.92,1.92,0,0,0,1.35.44,1.71,1.71,0,0,0,1.41-.62,2.63,2.63,0,0,0,.51-1.75,2.71,2.71,0,0,0-.5-1.74,1.71,1.71,0,0,0-1.42-.61,2.25,2.25,0,0,0-.94.19,1.92,1.92,0,0,0-.71.58h-.5v-4.39Z"/><path d="M546.13,393.36a2.54,2.54,0,0,1-2.23-1.19,7.43,7.43,0,0,1,0-6.67,2.66,2.66,0,0,1,4.45,0,7.27,7.27,0,0,1,0,6.67A2.53,2.53,0,0,1,546.13,393.36Zm0-.56a1.44,1.44,0,0,0,1.35-1,7.85,7.85,0,0,0,.44-3,8,8,0,0,0-.44-3,1.45,1.45,0,0,0-1.35-1,1.43,1.43,0,0,0-1.34,1,7.56,7.56,0,0,0-.45,3,7.44,7.44,0,0,0,.45,3A1.42,1.42,0,0,0,546.13,392.8Z"/><path d="M553.76,393.36a2.54,2.54,0,0,1-2.23-1.19,7.43,7.43,0,0,1,0-6.67,2.66,2.66,0,0,1,4.45,0,7.27,7.27,0,0,1,0,6.67A2.52,2.52,0,0,1,553.76,393.36Zm0-.56a1.44,1.44,0,0,0,1.35-1,7.66,7.66,0,0,0,.44-3,7.78,7.78,0,0,0-.44-3,1.45,1.45,0,0,0-1.35-1,1.43,1.43,0,0,0-1.34,1,7.59,7.59,0,0,0-.44,3,7.47,7.47,0,0,0,.44,3A1.42,1.42,0,0,0,553.76,392.8Z"/><path d="M275,410.35v-.73h1.3v-8.75H275v-.73h4.83a3.64,3.64,0,0,1,2.42.78,2.91,2.91,0,0,1,0,4.19,3.59,3.59,0,0,1-2.42.77H277.7v3.74h1.59v.73Zm2.68-5.2h1.81a2.1,2.1,0,0,0,1.55-.54,2.64,2.64,0,0,0,0-3.2,2.1,2.1,0,0,0-1.55-.54H277.7Z"/><path d="M289.88,405.81v3.81H291v.73h-2.38v-.79a2.52,2.52,0,0,1-1,.74,3.55,3.55,0,0,1-1.27.23,2.83,2.83,0,0,1-1.94-.63,2.22,2.22,0,0,1-.7-1.74,2,2,0,0,1,.82-1.73,3.63,3.63,0,0,1,2.29-.63h1.77v-.51a1.63,1.63,0,0,0-.51-1.27,2,2,0,0,0-1.41-.46,1.85,1.85,0,0,0-1.19.35,1.44,1.44,0,0,0-.56,1h-.65v-1.47a8.68,8.68,0,0,1,1.28-.42,6.23,6.23,0,0,1,1.2-.14,3.22,3.22,0,0,1,2.3.76A2.84,2.84,0,0,1,289.88,405.81Zm-1.26,2.25v-1.54H287a2.07,2.07,0,0,0-1.4.41,1.57,1.57,0,0,0-.45,1.23,1.6,1.6,0,0,0,.47,1.21,1.7,1.7,0,0,0,1.26.44,1.65,1.65,0,0,0,1.75-1.75Z"/><path d="M292.9,403.81h-1.11v-.73h1.11v-2.25h1.26v2.25h2.36v.73h-2.36v4.62a2.36,2.36,0,0,0,.18,1.19.74.74,0,0,0,.66.25.86.86,0,0,0,.71-.29,1.71,1.71,0,0,0,.24-.94h.95a2,2,0,0,1-.54,1.44,2.15,2.15,0,0,1-1.47.45,2.07,2.07,0,0,1-1.54-.48,2.26,2.26,0,0,1-.45-1.62Z"/><path d="M304.21,408.16a3,3,0,0,1-1,1.77,3.07,3.07,0,0,1-2,.6,3.27,3.27,0,0,1-2.55-1,4.47,4.47,0,0,1,0-5.56,3.27,3.27,0,0,1,2.55-1.05,5.91,5.91,0,0,1,1.37.17,7.73,7.73,0,0,1,1.37.48v1.86h-.73a2.23,2.23,0,0,0-.63-1.39,2,2,0,0,0-1.37-.44,1.71,1.71,0,0,0-1.54.79,5.66,5.66,0,0,0,0,4.74,1.7,1.7,0,0,0,1.54.78,1.91,1.91,0,0,0,1.29-.42,2.27,2.27,0,0,0,.67-1.29Z"/><path d="M305.43,410.35v-.73h1.13v-9.19h-1.2v-.72h2.46v4.66a2.73,2.73,0,0,1,.9-1.11,2.24,2.24,0,0,1,1.3-.38,2.16,2.16,0,0,1,1.76.69,3.36,3.36,0,0,1,.58,2.16v3.89h1.12v.73H310v-.73h1.09v-3.5a3.42,3.42,0,0,0-.34-1.82,1.3,1.3,0,0,0-1.15-.49,1.58,1.58,0,0,0-1.34.64,3.1,3.1,0,0,0-.45,1.85v3.32h1.09v.73Z"/><path d="M319.62,409.86v-2.33h.79a2.16,2.16,0,0,0,.67,1.72,2.86,2.86,0,0,0,1.95.56,3,3,0,0,0,1.84-.47,1.7,1.7,0,0,0,.65-1.42,1.59,1.59,0,0,0-.39-1.13,4.29,4.29,0,0,0-1.63-.77l-1.34-.41a4.37,4.37,0,0,1-2.07-1.1,2.59,2.59,0,0,1-.59-1.82,2.42,2.42,0,0,1,.92-2A4.18,4.18,0,0,1,323,400a8.91,8.91,0,0,1,1.56.15,16.88,16.88,0,0,1,1.8.45v2.17h-.77a2.18,2.18,0,0,0-.73-1.55,2.86,2.86,0,0,0-1.83-.49,2.66,2.66,0,0,0-1.65.44,1.52,1.52,0,0,0-.56,1.28,1.55,1.55,0,0,0,.42,1.15,4.44,4.44,0,0,0,1.8.82l1.26.38a4.43,4.43,0,0,1,2,1.06,2.52,2.52,0,0,1,.6,1.74,2.66,2.66,0,0,1-.95,2.23,4.55,4.55,0,0,1-2.83.74,9.37,9.37,0,0,1-1.72-.17A9,9,0,0,1,319.62,409.86Z"/><path d="M330.88,409.62h1.19v.73h-3.65v-.73h1.2v-5.81h-1.2v-.73h2.46Zm-1.61-8.79a.75.75,0,0,1,.22-.55.8.8,0,0,1,.56-.24.79.79,0,0,1,.54.24.76.76,0,0,1,.23.55.74.74,0,0,1-.22.54.73.73,0,0,1-.55.23.75.75,0,0,1-.56-.23A.7.7,0,0,1,329.27,400.83Z"/><polygon points="332.95 410.35 332.95 409.76 337.5 403.81 333.9 403.81 333.9 405.07 333.18 405.07 333.18 403.08 339.13 403.08 339.13 403.67 334.58 409.62 338.52 409.62 338.52 408.3 339.25 408.3 339.25 410.35 332.95 410.35"/><path d="M345.87,406.12a3.27,3.27,0,0,0-.54-1.92,1.72,1.72,0,0,0-1.42-.64,1.65,1.65,0,0,0-1.37.65,3.65,3.65,0,0,0-.6,1.91Zm1.49.73h-5.42v0a3.76,3.76,0,0,0,.55,2.23,1.88,1.88,0,0,0,1.63.74,2.09,2.09,0,0,0,1.36-.43,2.31,2.31,0,0,0,.74-1.29h1a3,3,0,0,1-1.1,1.79,3.6,3.6,0,0,1-2.13.59,3.29,3.29,0,0,1-2.56-1,3.91,3.91,0,0,1-1-2.78,4,4,0,0,1,.95-2.78,3.56,3.56,0,0,1,5,0A4.49,4.49,0,0,1,347.36,406.85Z"/><g style="clip-path:url(#clip-path)"><line x1="73.76" y1="349.02" x2="548.54" y2="349.02" style="fill:none;stroke:#b0b0b0;stroke-linecap:square;stroke-linejoin:round;stroke-width:0.800000011920929px;opacity:0.30000001192092896"/></g><line x1="73.76" y1="349.02" x2="70.26" y2="349.02"/><line x1="73.76" y1="349.02" x2="70.26" y2="349.02" style="fill:none;stroke:#000;stroke-linejoin:round;stroke-width:0.800000011920929px"/><path d="M28.56,353.74a2.54,2.54,0,0,1-2.23-1.19,7.43,7.43,0,0,1,0-6.67,2.66,2.66,0,0,1,4.45,0,7.27,7.27,0,0,1,0,6.67A2.53,2.53,0,0,1,28.56,353.74Zm0-.57a1.43,1.43,0,0,0,1.35-1,10.28,10.28,0,0,0,0-5.95,1.46,1.46,0,0,0-1.35-1,1.44,1.44,0,0,0-1.34,1,10.06,10.06,0,0,0,0,5.95A1.41,1.41,0,0,0,28.56,353.17Z"/><path d="M33.51,353a.75.75,0,0,1,.78-.78.79.79,0,0,1,.78.78.8.8,0,0,1-1.35.55A.74.74,0,0,1,33.51,353Z"/><path d="M40,353.74a2.54,2.54,0,0,1-2.23-1.19,7.43,7.43,0,0,1,0-6.67,2.66,2.66,0,0,1,4.45,0,7.35,7.35,0,0,1,0,6.67A2.53,2.53,0,0,1,40,353.74Zm0-.57a1.42,1.42,0,0,0,1.34-1,10.06,10.06,0,0,0,0-5.95,1.45,1.45,0,0,0-1.34-1,1.43,1.43,0,0,0-1.34,1,10.06,10.06,0,0,0,0,5.95A1.4,1.4,0,0,0,40,353.17Z"/><path d="M47.64,353.74a2.54,2.54,0,0,1-2.23-1.19,7.43,7.43,0,0,1,0-6.67,2.66,2.66,0,0,1,4.45,0,7.27,7.27,0,0,1,0,6.67A2.53,2.53,0,0,1,47.64,353.74Zm0-.57a1.43,1.43,0,0,0,1.35-1,10.28,10.28,0,0,0,0-5.95,1.46,1.46,0,0,0-1.35-1,1.44,1.44,0,0,0-1.34,1,10.06,10.06,0,0,0,0,5.95A1.41,1.41,0,0,0,47.64,353.17Z"/><path d="M57.49,344.83v1h-4v2.51a2,2,0,0,1,.7-.31,3.68,3.68,0,0,1,.92-.11,3.13,3.13,0,0,1,2.23.79,2.83,2.83,0,0,1,.83,2.14,2.77,2.77,0,0,1-.83,2.16,3.26,3.26,0,0,1-2.33.77,5.32,5.32,0,0,1-1.24-.15,5,5,0,0,1-1.29-.43v-1.7h.66a1.78,1.78,0,0,0,.53,1.28,1.89,1.89,0,0,0,1.34.43,1.74,1.74,0,0,0,1.42-.61,2.7,2.7,0,0,0,.5-1.75,2.75,2.75,0,0,0-.49-1.74,1.74,1.74,0,0,0-1.43-.61,2.28,2.28,0,0,0-.94.19,1.82,1.82,0,0,0-.7.58h-.51v-4.4Z"/><path d="M62.91,353.74a2.55,2.55,0,0,1-2.24-1.19,7.43,7.43,0,0,1,0-6.67,2.67,2.67,0,0,1,4.46,0,7.35,7.35,0,0,1,0,6.67A2.54,2.54,0,0,1,62.91,353.74Zm0-.57a1.42,1.42,0,0,0,1.34-1,10.28,10.28,0,0,0,0-5.95,1.41,1.41,0,0,0-2.69,0,10.28,10.28,0,0,0,0,5.95A1.43,1.43,0,0,0,62.91,353.17Z"/><g style="clip-path:url(#clip-path)"><line x1="73.76" y1="302.58" x2="548.54" y2="302.58" style="fill:none;stroke:#b0b0b0;stroke-linecap:square;stroke-linejoin:round;stroke-width:0.800000011920929px;opacity:0.30000001192092896"/></g><line x1="73.76" y1="302.58" x2="70.26" y2="302.58"/><line x1="73.76" y1="302.58" x2="70.26" y2="302.58" style="fill:none;stroke:#000;stroke-linejoin:round;stroke-width:0.800000011920929px"/><path d="M28.56,307.3a2.54,2.54,0,0,1-2.23-1.19,7.43,7.43,0,0,1,0-6.67,2.66,2.66,0,0,1,4.45,0,7.27,7.27,0,0,1,0,6.67A2.53,2.53,0,0,1,28.56,307.3Zm0-.57a1.43,1.43,0,0,0,1.35-1,10.28,10.28,0,0,0,0-5.95,1.46,1.46,0,0,0-1.35-1,1.44,1.44,0,0,0-1.34,1,10.06,10.06,0,0,0,0,5.95A1.41,1.41,0,0,0,28.56,306.73Z"/><path d="M33.51,306.53a.75.75,0,0,1,.78-.78.78.78,0,0,1,.55,1.33.82.82,0,0,1-1.12,0A.74.74,0,0,1,33.51,306.53Z"/><path d="M40,307.3a2.54,2.54,0,0,1-2.23-1.19,7.43,7.43,0,0,1,0-6.67,2.66,2.66,0,0,1,4.45,0,7.35,7.35,0,0,1,0,6.67A2.53,2.53,0,0,1,40,307.3Zm0-.57a1.42,1.42,0,0,0,1.34-1,10.06,10.06,0,0,0,0-5.95,1.45,1.45,0,0,0-1.34-1,1.43,1.43,0,0,0-1.34,1,10.06,10.06,0,0,0,0,5.95A1.4,1.4,0,0,0,40,306.73Z"/><path d="M47.64,307.3a2.54,2.54,0,0,1-2.23-1.19,7.43,7.43,0,0,1,0-6.67,2.66,2.66,0,0,1,4.45,0,7.27,7.27,0,0,1,0,6.67A2.53,2.53,0,0,1,47.64,307.3Zm0-.57a1.43,1.43,0,0,0,1.35-1,10.28,10.28,0,0,0,0-5.95,1.46,1.46,0,0,0-1.35-1,1.44,1.44,0,0,0-1.34,1,10.06,10.06,0,0,0,0,5.95A1.41,1.41,0,0,0,47.64,306.73Z"/><polygon points="58.23 298.99 54.81 307.14 53.93 307.14 57.2 299.35 53.15 299.35 53.15 300.43 52.47 300.43 52.47 298.39 58.23 298.39 58.23 298.99"/><path d="M65.13,298.39v1h-4v2.51a2,2,0,0,1,.71-.31,3.54,3.54,0,0,1,.91-.11,3.09,3.09,0,0,1,2.23.79,2.83,2.83,0,0,1,.83,2.14,2.8,2.8,0,0,1-.83,2.16,3.31,3.31,0,0,1-2.33.77,5.24,5.24,0,0,1-1.23-.15,5.36,5.36,0,0,1-1.3-.43V305h.66a1.87,1.87,0,0,0,.53,1.28,1.91,1.91,0,0,0,1.34.43,1.74,1.74,0,0,0,1.42-.61,2.7,2.7,0,0,0,.5-1.75,2.75,2.75,0,0,0-.49-1.74,1.73,1.73,0,0,0-1.43-.61,2.2,2.2,0,0,0-.93.19,1.83,1.83,0,0,0-.71.57h-.51v-4.39Z"/><g style="clip-path:url(#clip-path)"><line x1="73.76" y1="256.13" x2="548.54" y2="256.13" style="fill:none;stroke:#b0b0b0;stroke-linecap:square;stroke-linejoin:round;stroke-width:0.800000011920929px;opacity:0.30000001192092896"/></g><line x1="73.76" y1="256.13" x2="70.26" y2="256.13"/><line x1="73.76" y1="256.13" x2="70.26" y2="256.13" style="fill:none;stroke:#000;stroke-linejoin:round;stroke-width:0.800000011920929px"/><path d="M28.56,260.85a2.52,2.52,0,0,1-2.23-1.19,7.43,7.43,0,0,1,0-6.67,2.66,2.66,0,0,1,4.45,0,7.27,7.27,0,0,1,0,6.67A2.51,2.51,0,0,1,28.56,260.85Zm0-.56a1.44,1.44,0,0,0,1.35-1,7.82,7.82,0,0,0,.44-3,8,8,0,0,0-.44-3,1.45,1.45,0,0,0-1.35-1,1.43,1.43,0,0,0-1.34,1,7.56,7.56,0,0,0-.45,3,7.41,7.41,0,0,0,.45,3A1.42,1.42,0,0,0,28.56,260.29Z"/><path d="M33.51,260.08a.81.81,0,0,1,.21-.55.79.79,0,1,1,1.12,1.11.85.85,0,0,1-1.12,0A.78.78,0,0,1,33.51,260.08Z"/><path d="M40,260.85a2.52,2.52,0,0,1-2.23-1.19,7.43,7.43,0,0,1,0-6.67,2.66,2.66,0,0,1,4.45,0,7.35,7.35,0,0,1,0,6.67A2.51,2.51,0,0,1,40,260.85Zm0-.56a1.43,1.43,0,0,0,1.34-1,7.59,7.59,0,0,0,.45-3,7.75,7.75,0,0,0-.45-3,1.44,1.44,0,0,0-1.34-1,1.42,1.42,0,0,0-1.34,1,7.56,7.56,0,0,0-.45,3,7.41,7.41,0,0,0,.45,3A1.41,1.41,0,0,0,40,260.29Z"/><polygon points="45.53 260.7 45.53 260.07 47.05 260.07 47.05 252.8 45.29 253.94 45.29 253.17 47.43 251.79 48.23 251.79 48.23 260.07 49.76 260.07 49.76 260.7 45.53 260.7"/><path d="M55.27,260.85A2.52,2.52,0,0,1,53,259.66,7.43,7.43,0,0,1,53,253a2.66,2.66,0,0,1,4.45,0,7.27,7.27,0,0,1,0,6.67A2.5,2.5,0,0,1,55.27,260.85Zm0-.56a1.44,1.44,0,0,0,1.35-1,7.62,7.62,0,0,0,.44-3,7.78,7.78,0,0,0-.44-3,1.45,1.45,0,0,0-1.35-1,1.43,1.43,0,0,0-1.34,1,7.59,7.59,0,0,0-.44,3,7.44,7.44,0,0,0,.44,3A1.42,1.42,0,0,0,55.27,260.29Z"/><path d="M62.91,260.85a2.53,2.53,0,0,1-2.24-1.19,7.43,7.43,0,0,1,0-6.67,2.67,2.67,0,0,1,4.46,0,7.35,7.35,0,0,1,0,6.67A2.52,2.52,0,0,1,62.91,260.85Zm0-.56a1.43,1.43,0,0,0,1.34-1,7.62,7.62,0,0,0,.44-3,7.78,7.78,0,0,0-.44-3,1.41,1.41,0,0,0-2.69,0,7.59,7.59,0,0,0-.44,3,7.44,7.44,0,0,0,.44,3A1.44,1.44,0,0,0,62.91,260.29Z"/><g style="clip-path:url(#clip-path)"><line x1="73.76" y1="209.69" x2="548.54" y2="209.69" style="fill:none;stroke:#b0b0b0;stroke-linecap:square;stroke-linejoin:round;stroke-width:0.800000011920929px;opacity:0.30000001192092896"/></g><line x1="73.76" y1="209.69" x2="70.26" y2="209.69"/><line x1="73.76" y1="209.69" x2="70.26" y2="209.69" style="fill:none;stroke:#000;stroke-linejoin:round;stroke-width:0.800000011920929px"/><path d="M28.56,214.41a2.54,2.54,0,0,1-2.23-1.19,7.43,7.43,0,0,1,0-6.67,2.66,2.66,0,0,1,4.45,0,7.27,7.27,0,0,1,0,6.67A2.53,2.53,0,0,1,28.56,214.41Zm0-.57a1.43,1.43,0,0,0,1.35-1,10.28,10.28,0,0,0,0-6,1.46,1.46,0,0,0-1.35-1,1.44,1.44,0,0,0-1.34,1,10.06,10.06,0,0,0,0,6A1.41,1.41,0,0,0,28.56,213.84Z"/><path d="M33.51,213.64a.75.75,0,0,1,.78-.78.79.79,0,0,1,.78.78.8.8,0,0,1-1.35.55A.74.74,0,0,1,33.51,213.64Z"/><path d="M40,214.41a2.54,2.54,0,0,1-2.23-1.19,7.43,7.43,0,0,1,0-6.67,2.66,2.66,0,0,1,4.45,0,7.35,7.35,0,0,1,0,6.67A2.53,2.53,0,0,1,40,214.41Zm0-.57a1.42,1.42,0,0,0,1.34-1,10.06,10.06,0,0,0,0-6,1.45,1.45,0,0,0-1.34-1,1.43,1.43,0,0,0-1.34,1,10.06,10.06,0,0,0,0,6A1.4,1.4,0,0,0,40,213.84Z"/><polygon points="45.53 214.25 45.53 213.63 47.05 213.63 47.05 206.36 45.29 207.5 45.29 206.73 47.43 205.35 48.23 205.35 48.23 213.63 49.76 213.63 49.76 214.25 45.53 214.25"/><path d="M53,207.59h-.66V206a6.75,6.75,0,0,1,1.26-.5,4.55,4.55,0,0,1,1.25-.18A3.33,3.33,0,0,1,57,206a2.21,2.21,0,0,1,.79,1.8c0,.86-.6,1.88-1.8,3.07l-.2.2-2.21,2.21h3.65v-1.08h.68v2H52.27v-.63L54.93,211a6.67,6.67,0,0,0,1.24-1.6,3.3,3.3,0,0,0,.39-1.55,1.94,1.94,0,0,0-.47-1.38,1.62,1.62,0,0,0-1.26-.51,1.9,1.9,0,0,0-1.3.42A1.84,1.84,0,0,0,53,207.59Z"/><path d="M65.13,205.5v1h-4V209a2,2,0,0,1,.71-.31,3.54,3.54,0,0,1,.91-.11,3.13,3.13,0,0,1,2.23.79,2.83,2.83,0,0,1,.83,2.14,2.77,2.77,0,0,1-.83,2.16,3.26,3.26,0,0,1-2.33.77,5.24,5.24,0,0,1-1.23-.15,5,5,0,0,1-1.3-.43v-1.7h.66a1.87,1.87,0,0,0,.53,1.28,1.91,1.91,0,0,0,1.34.43,1.74,1.74,0,0,0,1.42-.61,2.7,2.7,0,0,0,.5-1.75,2.75,2.75,0,0,0-.49-1.74,1.73,1.73,0,0,0-1.43-.61,2.2,2.2,0,0,0-.93.19,1.77,1.77,0,0,0-.71.58h-.51v-4.4Z"/><g style="clip-path:url(#clip-path)"><line x1="73.76" y1="163.25" x2="548.54" y2="163.25" style="fill:none;stroke:#b0b0b0;stroke-linecap:square;stroke-linejoin:round;stroke-width:0.800000011920929px;opacity:0.30000001192092896"/></g><line x1="73.76" y1="163.25" x2="70.26" y2="163.25"/><line x1="73.76" y1="163.25" x2="70.26" y2="163.25" style="fill:none;stroke:#000;stroke-linejoin:round;stroke-width:0.800000011920929px"/><path d="M28.56,168a2.53,2.53,0,0,1-2.23-1.18,7.46,7.46,0,0,1,0-6.68,2.66,2.66,0,0,1,4.45,0,7.29,7.29,0,0,1,0,6.68A2.52,2.52,0,0,1,28.56,168Zm0-.56a1.43,1.43,0,0,0,1.35-1,10.31,10.31,0,0,0,0-6,1.46,1.46,0,0,0-1.35-1,1.44,1.44,0,0,0-1.34,1,10.09,10.09,0,0,0,0,6A1.41,1.41,0,0,0,28.56,167.4Z"/><path d="M33.51,167.2a.79.79,0,0,1,1.33-.56.83.83,0,0,1,.23.56.81.81,0,0,1-1.35.55A.77.77,0,0,1,33.51,167.2Z"/><path d="M40,168a2.53,2.53,0,0,1-2.23-1.18,7.46,7.46,0,0,1,0-6.68,2.66,2.66,0,0,1,4.45,0,7.37,7.37,0,0,1,0,6.68A2.52,2.52,0,0,1,40,168Zm0-.56a1.42,1.42,0,0,0,1.34-1,10.09,10.09,0,0,0,0-6,1.45,1.45,0,0,0-1.34-1,1.43,1.43,0,0,0-1.34,1,10.09,10.09,0,0,0,0,6A1.4,1.4,0,0,0,40,167.4Z"/><polygon points="45.53 167.81 45.53 167.19 47.05 167.19 47.05 159.91 45.29 161.05 45.29 160.28 47.43 158.91 48.23 158.91 48.23 167.19 49.76 167.19 49.76 167.81 45.53 167.81"/><path d="M57.49,159.06v1h-4v2.51a1.87,1.87,0,0,1,.7-.31,3.27,3.27,0,0,1,.92-.11,3.09,3.09,0,0,1,2.23.79,2.83,2.83,0,0,1,.83,2.14,2.8,2.8,0,0,1-.83,2.16A3.3,3.3,0,0,1,55,168a5.3,5.3,0,0,1-1.24-.14,5.43,5.43,0,0,1-1.29-.43v-1.71h.66a1.79,1.79,0,0,0,.53,1.29,1.89,1.89,0,0,0,1.34.43,1.74,1.74,0,0,0,1.42-.61,3.32,3.32,0,0,0,0-3.49,1.75,1.75,0,0,0-1.43-.62,2.28,2.28,0,0,0-.94.2,1.88,1.88,0,0,0-.7.57h-.51v-4.39Z"/><path d="M62.91,168a2.54,2.54,0,0,1-2.24-1.18,7.46,7.46,0,0,1,0-6.68,2.67,2.67,0,0,1,4.46,0,7.37,7.37,0,0,1,0,6.68A2.53,2.53,0,0,1,62.91,168Zm0-.56a1.42,1.42,0,0,0,1.34-1,10.31,10.31,0,0,0,0-6,1.41,1.41,0,0,0-2.69,0,10.31,10.31,0,0,0,0,6A1.43,1.43,0,0,0,62.91,167.4Z"/><g style="clip-path:url(#clip-path)"><line x1="73.76" y1="116.8" x2="548.54" y2="116.8" style="fill:none;stroke:#b0b0b0;stroke-linecap:square;stroke-linejoin:round;stroke-width:0.800000011920929px;opacity:0.30000001192092896"/></g><line x1="73.76" y1="116.8" x2="70.26" y2="116.8"/><line x1="73.76" y1="116.8" x2="70.26" y2="116.8" style="fill:none;stroke:#000;stroke-linejoin:round;stroke-width:0.800000011920929px"/><path d="M28.56,121.52a2.52,2.52,0,0,1-2.23-1.19,7.43,7.43,0,0,1,0-6.67,2.66,2.66,0,0,1,4.45,0,7.27,7.27,0,0,1,0,6.67A2.51,2.51,0,0,1,28.56,121.52Zm0-.56a1.44,1.44,0,0,0,1.35-1,7.82,7.82,0,0,0,.44-3,8,8,0,0,0-.44-3,1.45,1.45,0,0,0-1.35-1,1.43,1.43,0,0,0-1.34,1,7.56,7.56,0,0,0-.45,3,7.41,7.41,0,0,0,.45,3A1.42,1.42,0,0,0,28.56,121Z"/><path d="M33.51,120.75a.81.81,0,0,1,.21-.55.79.79,0,1,1,1.12,1.11.85.85,0,0,1-1.12,0A.78.78,0,0,1,33.51,120.75Z"/><path d="M40,121.52a2.52,2.52,0,0,1-2.23-1.19,7.43,7.43,0,0,1,0-6.67,2.66,2.66,0,0,1,4.45,0,7.35,7.35,0,0,1,0,6.67A2.51,2.51,0,0,1,40,121.52Zm0-.56a1.43,1.43,0,0,0,1.34-1,7.59,7.59,0,0,0,.45-3,7.75,7.75,0,0,0-.45-3A1.44,1.44,0,0,0,40,113a1.42,1.42,0,0,0-1.34,1,7.56,7.56,0,0,0-.45,3,7.41,7.41,0,0,0,.45,3A1.41,1.41,0,0,0,40,121Z"/><polygon points="45.53 121.36 45.53 120.74 47.05 120.74 47.05 113.47 45.29 114.61 45.29 113.84 47.43 112.46 48.23 112.46 48.23 120.74 49.76 120.74 49.76 121.36 45.53 121.36"/><polygon points="58.23 113.22 54.81 121.36 53.93 121.36 57.2 113.58 53.15 113.58 53.15 114.66 52.47 114.66 52.47 112.62 58.23 112.62 58.23 113.22"/><path d="M65.13,112.62v1h-4v2.51a2,2,0,0,1,.71-.32,3.57,3.57,0,0,1,.91-.1,3.09,3.09,0,0,1,2.23.79,2.81,2.81,0,0,1,.83,2.13,2.77,2.77,0,0,1-.83,2.16,3.26,3.26,0,0,1-2.33.77,6.34,6.34,0,0,1-2.53-.57v-1.71h.66a1.88,1.88,0,0,0,.53,1.29,2,2,0,0,0,1.34.43,1.77,1.77,0,0,0,1.42-.61,2.73,2.73,0,0,0,.5-1.76,2.77,2.77,0,0,0-.49-1.74,1.76,1.76,0,0,0-1.43-.61,2.2,2.2,0,0,0-.93.19A1.86,1.86,0,0,0,61,117h-.51v-4.39Z"/><g style="clip-path:url(#clip-path)"><line x1="73.76" y1="70.36" x2="548.54" y2="70.36" style="fill:none;stroke:#b0b0b0;stroke-linecap:square;stroke-linejoin:round;stroke-width:0.800000011920929px;opacity:0.30000001192092896"/></g><line x1="73.76" y1="70.36" x2="70.26" y2="70.36"/><line x1="73.76" y1="70.36" x2="70.26" y2="70.36" style="fill:none;stroke:#000;stroke-linejoin:round;stroke-width:0.800000011920929px"/><path d="M28.56,75.08a2.54,2.54,0,0,1-2.23-1.19,7.43,7.43,0,0,1,0-6.67,2.66,2.66,0,0,1,4.45,0,7.27,7.27,0,0,1,0,6.67A2.53,2.53,0,0,1,28.56,75.08Zm0-.57a1.43,1.43,0,0,0,1.35-1,10.28,10.28,0,0,0,0-6,1.46,1.46,0,0,0-1.35-1,1.44,1.44,0,0,0-1.34,1,7.51,7.51,0,0,0-.45,3,7.46,7.46,0,0,0,.45,3A1.41,1.41,0,0,0,28.56,74.51Z"/><path d="M33.51,74.31a.75.75,0,0,1,.78-.78.79.79,0,0,1,.78.78.8.8,0,0,1-1.35.55A.74.74,0,0,1,33.51,74.31Z"/><path d="M40,75.08a2.54,2.54,0,0,1-2.23-1.19,7.43,7.43,0,0,1,0-6.67,2.66,2.66,0,0,1,4.45,0,7.35,7.35,0,0,1,0,6.67A2.53,2.53,0,0,1,40,75.08Zm0-.57a1.42,1.42,0,0,0,1.34-1,7.65,7.65,0,0,0,.45-3,7.7,7.7,0,0,0-.45-3,1.45,1.45,0,0,0-1.34-1,1.43,1.43,0,0,0-1.34,1,7.51,7.51,0,0,0-.45,3,7.46,7.46,0,0,0,.45,3A1.4,1.4,0,0,0,40,74.51Z"/><path d="M45.36,68.26H44.7V66.7A6.75,6.75,0,0,1,46,66.2,4.55,4.55,0,0,1,47.21,66a3.33,3.33,0,0,1,2.16.66,2.21,2.21,0,0,1,.79,1.8c0,.86-.6,1.88-1.8,3.07l-.2.2L46,74H49.6V72.88h.68v2H44.64v-.63l2.65-2.66A6.5,6.5,0,0,0,48.54,70a3.42,3.42,0,0,0,.39-1.55,1.94,1.94,0,0,0-.47-1.38,1.62,1.62,0,0,0-1.26-.51,1.88,1.88,0,0,0-1.3.42A1.84,1.84,0,0,0,45.36,68.26Z"/><path d="M55.27,75.08A2.54,2.54,0,0,1,53,73.89a7.43,7.43,0,0,1,0-6.67,2.66,2.66,0,0,1,4.45,0,7.27,7.27,0,0,1,0,6.67A2.52,2.52,0,0,1,55.27,75.08Zm0-.57a1.43,1.43,0,0,0,1.35-1,7.68,7.68,0,0,0,.44-3,7.73,7.73,0,0,0-.44-3,1.46,1.46,0,0,0-1.35-1,1.44,1.44,0,0,0-1.34,1,7.54,7.54,0,0,0-.44,3,7.49,7.49,0,0,0,.44,3A1.41,1.41,0,0,0,55.27,74.51Z"/><path d="M62.91,75.08a2.55,2.55,0,0,1-2.24-1.19,7.43,7.43,0,0,1,0-6.67,2.67,2.67,0,0,1,4.46,0,7.35,7.35,0,0,1,0,6.67A2.54,2.54,0,0,1,62.91,75.08Zm0-.57a1.42,1.42,0,0,0,1.34-1,7.68,7.68,0,0,0,.44-3,7.73,7.73,0,0,0-.44-3,1.41,1.41,0,0,0-2.69,0,7.54,7.54,0,0,0-.44,3,7.49,7.49,0,0,0,.44,3A1.43,1.43,0,0,0,62.91,74.51Z"/><g style="clip-path:url(#clip-path)"><line x1="73.76" y1="23.92" x2="548.54" y2="23.92" style="fill:none;stroke:#b0b0b0;stroke-linecap:square;stroke-linejoin:round;stroke-width:0.800000011920929px;opacity:0.30000001192092896"/></g><line x1="73.76" y1="23.92" x2="70.26" y2="23.92"/><line x1="73.76" y1="23.92" x2="70.26" y2="23.92" style="fill:none;stroke:#000;stroke-linejoin:round;stroke-width:0.800000011920929px"/><path d="M28.56,28.63a2.53,2.53,0,0,1-2.23-1.18,6,6,0,0,1-.79-3.34,6,6,0,0,1,.79-3.34,2.66,2.66,0,0,1,4.45,0,6,6,0,0,1,.81,3.34,6,6,0,0,1-.81,3.34A2.52,2.52,0,0,1,28.56,28.63Zm0-.56a1.43,1.43,0,0,0,1.35-1,7.91,7.91,0,0,0,.44-3,8,8,0,0,0-.44-3,1.46,1.46,0,0,0-1.35-1,1.44,1.44,0,0,0-1.34,1,7.56,7.56,0,0,0-.45,3,7.5,7.5,0,0,0,.45,3A1.41,1.41,0,0,0,28.56,28.07Z"/><path d="M33.51,27.87a.79.79,0,0,1,1.33-.56.83.83,0,0,1,.23.56.81.81,0,0,1-1.35.55A.77.77,0,0,1,33.51,27.87Z"/><path d="M40,28.63a2.53,2.53,0,0,1-2.23-1.18A6,6,0,0,1,37,24.11a6,6,0,0,1,.79-3.34,2.66,2.66,0,0,1,4.45,0,6,6,0,0,1,.8,3.34,6,6,0,0,1-.8,3.34A2.52,2.52,0,0,1,40,28.63Zm0-.56a1.42,1.42,0,0,0,1.34-1,7.68,7.68,0,0,0,.45-3,7.75,7.75,0,0,0-.45-3,1.45,1.45,0,0,0-1.34-1,1.43,1.43,0,0,0-1.34,1,7.56,7.56,0,0,0-.45,3,7.5,7.5,0,0,0,.45,3A1.4,1.4,0,0,0,40,28.07Z"/><path d="M45.36,21.82H44.7V20.26A6.16,6.16,0,0,1,46,19.75a4.55,4.55,0,0,1,1.25-.18,3.33,3.33,0,0,1,2.16.66,2.24,2.24,0,0,1,.79,1.8c0,.87-.6,1.89-1.8,3.08l-.2.2L46,27.52H49.6V26.44h.68v2H44.64v-.64l2.65-2.65a6.71,6.71,0,0,0,1.25-1.61A3.39,3.39,0,0,0,48.93,22a2,2,0,0,0-.47-1.38,1.65,1.65,0,0,0-1.26-.5,1.65,1.65,0,0,0-1.84,1.67Z"/><path d="M53,21.82h-.66V20.26a6.16,6.16,0,0,1,1.26-.51,4.55,4.55,0,0,1,1.25-.18,3.33,3.33,0,0,1,2.16.66,2.24,2.24,0,0,1,.79,1.8c0,.87-.6,1.89-1.8,3.08l-.2.2-2.21,2.21h3.65V26.44h.68v2H52.27v-.64l2.66-2.65a6.9,6.9,0,0,0,1.24-1.61A3.27,3.27,0,0,0,56.56,22a2,2,0,0,0-.47-1.38,1.65,1.65,0,0,0-1.26-.5A1.65,1.65,0,0,0,53,21.82Z"/><path d="M65.13,19.73v1h-4V23.2a1.85,1.85,0,0,1,.71-.31,3.15,3.15,0,0,1,.91-.11,3.09,3.09,0,0,1,2.23.79,2.83,2.83,0,0,1,.83,2.14A2.8,2.8,0,0,1,65,27.87a3.3,3.3,0,0,1-2.33.76,5.22,5.22,0,0,1-1.23-.14,5.36,5.36,0,0,1-1.3-.43V26.35h.66a1.88,1.88,0,0,0,.53,1.29,1.91,1.91,0,0,0,1.34.43,1.74,1.74,0,0,0,1.42-.61,2.72,2.72,0,0,0,.5-1.75A2.73,2.73,0,0,0,64.07,24a1.74,1.74,0,0,0-1.43-.62,2.2,2.2,0,0,0-.93.2,1.83,1.83,0,0,0-.71.57h-.51V19.73Z"/><polygon points="17.84 228.61 17.11 228.61 17.11 227.31 8.45 227.31 8.45 230.3 10.04 230.3 10.04 231.14 7.63 231.14 7.63 222.08 10.04 222.08 10.04 222.92 8.45 222.92 8.45 225.92 17.11 225.92 17.11 224.62 17.84 224.62 17.84 228.61"/><path d="M18,218.81a3.25,3.25,0,0,1-1,2.54,3.93,3.93,0,0,1-2.79,1,3.93,3.93,0,0,1-2.77-.95,3.33,3.33,0,0,1-1-2.56,3.27,3.27,0,0,1,1-2.55,3.9,3.9,0,0,1,2.77-1,3.93,3.93,0,0,1,2.79,1A3.26,3.26,0,0,1,18,218.81Zm-.66,0a1.7,1.7,0,0,0-.79-1.53,4.44,4.44,0,0,0-2.36-.52,4.44,4.44,0,0,0-2.36.52,1.71,1.71,0,0,0-.8,1.53,1.68,1.68,0,0,0,.8,1.52,4.35,4.35,0,0,0,2.36.52,4.35,4.35,0,0,0,2.36-.52A1.68,1.68,0,0,0,17.36,218.81Z"/><path d="M11.3,213.08v1.11h-.73v-1.11H8.32v-1.26h2.25v-2.37h.73v2.37h4.62a2.45,2.45,0,0,0,1.19-.18.74.74,0,0,0,.25-.66.83.83,0,0,0-.29-.71,1.69,1.69,0,0,0-.94-.24v-.95a2,2,0,0,1,1.44.54,2.09,2.09,0,0,1,.45,1.47,2.11,2.11,0,0,1-.47,1.54,2.29,2.29,0,0,1-1.63.45Z"/><path d="M13.3,202.13h3.81V201h.73v2.38h-.78a2.65,2.65,0,0,1,.74,1,3.55,3.55,0,0,1,.22,1.27,2.8,2.8,0,0,1-.63,1.93,2.18,2.18,0,0,1-1.73.7,2,2,0,0,1-1.74-.81,3.63,3.63,0,0,1-.63-2.29v-1.77h-.5a1.64,1.64,0,0,0-1.28.51,2,2,0,0,0-.46,1.41,1.94,1.94,0,0,0,.35,1.19,1.44,1.44,0,0,0,1,.56v.64H10.94a8.2,8.2,0,0,1-.42-1.27,5.6,5.6,0,0,1-.14-1.2,3.22,3.22,0,0,1,.75-2.3A2.85,2.85,0,0,1,13.3,202.13Zm2.26,1.26H14V205a2.13,2.13,0,0,0,.4,1.4,1.61,1.61,0,0,0,1.24.44,1.57,1.57,0,0,0,1.2-.46,1.94,1.94,0,0,0,0-2.52A1.72,1.72,0,0,0,15.56,203.39Z"/><polygon points="17.11 197.75 17.11 196.56 17.84 196.56 17.84 200.22 17.11 200.22 17.11 199.01 7.93 199.01 7.93 200.22 7.2 200.22 7.2 197.75 17.11 197.75"/><polygon points="17.84 190.92 17.11 190.92 17.11 189.62 8.36 189.62 8.36 190.92 7.63 190.92 7.63 182.7 9.9 182.7 9.9 183.54 8.47 183.54 8.47 188.23 11.89 188.23 11.89 184.88 10.62 184.88 10.62 184.04 14.01 184.04 14.01 184.88 12.73 184.88 12.73 188.23 17 188.23 17 183.43 15.57 183.43 15.57 182.59 17.84 182.59 17.84 190.92"/><path d="M10.56,174.78h1.82v.72a1.31,1.31,0,0,0-.81.3,1.12,1.12,0,0,0-.27.78A1.74,1.74,0,0,0,12,178a2.92,2.92,0,0,0,1.84.49h3.32V177h.73v3.85h-.73v-1.13H11.29V181h-.72V178.5h1.29a2.63,2.63,0,0,1-1.12-.94,2.69,2.69,0,0,1-.36-1.43c0-.19,0-.42,0-.64A7.2,7.2,0,0,1,10.56,174.78Z"/><path d="M10.56,168.08h1.82v.73a1.31,1.31,0,0,0-.81.3,1.1,1.1,0,0,0-.27.78,1.74,1.74,0,0,0,.65,1.43,3,3,0,0,0,1.84.49h3.32v-1.46h.73v3.85h-.73v-1.13H11.29v1.2h-.72v-2.46h1.29a2.63,2.63,0,0,1-1.12-.94,2.69,2.69,0,0,1-.36-1.43c0-.19,0-.42,0-.64S10.5,168.34,10.56,168.08Z"/><path d="M18,163.87a3.29,3.29,0,0,1-1,2.55,4,4,0,0,1-2.79,1,3.89,3.89,0,0,1-2.77-.95,3.63,3.63,0,0,1,0-5.11,3.94,3.94,0,0,1,2.77-1,4,4,0,0,1,2.79,1A3.29,3.29,0,0,1,18,163.87Zm-.66,0a1.72,1.72,0,0,0-.79-1.53,4.54,4.54,0,0,0-2.36-.51,4.54,4.54,0,0,0-2.36.51,1.86,1.86,0,0,0,0,3.06,4.35,4.35,0,0,0,2.36.51,4.35,4.35,0,0,0,2.36-.51A1.7,1.7,0,0,0,17.36,163.87Z"/><path d="M10.56,153h1.82v.73a1.31,1.31,0,0,0-.81.3,1.1,1.1,0,0,0-.27.78A1.74,1.74,0,0,0,12,156.2a3,3,0,0,0,1.84.49h3.32v-1.46h.73v3.85h-.73V158H11.29v1.2h-.72v-2.46h1.29a2.63,2.63,0,0,1-1.12-.94,2.69,2.69,0,0,1-.36-1.43c0-.19,0-.42,0-.64S10.5,153.22,10.56,153Z"/><g style="clip-path:url(#clip-path)"><polyline points="95.34 360.27 124.12 218.19 181.67 222.54 296.76 191.82 526.96 134.99" style="fill:none;stroke:#1f77b4;stroke-linecap:square;stroke-linejoin:round;stroke-width:2.5px;opacity:0.8999999761581421"/><g style="clip-path:url(#clip-path-15)"><path d="M95.34,364.27a4,4,0,1,0-2.83-1.17A4,4,0,0,0,95.34,364.27Z" style="fill:#1f77b4;opacity:0.8999999761581421"/><path d="M95.34,364.27a4,4,0,1,0-2.83-1.17A4,4,0,0,0,95.34,364.27Z" style="fill:none;stroke:#1f77b4;stroke-linejoin:round;opacity:0.8999999761581421"/></g><g style="clip-path:url(#clip-path-16)"><path d="M124.12,222.19a4,4,0,1,0-2.83-1.17A4,4,0,0,0,124.12,222.19Z" style="fill:#1f77b4;opacity:0.8999999761581421"/><path d="M124.12,222.19a4,4,0,1,0-2.83-1.17A4,4,0,0,0,124.12,222.19Z" style="fill:none;stroke:#1f77b4;stroke-linejoin:round;opacity:0.8999999761581421"/></g><g style="clip-path:url(#clip-path-17)"><path d="M181.67,226.54a4,4,0,1,0-2.83-1.17A4,4,0,0,0,181.67,226.54Z" style="fill:#1f77b4;opacity:0.8999999761581421"/><path d="M181.67,226.54a4,4,0,1,0-2.83-1.17A4,4,0,0,0,181.67,226.54Z" style="fill:none;stroke:#1f77b4;stroke-linejoin:round;opacity:0.8999999761581421"/></g><g style="clip-path:url(#clip-path-18)"><path d="M296.77,195.82a4,4,0,1,0-2.83-1.17A4,4,0,0,0,296.77,195.82Z" style="fill:#1f77b4;opacity:0.8999999761581421"/><path d="M296.77,195.82a4,4,0,1,0-2.83-1.17A4,4,0,0,0,296.77,195.82Z" style="fill:none;stroke:#1f77b4;stroke-linejoin:round;opacity:0.8999999761581421"/></g><g style="clip-path:url(#clip-path-19)"><path d="M527,139a4,4,0,1,0-2.83-1.17A4,4,0,0,0,527,139Z" style="fill:#1f77b4;opacity:0.8999999761581421"/><path d="M527,139a4,4,0,1,0-2.83-1.17A4,4,0,0,0,527,139Z" style="fill:none;stroke:#1f77b4;stroke-linejoin:round;opacity:0.8999999761581421"/></g></g><g style="clip-path:url(#clip-path)"><polyline points="95.34 285.14 124.12 209.08 181.67 185.08 296.76 106.48 526.96 24.01" style="fill:none;stroke:#ff7f0e;stroke-linejoin:round;stroke-width:2.5px;stroke-dasharray:9.25,4;opacity:0.8999999761581421"/><g style="clip-path:url(#clip-path-21)"><rect x="91.34" y="281.14" width="8" height="8" style="fill:#ff7f0e;opacity:0.8999999761581421"/><rect x="91.34" y="281.14" width="8" height="8" style="fill:none;stroke:#ff7f0e;stroke-miterlimit:10;opacity:0.8999999761581421"/></g><g style="clip-path:url(#clip-path-22)"><rect x="120.12" y="205.08" width="8" height="8" style="fill:#ff7f0e;opacity:0.8999999761581421"/><rect x="120.12" y="205.08" width="8" height="8" style="fill:none;stroke:#ff7f0e;stroke-miterlimit:10;opacity:0.8999999761581421"/></g><g style="clip-path:url(#clip-path-23)"><rect x="177.67" y="181.08" width="8" height="8" style="fill:#ff7f0e;opacity:0.8999999761581421"/><rect x="177.67" y="181.08" width="8" height="8" style="fill:none;stroke:#ff7f0e;stroke-miterlimit:10;opacity:0.8999999761581421"/></g><g style="clip-path:url(#clip-path-24)"><rect x="292.77" y="102.48" width="8" height="8" style="fill:#ff7f0e;opacity:0.8999999761581421"/><rect x="292.77" y="102.48" width="8" height="8" style="fill:none;stroke:#ff7f0e;stroke-miterlimit:10;opacity:0.8999999761581421"/></g><g style="clip-path:url(#clip-path-25)"><rect x="522.96" y="20.01" width="8" height="8" style="fill:#ff7f0e;opacity:0.8999999761581421"/><rect x="522.96" y="20.01" width="8" height="8" style="fill:none;stroke:#ff7f0e;stroke-miterlimit:10;opacity:0.8999999761581421"/></g></g><line x1="73.76" y1="377.08" x2="73.76" y2="7.2" style="fill:none;stroke:#000;stroke-linecap:square;stroke-miterlimit:10"/><line x1="73.76" y1="377.08" x2="548.54" y2="377.08" style="fill:none;stroke:#000;stroke-linecap:square;stroke-miterlimit:10"/><rect x="79.76" y="13.2" width="93.65" height="38.85" style="fill:#fff;opacity:0.800000011920929"/><rect x="79.76" y="13.2" width="93.65" height="38.85" style="fill:none;stroke:#000;stroke-miterlimit:10;opacity:0.800000011920929"/><polyline points="84.56 22.93 96.56 22.93 108.56 22.93" style="fill:none;stroke:#1f77b4;stroke-linecap:square;stroke-linejoin:round;stroke-width:2.5px;opacity:0.8999999761581421"/><path d="M96.56,26.92a4,4,0,1,0-2.83-1.17A4,4,0,0,0,96.56,26.92Z" style="fill:#1f77b4;opacity:0.8999999761581421"/><path d="M96.56,26.92a4,4,0,1,0-2.83-1.17A4,4,0,0,0,96.56,26.92Z" style="fill:none;stroke:#1f77b4;stroke-linejoin:round;opacity:0.8999999761581421"/><polygon points="118.82 27.13 118.82 26.5 119.94 26.5 119.94 19 118.76 19 118.76 18.38 121.31 18.38 124.38 24.61 127.45 18.38 129.84 18.38 129.84 19 128.67 19 128.67 26.5 129.79 26.5 129.79 27.13 126.37 27.13 126.37 26.5 127.49 26.5 127.49 19.75 124.49 25.84 123.66 25.84 120.66 19.75 120.66 26.5 121.77 26.5 121.77 27.13 118.82 27.13"/><path d="M134.06,27.28a2.8,2.8,0,0,1-2.18-.89,3.38,3.38,0,0,1-.83-2.38,3.33,3.33,0,0,1,.82-2.38,3.11,3.11,0,0,1,4.38,0,3.38,3.38,0,0,1,.82,2.38,3.38,3.38,0,0,1-.82,2.38A2.84,2.84,0,0,1,134.06,27.28Zm0-.56a1.46,1.46,0,0,0,1.31-.69,3.77,3.77,0,0,0,.44-2,3.85,3.85,0,0,0-.44-2,1.59,1.59,0,0,0-2.62,0,3.75,3.75,0,0,0-.44,2,3.68,3.68,0,0,0,.44,2A1.46,1.46,0,0,0,134.06,26.72Z"/><path d="M143.41,20.89v1.56h-.62a1.1,1.1,0,0,0-.26-.7,1,1,0,0,0-.67-.23,1.48,1.48,0,0,0-1.22.55,2.55,2.55,0,0,0-.42,1.59V26.5h1.25v.62h-3.3V26.5h1v-5h-1V20.9h2.11V22a2.26,2.26,0,0,1,.8-1,2.39,2.39,0,0,1,1.23-.31,3.74,3.74,0,0,1,.55.05A5.29,5.29,0,0,1,143.41,20.89Z"/><path d="M144.71,21.52h-1V20.9h1V19h1.08V20.9h2v.62h-2v4a2,2,0,0,0,.15,1,.66.66,0,0,0,.57.22.73.73,0,0,0,.61-.26,1.43,1.43,0,0,0,.2-.8h.82a1.77,1.77,0,0,1-.47,1.24,1.84,1.84,0,0,1-1.26.38,1.77,1.77,0,0,1-1.32-.41,2,2,0,0,1-.38-1.39Z"/><path d="M151.85,27.28a2.81,2.81,0,0,1-2.19-.89,3.38,3.38,0,0,1-.83-2.38,3.38,3.38,0,0,1,.82-2.38,2.84,2.84,0,0,1,2.2-.9,2.81,2.81,0,0,1,2.18.9,3.38,3.38,0,0,1,.83,2.38,3.38,3.38,0,0,1-.83,2.38A2.8,2.8,0,0,1,151.85,27.28Zm0-.56a1.45,1.45,0,0,0,1.3-.69,3.76,3.76,0,0,0,.45-2,3.84,3.84,0,0,0-.45-2,1.58,1.58,0,0,0-2.61,0,3.75,3.75,0,0,0-.45,2,3.67,3.67,0,0,0,.45,2A1.45,1.45,0,0,0,151.85,26.72Z"/><path d="M156,27.12V26.5h1v-5h-1V20.9H158V22a2.38,2.38,0,0,1,.77-.95,1.94,1.94,0,0,1,1.12-.32,1.87,1.87,0,0,1,1.51.59,2.9,2.9,0,0,1,.49,1.85V26.5h1v.62h-3V26.5h.94v-3a3,3,0,0,0-.29-1.56,1.07,1.07,0,0,0-1-.43,1.33,1.33,0,0,0-1.15.55,2.68,2.68,0,0,0-.39,1.6V26.5h.94v.62Z"/><polyline points="84.56 40.55 96.56 40.55 108.56 40.55" style="fill:none;stroke:#ff7f0e;stroke-linejoin:round;stroke-width:2.5px;stroke-dasharray:9.25,4;opacity:0.8999999761581421"/><rect x="92.56" y="36.55" width="8" height="8" style="fill:#ff7f0e;opacity:0.8999999761581421"/><rect x="92.56" y="36.55" width="8" height="8" style="fill:none;stroke:#ff7f0e;stroke-miterlimit:10;opacity:0.8999999761581421"/><path d="M121.13,40.06h1.72a1.84,1.84,0,0,0,1.31-3,1.81,1.81,0,0,0-1.31-.42h-1.72Zm2.78.35a1.82,1.82,0,0,1,.71.38,2.76,2.76,0,0,1,.53.74l1.27,2.6h1.07v.62h-2.07L124.05,42a3.09,3.09,0,0,0-.72-1,1.53,1.53,0,0,0-.9-.24h-1.3v3.45h1.23v.62h-3.54v-.62h1.12v-7.5h-1.12V36h4.44a3,3,0,0,1,2,.61,2.21,2.21,0,0,1,.7,1.73,1.93,1.93,0,0,1-.51,1.42A2.46,2.46,0,0,1,123.91,40.41Z"/><path d="M133.32,40.86v3.27h1v.62h-2v-.67a2.16,2.16,0,0,1-.83.63,3,3,0,0,1-1.09.2,2.42,2.42,0,0,1-1.66-.54,1.92,1.92,0,0,1-.6-1.49,1.76,1.76,0,0,1,.7-1.49,3.14,3.14,0,0,1,2-.54h1.51v-.43a1.38,1.38,0,0,0-.43-1.09,1.72,1.72,0,0,0-1.21-.4,1.63,1.63,0,0,0-1,.3,1.22,1.22,0,0,0-.48.86h-.56V38.83a8.79,8.79,0,0,1,1.1-.36,5.17,5.17,0,0,1,1-.12,2.77,2.77,0,0,1,2,.65A2.45,2.45,0,0,1,133.32,40.86Zm-1.08,1.93V41.47h-1.39a1.77,1.77,0,0,0-1.2.35,1.33,1.33,0,0,0-.39,1.06,1.38,1.38,0,0,0,.4,1,1.45,1.45,0,0,0,1.08.38,1.41,1.41,0,0,0,1.5-1.5Z"/><path d="M135.11,44.75v-.62h1v-5h-1v-.63h2.11v1.11a2.31,2.31,0,0,1,.77-1,1.87,1.87,0,0,1,1.11-.33,1.91,1.91,0,0,1,1.52.59,2.92,2.92,0,0,1,.49,1.85v3.34h1v.62h-3v-.62H140v-3a3,3,0,0,0-.29-1.56,1.09,1.09,0,0,0-1-.44,1.37,1.37,0,0,0-1.16.56,2.75,2.75,0,0,0-.38,1.59v2.85h.94v.62Z"/><path d="M147.56,41.94v-.61a2.83,2.83,0,0,0-.43-1.7,1.45,1.45,0,0,0-1.25-.6,1.42,1.42,0,0,0-1.26.66,3.61,3.61,0,0,0-.42,1.94,3.71,3.71,0,0,0,.42,2,1.42,1.42,0,0,0,1.26.66,1.47,1.47,0,0,0,1.25-.59A2.85,2.85,0,0,0,147.56,41.94Zm1.08,2.19h1v.62h-2.12v-1a2.09,2.09,0,0,1-.8.86,2.64,2.64,0,0,1-1.21.27,2.32,2.32,0,0,1-1.89-.9,3.71,3.71,0,0,1-.72-2.38,3.67,3.67,0,0,1,.72-2.36,2.34,2.34,0,0,1,1.89-.92,2.52,2.52,0,0,1,1.21.28,2.23,2.23,0,0,1,.8.86V36.25h-1v-.62h2.1Z"/><path d="M153.64,44.91a2.81,2.81,0,0,1-2.19-.89,3.86,3.86,0,0,1,0-4.77,2.84,2.84,0,0,1,2.2-.9,2.81,2.81,0,0,1,2.18.9,3.84,3.84,0,0,1,0,4.77A2.8,2.8,0,0,1,153.64,44.91Zm0-.57a1.47,1.47,0,0,0,1.3-.68,3.8,3.8,0,0,0,.45-2,3.84,3.84,0,0,0-.45-2,1.59,1.59,0,0,0-2.61,0,3.75,3.75,0,0,0-.45,2,3.71,3.71,0,0,0,.45,2A1.46,1.46,0,0,0,153.64,44.34Z"/><path d="M163.46,39.73a2.57,2.57,0,0,1,.8-1,1.87,1.87,0,0,1,1.12-.35,1.78,1.78,0,0,1,1.47.62,2.93,2.93,0,0,1,.48,1.82v3.34h1v.62h-3v-.62h.94V40.91a2.5,2.5,0,0,0-.29-1.36,1.06,1.06,0,0,0-.92-.4,1.28,1.28,0,0,0-1.11.55,2.77,2.77,0,0,0-.37,1.58v2.85h.94v.62h-3v-.62h.94V40.87a2.36,2.36,0,0,0-.29-1.33,1.05,1.05,0,0,0-.92-.39,1.3,1.3,0,0,0-1.11.55,2.77,2.77,0,0,0-.37,1.58v2.85h.94v.62h-3v-.62h1v-5h-1v-.61h2.11v1.11a2.29,2.29,0,0,1,.76-1,1.77,1.77,0,0,1,1-.33,1.94,1.94,0,0,1,1.2.36A1.81,1.81,0,0,1,163.46,39.73Z"/></svg>